<svg width="214" height="214" viewBox="0 0 214 214" fill="none" xmlns="http://www.w3.org/2000/svg">
<g filter="url(#filter0_d)">
<circle cx="107" cy="103" r="70" fill="#FF477C"/>
<circle cx="107" cy="103" r="70" fill="url(#paint0_linear)"/>
</g>
<g filter="url(#filter1_d)">
<path d="M12.5837 92C8.03317 92 4.17417 95.4345 4.04333 99.9832C4.01451 100.985 4 101.991 4 103C4 159.885 50.1147 206 107 206C163.885 206 210 159.885 210 103C210 49.1455 168.668 4.94444 115.995 0.387362C111.043 -0.0410726 107 4.02944 107 9C107 13.9706 111.043 17.9499 115.986 18.4693C158.706 22.958 192 59.0909 192 103C192 149.944 153.944 188 107 188C60.0558 188 22 149.944 22 103C22 102.697 22.0016 102.394 22.0048 102.091C22.061 96.7248 17.9505 92 12.5837 92Z" fill="url(#paint1_linear)"/>
</g>
<defs>
<filter id="filter0_d" x="29" y="29" width="156" height="156" filterUnits="userSpaceOnUse" color-interpolation-filters="sRGB">
<feFlood flood-opacity="0" result="BackgroundImageFix"/>
<feColorMatrix in="SourceAlpha" type="matrix" values="0 0 0 0 0 0 0 0 0 0 0 0 0 0 0 0 0 0 127 0"/>
<feOffset dy="4"/>
<feGaussianBlur stdDeviation="4"/>
<feColorMatrix type="matrix" values="0 0 0 0 1 0 0 0 0 0.278431 0 0 0 0 0.486275 0 0 0 0.4 0"/>
<feBlend mode="normal" in2="BackgroundImageFix" result="effect1_dropShadow"/>
<feBlend mode="normal" in="SourceGraphic" in2="effect1_dropShadow" result="shape"/>
</filter>
<filter id="filter1_d" x="0" y="0.356445" width="214" height="213.644" filterUnits="userSpaceOnUse" color-interpolation-filters="sRGB">
<feFlood flood-opacity="0" result="BackgroundImageFix"/>
<feColorMatrix in="SourceAlpha" type="matrix" values="0 0 0 0 0 0 0 0 0 0 0 0 0 0 0 0 0 0 127 0"/>
<feOffset dy="4"/>
<feGaussianBlur stdDeviation="2"/>
<feColorMatrix type="matrix" values="0 0 0 0 0 0 0 0 0 0 0 0 0 0 0 0 0 0 0.25 0"/>
<feBlend mode="normal" in2="BackgroundImageFix" result="effect1_dropShadow"/>
<feBlend mode="normal" in="SourceGraphic" in2="effect1_dropShadow" result="shape"/>
</filter>
<linearGradient id="paint0_linear" x1="126.5" y1="77" x2="59" y2="163" gradientUnits="userSpaceOnUse">
<stop stop-color="#4779F1"/>
<stop offset="1" stop-color="#FF477C"/>
</linearGradient>
<linearGradient id="paint1_linear" x1="183.5" y1="25.5" x2="38" y2="206" gradientUnits="userSpaceOnUse">
<stop stop-color="#4779F1"/>
<stop offset="0.473958" stop-color="#BB9AD5"/>
<stop offset="0.848958" stop-color="#FFADC5"/>
</linearGradient>
</defs>
</svg>
