<svg width="326" height="116" viewBox="0 0 326 116" fill="none" xmlns="http://www.w3.org/2000/svg">
<g filter="url(#filter0_d)">
<rect x="111" y="6" width="100" height="100" rx="10" fill="#4779F1"/>
<g clip-path="url(#clip0)">
<path d="M185.057 60.2782L176.093 59.6378L170.168 49.7689L167.207 44.8273V43.4586C167.208 41.9732 166.004 40.7684 164.519 40.7674C164.186 40.767 163.856 40.8288 163.546 40.9487L155.028 44.2345L155.672 42.0744C156.18 40.2584 155.355 38.3335 153.69 37.4482L147.007 33.8575C146.52 33.5966 145.915 33.7632 145.63 34.2361L135.827 49.9355L135.62 49.8156C135.124 49.5309 134.492 49.7021 134.208 50.1974C134.202 50.2079 134.196 50.2184 134.19 50.2294L131.121 56.0078C130.856 56.5067 131.041 57.1252 131.535 57.3984L168.863 78.088C169.016 78.1727 169.188 78.2171 169.364 78.2171H184.793C188.219 78.2139 190.997 75.4371 191 72.0103V66.6599C190.989 63.3073 188.4 60.5277 185.057 60.2782ZM173.931 60.0567L172.749 60.4508L163.493 48.4157L165.872 46.6291L173.931 60.0567ZM146.897 36.1468L152.712 39.2678C153.518 39.694 153.921 40.6214 153.682 41.5012L152.827 44.3815L146.889 40.8205L144.833 39.5864L146.897 36.1468ZM140.772 46.0198L141.301 45.1922L144.705 47.7236C146.437 49.0241 147.321 51.166 147.012 53.3102L146.882 56.2998L137.637 50.971L140.772 46.0198ZM184.793 76.1484H169.63L133.423 56.0792L135.513 52.1484L169.793 71.8725C169.951 71.9631 170.129 72.0107 170.31 72.0103H188.931C188.931 74.2954 187.078 76.1484 184.793 76.1484ZM188.931 69.9412H170.586L163.491 65.8561L165.876 63.424C166.271 63.0106 166.255 62.3556 165.841 61.9614C165.436 61.5751 164.797 61.5815 164.399 61.9756L161.639 64.7895L157.708 62.524L161.651 59.37C162.097 59.013 162.169 58.3616 161.812 57.9153C161.455 57.4694 160.804 57.3971 160.358 57.7541L155.782 61.4153L152.414 59.4785L157.524 55.2195C157.964 54.8537 158.023 54.2014 157.658 53.762C157.292 53.3225 156.639 53.263 156.2 53.6283L150.502 58.3776L148.903 57.457L149.07 53.4859C149.453 50.6249 148.254 47.7813 145.939 46.0583L142.414 43.4376L143.746 41.347L152.903 46.841C153.026 46.912 153.163 46.9559 153.304 46.9706C153.328 46.9706 153.35 46.9788 153.375 46.9807C153.4 46.983 153.415 46.988 153.435 46.988C153.563 46.9884 153.69 46.9651 153.809 46.9189L164.288 42.8773C164.48 42.804 164.695 42.8292 164.865 42.9446C165.035 43.0613 165.136 43.2549 165.135 43.4618V44.5998L161.411 47.3926C160.954 47.736 160.862 48.3846 161.205 48.841C161.207 48.8442 161.21 48.8474 161.212 48.8502L171.557 62.2988C171.824 62.649 172.285 62.79 172.703 62.6495L175.611 61.6799L184.907 62.3441C187.169 62.5117 188.922 64.3912 188.931 66.6599V69.9412Z" fill="white"/>
<path d="M137.207 63.7344H132.035C131.463 63.7344 131 64.1976 131 64.7689C131 65.3402 131.463 65.8035 132.035 65.8035H137.207C137.778 65.8035 138.241 65.3402 138.241 64.7689C138.241 64.1976 137.778 63.7344 137.207 63.7344Z" fill="white"/>
<path d="M131 70.9757C131 71.547 131.463 72.0103 132.035 72.0103H145.483C146.054 72.0103 146.517 71.547 146.517 70.9757C146.517 70.4044 146.054 69.9412 145.483 69.9412H132.035C131.463 69.9412 131 70.4044 131 70.9757Z" fill="white"/>
<path d="M156.862 76.1484H132.035C131.463 76.1484 131 76.6112 131 77.1825C131 77.7538 131.463 78.2171 132.035 78.2171H156.862C157.434 78.2171 157.896 77.7538 157.896 77.1825C157.896 76.6112 157.434 76.1484 156.862 76.1484Z" fill="white"/>
</g>
</g>
<path d="M97.7827 59.8696C93.897 59.8696 90.7393 63.0274 90.7393 66.9131V81.0001C90.7393 84.8858 93.897 88.0435 97.7827 88.0435C101.668 88.0435 104.826 84.8858 104.826 81.0001V66.9131C104.826 63.0274 101.668 59.8696 97.7827 59.8696Z" fill="#CCE4FF"/>
<path d="M60.2173 78.6521C64.103 78.6521 67.2608 75.4943 67.2608 71.6086V62.2173C67.2608 58.3316 64.103 55.1738 60.2173 55.1738C56.3316 55.1738 53.1738 58.3316 53.1738 62.2173V71.6086C53.1738 75.4943 56.3316 78.6521 60.2173 78.6521Z" fill="#CCE4FF"/>
<path d="M97.7826 58.6957C93.2515 58.6957 89.5652 62.3819 89.5652 66.913V77.4783H79C74.4689 77.4783 70.7826 81.1645 70.7826 85.6957V86.8696H61.3913V79.7321C65.3676 79.1595 68.4348 75.7397 68.4348 71.6087V62.2174C68.4348 57.6862 64.7485 54 60.2174 54C55.6862 54 52 57.6862 52 62.2174V71.6087C52 75.7397 55.0672 79.1595 59.0435 79.7321V86.8696H53.1739C52.5262 86.8696 52 87.3958 52 88.0435C52 88.6912 52.5262 89.2174 53.1739 89.2174H79C82.2363 89.2174 84.8696 91.8507 84.8696 95.087V96.2609H79C74.4689 96.2609 70.7826 99.9471 70.7826 104.478V105.652H53.1739C52.5262 105.652 52 106.178 52 106.826C52 107.474 52.5262 108 53.1739 108H104.826C105.474 108 106 107.474 106 106.826C106 106.178 105.474 105.652 104.826 105.652H73.1304V104.478C73.1304 101.242 75.7637 98.6087 79 98.6087H104.826C105.474 98.6087 106 98.0825 106 97.4348C106 96.7871 105.474 96.2609 104.826 96.2609H98.9565V89.1234C102.933 88.5508 106 85.1311 106 81V66.913C106 62.3819 102.314 58.6957 97.7826 58.6957ZM54.3478 71.6087V62.2174C54.3478 58.9811 56.9811 56.3478 60.2174 56.3478C63.4537 56.3478 66.087 58.9811 66.087 62.2174V71.6087C66.087 74.4426 64.0664 76.8139 61.3913 77.3596V64.5652C61.3913 63.9175 60.8651 63.3913 60.2174 63.3913C59.5697 63.3913 59.0435 63.9175 59.0435 64.5652V77.3596C56.3684 76.8139 54.3478 74.4426 54.3478 71.6087ZM87.2174 96.2609V95.087C87.2174 90.5558 83.5311 86.8696 79 86.8696H73.1304V85.6957C73.1304 82.4594 75.7637 79.8261 79 79.8261H89.5652V81C89.5652 85.1311 92.6324 88.5508 96.6087 89.1234V96.2609H87.2174ZM103.652 81C103.652 83.8339 101.632 86.2052 98.9565 86.7509V69.2609C98.9565 68.6132 98.4303 68.087 97.7826 68.087C97.1349 68.087 96.6087 68.6132 96.6087 69.2609V86.7509C93.9336 86.2052 91.913 83.835 91.913 81V66.913C91.913 63.6768 94.5463 61.0435 97.7826 61.0435C101.019 61.0435 103.652 63.6768 103.652 66.913V81Z" fill="#759CF5"/>
<path d="M53.1739 98.6086H67.2609C67.9086 98.6086 68.4348 98.0824 68.4348 97.4347C68.4348 96.7869 67.9086 96.2607 67.2609 96.2607H53.1739C52.5262 96.2607 52 96.7869 52 97.4347C52 98.0824 52.5262 98.6086 53.1739 98.6086Z" fill="#759CF5"/>
<path d="M79.0004 70.4347C82.2367 70.4347 84.87 67.8014 84.87 64.5651C84.87 61.3288 82.2367 58.6956 79.0004 58.6956C75.7641 58.6956 73.1309 61.3288 73.1309 64.5651C73.1309 67.8014 75.7641 70.4347 79.0004 70.4347ZM79.0004 61.0434C80.9419 61.0434 82.5222 62.6237 82.5222 64.5651C82.5222 66.5066 80.9419 68.0869 79.0004 68.0869C77.059 68.0869 75.4787 66.5066 75.4787 64.5651C75.4787 62.6237 77.059 61.0434 79.0004 61.0434Z" fill="#759CF5"/>
<path d="M317.783 60.8696C313.897 60.8696 310.739 64.0274 310.739 67.9131V82.0001C310.739 85.8858 313.897 89.0435 317.783 89.0435C321.668 89.0435 324.826 85.8858 324.826 82.0001V67.9131C324.826 64.0274 321.668 60.8696 317.783 60.8696Z" fill="#CCE4FF"/>
<path d="M280.217 79.6521C284.103 79.6521 287.261 76.4943 287.261 72.6086V63.2173C287.261 59.3316 284.103 56.1738 280.217 56.1738C276.332 56.1738 273.174 59.3316 273.174 63.2173V72.6086C273.174 76.4943 276.332 79.6521 280.217 79.6521Z" fill="#CCE4FF"/>
<path d="M317.783 59.6957C313.251 59.6957 309.565 63.3819 309.565 67.913V78.4783H299C294.469 78.4783 290.783 82.1645 290.783 86.6957V87.8696H281.391V80.7321C285.368 80.1595 288.435 76.7397 288.435 72.6087V63.2174C288.435 58.6862 284.749 55 280.217 55C275.686 55 272 58.6862 272 63.2174V72.6087C272 76.7397 275.067 80.1595 279.043 80.7321V87.8696H273.174C272.526 87.8696 272 88.3958 272 89.0435C272 89.6912 272.526 90.2174 273.174 90.2174H299C302.236 90.2174 304.87 92.8507 304.87 96.087V97.2609H299C294.469 97.2609 290.783 100.947 290.783 105.478V106.652H273.174C272.526 106.652 272 107.178 272 107.826C272 108.474 272.526 109 273.174 109H324.826C325.474 109 326 108.474 326 107.826C326 107.178 325.474 106.652 324.826 106.652H293.13V105.478C293.13 102.242 295.764 99.6087 299 99.6087H324.826C325.474 99.6087 326 99.0825 326 98.4348C326 97.7871 325.474 97.2609 324.826 97.2609H318.957V90.1234C322.933 89.5508 326 86.1311 326 82V67.913C326 63.3819 322.314 59.6957 317.783 59.6957ZM274.348 72.6087V63.2174C274.348 59.9811 276.981 57.3478 280.217 57.3478C283.454 57.3478 286.087 59.9811 286.087 63.2174V72.6087C286.087 75.4426 284.066 77.8139 281.391 78.3596V65.5652C281.391 64.9175 280.865 64.3913 280.217 64.3913C279.57 64.3913 279.043 64.9175 279.043 65.5652V78.3596C276.368 77.8139 274.348 75.4426 274.348 72.6087ZM307.217 97.2609V96.087C307.217 91.5558 303.531 87.8696 299 87.8696H293.13V86.6957C293.13 83.4594 295.764 80.8261 299 80.8261H309.565V82C309.565 86.1311 312.632 89.5508 316.609 90.1234V97.2609H307.217ZM323.652 82C323.652 84.8339 321.632 87.2052 318.957 87.7509V70.2609C318.957 69.6132 318.43 69.087 317.783 69.087C317.135 69.087 316.609 69.6132 316.609 70.2609V87.7509C313.934 87.2052 311.913 84.835 311.913 82V67.913C311.913 64.6768 314.546 62.0435 317.783 62.0435C321.019 62.0435 323.652 64.6768 323.652 67.913V82Z" fill="#759CF5"/>
<path d="M273.174 99.6086H287.261C287.909 99.6086 288.435 99.0824 288.435 98.4347C288.435 97.7869 287.909 97.2607 287.261 97.2607H273.174C272.526 97.2607 272 97.7869 272 98.4347C272 99.0824 272.526 99.6086 273.174 99.6086Z" fill="#759CF5"/>
<path d="M299 71.4347C302.237 71.4347 304.87 68.8014 304.87 65.5651C304.87 62.3288 302.237 59.6956 299 59.6956C295.764 59.6956 293.131 62.3288 293.131 65.5651C293.131 68.8014 295.764 71.4347 299 71.4347ZM299 62.0434C300.942 62.0434 302.522 63.6237 302.522 65.5651C302.522 67.5066 300.942 69.0869 299 69.0869C297.059 69.0869 295.479 67.5066 295.479 65.5651C295.479 63.6237 297.059 62.0434 299 62.0434Z" fill="#759CF5"/>
<path d="M45.7827 59.8696C41.897 59.8696 38.7393 63.0274 38.7393 66.9131V81.0001C38.7393 84.8858 41.897 88.0435 45.7827 88.0435C49.6685 88.0435 52.8262 84.8858 52.8262 81.0001V66.9131C52.8262 63.0274 49.6685 59.8696 45.7827 59.8696Z" fill="#CCE4FF"/>
<path d="M8.21731 78.6521C12.103 78.6521 15.2608 75.4943 15.2608 71.6086V62.2173C15.2608 58.3316 12.103 55.1738 8.21731 55.1738C4.33159 55.1738 1.17383 58.3316 1.17383 62.2173V71.6086C1.17383 75.4943 4.33159 78.6521 8.21731 78.6521Z" fill="#CCE4FF"/>
<path d="M45.7826 58.6957C41.2515 58.6957 37.5652 62.3819 37.5652 66.913V77.4783H27C22.4689 77.4783 18.7826 81.1645 18.7826 85.6957V86.8696H9.3913V79.7321C13.3676 79.1595 16.4348 75.7397 16.4348 71.6087V62.2174C16.4348 57.6862 12.7485 54 8.21739 54C3.68625 54 0 57.6862 0 62.2174V71.6087C0 75.7397 3.06719 79.1595 7.04348 79.7321V86.8696H1.17391C0.526197 86.8696 0 87.3958 0 88.0435C0 88.6912 0.526197 89.2174 1.17391 89.2174H27C30.2363 89.2174 32.8696 91.8507 32.8696 95.087V96.2609H27C22.4689 96.2609 18.7826 99.9471 18.7826 104.478V105.652H1.17391C0.526197 105.652 0 106.178 0 106.826C0 107.474 0.526197 108 1.17391 108H52.8261C53.4738 108 54 107.474 54 106.826C54 106.178 53.4738 105.652 52.8261 105.652H21.1304V104.478C21.1304 101.242 23.7637 98.6087 27 98.6087H52.8261C53.4738 98.6087 54 98.0825 54 97.4348C54 96.7871 53.4738 96.2609 52.8261 96.2609H46.9565V89.1234C50.9328 88.5508 54 85.1311 54 81V66.913C54 62.3819 50.3138 58.6957 45.7826 58.6957ZM2.34783 71.6087V62.2174C2.34783 58.9811 4.98111 56.3478 8.21739 56.3478C11.4537 56.3478 14.087 58.9811 14.087 62.2174V71.6087C14.087 74.4426 12.0664 76.8139 9.3913 77.3596V64.5652C9.3913 63.9175 8.86511 63.3913 8.21739 63.3913C7.56968 63.3913 7.04348 63.9175 7.04348 64.5652V77.3596C4.36835 76.8139 2.34783 74.4426 2.34783 71.6087ZM35.2174 96.2609V95.087C35.2174 90.5558 31.5311 86.8696 27 86.8696H21.1304V85.6957C21.1304 82.4594 23.7637 79.8261 27 79.8261H37.5652V81C37.5652 85.1311 40.6324 88.5508 44.6087 89.1234V96.2609H35.2174ZM51.6522 81C51.6522 83.8339 49.6316 86.2052 46.9565 86.7509V69.2609C46.9565 68.6132 46.4303 68.087 45.7826 68.087C45.1349 68.087 44.6087 68.6132 44.6087 69.2609V86.7509C41.9336 86.2052 39.913 83.835 39.913 81V66.913C39.913 63.6768 42.5463 61.0435 45.7826 61.0435C49.0189 61.0435 51.6522 63.6768 51.6522 66.913V81Z" fill="#759CF5"/>
<path d="M1.17391 98.6086H15.2609C15.9086 98.6086 16.4348 98.0824 16.4348 97.4347C16.4348 96.7869 15.9086 96.2607 15.2609 96.2607H1.17391C0.526197 96.2607 0 96.7869 0 97.4347C0 98.0824 0.526197 98.6086 1.17391 98.6086Z" fill="#759CF5"/>
<path d="M27.0004 70.4347C30.2367 70.4347 32.87 67.8014 32.87 64.5651C32.87 61.3288 30.2367 58.6956 27.0004 58.6956C23.7641 58.6956 21.1309 61.3288 21.1309 64.5651C21.1309 67.8014 23.7641 70.4347 27.0004 70.4347ZM27.0004 61.0434C28.9419 61.0434 30.5222 62.6237 30.5222 64.5651C30.5222 66.5066 28.9419 68.0869 27.0004 68.0869C25.059 68.0869 23.4787 66.5066 23.4787 64.5651C23.4787 62.6237 25.059 61.0434 27.0004 61.0434Z" fill="#759CF5"/>
<path d="M265.783 60.8696C261.897 60.8696 258.739 64.0274 258.739 67.9131V82.0001C258.739 85.8858 261.897 89.0435 265.783 89.0435C269.668 89.0435 272.826 85.8858 272.826 82.0001V67.9131C272.826 64.0274 269.668 60.8696 265.783 60.8696Z" fill="#CCE4FF"/>
<path d="M228.217 79.6521C232.103 79.6521 235.261 76.4943 235.261 72.6086V63.2173C235.261 59.3316 232.103 56.1738 228.217 56.1738C224.332 56.1738 221.174 59.3316 221.174 63.2173V72.6086C221.174 76.4943 224.332 79.6521 228.217 79.6521Z" fill="#CCE4FF"/>
<path d="M265.783 59.6957C261.251 59.6957 257.565 63.3819 257.565 67.913V78.4783H247C242.469 78.4783 238.783 82.1645 238.783 86.6957V87.8696H229.391V80.7321C233.368 80.1595 236.435 76.7397 236.435 72.6087V63.2174C236.435 58.6862 232.749 55 228.217 55C223.686 55 220 58.6862 220 63.2174V72.6087C220 76.7397 223.067 80.1595 227.043 80.7321V87.8696H221.174C220.526 87.8696 220 88.3958 220 89.0435C220 89.6912 220.526 90.2174 221.174 90.2174H247C250.236 90.2174 252.87 92.8507 252.87 96.087V97.2609H247C242.469 97.2609 238.783 100.947 238.783 105.478V106.652H221.174C220.526 106.652 220 107.178 220 107.826C220 108.474 220.526 109 221.174 109H272.826C273.474 109 274 108.474 274 107.826C274 107.178 273.474 106.652 272.826 106.652H241.13V105.478C241.13 102.242 243.764 99.6087 247 99.6087H272.826C273.474 99.6087 274 99.0825 274 98.4348C274 97.7871 273.474 97.2609 272.826 97.2609H266.957V90.1234C270.933 89.5508 274 86.1311 274 82V67.913C274 63.3819 270.314 59.6957 265.783 59.6957ZM222.348 72.6087V63.2174C222.348 59.9811 224.981 57.3478 228.217 57.3478C231.454 57.3478 234.087 59.9811 234.087 63.2174V72.6087C234.087 75.4426 232.066 77.8139 229.391 78.3596V65.5652C229.391 64.9175 228.865 64.3913 228.217 64.3913C227.57 64.3913 227.043 64.9175 227.043 65.5652V78.3596C224.368 77.8139 222.348 75.4426 222.348 72.6087ZM255.217 97.2609V96.087C255.217 91.5558 251.531 87.8696 247 87.8696H241.13V86.6957C241.13 83.4594 243.764 80.8261 247 80.8261H257.565V82C257.565 86.1311 260.632 89.5508 264.609 90.1234V97.2609H255.217ZM271.652 82C271.652 84.8339 269.632 87.2052 266.957 87.7509V70.2609C266.957 69.6132 266.43 69.087 265.783 69.087C265.135 69.087 264.609 69.6132 264.609 70.2609V87.7509C261.934 87.2052 259.913 84.835 259.913 82V67.913C259.913 64.6768 262.546 62.0435 265.783 62.0435C269.019 62.0435 271.652 64.6768 271.652 67.913V82Z" fill="#759CF5"/>
<path d="M221.174 99.6086H235.261C235.909 99.6086 236.435 99.0824 236.435 98.4347C236.435 97.7869 235.909 97.2607 235.261 97.2607H221.174C220.526 97.2607 220 97.7869 220 98.4347C220 99.0824 220.526 99.6086 221.174 99.6086Z" fill="#759CF5"/>
<path d="M247 71.4347C250.237 71.4347 252.87 68.8014 252.87 65.5651C252.87 62.3288 250.237 59.6956 247 59.6956C243.764 59.6956 241.131 62.3288 241.131 65.5651C241.131 68.8014 243.764 71.4347 247 71.4347ZM247 62.0434C248.942 62.0434 250.522 63.6237 250.522 65.5651C250.522 67.5066 248.942 69.0869 247 69.0869C245.059 69.0869 243.479 67.5066 243.479 65.5651C243.479 63.6237 245.059 62.0434 247 62.0434Z" fill="#759CF5"/>
<defs>
<filter id="filter0_d" x="103" y="0" width="116" height="116" filterUnits="userSpaceOnUse" color-interpolation-filters="sRGB">
<feFlood flood-opacity="0" result="BackgroundImageFix"/>
<feColorMatrix in="SourceAlpha" type="matrix" values="0 0 0 0 0 0 0 0 0 0 0 0 0 0 0 0 0 0 127 0"/>
<feOffset dy="2"/>
<feGaussianBlur stdDeviation="4"/>
<feColorMatrix type="matrix" values="0 0 0 0 0 0 0 0 0 0 0 0 0 0 0 0 0 0 0.16 0"/>
<feBlend mode="normal" in2="BackgroundImageFix" result="effect1_dropShadow"/>
<feBlend mode="normal" in="SourceGraphic" in2="effect1_dropShadow" result="shape"/>
</filter>
<clipPath id="clip0">
<rect width="60" height="60" fill="white" transform="translate(131 26)"/>
</clipPath>
</defs>
</svg>
