<svg width="15" height="20" viewBox="0 0 15 20" fill="none" xmlns="http://www.w3.org/2000/svg">
<path d="M7.18637 5.01644C4.41602 5.01644 2.16992 2.77034 2.16992 0C3.55507 0 4.80936 0.561695 5.71733 1.46961C6.62467 2.377 7.18637 3.63124 7.18637 5.01644Z" fill="#FF477C"/>
<path d="M7.20897 8.60195C7.00668 8.60195 6.84277 8.438 6.84277 8.23576V5.64153C6.84277 4.34198 7.4864 3.13134 8.56448 2.40315C8.73215 2.28987 8.95973 2.33401 9.07291 2.50163C9.18608 2.66925 9.14204 2.89688 8.97442 3.01006C8.09824 3.60192 7.57517 4.58567 7.57517 5.64158V8.23581C7.57517 8.438 7.41126 8.60195 7.20897 8.60195Z" fill="#526071"/>
<path d="M8.59132 6.03369C12.6253 6.03369 15.4362 10.0379 14.0657 13.8322L12.8197 17.2798C12.7166 17.5649 12.5833 17.8335 12.4242 18.0815C12.2064 18.4199 11.9398 18.7211 11.6366 18.976H11.6361C11.3617 19.207 11.057 19.3998 10.7304 19.5502C9.96772 19.8998 9.0952 19.9218 8.3052 19.642C8.11819 19.5761 7.92728 19.5277 7.73393 19.496C7.56011 19.4677 7.38385 19.454 7.20856 19.454C6.83749 19.454 6.4669 19.5165 6.11193 19.642C5.84876 19.7348 5.57729 19.7948 5.30337 19.8202C4.75359 19.871 4.19551 19.7836 3.68674 19.5502C2.73415 19.1132 1.96904 18.3086 1.59699 17.2798L0.351435 13.8322C-1.0196 10.0379 1.79131 6.03369 5.82532 6.03369H7.20856H8.59132Z" fill="#FF6A95"/>
</svg>
