<svg width="23" height="23" viewBox="0 0 23 23" fill="none" xmlns="http://www.w3.org/2000/svg">
<g clip-path="url(#clip0)">
<path d="M19.3212 1.82617L18.2959 2.85149V3.94779L19.3212 2.92252V1.82617Z" fill="#F4BC1E"/>
<path d="M20.077 3.6792L19.0518 4.70446H20.1481L21.1733 3.6792H20.077Z" fill="#F4BC1E"/>
<path d="M3.9873 13.7116C3.9873 16.6345 6.36529 19.0124 9.28822 19.0124C12.2111 19.0124 14.5891 16.6344 14.5891 13.7116C14.5891 12.4423 14.1405 11.276 13.3939 10.3624L12.0771 11.6792C12.4941 12.2498 12.7411 12.9522 12.7411 13.7115C12.7411 15.6154 11.1921 17.1643 9.28827 17.1643C7.3844 17.1643 5.83549 15.6154 5.83549 13.7115C5.83549 11.8076 7.3844 10.2587 9.28827 10.2587C10.0476 10.2587 10.75 10.5057 11.3206 10.9227L12.6374 9.6059C11.7238 8.8592 10.5574 8.41064 9.28822 8.41064C6.36524 8.41064 3.9873 10.7886 3.9873 13.7116Z" fill="white"/>
<path d="M15.4626 8.29343L14.1529 9.60315C15.0917 10.7131 15.6588 12.1472 15.6588 13.7114C15.6588 17.2242 12.8009 20.0821 9.28809 20.0821C5.7753 20.0821 2.91741 17.2242 2.91741 13.7114C2.91741 10.1986 5.7753 7.34075 9.28809 7.34075C10.8523 7.34075 12.2864 7.90778 13.3964 8.84666L14.7061 7.53695C13.2585 6.2651 11.3619 5.49268 9.28804 5.49268C4.75629 5.49273 1.06934 9.17963 1.06934 13.7115C1.06934 18.2433 4.75629 21.9302 9.28809 21.9302C13.8199 21.9302 17.5068 18.2433 17.5068 13.7115C17.5068 11.6376 16.7344 9.74104 15.4626 8.29343Z" fill="white"/>
<path d="M9.28865 7.34082C5.77585 7.34082 2.91797 10.1987 2.91797 13.7115C2.91797 17.2243 5.77585 20.0821 9.28865 20.0821C12.8014 20.0821 15.6593 17.2242 15.6593 13.7115C15.6593 12.1472 15.0923 10.7132 14.1534 9.60322L13.3943 10.3624C14.141 11.276 14.5895 12.4423 14.5895 13.7116C14.5895 16.6345 12.2116 19.0124 9.28859 19.0124C6.36562 19.0124 3.98768 16.6344 3.98768 13.7116C3.98768 10.7887 6.36567 8.41064 9.28859 8.41064C10.5578 8.41064 11.7241 8.8592 12.6378 9.60589L13.3969 8.84673C12.287 7.90785 10.8529 7.34082 9.28865 7.34082Z" fill="#F7316E"/>
<path d="M6.90527 13.7116C6.90527 15.0256 7.97429 16.0946 9.28829 16.0946C10.6023 16.0946 11.6713 15.0257 11.6713 13.7116C11.6713 13.2479 11.5377 12.8151 11.3077 12.4487L9.66656 14.0898C9.5621 14.1943 9.42522 14.2465 9.28834 14.2465C9.15147 14.2465 9.01453 14.1943 8.91013 14.0898C8.70125 13.881 8.70125 13.5423 8.91013 13.3334L10.5513 11.6922C10.1849 11.4622 9.75203 11.3286 9.28834 11.3286C7.97424 11.3286 6.90527 12.3976 6.90527 13.7116Z" fill="#F7316E"/>
<path d="M22.9593 2.93986C22.8765 2.74002 22.6815 2.60967 22.4651 2.60967H20.3908V0.53534C20.3908 0.31898 20.2605 0.123961 20.0606 0.0411612C19.8607 -0.0415318 19.6307 0.00420076 19.4777 0.157124L17.3827 2.25216C17.2824 2.3525 17.226 2.48852 17.226 2.63037V5.01804L15.4687 6.77529C13.7663 5.25505 11.5921 4.42341 9.28852 4.42341C6.80554 4.42341 4.47248 5.38909 2.71908 7.14249C0.965679 8.89589 0 11.2289 0 13.7119C0 16.1949 0.965679 18.528 2.71908 20.2814C4.47248 22.0348 6.80554 23.0005 9.28852 23.0005C11.7715 23.0005 14.1046 22.0348 15.858 20.2814C17.6114 18.528 18.577 16.1949 18.577 13.7119C18.577 11.4083 17.7454 9.23415 16.2251 7.53178L17.9824 5.77447H20.37C20.5119 5.77447 20.648 5.7181 20.7482 5.6178L22.8433 3.52277C22.9963 3.3698 23.0421 3.13974 22.9593 2.93986ZM9.28852 21.9307C4.75672 21.9307 1.06977 18.2437 1.06977 13.7119C1.06977 9.18013 4.75672 5.49318 9.28852 5.49318C11.3624 5.49318 13.2589 6.2656 14.7066 7.53745L13.3969 8.84717L12.6377 9.60633L11.3209 10.9231C10.7503 10.5061 10.0478 10.2592 9.28858 10.2592C7.38471 10.2592 5.83579 11.8081 5.83579 13.7119C5.83579 15.6158 7.38471 17.1647 9.28858 17.1647C11.1924 17.1647 12.7414 15.6158 12.7414 13.7119C12.7414 12.9526 12.4944 12.2502 12.0774 11.6796L13.3942 10.3628L14.1533 9.60365L15.4631 8.29393C16.7349 9.74154 17.5073 11.6381 17.5073 13.712C17.5073 18.2437 13.8204 21.9307 9.28852 21.9307ZM8.91031 13.3337C8.70143 13.5425 8.70143 13.8812 8.91031 14.0901C9.01477 14.1946 9.15165 14.2468 9.28852 14.2468C9.4254 14.2468 9.56233 14.1946 9.66674 14.0901L11.3079 12.449C11.5379 12.8154 11.6715 13.2482 11.6715 13.7119C11.6715 15.0259 10.6025 16.0949 9.28847 16.0949C7.97447 16.0949 6.90546 15.026 6.90546 13.7119C6.90546 12.3979 7.97447 11.3289 9.28847 11.3289C9.75216 11.3289 10.185 11.4625 10.5514 11.6925L8.91031 13.3337ZM19.0522 4.7047L20.0774 3.67944H21.1737L20.1485 4.7047H19.0522ZM18.2957 2.85198L19.321 1.82666V2.92301L18.2957 3.94827V2.85198Z" fill="black"/>
</g>
<defs>
<clipPath id="clip0">
<rect width="23" height="23" fill="white"/>
</clipPath>
</defs>
</svg>
