<svg width="116" height="116" viewBox="0 0 116 116" fill="none" xmlns="http://www.w3.org/2000/svg">
<g filter="url(#filter0_d)">
<circle cx="58" cy="56" r="50" fill="#4779F1"/>
</g>
<path d="M87.873 53.0727H79.9309C79.5268 53.0727 79.1393 52.9121 78.8536 52.6264C78.5679 52.3407 78.4074 51.9533 78.4074 51.5492C78.402 47.0319 76.6045 42.7014 73.4093 39.5081C70.2142 36.3149 65.8825 34.5199 61.3652 34.5172C60.9612 34.5172 60.5737 34.3567 60.288 34.071C60.0023 33.7853 59.8418 33.3978 59.8418 32.9937V25.0312C59.8418 24.6272 60.0023 24.2397 60.288 23.954C60.5737 23.6683 60.9612 23.5078 61.3652 23.5078C68.798 23.5186 75.9232 26.4767 81.178 31.7334C86.4329 36.9902 89.3884 44.1164 89.3965 51.5492C89.3965 51.9533 89.236 52.3407 88.9503 52.6264C88.6646 52.9121 88.2771 53.0727 87.873 53.0727ZM81.3934 50.0258H86.309C85.9318 43.9378 83.3433 38.1974 79.0302 33.8843C74.7171 29.5712 68.9767 26.9826 62.8887 26.6055V31.5211C67.6731 31.8919 72.1674 33.9606 75.5606 37.3538C78.9539 40.747 81.0225 45.2414 81.3934 50.0258Z" fill="white"/>
<path d="M61.415 87.4922C61.011 87.4922 60.6235 87.3317 60.3378 87.046C60.0521 86.7603 59.8916 86.3728 59.8916 85.9687V78.0164C59.8916 77.6124 60.0521 77.2249 60.3378 76.9392C60.6235 76.6535 61.011 76.493 61.415 76.493C65.9306 76.4876 70.2596 74.6914 73.4526 71.4985C76.6455 68.3055 78.4417 63.9765 78.4471 59.4609C78.4471 59.0569 78.6076 58.6694 78.8933 58.3837C79.179 58.098 79.5665 57.9375 79.9705 57.9375H87.9533C88.3574 57.9375 88.7448 58.098 89.0305 58.3837C89.3162 58.6694 89.4768 59.0569 89.4768 59.4609C89.4687 66.8981 86.5086 74.0279 81.2469 79.2839C75.9852 84.5399 68.8522 87.4922 61.415 87.4922ZM62.9385 79.4891V84.4047C69.025 84.0233 74.7629 81.4333 79.0752 77.1211C83.3874 72.8088 85.9774 67.0709 86.3588 60.9844H81.4432C81.0703 65.7681 79.001 70.2612 75.6082 73.6541C72.2153 77.0469 67.7222 79.1162 62.9385 79.4891Z" fill="white"/>
<path d="M55.5746 84.3331C51.8479 84.404 48.1444 83.7313 44.6808 82.3542C41.2172 80.9771 38.0628 78.9233 35.4022 76.3128C32.7416 73.7024 30.6282 70.5877 29.1854 67.1509C27.7426 63.7141 26.9995 60.0241 26.9995 56.2968C26.9995 52.5694 27.7426 48.8795 29.1854 45.4427C30.6282 42.0058 32.7416 38.8912 35.4022 36.2807C38.0628 33.6703 41.2172 31.6165 44.6808 30.2394C48.1444 28.8623 51.8479 28.1895 55.5746 28.2604C55.9786 28.2604 56.3661 28.421 56.6518 28.7067C56.9375 28.9924 57.098 29.3798 57.098 29.7839V82.8097C57.098 83.2137 56.9375 83.6012 56.6518 83.8869C56.3661 84.1726 55.9786 84.3331 55.5746 84.3331ZM54.0511 31.3479C47.6953 31.7328 41.7261 34.5289 37.3618 39.1655C32.9976 43.802 30.5674 49.9293 30.5674 56.2968C30.5674 62.6642 32.9976 68.7916 37.3618 73.4281C41.7261 78.0646 47.6953 80.8607 54.0511 81.2456V31.3479Z" fill="white"/>
<path d="M61.415 79.5398C61.011 79.5398 60.6235 79.3793 60.3378 79.0936C60.0521 78.8079 59.8916 78.4204 59.8916 78.0164V59.4609C59.8916 59.0569 60.0521 58.6694 60.3378 58.3837C60.6235 58.098 61.011 57.9375 61.415 57.9375H79.9705C80.3745 57.9375 80.762 58.098 81.0477 58.3837C81.3334 58.6694 81.4939 59.0569 81.4939 59.4609C81.4886 64.7845 79.3714 69.8886 75.607 73.6529C71.8427 77.4173 66.7386 79.5345 61.415 79.5398ZM62.9385 60.9844V76.432C66.9122 76.0668 70.6327 74.322 73.4544 71.5003C76.2761 68.6786 78.0209 64.9581 78.3861 60.9844H62.9385Z" fill="white"/>
<path d="M55.5754 76.391C50.2474 76.391 45.1377 74.2745 41.3703 70.5071C37.6028 66.7396 35.4863 61.6299 35.4863 56.302C35.4863 50.974 37.6028 45.8643 41.3703 42.0968C45.1377 38.3294 50.2474 36.2129 55.5754 36.2129C55.9794 36.2129 56.3669 36.3734 56.6526 36.6591C56.9383 36.9448 57.0988 37.3323 57.0988 37.7363V74.8676C57.0988 75.2716 56.9383 75.6591 56.6526 75.9448C56.3669 76.2305 55.9794 76.391 55.5754 76.391ZM54.052 39.3309C49.819 39.7187 45.8838 41.6744 43.0186 44.8142C40.1533 47.9541 38.5648 52.0513 38.5648 56.302C38.5648 60.5526 40.1533 64.6498 43.0186 67.7897C45.8838 70.9295 49.819 72.8852 54.052 73.273V39.3309Z" fill="white"/>
<path d="M44.7695 57.8258C44.3655 57.8258 43.978 57.6653 43.6923 57.3796C43.4066 57.0939 43.2461 56.7064 43.2461 56.3023C43.2488 53.0331 44.5487 49.8986 46.8603 47.5869C49.172 45.2752 52.3066 43.9753 55.5758 43.9727C55.9798 43.9727 56.3673 44.1332 56.653 44.4189C56.9387 44.7046 57.0992 45.0921 57.0992 45.4961C57.0992 45.9001 56.9387 46.2876 56.653 46.5733C56.3673 46.859 55.9798 47.0195 55.5758 47.0195C53.1182 47.0276 50.7638 48.0088 49.0279 49.7485C47.292 51.4882 46.316 53.8447 46.3133 56.3023C46.3133 56.5041 46.2732 56.7039 46.1954 56.8901C46.1176 57.0762 46.0035 57.2451 45.8599 57.3868C45.7163 57.5286 45.5459 57.6403 45.3588 57.7157C45.1716 57.791 44.9713 57.8285 44.7695 57.8258Z" fill="white"/>
<path d="M79.9309 53.0721H61.3652C60.9612 53.0721 60.5737 52.9116 60.288 52.6259C60.0023 52.3402 59.8418 51.9527 59.8418 51.5486V32.9932C59.8418 32.5891 60.0023 32.2016 60.288 31.9159C60.5737 31.6302 60.9612 31.4697 61.3652 31.4697C66.6898 31.4751 71.7948 33.592 75.5608 37.356C79.3268 41.1201 81.4462 46.2241 81.4543 51.5486C81.4543 51.9527 81.2938 52.3402 81.0081 52.6259C80.7224 52.9116 80.3349 53.0721 79.9309 53.0721ZM62.8887 50.0252H78.3363C77.973 46.0508 76.2288 42.3292 73.4067 39.5071C70.5847 36.6851 66.8631 34.9408 62.8887 34.5775V50.0252Z" fill="white"/>
<defs>
<filter id="filter0_d" x="0" y="0" width="116" height="116" filterUnits="userSpaceOnUse" color-interpolation-filters="sRGB">
<feFlood flood-opacity="0" result="BackgroundImageFix"/>
<feColorMatrix in="SourceAlpha" type="matrix" values="0 0 0 0 0 0 0 0 0 0 0 0 0 0 0 0 0 0 127 0"/>
<feOffset dy="2"/>
<feGaussianBlur stdDeviation="4"/>
<feColorMatrix type="matrix" values="0 0 0 0 0 0 0 0 0 0 0 0 0 0 0 0 0 0 0.15 0"/>
<feBlend mode="normal" in2="BackgroundImageFix" result="effect1_dropShadow"/>
<feBlend mode="normal" in="SourceGraphic" in2="effect1_dropShadow" result="shape"/>
</filter>
</defs>
</svg>
