<svg width="18" height="18" viewBox="0 0 18 18" fill="none" xmlns="http://www.w3.org/2000/svg">
<path fill-rule="evenodd" clip-rule="evenodd" d="M10.8953 0.832031H7.10469C6.78055 0.832031 6.51772 1.09482 6.51772 1.419V16.5816C6.51772 16.9058 6.78052 17.1686 7.10469 17.1686H10.8954C11.2195 17.1686 11.4823 16.9059 11.4823 16.5817V1.41896C11.4823 1.09482 11.2195 0.832031 10.8953 0.832031ZM4.37766 8.41331H0.586969C0.262793 8.41331 0 8.67614 0 9.00028V16.5816C0 16.9057 0.262793 17.1686 0.586969 17.1686H4.37766C4.7018 17.1686 4.96463 16.9058 4.96463 16.5816V9.00028C4.96459 8.67614 4.7018 8.41331 4.37766 8.41331ZM13.6224 4.62265H17.413C17.7372 4.62265 18 4.88548 18 5.20962V16.5816C18 16.9058 17.7372 17.1686 17.4131 17.1686H13.6224C13.2982 17.1686 13.0354 16.9058 13.0354 16.5816V5.20962C13.0354 4.88545 13.2982 4.62265 13.6224 4.62265Z" fill="#4779F1"/>
</svg>
