<svg width="64" height="64" viewBox="0 0 64 64" fill="none" xmlns="http://www.w3.org/2000/svg">
<path d="M59.3352 13.7751H42.3943L38.9734 8.02821C38.6387 7.46632 38.0333 7.12207 37.3794 7.12207H26.6202C25.9663 7.12207 25.3607 7.46632 25.0262 8.02821L21.6053 13.7751H16.0462V12.5085C16.0462 11.4841 15.2157 10.6535 14.1913 10.6535H7.32763C6.30299 10.6535 5.47266 11.4841 5.47266 12.5085V13.7751H4.66461C2.08822 13.7751 0 15.8636 0 18.4395V52.2122C0 54.7884 2.08822 56.8768 4.6644 56.8768H59.3352C61.9114 56.8768 63.9998 54.7884 63.9998 52.2122V18.4395C64 15.8636 61.9114 13.7751 59.3352 13.7751ZM31.9998 48.6031C24.667 48.6031 18.7226 42.6587 18.7226 35.3257C18.7226 27.9931 24.667 22.0485 31.9998 22.0485C39.3326 22.0485 45.277 27.9931 45.277 35.3257C45.277 42.6587 39.3326 48.6031 31.9998 48.6031ZM56.4249 23.3918H50.6124C49.588 23.3918 48.7574 22.5612 48.7574 21.5366C48.7574 20.5119 49.588 19.6814 50.6124 19.6814H56.4249C57.4498 19.6814 58.2801 20.5119 58.2801 21.5366C58.2801 22.5612 57.4496 23.3918 56.4249 23.3918Z" fill="#CCCCCC"/>
<path d="M31.9996 44.6008C37.1223 44.6008 41.2751 40.448 41.2751 35.3253C41.2751 30.2026 37.1223 26.0498 31.9996 26.0498C26.8769 26.0498 22.7241 30.2026 22.7241 35.3253C22.7241 40.448 26.8769 44.6008 31.9996 44.6008Z" fill="#CCCCCC"/>
</svg>
