<svg width="45" height="45" viewBox="0 0 45 45" fill="none" xmlns="http://www.w3.org/2000/svg">
<rect width="45" height="45" rx="15" fill="#C8D8FF"/>
<path d="M38.9998 27.8181C39.0047 31.4044 33.0499 32.3582 25.6992 32.3481C18.3485 32.3379 12.3853 31.3677 12.3804 27.7814C12.3754 24.1951 18.3304 21.2961 25.6811 21.3062C33.0319 21.3163 38.9948 24.2318 38.9998 27.8181Z" fill="#1757EE"/>
<path d="M18.0142 25.2323C18.1423 25.8933 18.1739 26.577 18.108 27.2643C18.0421 27.9523 18.5415 28.5655 19.2234 28.6339C19.2646 28.6381 19.3054 28.6401 19.346 28.6402C19.9765 28.6411 20.5156 28.1585 20.5776 27.5121C20.6665 26.5837 20.6233 25.6573 20.4491 24.7584C20.251 23.7362 19.8994 22.8324 19.4762 22.0454C18.6129 22.2667 17.806 22.533 17.0684 22.8381C17.4834 23.5115 17.8355 24.3101 18.0142 25.2323Z" fill="#4779F1"/>
<path d="M25.6479 21.3062C24.6071 21.306 23.5946 21.3642 22.623 21.4743C23.4259 22.321 24.3084 23.5818 24.63 25.2416C24.7581 25.9026 24.7897 26.5863 24.7238 27.2736C24.6579 27.9616 25.1572 28.5748 25.8392 28.6432C25.8804 28.6473 25.9212 28.6494 25.9617 28.6495C26.5923 28.6503 27.1314 28.1678 27.1933 27.5214C27.2823 26.593 27.2391 25.6666 27.0649 24.7677C26.8007 23.4047 26.2646 22.2509 25.6479 21.3062Z" fill="#4779F1"/>
<path d="M31.1692 25.266C31.2675 25.9321 31.2684 26.6165 31.1718 27.3C31.0751 27.9842 31.5465 28.6195 32.2247 28.719C32.2657 28.725 32.3063 28.7289 32.3468 28.7309C32.9768 28.7605 33.537 28.3031 33.6279 27.6603C33.7584 26.737 33.7568 25.8097 33.6231 24.9038C33.4829 23.9544 33.2078 23.0995 32.8622 22.3407C31.8228 22.0139 30.6845 21.756 29.4746 21.5791C30.1965 22.4553 30.9375 23.6964 31.1692 25.266Z" fill="#4779F1"/>
<path d="M26.9129 12.7126C29.4522 15.245 25.9161 20.1301 20.7111 25.3207C15.5062 30.5112 10.6036 34.0418 8.06418 31.5094C6.65993 30.109 6.69299 27.5684 7.88337 24.6992C8.03599 24.3312 8.37281 24.086 8.56293 23.709C8.75381 23.3305 8.79806 22.8202 9.02549 22.436C9.54218 21.5631 10.1517 20.6799 10.8471 19.8067C11.1106 19.4758 11.7565 19.2239 12.0443 18.897C12.4287 18.4604 12.4644 17.9506 12.8905 17.5257C13.8237 16.5951 14.7914 15.762 15.7658 15.0361C16.2561 14.6709 17.0222 14.5224 17.5125 14.2126C18.0027 13.9028 18.217 13.4315 18.7001 13.1795C22.1284 11.3914 25.2869 11.0912 26.9129 12.7126Z" fill="#4779F1"/>
<path d="M10.2457 25.7232C10.8036 26.1 11.3094 26.5612 11.7488 27.0937C12.1887 27.6269 12.9754 27.7074 13.506 27.2736C13.538 27.2474 13.5684 27.2199 13.597 27.1913C14.0435 26.7461 14.0835 26.0237 13.6702 25.5228C13.0767 24.8034 12.391 24.1789 11.6322 23.6664C10.7694 23.0837 9.88173 22.6932 9.02591 22.436C8.57198 23.203 8.18966 23.9619 7.88379 24.6992C8.65354 24.8817 9.46723 25.1975 10.2457 25.7232Z" fill="#A5BEF8"/>
<path d="M12.8672 17.5488C12.131 18.2846 11.4562 19.0418 10.8472 19.8066C12.0135 19.8376 13.5291 20.1052 14.9302 21.0515C15.4881 21.4283 15.9939 21.8894 16.4333 22.422C16.8732 22.9551 17.6598 23.0356 18.1905 22.6018C18.2225 22.5756 18.2528 22.5482 18.2815 22.5195C18.728 22.0743 18.768 21.3519 18.3547 20.851C17.7612 20.1316 17.0755 19.5071 16.3167 18.9946C15.1662 18.2175 13.9712 17.7809 12.8672 17.5488Z" fill="#A5BEF8"/>
<path d="M19.5715 16.4449C20.112 16.8463 20.5966 17.3296 21.0116 17.8813C21.427 18.4335 22.2096 18.5493 22.7595 18.1401C22.7927 18.1153 22.8243 18.0894 22.8543 18.0621C23.3207 17.6376 23.3934 16.9181 23.0031 16.3993C22.4425 15.6541 21.7856 14.9996 21.0505 14.4536C20.28 13.8813 19.4811 13.4713 18.7001 13.1792C17.7341 13.6831 16.7467 14.3056 15.7661 15.0361C16.8962 15.1452 18.2977 15.4988 19.5715 16.4449Z" fill="#A5BEF8"/>
</svg>
