<svg width="45" height="45" viewBox="0 0 45 45" fill="none" xmlns="http://www.w3.org/2000/svg">
<rect width="45" height="45" rx="15" fill="#C8D8FF"/>
<path d="M34.5 20.2941H10.5V30.4588C10.5 31.3574 10.8793 32.2192 11.5544 32.8546C12.2295 33.4901 13.1452 33.847 14.1 33.847H30.9C31.8548 33.847 32.7705 33.4901 33.4456 32.8546C34.1207 32.2192 34.5 31.3574 34.5 30.4588V20.2941ZM16.5 18.0353C16.1817 18.0353 15.8765 17.9163 15.6515 17.7045C15.4264 17.4927 15.3 17.2054 15.3 16.9058V12.3882C15.3 12.0887 15.4264 11.8014 15.6515 11.5896C15.8765 11.3778 16.1817 11.2588 16.5 11.2588C16.8183 11.2588 17.1235 11.3778 17.3485 11.5896C17.5736 11.8014 17.7 12.0887 17.7 12.3882V16.9058C17.7 17.2054 17.5736 17.4927 17.3485 17.7045C17.1235 17.9163 16.8183 18.0353 16.5 18.0353ZM28.5 18.0353C28.1817 18.0353 27.8765 17.9163 27.6515 17.7045C27.4264 17.4927 27.3 17.2054 27.3 16.9058V12.3882C27.3 12.0887 27.4264 11.8014 27.6515 11.5896C27.8765 11.3778 28.1817 11.2588 28.5 11.2588C28.8183 11.2588 29.1235 11.3778 29.3485 11.5896C29.5736 11.8014 29.7 12.0887 29.7 12.3882V16.9058C29.7 17.2054 29.5736 17.4927 29.3485 17.7045C29.1235 17.9163 28.8183 18.0353 28.5 18.0353Z" fill="#1757EE"/>
<path d="M30.9 13.5176H29.7V16.9058C29.7 17.2054 29.5736 17.4926 29.3485 17.7044C29.1235 17.9162 28.8183 18.0352 28.5 18.0352C28.1817 18.0352 27.8765 17.9162 27.6515 17.7044C27.4264 17.4926 27.3 17.2054 27.3 16.9058V13.5176H17.7V16.9058C17.7 17.2054 17.5736 17.4926 17.3485 17.7044C17.1235 17.9162 16.8183 18.0352 16.5 18.0352C16.1817 18.0352 15.8765 17.9162 15.6515 17.7044C15.4264 17.4926 15.3 17.2054 15.3 16.9058V13.5176H14.1C13.1452 13.5176 12.2295 13.8746 11.5544 14.51C10.8793 15.1454 10.5 16.0072 10.5 16.9058V20.294H34.5V16.9058C34.5 16.0072 34.1207 15.1454 33.4456 14.51C32.7705 13.8746 31.8548 13.5176 30.9 13.5176Z" fill="#759CF5"/>
<path d="M16.6617 29H17.3127V27.866L17.9567 27.187L19.2097 29H19.9797L18.4327 26.746L19.8817 25.227H19.0487L17.3127 26.998V23.701H16.6617V29ZM22.2467 29.084C22.494 29.084 22.725 29.0397 22.9397 28.951C23.159 28.8623 23.348 28.741 23.5067 28.587C23.6653 28.433 23.7843 28.2603 23.8637 28.069L23.2827 27.775C23.194 27.9803 23.0587 28.146 22.8767 28.272C22.6993 28.3933 22.4893 28.454 22.2467 28.454C22.018 28.454 21.8103 28.3957 21.6237 28.279C21.4417 28.1623 21.297 28.0037 21.1897 27.803C21.0823 27.5977 21.0287 27.369 21.0287 27.117C21.0287 26.8557 21.0823 26.6247 21.1897 26.424C21.297 26.2233 21.4417 26.0647 21.6237 25.948C21.8103 25.8313 22.018 25.773 22.2467 25.773C22.4847 25.773 22.6947 25.836 22.8767 25.962C23.0587 26.0833 23.194 26.242 23.2827 26.438L23.8637 26.158C23.7843 25.962 23.663 25.787 23.4997 25.633C23.341 25.479 23.1543 25.36 22.9397 25.276C22.725 25.1873 22.494 25.143 22.2467 25.143C21.878 25.143 21.549 25.2293 21.2597 25.402C20.975 25.57 20.751 25.8033 20.5877 26.102C20.4243 26.396 20.3427 26.732 20.3427 27.11C20.3427 27.4833 20.4243 27.8193 20.5877 28.118C20.751 28.4167 20.975 28.6523 21.2597 28.825C21.549 28.9977 21.878 29.084 22.2467 29.084ZM25.7658 29.084C26.0411 29.084 26.2884 29.0327 26.5078 28.93C26.7271 28.8227 26.9044 28.6827 27.0398 28.51V29H27.6768V26.438C27.6768 26.1813 27.6138 25.9573 27.4878 25.766C27.3664 25.57 27.1961 25.4183 26.9768 25.311C26.7574 25.199 26.5031 25.143 26.2138 25.143C25.9898 25.143 25.7751 25.1827 25.5698 25.262C25.3644 25.3413 25.1848 25.451 25.0308 25.591C24.8768 25.7263 24.7648 25.8803 24.6948 26.053L25.2618 26.347C25.3411 26.1697 25.4624 26.025 25.6258 25.913C25.7891 25.801 25.9804 25.745 26.1998 25.745C26.4471 25.745 26.6454 25.8103 26.7948 25.941C26.9488 26.067 27.0258 26.2327 27.0258 26.438V26.613L25.7378 26.823C25.3131 26.893 25.0004 27.0353 24.7998 27.25C24.6038 27.46 24.5058 27.7143 24.5058 28.013C24.5058 28.3303 24.6224 28.5893 24.8558 28.79C25.0938 28.986 25.3971 29.084 25.7658 29.084ZM25.1918 27.992C25.1918 27.8287 25.2454 27.691 25.3528 27.579C25.4648 27.467 25.6421 27.39 25.8848 27.348L27.0258 27.159V27.397C27.0258 27.607 26.9768 27.7983 26.8788 27.971C26.7808 28.1437 26.6431 28.2813 26.4658 28.384C26.2884 28.482 26.0808 28.531 25.8428 28.531C25.6561 28.531 25.4998 28.4797 25.3738 28.377C25.2524 28.2743 25.1918 28.146 25.1918 27.992ZM28.6861 29H29.3371V23.701H28.6861V29Z" fill="white"/>
</svg>
