<svg width="50" height="50" viewBox="0 0 50 50" fill="none" xmlns="http://www.w3.org/2000/svg">
<circle cx="25" cy="25" r="25" fill="#A5BEF8"/>
<path d="M15.1033 13.817C15.4701 13.0737 16.5299 13.0737 16.8967 13.817L17.5307 15.1015C17.6763 15.3967 17.9579 15.6012 18.2836 15.6485L19.7012 15.8545C20.5214 15.9737 20.8489 16.9817 20.2554 17.5602L19.2296 18.5601C18.994 18.7898 18.8864 19.1208 18.942 19.4452L19.1842 20.857C19.3243 21.6739 18.4669 22.2969 17.7332 21.9112L16.4653 21.2446C16.174 21.0915 15.826 21.0915 15.5347 21.2446L14.2668 21.9112C13.5331 22.2969 12.6757 21.6739 12.8158 20.857L13.058 19.4452C13.1136 19.1208 13.006 18.7898 12.7704 18.5601L11.7446 17.5602C11.1511 16.9817 11.4786 15.9737 12.2988 15.8545L13.7164 15.6485C14.0421 15.6012 14.3237 15.3967 14.4693 15.1015L15.1033 13.817Z" fill="#4779F1"/>
<path d="M33.1033 13.817C33.4701 13.0737 34.5299 13.0737 34.8967 13.817L35.5307 15.1015C35.6763 15.3967 35.9579 15.6012 36.2836 15.6485L37.7012 15.8545C38.5214 15.9737 38.8489 16.9817 38.2554 17.5602L37.2296 18.5601C36.994 18.7898 36.8864 19.1208 36.942 19.4452L37.1842 20.857C37.3243 21.6739 36.4669 22.2969 35.7332 21.9112L34.4653 21.2446C34.174 21.0915 33.826 21.0915 33.5347 21.2446L32.2668 21.9112C31.5331 22.2969 30.6757 21.6739 30.8158 20.857L31.058 19.4452C31.1136 19.1208 31.006 18.7898 30.7704 18.5601L29.7446 17.5602C29.1511 16.9817 29.4786 15.9737 30.2988 15.8545L31.7164 15.6485C32.0421 15.6012 32.3237 15.3967 32.4693 15.1015L33.1033 13.817Z" fill="#4779F1"/>
<path d="M15 29H35V31C35 36.5228 30.5228 41 25 41C19.4772 41 15 36.5228 15 31V29Z" fill="black"/>
</svg>
