<svg width="33" height="33" viewBox="0 0 33 33" fill="none" xmlns="http://www.w3.org/2000/svg">
<circle cx="16.5" cy="16.5" r="16.5" fill="#4779F1"/>
<path d="M17 10C16.8011 10 16.6103 10.079 16.4697 10.2197C16.329 10.3603 16.25 10.5511 16.25 10.75V22C16.25 22.1989 16.329 22.3897 16.4697 22.5303C16.6103 22.671 16.8011 22.75 17 22.75C17.1989 22.75 17.3897 22.671 17.5303 22.5303C17.671 22.3897 17.75 22.1989 17.75 22V10.75C17.75 10.5511 17.671 10.3603 17.5303 10.2197C17.3897 10.079 17.1989 10 17 10Z" fill="white"/>
<path d="M22.25 16C22.0511 16 21.8603 16.079 21.7197 16.2197C21.579 16.3603 21.5 16.5511 21.5 16.75V22C21.5 22.1989 21.579 22.3897 21.7197 22.5303C21.8603 22.671 22.0511 22.75 22.25 22.75C22.4489 22.75 22.6397 22.671 22.7803 22.5303C22.921 22.3897 23 22.1989 23 22V16.75C23 16.5511 22.921 16.3603 22.7803 16.2197C22.6397 16.079 22.4489 16 22.25 16Z" fill="white"/>
<path d="M11.75 13C11.5511 13 11.3603 13.079 11.2197 13.2197C11.079 13.3603 11 13.5511 11 13.75V22C11 22.1989 11.079 22.3897 11.2197 22.5303C11.3603 22.671 11.5511 22.75 11.75 22.75C11.9489 22.75 12.1397 22.671 12.2803 22.5303C12.421 22.3897 12.5 22.1989 12.5 22V13.75C12.5 13.5511 12.421 13.3603 12.2803 13.2197C12.1397 13.079 11.9489 13 11.75 13Z" fill="white"/>
</svg>
