<svg width="45" height="45" viewBox="0 0 45 45" fill="none" xmlns="http://www.w3.org/2000/svg">
<rect width="45" height="45" rx="15" fill="#C8D8FF"/>
<g clip-path="url(#clip0)">
<path d="M27.7469 15.9196C27.7491 15.8444 27.7499 15.7689 27.7491 15.693C27.7194 12.5851 25.1865 10.0418 22.0787 10C18.8671 9.95692 16.25 12.5475 16.25 15.7492C16.25 15.7989 16.2506 15.8484 16.2519 15.8977C16.2928 17.5094 15.7716 19.0783 14.8558 20.4051C13.8857 21.8106 13.3197 23.5163 13.3257 25.3546C13.3415 30.1592 17.3132 34.0626 22.1173 33.9987C26.8536 33.9358 30.6737 30.0767 30.6737 25.3255C30.6737 23.4731 30.0929 21.7565 29.1036 20.3476C28.1927 19.0504 27.7008 17.504 27.7469 15.9196Z" fill="#4779F1"/>
<path d="M22 29.705C24.3976 29.705 26.3412 27.7614 26.3412 25.3637C26.3412 22.9661 24.3976 21.0225 22 21.0225C19.6023 21.0225 17.6587 22.9661 17.6587 25.3637C17.6587 27.7614 19.6023 29.705 22 29.705Z" fill="#A5BEF8"/>
</g>
<defs>
<clipPath id="clip0">
<rect width="24" height="24" fill="white" transform="translate(10 10)"/>
</clipPath>
</defs>
</svg>
