<svg width="24" height="24" viewBox="0 0 24 24" fill="none" xmlns="http://www.w3.org/2000/svg">
<g clip-path="url(#clip0)">
<path d="M7.18685 7.09969C4.41651 7.09969 2.17041 4.85359 2.17041 2.08325C3.55556 2.08325 4.80985 2.64495 5.71782 3.55287C6.62516 4.46025 7.18685 5.71449 7.18685 7.09969Z" fill="#1757EE"/>
<path d="M7.20848 10.6852C7.00619 10.6852 6.84229 10.5212 6.84229 10.319V7.72479C6.84229 6.42523 7.48591 5.21459 8.56399 4.4864C8.73166 4.37312 8.95924 4.41726 9.07242 4.58488C9.1856 4.7525 9.14156 4.98013 8.97394 5.09331C8.09775 5.68518 7.57468 6.66892 7.57468 7.72484V10.3191C7.57468 10.5212 7.41077 10.6852 7.20848 10.6852Z" fill="#526071"/>
<path d="M8.59132 8.1167C12.6253 8.1167 15.4362 12.1209 14.0657 15.9152L12.8197 19.3628C12.7166 19.6479 12.5833 19.9165 12.4242 20.1645C12.2064 20.5029 11.9398 20.8041 11.6366 21.059H11.6361C11.3617 21.29 11.057 21.4828 10.7304 21.6332C9.96772 21.9828 9.0952 22.0048 8.3052 21.725C8.11819 21.6591 7.92728 21.6108 7.73393 21.579C7.56011 21.5507 7.38385 21.537 7.20856 21.537C6.83749 21.537 6.4669 21.5995 6.11193 21.725C5.84876 21.8178 5.57729 21.8778 5.30337 21.9032C4.75359 21.954 4.19551 21.8666 3.68674 21.6332C2.73415 21.1962 1.96904 20.3916 1.59699 19.3628L0.351435 15.9152C-1.0196 12.1209 1.79131 8.1167 5.82532 8.1167H7.20856H8.59132Z" fill="#4779F1"/>
<path d="M21.8896 12.4344C22.641 11.5152 24.1221 12.1303 23.992 13.3099C23.9628 13.5761 23.9223 13.841 23.8707 14.1044L21.8896 12.4344Z" fill="#526071"/>
<path d="M4.89964 13.3101C4.76952 12.1303 6.25066 11.5153 7.0017 12.4342C7.20472 12.6831 7.42219 12.9239 7.65411 13.1558L5.09387 14.4427C5.00648 14.0687 4.94173 13.6903 4.89964 13.3101Z" fill="#526071"/>
<path d="M21.8896 12.4343L23.8706 14.1043C23.5165 15.9135 22.6384 17.64 21.2372 19.0413C17.4758 22.8027 11.4156 22.8027 7.65433 19.0413C6.34043 17.7274 5.4869 16.1278 5.09375 14.4424L7.65399 13.1555C11.4021 16.9037 17.489 16.904 21.2372 13.1552C21.4691 12.9233 21.6865 12.6826 21.8896 12.4343Z" fill="#759CF5"/>
</g>
<defs>
<clipPath id="clip0">
<rect width="24" height="24" fill="white"/>
</clipPath>
</defs>
</svg>
