<svg width="12" height="12" viewBox="0 0 12 12" fill="none" xmlns="http://www.w3.org/2000/svg">
<g clip-path="url(#clip0)">
<path d="M2.37436 0H9.62564C10.937 0 12 1.06303 12 2.37436V9.62564C12 10.937 10.937 12 9.62564 12H2.37436C1.06303 12 0 10.937 0 9.62564V2.37436C0 1.06303 1.06303 0 2.37436 0V0Z" fill="#4779F1"/>
<path d="M9.29606 2.18902C8.98038 2.7635 8.66444 3.33774 8.34876 3.91224C8.24158 4.10707 8.00329 4.19009 7.79966 4.10049C7.28352 3.87293 6.73469 3.74768 6.18266 3.72523C6.06058 3.7201 5.93852 3.7201 5.81643 3.72523C5.26441 3.74768 4.71555 3.87293 4.19943 4.10049C3.9958 4.19009 3.75752 4.10707 3.65034 3.91224C3.33466 3.33776 3.01872 2.76352 2.70304 2.18902C2.58365 1.97196 2.67058 1.69754 2.89469 1.59183C4.86034 0.666004 7.13875 0.666004 9.10441 1.59183C9.32852 1.69756 9.41542 1.97196 9.29606 2.18902Z" fill="#A5BEF8"/>
</g>
<defs>
<clipPath id="clip0">
<rect width="12" height="12" fill="white"/>
</clipPath>
</defs>
</svg>
