<svg width="16" height="16" viewBox="0 0 16 16" fill="none" xmlns="http://www.w3.org/2000/svg">
<path d="M15.1058 3.60109L13.8621 4.84453L15.0171 5.99984C15.3258 6.30856 15.1119 6.80797 14.6939 6.80797H10.7939C10.5349 6.80797 10.3252 6.59828 10.3252 6.33922V3.26953C10.3252 3.01078 10.5349 2.80078 10.7939 2.80078H14.7742C15.1786 2.80078 15.3928 3.3125 15.1058 3.60109Z" fill="#4779F1"/>
<path d="M11.7672 1.90527V4.97496C11.7672 5.23402 11.5572 5.44371 11.2984 5.44371H8C7.74125 5.44371 7.53125 5.23402 7.53125 4.97496V1.90527C7.53125 1.64652 7.74125 1.43652 8 1.43652H11.2984C11.5572 1.43652 11.7672 1.64652 11.7672 1.90527Z" fill="#1757EE"/>
<path d="M8 8.84422C7.74112 8.84422 7.53125 8.63434 7.53125 8.37547V0.46875C7.53125 0.209875 7.74112 0 8 0C8.25888 0 8.46875 0.209875 8.46875 0.46875V8.37547C8.46875 8.63434 8.25888 8.84422 8 8.84422Z" fill="#759CF5"/>
<path d="M5.35 11.8953L2.71709 15.4368C2.62959 15.5624 2.41881 15.7843 2.26569 15.7843L1.33437 16H0.46875C0.21 16 0 15.79 0 15.5312V13.4903C0 13.1856 0.105 12.8869 0.295312 12.6491L2.56281 9.81875C2.74781 9.58813 3.02344 9.45469 3.31906 9.45312H3.325C3.61844 9.45312 3.89312 9.58281 4.07937 9.80969L4.93312 10.8494L5.3275 11.3297C5.46094 11.4919 5.47 11.7231 5.35 11.8953Z" fill="#1757EE"/>
<path d="M15.9996 13.4903V15.5312C15.9996 15.79 15.7896 16 15.5308 16H14.6268L13.772 15.7849C13.6186 15.7849 13.4381 15.5696 13.3503 15.444L10.6496 11.8953C10.5296 11.7231 10.5386 11.4919 10.6721 11.3297L11.0602 10.8569L11.9202 9.80969C12.1065 9.58281 12.3811 9.45312 12.6746 9.45312H12.6805C12.9761 9.45469 13.2518 9.58812 13.4368 9.81906L15.704 12.6491C15.8946 12.8866 15.9996 13.1856 15.9996 13.4903Z" fill="#1757EE"/>
<path d="M14.6268 16.0004H12.103L11.398 15.67L10.9812 16.0004H5.01805L4.64817 15.6167L3.89617 16.0004H1.33398L4.93273 10.8497L6.4568 8.66785C6.46211 8.66004 6.46805 8.65254 6.47398 8.64504C6.84148 8.18098 7.38992 7.91285 7.98055 7.90754C7.9868 7.90723 7.99305 7.90723 7.9993 7.90723H7.99961C8.59742 7.90723 9.15367 8.17598 9.52492 8.64504C9.53086 8.65254 9.53648 8.66004 9.54211 8.66785L11.0602 10.8572L14.6268 16.0004Z" fill="#4779F1"/>
<path d="M3.33301 16.0003L4.66634 15.0003L11.333 14.667L12.6663 16.0003H3.33301Z" fill="#4779F1"/>
</svg>
