<svg width="14" height="14" viewBox="0 0 14 14" fill="none" xmlns="http://www.w3.org/2000/svg">
<path d="M7 14C3.14015 14 0 10.8598 0 7C0 3.14015 3.14015 0 7 0C10.8598 0 14 3.14015 14 7C14 10.8598 10.8598 14 7 14Z" fill="#1757EE"/>
<path d="M7 11.6758C4.42178 11.6758 2.32422 9.57822 2.32422 7C2.32422 4.42178 4.42178 2.32422 7 2.32422C9.57822 2.32422 11.6758 4.42178 11.6758 7C11.6758 9.57822 9.57822 11.6758 7 11.6758Z" fill="#4779F1"/>
<path opacity="0.9" d="M7 9.21484C5.77872 9.21484 4.78516 8.22128 4.78516 7C4.78516 5.77872 5.77872 4.78516 7 4.78516C8.22128 4.78516 9.21484 5.77872 9.21484 7C9.21484 8.22128 8.22128 9.21484 7 9.21484Z" fill="#A5BEF8"/>
</svg>
