<svg width="33" height="33" viewBox="0 0 33 33" fill="none" xmlns="http://www.w3.org/2000/svg">
<circle cx="16.5" cy="16.5" r="16.5" fill="#4779F1"/>
<g clip-path="url(#clip0)">
<path d="M25.1363 16.1905C25.1277 16.1898 25.119 16.1895 25.1104 16.1895H19.1022C18.9363 16.1889 18.8014 16.3229 18.8008 16.4888C18.8007 16.4975 18.8011 16.5062 18.8018 16.5148L19.357 23.1736C19.3981 23.6399 19.7877 23.9981 20.2558 24H23.9568C24.4246 23.9976 24.8136 23.6395 24.8547 23.1736L25.4108 16.5148C25.4245 16.3495 25.3017 16.2043 25.1363 16.1905ZM24.256 23.1237C24.2422 23.2794 24.1119 23.3988 23.9556 23.3992H20.2558C20.0995 23.3988 19.9692 23.2794 19.9554 23.1237L19.579 18.5927H24.6336L24.256 23.1237ZM24.6838 17.9919H19.5288L19.4288 16.7903H24.7838L24.6838 17.9919Z" fill="white"/>
<path d="M15.4972 9.14674V8.36058C16.1386 8.19551 16.5247 7.54172 16.3597 6.90031C16.2231 6.36984 15.7446 5.99933 15.1968 6H11.5919C10.9296 5.99917 10.392 6.53544 10.3912 7.19772C10.3905 7.74547 10.7611 8.22405 11.2915 8.36058V9.14674C9.56924 10.7297 8.58868 12.9616 8.58789 15.3008V21.8971C8.5892 23.0579 9.52992 23.9987 10.6907 24H16.098C17.2588 23.9987 18.1995 23.0579 18.2009 21.8971V15.3008C18.2001 12.9616 17.2195 10.7297 15.4972 9.14674ZM10.9911 7.20162C10.9911 6.86979 11.2601 6.60081 11.5919 6.60081H15.1968C15.5285 6.6102 15.7898 6.88672 15.7803 7.21841C15.7722 7.50627 15.5609 7.74787 15.2767 7.79432C15.251 7.78512 15.2241 7.77968 15.1968 7.7781H11.5919C11.5647 7.77968 11.5378 7.78512 11.512 7.79432C11.2148 7.75444 10.9925 7.5015 10.9911 7.20162ZM11.7917 9.50483C11.8558 9.44775 11.8925 9.36596 11.8923 9.28012V8.40324H14.8964V9.28012C14.8963 9.36596 14.9329 9.44775 14.997 9.50483C15.9442 10.3478 16.6701 11.4103 17.1113 12.599C15.9357 13.0431 14.6234 12.9399 13.5317 12.3175C12.4671 11.7076 11.2093 11.5288 10.0169 11.8179C10.4567 10.9415 11.059 10.1566 11.7917 9.50483ZM17.6 21.8971C17.5991 22.7263 16.9271 23.3982 16.098 23.3992H10.6907C9.86161 23.3982 9.18968 22.7263 9.1887 21.8971V15.3008C9.18934 14.3569 9.36241 13.421 9.69939 12.5392C10.8642 12.1127 12.1579 12.2227 13.234 12.8396C14.4724 13.5494 15.9625 13.671 17.2996 13.1716C17.4984 13.8639 17.5996 14.5805 17.6 15.3008V21.8971Z" fill="white"/>
<path d="M16.6988 16.1895C16.5329 16.1895 16.3984 16.324 16.3984 16.4899V16.7903C16.3984 16.9562 16.5329 17.0907 16.6988 17.0907C16.8647 17.0907 16.9992 16.9562 16.9992 16.7903V16.4899C16.9992 16.324 16.8647 16.1895 16.6988 16.1895Z" fill="white"/>
<path d="M16.6988 17.6914C16.5329 17.6914 16.3984 17.8259 16.3984 17.9918V20.0947C16.3984 20.2606 16.5329 20.3951 16.6988 20.3951C16.8647 20.3951 16.9992 20.2606 16.9992 20.0947V17.9918C16.9992 17.8259 16.8647 17.6914 16.6988 17.6914Z" fill="white"/>
</g>
<defs>
<clipPath id="clip0">
<rect width="18" height="18" fill="white" transform="translate(8 6)"/>
</clipPath>
</defs>
</svg>
