<svg width="60" height="60" viewBox="0 0 60 60" fill="none" xmlns="http://www.w3.org/2000/svg">
<rect width="60" height="60" rx="20" fill="#C8D8FF"/>
<path d="M30 27.125C27.8629 27.125 26.125 25.3871 26.125 23.25C26.125 21.1129 27.8629 19.375 30 19.375C32.1371 19.375 33.875 21.1129 33.875 23.25C33.875 25.3871 32.1371 27.125 30 27.125Z" fill="#A5BEF8"/>
<path d="M41.4568 37.8394C40.7651 37.8394 40.0715 37.6534 39.436 37.2833C38.8199 36.9229 38.6126 36.1324 38.9729 35.5163C39.3333 34.9002 40.1238 34.6929 40.7399 35.0532C41.3987 35.4388 41.9761 35.1734 42.1911 35.0397C42.6774 34.7432 42.9467 34.2143 42.9119 33.6292L42.7433 30.6861C42.3403 23.6181 36.7409 18.0827 30.0004 18.0827C23.2598 18.0827 17.6604 23.6181 17.2555 30.6823L17.0869 33.6253C17.0521 34.2124 17.3233 34.7394 17.8077 35.0377C18.0227 35.1714 18.6001 35.4388 19.2589 35.0513C19.8769 34.6929 20.6674 34.8982 21.0259 35.5144C21.3862 36.1305 21.1789 36.921 20.5628 37.2814C19.2705 38.037 17.7341 38.0234 16.4572 37.2407C15.1649 36.4502 14.4171 35.0087 14.5062 33.4781L14.6747 30.535C15.1611 22.1049 21.8919 15.5 30.0004 15.5C38.1088 15.5 44.8397 22.1049 45.3241 30.535L45.4926 33.4781C45.5798 35.0067 44.8319 36.4502 43.5416 37.2407C42.8906 37.6379 42.1737 37.8394 41.4568 37.8394Z" fill="#4779F1"/>
<path d="M32.9061 46.5001C31.6603 46.5001 30.6451 45.4868 30.6451 44.2391V41.3328C30.6451 40.9763 30.3564 40.6876 29.9999 40.6876C29.6434 40.6876 29.3547 40.9763 29.3547 41.3328V44.2391C29.3547 45.4849 28.3414 46.5001 27.0936 46.5001C25.8459 46.5001 24.8326 45.4868 24.8326 44.2391V35.1503L22.2809 36.987C21.6667 37.3978 20.9382 37.5179 20.2581 37.3358C19.5781 37.1556 19.0065 36.6906 18.6926 36.059C18.1772 35.0301 18.4562 33.763 19.3552 33.0423L23.8134 29.4753C24.6698 28.7914 25.7432 28.4136 26.8398 28.4136H33.1638C34.2585 28.4136 35.3319 28.7894 36.1902 29.4753L40.6484 33.0423C41.5474 33.7611 41.8244 35.0301 41.311 36.059C40.9971 36.6886 40.4256 37.1536 39.7455 37.3338C39.0635 37.514 38.3369 37.3958 37.7518 37.0045L35.1711 35.1483V44.2371C35.1672 45.4868 34.1519 46.5001 32.9061 46.5001Z" fill="#A5BEF8"/>
</svg>
