<svg width="116" height="116" viewBox="0 0 116 116" fill="none" xmlns="http://www.w3.org/2000/svg">
<g filter="url(#filter0_d)">
<circle cx="58" cy="56" r="50" fill="#4779F1"/>
</g>
<path d="M64.4815 72.8516H51.5186L58 78.0367L64.4815 72.8516Z" fill="white"/>
<path d="M48.0204 46.9251H52.7389V45.6807H49.4308V39.1992H48.0204V46.9251Z" fill="white"/>
<path d="M56.2957 47.0496C56.8418 47.0496 57.3396 46.9251 57.789 46.6763C58.2384 46.4205 58.5979 46.0713 58.8675 45.6288C59.1371 45.1795 59.272 44.6713 59.272 44.1044C59.272 43.5375 59.1371 43.0328 58.8675 42.5903C58.6048 42.1479 58.2488 41.7987 57.7994 41.5429C57.35 41.2871 56.8487 41.1592 56.2957 41.1592C55.7357 41.1592 55.231 41.2871 54.7816 41.5429C54.3322 41.7987 53.9727 42.1479 53.7031 42.5903C53.4404 43.0328 53.309 43.5375 53.309 44.1044C53.309 44.6713 53.4404 45.176 53.7031 45.6185C53.9727 46.0609 54.3322 46.4101 54.7816 46.6659C55.2379 46.9217 55.7426 47.0496 56.2957 47.0496ZM56.2957 45.8051C55.9915 45.8051 55.7184 45.7326 55.4764 45.5874C55.2413 45.4422 55.0547 45.2417 54.9164 44.9859C54.785 44.7232 54.7194 44.4293 54.7194 44.1044C54.7194 43.7795 54.785 43.4891 54.9164 43.2333C55.0547 42.9775 55.2413 42.777 55.4764 42.6318C55.7184 42.4797 55.9915 42.4037 56.2957 42.4037C56.5999 42.4037 56.866 42.4797 57.0942 42.6318C57.3292 42.777 57.5125 42.9775 57.6438 43.2333C57.7821 43.4891 57.8512 43.7795 57.8512 44.1044C57.8512 44.4293 57.7821 44.7232 57.6438 44.9859C57.5125 45.2417 57.3292 45.4422 57.0942 45.5874C56.866 45.7326 56.5999 45.8051 56.2957 45.8051Z" fill="white"/>
<path d="M61.6217 46.9251H62.8246L64.152 43.1192L65.4587 46.9251H66.672L68.6113 41.2837H67.1802L65.998 44.8303L64.7535 41.2837H63.5505L62.2957 44.8407L61.1135 41.2837H59.6824L61.6217 46.9251Z" fill="white"/>
<path d="M45.9693 65.26C46.7989 65.26 47.5404 65.12 48.1937 64.84C48.8574 64.56 49.4174 64.1918 49.8737 63.7355C50.33 63.2688 50.6567 62.7607 50.8537 62.2111L48.956 61.3244C48.7278 61.9051 48.3545 62.3874 47.836 62.7711C47.3278 63.1444 46.7056 63.3311 45.9693 63.3311C45.2434 63.3311 44.6056 63.16 44.056 62.8177C43.5063 62.4755 43.076 62.0037 42.7648 61.4022C42.4537 60.7903 42.2982 60.08 42.2982 59.2711C42.2982 58.4622 42.4537 57.757 42.7648 57.1555C43.076 56.5437 43.5063 56.0718 44.056 55.74C44.6056 55.3977 45.2434 55.2266 45.9693 55.2266C46.7056 55.2266 47.3278 55.4185 47.836 55.8022C48.3545 56.1755 48.7278 56.6526 48.956 57.2333L50.8537 56.3466C50.6567 55.797 50.33 55.294 49.8737 54.8377C49.4174 54.3711 48.8574 53.9977 48.1937 53.7177C47.5404 53.4377 46.7989 53.2977 45.9693 53.2977C45.1397 53.2977 44.3722 53.4481 43.6671 53.7488C42.9619 54.0392 42.35 54.454 41.8315 54.9933C41.313 55.5222 40.9085 56.1548 40.6182 56.8911C40.3278 57.617 40.1826 58.4103 40.1826 59.2711C40.1826 60.1318 40.3278 60.9303 40.6182 61.6666C40.9085 62.3926 41.313 63.0251 41.8315 63.5644C42.35 64.1037 42.9619 64.5237 43.6671 64.8244C44.3722 65.1148 45.1397 65.26 45.9693 65.26Z" fill="white"/>
<path d="M54.8149 65.26C55.9142 65.26 56.7957 64.897 57.4594 64.1711V65.0733H59.3883V59.4422C59.3883 58.8511 59.2379 58.3274 58.9372 57.8711C58.6364 57.4148 58.2216 57.0622 57.6927 56.8133C57.1742 56.554 56.5675 56.4244 55.8727 56.4244C55.0223 56.4244 54.2653 56.6266 53.6016 57.0311C52.9379 57.4355 52.4816 57.9696 52.2327 58.6333L53.8972 59.4422C54.0527 59.0585 54.2964 58.7526 54.6283 58.5244C54.9601 58.2859 55.349 58.1666 55.7949 58.1666C56.2616 58.1666 56.6349 58.2911 56.9149 58.54C57.2053 58.7785 57.3505 59.0792 57.3505 59.4422V59.7222L54.8305 60.1266C53.8349 60.2926 53.0986 60.6088 52.6216 61.0755C52.1446 61.5422 51.906 62.1281 51.906 62.8333C51.906 63.58 52.1705 64.1711 52.6994 64.6066C53.2283 65.0422 53.9334 65.26 54.8149 65.26ZM54.0216 62.7555C54.0216 62.1644 54.4209 61.7911 55.2194 61.6355L57.3505 61.2777V61.62C57.3505 62.2007 57.1483 62.6933 56.7438 63.0977C56.3497 63.5022 55.8312 63.7044 55.1883 63.7044C54.846 63.7044 54.566 63.6214 54.3483 63.4555C54.1305 63.2792 54.0216 63.0459 54.0216 62.7555Z" fill="white"/>
<path d="M61.2717 65.0733H63.3095V60.36C63.3095 59.717 63.4858 59.2192 63.8384 58.8666C64.2013 58.5037 64.668 58.3222 65.2384 58.3222H65.9695V56.5177H65.4717C64.9532 56.5177 64.4969 56.6111 64.1028 56.7977C63.7087 56.9844 63.4028 57.3214 63.185 57.8088V56.6111H61.2717V65.0733Z" fill="white"/>
<path d="M71.7098 65.26C72.5291 65.26 73.2602 65.0681 73.9032 64.6844C74.5461 64.2903 75.0543 63.7614 75.4276 63.0977C75.801 62.4237 75.9876 61.6718 75.9876 60.8422C75.9876 60.0126 75.801 59.2659 75.4276 58.6022C75.0543 57.9281 74.5461 57.3992 73.9032 57.0155C73.2602 56.6214 72.5343 56.4244 71.7254 56.4244C70.6261 56.4244 69.7602 56.7718 69.1276 57.4666V53.2977H67.0898V65.0733H69.0032V64.1244C69.3143 64.4874 69.7032 64.7674 70.1698 64.9644C70.6469 65.1614 71.1602 65.26 71.7098 65.26ZM71.4765 63.3933C71.0306 63.3933 70.6261 63.2844 70.2632 63.0666C69.9106 62.8488 69.6306 62.5481 69.4232 62.1644C69.2261 61.7807 69.1276 61.34 69.1276 60.8422C69.1276 60.3444 69.2261 59.9037 69.4232 59.52C69.6306 59.1363 69.9106 58.8355 70.2632 58.6177C70.6261 58.4 71.0306 58.2911 71.4765 58.2911C71.9432 58.2911 72.3528 58.4051 72.7054 58.6333C73.0684 58.8511 73.3535 59.1518 73.561 59.5355C73.7684 59.9192 73.8721 60.3548 73.8721 60.8422C73.8721 61.3296 73.7684 61.7703 73.561 62.1644C73.3535 62.5481 73.0684 62.8488 72.7054 63.0666C72.3528 63.2844 71.9432 63.3933 71.4765 63.3933Z" fill="white"/>
<path d="M92 56C92 74.7777 76.7777 90 58 90C39.2223 90 24 74.7777 24 56C24 37.2223 39.2223 22 58 22C76.7777 22 92 37.2223 92 56Z" stroke="white" stroke-width="2"/>
<defs>
<filter id="filter0_d" x="0" y="0" width="116" height="116" filterUnits="userSpaceOnUse" color-interpolation-filters="sRGB">
<feFlood flood-opacity="0" result="BackgroundImageFix"/>
<feColorMatrix in="SourceAlpha" type="matrix" values="0 0 0 0 0 0 0 0 0 0 0 0 0 0 0 0 0 0 127 0"/>
<feOffset dy="2"/>
<feGaussianBlur stdDeviation="4"/>
<feColorMatrix type="matrix" values="0 0 0 0 0 0 0 0 0 0 0 0 0 0 0 0 0 0 0.15 0"/>
<feBlend mode="normal" in2="BackgroundImageFix" result="effect1_dropShadow"/>
<feBlend mode="normal" in="SourceGraphic" in2="effect1_dropShadow" result="shape"/>
</filter>
</defs>
</svg>
