<svg width="33" height="33" viewBox="0 0 33 33" fill="none" xmlns="http://www.w3.org/2000/svg">
<circle cx="16.5" cy="16.5" r="16.5" fill="#4779F1"/>
<path d="M19 23H14L16.5 25L19 23Z" fill="white"/>
<path d="M12.6513 13H14.4713V12.52H13.1953V10.02H12.6513V13ZM15.8432 13.048C16.0538 13.048 16.2458 13 16.4192 12.904C16.5925 12.8053 16.7312 12.6707 16.8352 12.5C16.9392 12.3267 16.9912 12.1307 16.9912 11.912C16.9912 11.6933 16.9392 11.4987 16.8352 11.328C16.7338 11.1573 16.5965 11.0227 16.4232 10.924C16.2498 10.8253 16.0565 10.776 15.8432 10.776C15.6272 10.776 15.4325 10.8253 15.2592 10.924C15.0858 11.0227 14.9472 11.1573 14.8432 11.328C14.7418 11.4987 14.6912 11.6933 14.6912 11.912C14.6912 12.1307 14.7418 12.3253 14.8432 12.496C14.9472 12.6667 15.0858 12.8013 15.2592 12.9C15.4352 12.9987 15.6298 13.048 15.8432 13.048ZM15.8432 12.568C15.7258 12.568 15.6205 12.54 15.5272 12.484C15.4365 12.428 15.3645 12.3507 15.3112 12.252C15.2605 12.1507 15.2352 12.0373 15.2352 11.912C15.2352 11.7867 15.2605 11.6747 15.3112 11.576C15.3645 11.4773 15.4365 11.4 15.5272 11.344C15.6205 11.2853 15.7258 11.256 15.8432 11.256C15.9605 11.256 16.0632 11.2853 16.1512 11.344C16.2418 11.4 16.3125 11.4773 16.3632 11.576C16.4165 11.6747 16.4432 11.7867 16.4432 11.912C16.4432 12.0373 16.4165 12.1507 16.3632 12.252C16.3125 12.3507 16.2418 12.428 16.1512 12.484C16.0632 12.54 15.9605 12.568 15.8432 12.568ZM17.8975 13H18.3615L18.8735 11.532L19.3775 13H19.8455L20.5935 10.824H20.0415L19.5855 12.192L19.1055 10.824H18.6415L18.1575 12.196L17.7015 10.824H17.1495L17.8975 13Z" fill="white"/>
<path d="M11.8601 20.072C12.1801 20.072 12.4661 20.018 12.7181 19.91C12.9741 19.802 13.1901 19.66 13.3661 19.484C13.5421 19.304 13.6681 19.108 13.7441 18.896L13.0121 18.554C12.9241 18.778 12.7801 18.964 12.5801 19.112C12.3841 19.256 12.1441 19.328 11.8601 19.328C11.5801 19.328 11.3341 19.262 11.1221 19.13C10.9101 18.998 10.7441 18.816 10.6241 18.584C10.5041 18.348 10.4441 18.074 10.4441 17.762C10.4441 17.45 10.5041 17.178 10.6241 16.946C10.7441 16.71 10.9101 16.528 11.1221 16.4C11.3341 16.268 11.5801 16.202 11.8601 16.202C12.1441 16.202 12.3841 16.276 12.5801 16.424C12.7801 16.568 12.9241 16.752 13.0121 16.976L13.7441 16.634C13.6681 16.422 13.5421 16.228 13.3661 16.052C13.1901 15.872 12.9741 15.728 12.7181 15.62C12.4661 15.512 12.1801 15.458 11.8601 15.458C11.5401 15.458 11.2441 15.516 10.9721 15.632C10.7001 15.744 10.4641 15.904 10.2641 16.112C10.0641 16.316 9.90813 16.56 9.79613 16.844C9.68413 17.124 9.62813 17.43 9.62813 17.762C9.62813 18.094 9.68413 18.402 9.79613 18.686C9.90813 18.966 10.0641 19.21 10.2641 19.418C10.4641 19.626 10.7001 19.788 10.9721 19.904C11.2441 20.016 11.5401 20.072 11.8601 20.072ZM15.272 20.072C15.696 20.072 16.036 19.932 16.292 19.652V20H17.036V17.828C17.036 17.6 16.978 17.398 16.862 17.222C16.746 17.046 16.586 16.91 16.382 16.814C16.182 16.714 15.948 16.664 15.68 16.664C15.352 16.664 15.06 16.742 14.804 16.898C14.548 17.054 14.372 17.26 14.276 17.516L14.918 17.828C14.978 17.68 15.072 17.562 15.2 17.474C15.328 17.382 15.478 17.336 15.65 17.336C15.83 17.336 15.974 17.384 16.082 17.48C16.194 17.572 16.25 17.688 16.25 17.828V17.936L15.278 18.092C14.894 18.156 14.61 18.278 14.426 18.458C14.242 18.638 14.15 18.864 14.15 19.136C14.15 19.424 14.252 19.652 14.456 19.82C14.66 19.988 14.932 20.072 15.272 20.072ZM14.966 19.106C14.966 18.878 15.12 18.734 15.428 18.674L16.25 18.536V18.668C16.25 18.892 16.172 19.082 16.016 19.238C15.864 19.394 15.664 19.472 15.416 19.472C15.284 19.472 15.176 19.44 15.092 19.376C15.008 19.308 14.966 19.218 14.966 19.106ZM17.7625 20H18.5485V18.182C18.5485 17.934 18.6165 17.742 18.7525 17.606C18.8925 17.466 19.0725 17.396 19.2925 17.396H19.5745V16.7H19.3825C19.1825 16.7 19.0065 16.736 18.8545 16.808C18.7025 16.88 18.5845 17.01 18.5005 17.198V16.736H17.7625V20ZM21.7886 20.072C22.1046 20.072 22.3866 19.998 22.6346 19.85C22.8826 19.698 23.0786 19.494 23.2226 19.238C23.3666 18.978 23.4386 18.688 23.4386 18.368C23.4386 18.048 23.3666 17.76 23.2226 17.504C23.0786 17.244 22.8826 17.04 22.6346 16.892C22.3866 16.74 22.1066 16.664 21.7946 16.664C21.3706 16.664 21.0366 16.798 20.7926 17.066V15.458H20.0066V20H20.7446V19.634C20.8646 19.774 21.0146 19.882 21.1946 19.958C21.3786 20.034 21.5766 20.072 21.7886 20.072ZM21.6986 19.352C21.5266 19.352 21.3706 19.31 21.2306 19.226C21.0946 19.142 20.9866 19.026 20.9066 18.878C20.8306 18.73 20.7926 18.56 20.7926 18.368C20.7926 18.176 20.8306 18.006 20.9066 17.858C20.9866 17.71 21.0946 17.594 21.2306 17.51C21.3706 17.426 21.5266 17.384 21.6986 17.384C21.8786 17.384 22.0366 17.428 22.1726 17.516C22.3126 17.6 22.4226 17.716 22.5026 17.864C22.5826 18.012 22.6226 18.18 22.6226 18.368C22.6226 18.556 22.5826 18.726 22.5026 18.878C22.4226 19.026 22.3126 19.142 22.1726 19.226C22.0366 19.31 21.8786 19.352 21.6986 19.352Z" fill="white"/>
<circle cx="16.5" cy="16.5" r="13" stroke="white"/>
</svg>
