<svg width="40" height="40" viewBox="0 0 40 40" fill="none" xmlns="http://www.w3.org/2000/svg">
<path d="M17.2112 1.53652C12.172 2.61472 8.1878 6.76308 7.32061 11.8489C6.47678 16.6771 8.37522 21.4818 12.2659 24.435C13.4612 25.349 14.1409 26.7084 14.1409 28.2085L17.4484 29.5191L14.1408 31.724V32.8959C14.1408 33.2943 14.1878 33.6927 14.258 34.0678L17.6565 36.4115L20.0002 34.0678L22.344 36.4115L25.7424 34.0678C25.8126 33.6927 25.8596 33.2943 25.8596 32.8959V31.724L22.5755 29.5346L25.8596 28.2084C25.8596 26.7084 26.5392 25.3489 27.7346 24.435C30.969 21.9974 32.8908 18.1536 32.8908 14.1459C32.8908 6.08887 25.5347 -0.207853 17.2112 1.53652ZM20.0002 31.724L18.0228 29.7466L20.0557 30.5521L21.9283 29.796L20.0002 31.724Z" fill="#FBC531"/>
<path d="M14.1406 31.7243H17.6562C18.3126 31.7243 18.8281 32.2398 18.8281 32.8961C18.8281 33.5523 18.3126 34.068 17.6562 34.068H14.2578C14.797 36.7399 17.1641 38.7555 20 38.7555C23.0111 38.7555 25.2816 36.5241 25.7422 34.068H22.3438C21.6874 34.068 21.1719 33.5523 21.1719 32.8961C21.1719 32.2398 21.6874 31.7243 22.3438 31.7243H25.8594V28.2086H14.1406V31.7243ZM4.18313 18.6563L1.98016 19.4586C1.37133 19.6794 1.05773 20.3523 1.27977 20.96C1.50281 21.5746 2.1807 21.8797 2.78125 21.6604L4.98422 20.8582C5.59305 20.6373 5.90664 19.9644 5.68461 19.3567C5.46258 18.749 4.78625 18.4343 4.18313 18.6563ZM35.8169 9.63606L38.0198 8.8338C38.6287 8.61294 38.9423 7.94005 38.7202 7.33231C38.4994 6.72348 37.8241 6.41223 37.2188 6.63192L35.0158 7.43419C34.407 7.65505 34.0934 8.32794 34.3154 8.93567C34.5385 9.5502 35.2163 9.85536 35.8169 9.63606ZM4.98422 7.43419L2.78125 6.632C2.17469 6.41341 1.50063 6.72356 1.27977 7.33239C1.05773 7.94005 1.37133 8.61301 1.98016 8.83387L4.18313 9.63614C4.78273 9.85512 5.46125 9.55114 5.68461 8.93575C5.90656 8.32801 5.59305 7.65505 4.98422 7.43419ZM38.0198 19.4585L35.8169 18.6562C35.2115 18.4354 34.5363 18.749 34.3154 19.3566C34.0934 19.9643 34.407 20.6372 35.0158 20.8581L37.2188 21.6604C37.8184 21.8793 38.4969 21.5754 38.7202 20.96C38.9423 20.3523 38.6287 19.6793 38.0198 19.4585ZM4.76562 14.1461C4.76562 13.4984 4.24148 12.9743 3.59375 12.9743H1.17188C0.524141 12.9743 0 13.4984 0 14.1461C0 14.7939 0.524141 15.318 1.17188 15.318H3.59375C4.24148 15.318 4.76562 14.7939 4.76562 14.1461ZM38.8281 12.9743H36.4062C35.7585 12.9743 35.2344 13.4984 35.2344 14.1461C35.2344 14.7939 35.7585 15.318 36.4062 15.318H38.8281C39.4759 15.318 40 14.7939 40 14.1461C40 13.4984 39.4759 12.9743 38.8281 12.9743ZM24.9095 13.0486C24.5403 12.709 24.1164 10.6305 22.3438 10.6305C21.0334 10.6305 20.4635 11.7692 20.1236 12.4501C20.087 12.5234 20.0446 12.6092 20 12.6939C19.9554 12.6092 19.913 12.5233 19.8764 12.4501C19.5365 11.7692 18.9666 10.6305 17.6562 10.6305C16.0004 10.6305 15.5387 12.4252 15.142 12.9868C14.5755 13.0693 14.1406 13.5568 14.1406 14.1461C14.1406 14.7939 14.6648 15.318 15.3125 15.318C16.6228 15.318 17.1927 14.1793 17.5327 13.4984C17.5693 13.4251 17.6116 13.3393 17.6562 13.2547C17.7009 13.3393 17.7432 13.4252 17.7798 13.4984C17.991 13.9215 18.3169 14.4962 18.8281 14.8899V21.1774C18.8281 21.8251 19.3523 22.3493 20 22.3493C20.6477 22.3493 21.1719 21.8251 21.1719 21.1774V14.8899C21.6831 14.4962 22.009 13.9216 22.2202 13.4984C22.2568 13.4251 22.2991 13.3393 22.3438 13.2547C22.3884 13.3393 22.4307 13.4252 22.4673 13.4984C22.8073 14.1793 23.3772 15.318 24.6875 15.318C25.3352 15.318 25.9704 14.8305 25.9704 14.1839C25.9704 13.5362 25.5573 13.0486 24.9095 13.0486Z" fill="url(#paint0_linear)"/>
<defs>
<linearGradient id="paint0_linear" x1="20" y1="22.3493" x2="20" y2="6.56153" gradientUnits="userSpaceOnUse">
<stop stop-color="#FFE59A"/>
<stop offset="1" stop-color="#FFFFD5"/>
</linearGradient>
</defs>
</svg>
