<svg width="24" height="24" viewBox="0 0 24 24" fill="none" xmlns="http://www.w3.org/2000/svg">
<g clip-path="url(#clip0)">
<path d="M6.28722 9.75558C6.28722 6.57188 8.89122 3.99666 12.0856 4.04311C15.1695 4.08816 17.6801 6.60947 17.7131 9.69333C17.727 11.0134 17.2936 12.2314 16.5546 13.205C15.5122 14.5794 14.8703 16.2094 14.7379 17.9178C14.7207 18.1361 14.7124 18.3558 14.7124 18.5765L14.7124 19.9277L9.28788 19.9277L9.28788 18.6559C9.28788 18.4093 9.27813 18.1631 9.25816 17.9178C9.12209 16.2252 8.51772 14.5938 7.47541 13.2435C6.73038 12.2788 6.28722 11.0687 6.28722 9.75558Z" fill="#A5BEF8"/>
<path d="M13.3327 12.8226C13.5297 12.8226 13.6895 12.9823 13.6895 13.1794L13.6895 19.9274C13.6895 20.1244 13.5298 20.2842 13.3327 20.2842C13.1356 20.2842 12.9759 20.1245 12.9759 19.9274L12.9759 13.1794C12.9759 12.9824 13.1356 12.8226 13.3327 12.8226Z" fill="#1757EE"/>
<path d="M10.6852 12.8226C10.8823 12.8226 11.042 12.9823 11.042 13.1794L11.042 19.9274C11.042 20.1244 10.8823 20.2842 10.6852 20.2842C10.4882 20.2842 10.3284 20.1245 10.3284 19.9274L10.3284 13.1794C10.3285 12.9824 10.4882 12.8226 10.6852 12.8226Z" fill="#1757EE"/>
<path d="M10.6851 14.1521C10.7763 14.1521 10.8677 14.187 10.9374 14.2566C11.2739 14.5933 11.7318 14.2644 11.783 14.2258C11.925 14.1183 12.1263 14.1307 12.2523 14.2567C12.5716 14.5759 13.1123 14.2268 13.1352 14.2118C13.2992 14.104 13.5205 14.1485 13.6291 14.312C13.7377 14.4756 13.6946 14.6956 13.5317 14.8051C13.2167 15.0167 12.5373 15.2744 11.9786 14.9419C11.5757 15.1487 10.9443 15.2727 10.4328 14.7613C10.2935 14.6219 10.2935 14.396 10.4328 14.2567C10.5025 14.187 10.5938 14.1521 10.6851 14.1521Z" fill="#1757EE"/>
<path d="M9.15664 18.6145L14.8617 18.6145C15.1343 18.6145 15.3336 18.8719 15.2653 19.1357L15.1236 19.6829L14.2829 22.9316L14.0873 23.6873C14.0399 23.8713 13.8741 24 13.6841 24L10.3346 24C10.1446 24 9.97874 23.8713 9.93092 23.6874L9.73536 22.9316L8.89508 19.6829L8.75342 19.1357C8.68513 18.8719 8.88444 18.6145 9.15664 18.6145Z" fill="#4779F1"/>
<path d="M8.895 19.6829L15.1235 19.6829L14.2828 22.9316L9.73529 22.9316L8.895 19.6829Z" fill="#1757EE"/>
<path d="M8.84425 20.3798L15.1744 20.3798C15.4251 20.3798 15.6284 20.5831 15.6284 20.8339L15.6284 21.7811C15.6284 22.0318 15.4252 22.2351 15.1744 22.2351L8.8442 22.2351C8.59346 22.2351 8.39017 22.0319 8.39017 21.7811L8.39017 20.8339C8.39022 20.5831 8.59347 20.3798 8.84425 20.3798Z" fill="#A5BEF8"/>
<path d="M12.0002 -9.91509e-05C12.1972 -9.91682e-05 12.3569 0.159604 12.3569 0.356714L12.3569 2.40051C12.3569 2.59757 12.1972 2.75732 12.0002 2.75732C11.8031 2.75732 11.6434 2.59762 11.6434 2.40051L11.6434 0.356714C11.6434 0.159604 11.8031 -9.91337e-05 12.0002 -9.91509e-05Z" fill="#1757EE"/>
<path d="M17.6002 1.55359C17.6915 1.55359 17.7828 1.58841 17.8525 1.65807C17.9919 1.79743 17.9919 2.02332 17.8526 2.16268L16.4073 3.60789C16.268 3.74725 16.042 3.74721 15.9028 3.60794C15.7634 3.46858 15.7634 3.24269 15.9027 3.10333L17.3479 1.65812C17.4176 1.58841 17.5089 1.55359 17.6002 1.55359Z" fill="#1757EE"/>
<path d="M6.40068 1.55363C6.49199 1.55363 6.5833 1.58846 6.653 1.65817L8.09816 3.10333C8.23747 3.24269 8.23747 3.46858 8.09811 3.60794C7.95885 3.74725 7.73291 3.74721 7.59355 3.60789L6.14835 2.16268C6.00904 2.02332 6.00904 1.79743 6.1484 1.65807C6.21805 1.58846 6.30941 1.55363 6.40068 1.55363Z" fill="#1757EE"/>
</g>
<defs>
<clipPath id="clip0">
<rect width="24" height="24" fill="white" transform="translate(24 24) rotate(180)"/>
</clipPath>
</defs>
</svg>
