<svg width="42" height="42" viewBox="0 0 42 42" fill="none" xmlns="http://www.w3.org/2000/svg">
<circle cx="21" cy="21" r="21" fill="#1757EE"/>
<path d="M28.485 21.5886C28.3631 21.4667 28.2877 21.2983 28.2876 21.1122L28.2876 20.8663C28.2876 20.3 28.5081 19.7677 28.9084 19.3674C29.3087 18.9671 29.841 18.7466 30.4072 18.7466L30.653 18.7466C30.8318 18.7466 31.0032 18.8176 31.1296 18.9439C31.2559 19.0703 31.3269 19.2417 31.3269 19.4204V19.6664C31.327 20.2326 31.1065 20.7649 30.7062 21.1652C30.3059 21.5655 29.7736 21.786 29.2074 21.786H28.9615C28.7754 21.786 28.607 21.7106 28.485 21.5886Z" fill="white"/>
<path d="M31.3524 22.39C30.7434 22.8714 29.9961 23.1334 29.208 23.1334H28.9619C28.4219 23.1334 27.9142 22.9231 27.5325 22.5413C27.1508 22.1597 26.9405 21.6521 26.9403 21.1123L26.9403 20.8662C26.9403 20.6778 26.956 20.4919 26.9852 20.3095C26.754 20.0689 26.4762 19.8697 26.1612 19.728C25.8216 19.5752 25.4228 19.7266 25.2702 20.0659C25.1175 20.4053 25.2688 20.8042 25.6082 20.9569C26.0155 21.1402 26.2975 21.5174 26.3657 21.9502C25.2548 21.5479 24.0579 21.6274 23.0771 22.1873C21.7162 22.9642 20.9552 24.4672 21.1383 26.0164C21.141 26.039 21.1448 26.0615 21.1497 26.0837C21.5971 28.0932 22.6449 29.8806 24.1798 31.2525L24.4734 31.5149C24.8348 31.8378 25.2874 32.0006 25.7411 32.0006C26.1602 32.0006 26.5802 31.8617 26.9299 31.582L27.0557 31.4814L27.1852 31.5846C27.9129 32.1641 28.9447 32.1349 29.6384 31.5149L29.932 31.2525C31.467 29.8806 32.5148 28.0933 32.9621 26.0837C32.9671 26.0615 32.9709 26.039 32.9736 26.0164C33.142 24.5916 32.5123 23.2079 31.3524 22.39Z" fill="white"/>
<path d="M21.9045 13.9415H13.8184C13.6069 13.9415 13.4077 13.8423 13.2804 13.6735C13.1531 13.5047 13.1124 13.2858 13.1705 13.0826C13.4785 12.0045 14.3275 11.1852 15.3907 10.9044V9.67384C15.3907 9.3017 15.6924 9 16.0645 9H19.6584C20.0305 9 20.3322 9.3017 20.3322 9.67384V10.9044C21.3954 11.1852 22.2444 12.0045 22.5524 13.0826C22.6105 13.2858 22.5698 13.5047 22.4425 13.6735C22.3152 13.8423 22.116 13.9415 21.9045 13.9415Z" fill="white"/>
<path d="M25.0492 12.1431H23.6424C23.7233 12.3268 23.7925 12.5168 23.8483 12.7124C24.0215 13.3188 23.8983 13.9815 23.5185 14.4851C23.1386 14.9888 22.5353 15.2893 21.9046 15.2893H13.8185C13.1878 15.2893 12.5845 14.9888 12.2046 14.4853C11.8247 13.9815 11.7015 13.3188 11.8747 12.7124C11.9306 12.5169 11.9997 12.3268 12.0806 12.1431H10.6738C10.3017 12.1431 10 12.4448 10 12.8169V31.3252C10 31.6973 10.3017 31.999 10.6738 31.999H23.0029C21.4085 30.475 20.3158 28.5391 19.8344 26.3767C19.8198 26.311 19.8081 26.2429 19.8001 26.1751C19.5534 24.0872 20.5775 22.0627 22.4091 21.0171C22.861 20.7591 23.3534 20.5737 23.8663 20.4648C23.8463 20.1418 23.9047 19.8166 24.0413 19.5131C24.3448 18.8386 24.9936 18.3865 25.723 18.3277V12.8169C25.723 12.4448 25.4213 12.1431 25.0492 12.1431ZM18.76 28.3153H13.3692C12.9971 28.3153 12.6954 28.0136 12.6954 27.6415C12.6954 27.2693 12.9971 26.9676 13.3692 26.9676H18.76C19.1321 26.9676 19.4338 27.2693 19.4338 27.6415C19.4338 28.0136 19.1321 28.3153 18.76 28.3153ZM18.76 25.62H13.3692C12.9971 25.62 12.6954 25.3183 12.6954 24.9461C12.6954 24.574 12.9971 24.2723 13.3692 24.2723H18.76C19.1321 24.2723 19.4338 24.574 19.4338 24.9461C19.4338 25.3183 19.1321 25.62 18.76 25.62ZM18.76 22.9246H13.3692C12.9971 22.9246 12.6954 22.6229 12.6954 22.2507C12.6954 21.8786 12.9971 21.5769 13.3692 21.5769H18.76C19.1321 21.5769 19.4338 21.8786 19.4338 22.2507C19.4338 22.6229 19.1321 22.9246 18.76 22.9246ZM18.76 20.2292H13.3692C12.9971 20.2292 12.6954 19.9275 12.6954 19.5554C12.6954 19.1832 12.9971 18.8815 13.3692 18.8815H18.76C19.1321 18.8815 19.4338 19.1832 19.4338 19.5554C19.4338 19.9275 19.1321 20.2292 18.76 20.2292ZM18.76 17.5338H13.3692C12.9971 17.5338 12.6954 17.2321 12.6954 16.86C12.6954 16.4878 12.9971 16.1861 13.3692 16.1861H18.76C19.1321 16.1861 19.4338 16.4878 19.4338 16.86C19.4338 17.2321 19.1321 17.5338 18.76 17.5338ZM22.3538 20.2292H21.4554C21.0832 20.2292 20.7815 19.9275 20.7815 19.5554C20.7815 19.1832 21.0832 18.8815 21.4554 18.8815H22.3538C22.726 18.8815 23.0277 19.1832 23.0277 19.5554C23.0277 19.9275 22.726 20.2292 22.3538 20.2292ZM22.3538 17.5338H21.4554C21.0832 17.5338 20.7815 17.2321 20.7815 16.86C20.7815 16.4878 21.0832 16.1861 21.4554 16.1861H22.3538C22.726 16.1861 23.0277 16.4878 23.0277 16.86C23.0277 17.2321 22.726 17.5338 22.3538 17.5338Z" fill="white"/>
</svg>
