<svg width="45" height="45" viewBox="0 0 45 45" fill="none" xmlns="http://www.w3.org/2000/svg">
<rect width="45" height="45" rx="15" fill="#C8D8FF"/>
<path d="M29.2048 9H16.6957C15.2246 9 14.0278 9.99972 14.0278 11.2285V12.9123C14.0278 13.3226 14.426 13.6552 14.9171 13.6552H30.9834C31.4745 13.6552 31.8727 13.3226 31.8727 12.9123V11.2285C31.8727 9.99972 30.6759 9 29.2048 9Z" fill="#1757EE"/>
<path d="M11.7002 33.0519V19.0864C11.7002 17.3724 13.0897 15.9829 14.8036 15.9829H31.0967C32.8107 15.9829 34.2002 17.3724 34.2002 19.0864V33.0519C34.2002 34.7659 32.8107 36.1553 31.0967 36.1553H14.8036C13.0897 36.1553 11.7002 34.7659 11.7002 33.0519Z" fill="#1757EE"/>
<path d="M15.5796 15.9829V13.6553H30.321V15.9829H15.5796Z" fill="#759CF5"/>
<path d="M11.7002 33.0519H34.2002C34.2002 34.7659 32.8107 36.1553 31.0967 36.1553H14.8036C13.0897 36.1553 11.7002 34.7659 11.7002 33.0519Z" fill="#759CF5"/>
<path d="M34.2002 19.0864H11.7002C11.7002 17.3724 13.0897 15.9829 14.8036 15.9829H31.0967C32.8107 15.9829 34.2002 17.3724 34.2002 19.0864Z" fill="#759CF5"/>
<path d="M14.0278 27.559H14.7398V26.1498H15.4833C15.7485 26.1498 15.9824 26.1036 16.1848 26.0114C16.3872 25.9157 16.5461 25.7774 16.6612 25.5963C16.7799 25.4152 16.8392 25.1983 16.8392 24.9455C16.8392 24.6858 16.7816 24.4672 16.6665 24.2895C16.5513 24.1119 16.3907 23.9769 16.1848 23.8847C15.9824 23.789 15.7485 23.7412 15.4833 23.7412H14.0278V27.559ZM14.7398 25.5348V24.3562H15.4937C15.6857 24.3562 15.8393 24.4091 15.9545 24.515C16.0696 24.6209 16.1272 24.7644 16.1272 24.9455C16.1272 25.1231 16.0696 25.2666 15.9545 25.376C15.8393 25.4819 15.6857 25.5348 15.4937 25.5348H14.7398Z" fill="white"/>
<path d="M17.3651 27.559H18.0509V26.0063C18.0509 25.7945 18.1102 25.6305 18.2289 25.5143C18.3511 25.3947 18.5081 25.335 18.7001 25.335H18.9462V24.7405H18.7786C18.6041 24.7405 18.4505 24.7713 18.3179 24.8327C18.1853 24.8942 18.0823 25.0053 18.009 25.1658V24.7713H17.3651V27.559Z" fill="white"/>
<path d="M20.7158 27.6205C20.9916 27.6205 21.2429 27.559 21.4697 27.436C21.6966 27.3096 21.8781 27.1371 22.0142 26.9185C22.1503 26.6964 22.2184 26.4453 22.2184 26.1651C22.2184 25.885 22.1503 25.6356 22.0142 25.417C21.8816 25.1983 21.7018 25.0258 21.475 24.8994C21.2481 24.773 20.9951 24.7098 20.7158 24.7098C20.4331 24.7098 20.1783 24.773 19.9515 24.8994C19.7246 25.0258 19.5431 25.1983 19.407 25.417C19.2744 25.6356 19.208 25.885 19.208 26.1651C19.208 26.4453 19.2744 26.6947 19.407 26.9133C19.5431 27.132 19.7246 27.3045 19.9515 27.4309C20.1818 27.5573 20.4366 27.6205 20.7158 27.6205ZM20.7158 27.0056C20.5623 27.0056 20.4244 26.9697 20.3022 26.898C20.1836 26.8262 20.0893 26.7271 20.0195 26.6007C19.9532 26.4709 19.9201 26.3257 19.9201 26.1651C19.9201 26.0046 19.9532 25.8611 20.0195 25.7347C20.0893 25.6083 20.1836 25.5092 20.3022 25.4374C20.4244 25.3623 20.5623 25.3247 20.7158 25.3247C20.8694 25.3247 21.0038 25.3623 21.119 25.4374C21.2376 25.5092 21.3301 25.6083 21.3964 25.7347C21.4662 25.8611 21.5011 26.0046 21.5011 26.1651C21.5011 26.3257 21.4662 26.4709 21.3964 26.6007C21.3301 26.7271 21.2376 26.8262 21.119 26.898C21.0038 26.9697 20.8694 27.0056 20.7158 27.0056Z" fill="white"/>
<path d="M23.9857 27.5898C24.1009 27.5898 24.2144 27.5812 24.326 27.5642V26.9851C24.2597 26.9953 24.1987 27.0004 24.1428 27.0004C23.9753 27.0004 23.8531 26.9629 23.7763 26.8877C23.6995 26.8125 23.6612 26.7049 23.6612 26.5649V25.3708H24.3156V24.7713H23.6612V24.1358H22.9753V24.351C22.9753 24.4877 22.9369 24.5919 22.8601 24.6636C22.7834 24.7354 22.6752 24.7713 22.5355 24.7713H22.4832V25.3708H22.9753V26.6007C22.9753 26.9116 23.0626 27.1542 23.2371 27.3284C23.4151 27.5027 23.6646 27.5898 23.9857 27.5898Z" fill="white"/>
<path d="M26.1752 27.6205C26.4649 27.6205 26.7179 27.5573 26.9343 27.4309C27.1542 27.3011 27.3078 27.1371 27.395 26.939L26.8401 26.6725C26.7773 26.7784 26.69 26.8655 26.5783 26.9338C26.4701 26.9987 26.3375 27.0312 26.1804 27.0312C25.9745 27.0312 25.8017 26.9697 25.6621 26.8467C25.5225 26.7237 25.4422 26.5597 25.4213 26.3547H27.4736C27.4875 26.3172 27.4963 26.2745 27.4998 26.2266C27.5067 26.1754 27.5102 26.1241 27.5102 26.0729C27.5102 25.8235 27.4561 25.5963 27.3479 25.3913C27.2397 25.1863 27.0827 25.0224 26.8767 24.8994C26.6708 24.773 26.4195 24.7098 26.1228 24.7098C25.8576 24.7098 25.6168 24.773 25.4004 24.8994C25.1875 25.0258 25.0182 25.1983 24.8925 25.417C24.7704 25.6322 24.7093 25.8799 24.7093 26.16C24.7093 26.4299 24.7704 26.6759 24.8925 26.898C25.0147 27.12 25.1857 27.296 25.4056 27.4258C25.6255 27.5556 25.882 27.6205 26.1752 27.6205ZM26.1228 25.2632C26.3043 25.2632 26.4544 25.3179 26.5731 25.4272C26.6953 25.5331 26.7633 25.6715 26.7773 25.8423H25.437C25.4754 25.6578 25.5557 25.516 25.6778 25.417C25.8035 25.3145 25.9518 25.2632 26.1228 25.2632Z" fill="white"/>
<path d="M28.0301 24.4587H28.716V23.7412H28.0301V24.4587ZM28.0301 27.559H28.716V24.7713H28.0301V27.559Z" fill="white"/>
<path d="M29.3492 27.559H30.035V25.9243C30.035 25.7432 30.0874 25.598 30.1921 25.4887C30.3003 25.3794 30.4399 25.3247 30.6109 25.3247C30.7819 25.3247 30.9198 25.3794 31.0245 25.4887C31.1327 25.5946 31.1868 25.7398 31.1868 25.9243V27.559H31.8727V25.7654C31.8727 25.557 31.8273 25.3742 31.7365 25.2171C31.6458 25.0565 31.5184 24.9318 31.3544 24.843C31.1938 24.7542 31.0088 24.7098 30.7994 24.7098C30.6214 24.7098 30.4608 24.7439 30.3177 24.8122C30.1781 24.8806 30.0699 24.9814 29.9932 25.1146V24.7713H29.3492V27.559Z" fill="white"/>
</svg>
