<svg width="18" height="18" viewBox="0 0 18 18" fill="none" xmlns="http://www.w3.org/2000/svg">
<path d="M18.0003 8.85237C18.0028 10.804 17.3411 12.6877 16.1404 14.2016C15.7976 14.6339 15.1598 14.6303 14.7696 14.2402L9.38184 8.85237V1.23324C9.38184 0.68102 9.8314 0.22724 10.38 0.290432C14.669 0.784484 17.9997 4.42775 18.0003 8.84932V8.85237Z" fill="#1757EE"/>
<path d="M13.825 14.5651C14.2155 14.9557 14.2184 15.5946 13.7852 15.9372C10.444 18.5795 5.57892 18.3579 2.49332 15.2723C-0.831081 11.9479 -0.831118 6.55794 2.49328 3.23354C3.8528 1.87402 5.62483 1.02183 7.51518 0.798844C8.06365 0.734145 8.51291 1.18793 8.51291 1.7402V9.25313L13.825 14.5651Z" fill="#4779F1"/>
</svg>
