<svg width="116" height="116" viewBox="0 0 116 116" fill="none" xmlns="http://www.w3.org/2000/svg">
<g filter="url(#filter0_d)">
<circle cx="58" cy="56" r="50" fill="#4779F1"/>
</g>
<g clip-path="url(#clip0)">
<path d="M85.1215 59.9684C85.0927 59.966 85.0637 59.9648 85.0348 59.9648H65.0078C64.4548 59.963 64.0049 60.4097 64.0029 60.9627C64.0028 60.9916 64.0039 61.0205 64.0064 61.0493L65.8569 83.2452C65.994 84.7996 67.2926 85.9935 68.853 85.9999H81.1896C82.7489 85.992 84.0458 84.7984 84.1827 83.2452L86.0362 61.0493C86.0821 60.4982 85.6726 60.0142 85.1215 59.9684ZM82.187 83.079C82.1409 83.5979 81.7067 83.9961 81.1856 83.9972H68.853C68.3319 83.9961 67.8977 83.5979 67.8516 83.079L66.5969 67.9756H83.4457L82.187 83.079ZM83.6129 65.9729H66.4297L66.0963 61.9675H83.9464L83.6129 65.9729Z" fill="white"/>
<path d="M52.991 36.4891V33.8686C55.129 33.3184 56.4161 31.1391 55.8659 29.001C55.4108 27.2328 53.8155 25.9978 51.9897 26H39.9735C37.7657 25.9972 35.9738 27.7848 35.9711 29.9924C35.9688 31.8182 37.2039 33.4135 38.9721 33.8686V36.4891C33.2311 41.7655 29.9626 49.2054 29.96 57.0028V78.9905C29.9643 82.8598 33.1001 85.9955 36.9694 85.9999H54.9937C58.8631 85.9955 61.9988 82.8598 62.0032 78.9905V57.0028C62.0005 49.2054 58.732 41.7655 52.991 36.4891ZM37.9708 30.0054C37.9708 28.8993 38.8673 28.0027 39.9735 28.0027H51.9897C53.0953 28.034 53.9662 28.9557 53.9348 30.0614C53.9076 31.0209 53.2033 31.8262 52.256 31.9811C52.1703 31.9504 52.0805 31.9323 51.9897 31.927H39.9735C39.8826 31.9323 39.7928 31.9504 39.7071 31.9811C38.7164 31.8481 37.9754 31.005 37.9708 30.0054ZM40.6394 37.6828C40.853 37.4925 40.9752 37.2199 40.9748 36.9337V34.0108H50.9883V36.9337C50.9879 37.2199 51.1101 37.4925 51.3238 37.6828C54.4809 40.4928 56.9008 44.0342 58.3713 47.9967C54.4527 49.4769 50.0782 49.1329 46.4392 47.0584C42.8905 45.0254 38.6979 44.4295 34.7234 45.3932C36.1895 42.4717 38.1971 39.8552 40.6394 37.6828ZM60.0005 78.9905C59.9972 81.7542 57.7574 83.9939 54.9937 83.9972H36.9694C34.2057 83.9939 31.9659 81.7542 31.9627 78.9905V57.0028C31.9648 53.8563 32.5417 50.7366 33.665 47.7974C37.5476 46.3757 41.8599 46.7422 45.4468 48.7987C49.5749 51.1646 54.542 51.5701 58.9991 49.9052C59.6618 52.213 59.9988 54.6018 60.0005 57.0028V78.9905Z" fill="white"/>
<path d="M56.9965 59.9648C56.4435 59.9648 55.9951 60.4132 55.9951 60.9662V61.9675C55.9951 62.5205 56.4435 62.9689 56.9965 62.9689C57.5495 62.9689 57.9978 62.5205 57.9978 61.9675V60.9662C57.9978 60.4132 57.5495 59.9648 56.9965 59.9648Z" fill="white"/>
<path d="M56.9965 64.9712C56.4435 64.9712 55.9951 65.4195 55.9951 65.9725V72.982C55.9951 73.535 56.4435 73.9834 56.9965 73.9834C57.5495 73.9834 57.9978 73.535 57.9978 72.982V65.9725C57.9978 65.4195 57.5495 64.9712 56.9965 64.9712Z" fill="white"/>
</g>
<defs>
<filter id="filter0_d" x="0" y="0" width="116" height="116" filterUnits="userSpaceOnUse" color-interpolation-filters="sRGB">
<feFlood flood-opacity="0" result="BackgroundImageFix"/>
<feColorMatrix in="SourceAlpha" type="matrix" values="0 0 0 0 0 0 0 0 0 0 0 0 0 0 0 0 0 0 127 0"/>
<feOffset dy="2"/>
<feGaussianBlur stdDeviation="4"/>
<feColorMatrix type="matrix" values="0 0 0 0 0 0 0 0 0 0 0 0 0 0 0 0 0 0 0.15 0"/>
<feBlend mode="normal" in2="BackgroundImageFix" result="effect1_dropShadow"/>
<feBlend mode="normal" in="SourceGraphic" in2="effect1_dropShadow" result="shape"/>
</filter>
<clipPath id="clip0">
<rect width="60" height="60" fill="white" transform="translate(28 26)"/>
</clipPath>
</defs>
</svg>
