<svg width="52" height="49" viewBox="0 0 52 49" fill="none" xmlns="http://www.w3.org/2000/svg">
<path d="M37.2319 24.3716C37.2319 19.0758 32.9234 14.7673 27.6277 14.7673C22.3319 14.7673 18.0234 19.0758 18.0234 24.3716C18.0234 29.6674 22.3318 33.9758 27.6277 33.9758C32.9235 33.9758 37.2319 29.6674 37.2319 24.3716ZM22.0859 24.3715C22.0859 21.3158 24.572 18.8298 27.6277 18.8298C30.6834 18.8298 33.1694 21.3159 33.1694 24.3716C33.1694 27.4273 30.6835 29.9133 27.6277 29.9133C24.572 29.9133 22.0859 27.4272 22.0859 24.3715Z" fill="#CCCCCC"/>
<path d="M27.6284 0C15.4713 0 5.57809 8.83736 3.61692 20.1603H2.03133C1.2822 20.1603 0.593812 20.5726 0.240375 21.2331C-0.113164 21.8935 -0.0743676 22.695 0.341226 23.3182L3.93837 28.714C4.31506 29.279 4.94932 29.6185 5.62847 29.6185C6.30772 29.6185 6.94187 29.279 7.31857 28.714L10.9158 23.3182C11.3313 22.695 11.37 21.8935 11.0166 21.2331C10.663 20.5726 9.97473 20.1603 9.22561 20.1603H7.75925C9.70376 10.976 17.8734 4.0625 27.6282 4.0625C38.8268 4.0625 47.9375 13.1732 47.9375 24.3717C47.9375 35.5703 38.8268 44.681 27.6282 44.681C26.5064 44.681 25.597 45.5904 25.597 46.7122C25.597 47.8341 26.5064 48.7435 27.6282 48.7435C41.0996 48.7435 52 37.8412 52 24.3717C52 10.9004 41.0977 0 27.6284 0Z" fill="#CCCCCC"/>
</svg>
