<svg width="33" height="33" viewBox="0 0 33 33" fill="none" xmlns="http://www.w3.org/2000/svg">
<circle cx="16.5" cy="16.5" r="16.5" fill="#4779F1"/>
<path d="M25.1341 15.3278H22.9347C22.8228 15.3278 22.7155 15.2834 22.6364 15.2042C22.5573 15.1251 22.5128 15.0178 22.5128 14.9059C22.5113 13.655 22.0136 12.4558 21.1287 11.5715C20.2439 10.6872 19.0444 10.1901 17.7935 10.1894C17.6816 10.1894 17.5743 10.1449 17.4951 10.0658C17.416 9.98669 17.3716 9.87939 17.3716 9.7675V7.5625C17.3716 7.45061 17.416 7.34331 17.4951 7.26419C17.5743 7.18507 17.6816 7.14062 17.7935 7.14062C19.8518 7.1436 21.8249 7.96278 23.2801 9.41849C24.7353 10.8742 25.5537 12.8476 25.556 14.9059C25.556 15.0178 25.5115 15.1251 25.4324 15.2042C25.3533 15.2834 25.246 15.3278 25.1341 15.3278ZM23.3397 14.4841H24.701C24.5965 12.7982 23.8797 11.2085 22.6853 10.0141C21.4909 8.81971 19.9012 8.10288 18.2153 7.99844V9.35969C19.5402 9.46237 20.7848 10.0352 21.7245 10.9749C22.6642 11.9146 23.237 13.1591 23.3397 14.4841Z" fill="white"/>
<path d="M17.8071 24.8597C17.6952 24.8597 17.5879 24.8152 17.5088 24.7361C17.4297 24.657 17.3853 24.5497 17.3853 24.4378V22.2356C17.3853 22.1237 17.4297 22.0164 17.5088 21.9373C17.5879 21.8582 17.6952 21.8137 17.8071 21.8137C19.0576 21.8122 20.2564 21.3148 21.1406 20.4306C22.0248 19.5464 22.5222 18.3476 22.5237 17.0972C22.5237 16.9853 22.5681 16.878 22.6473 16.7989C22.7264 16.7197 22.8337 16.6753 22.9456 16.6753H25.1562C25.2681 16.6753 25.3754 16.7197 25.4545 16.7989C25.5336 16.878 25.5781 16.9853 25.5781 17.0972C25.5758 19.1567 24.7561 21.1311 23.299 22.5866C21.8419 24.0421 19.8666 24.8597 17.8071 24.8597ZM18.229 22.6434V24.0047C19.9145 23.899 21.5035 23.1818 22.6976 21.9877C23.8918 20.7935 24.609 19.2045 24.7146 17.519H23.3534C23.2501 18.8438 22.6771 20.088 21.7375 21.0276C20.798 21.9671 19.5537 22.5402 18.229 22.6434Z" fill="white"/>
<path d="M16.1899 23.9848C15.1579 24.0044 14.1324 23.8181 13.1732 23.4368C12.2141 23.0554 11.3405 22.4867 10.6038 21.7638C9.86698 21.0409 9.28171 20.1784 8.88217 19.2266C8.48264 18.2749 8.27686 17.2531 8.27686 16.2209C8.27686 15.1887 8.48264 14.1669 8.88217 13.2151C9.28171 12.2634 9.86698 11.4009 10.6038 10.678C11.3405 9.95508 12.2141 9.38633 13.1732 9.00498C14.1324 8.62363 15.1579 8.43733 16.1899 8.45697C16.3018 8.45697 16.4091 8.50142 16.4883 8.58054C16.5674 8.65965 16.6118 8.76696 16.6118 8.87885V23.5629C16.6118 23.6748 16.5674 23.7821 16.4883 23.8612C16.4091 23.9403 16.3018 23.9848 16.1899 23.9848ZM15.7681 9.31197C14.008 9.41856 12.355 10.1929 11.1464 11.4768C9.93785 12.7608 9.26489 14.4576 9.26489 16.2209C9.26489 17.9842 9.93785 19.681 11.1464 20.9649C12.355 22.2489 14.008 23.0232 15.7681 23.1298V9.31197Z" fill="white"/>
<path d="M17.8071 22.6575C17.6952 22.6575 17.5879 22.613 17.5088 22.5339C17.4297 22.4548 17.3853 22.3475 17.3853 22.2356V17.0972C17.3853 16.9853 17.4297 16.878 17.5088 16.7989C17.5879 16.7197 17.6952 16.6753 17.8071 16.6753H22.9456C23.0575 16.6753 23.1648 16.7197 23.2439 16.7989C23.323 16.878 23.3674 16.9853 23.3674 17.0972C23.366 18.5714 22.7797 19.9848 21.7372 21.0273C20.6948 22.0697 19.2814 22.656 17.8071 22.6575ZM18.229 17.519V21.7969C19.3294 21.6957 20.3597 21.2125 21.1411 20.4311C21.9225 19.6497 22.4057 18.6195 22.5068 17.519H18.229Z" fill="white"/>
<path d="M16.1901 21.7854C14.7146 21.7854 13.2996 21.1993 12.2564 20.156C11.2131 19.1127 10.627 17.6977 10.627 16.2223C10.627 14.7469 11.2131 13.3319 12.2564 12.2886C13.2996 11.2453 14.7146 10.6592 16.1901 10.6592C16.302 10.6592 16.4093 10.7036 16.4884 10.7827C16.5675 10.8619 16.612 10.9692 16.612 11.0811V21.3636C16.612 21.4754 16.5675 21.5827 16.4884 21.6619C16.4093 21.741 16.302 21.7854 16.1901 21.7854ZM15.7682 11.5226C14.596 11.63 13.5063 12.1716 12.7128 13.0411C11.9193 13.9106 11.4795 15.0452 11.4795 16.2223C11.4795 17.3994 11.9193 18.534 12.7128 19.4035C13.5063 20.273 14.596 20.8146 15.7682 20.922V11.5226Z" fill="white"/>
<path d="M13.1978 16.6444C13.0859 16.6444 12.9786 16.5999 12.8994 16.5208C12.8203 16.4417 12.7759 16.3344 12.7759 16.2225C12.7766 15.3172 13.1366 14.4491 13.7767 13.809C14.4169 13.1688 15.2849 12.8089 16.1903 12.8081C16.3021 12.8081 16.4094 12.8526 16.4886 12.9317C16.5677 13.0108 16.6121 13.1181 16.6121 13.23C16.6121 13.3419 16.5677 13.4492 16.4886 13.5283C16.4094 13.6074 16.3021 13.6519 16.1903 13.6519C15.5097 13.6541 14.8577 13.9258 14.377 14.4076C13.8963 14.8893 13.626 15.5419 13.6253 16.2225C13.6253 16.2784 13.6142 16.3337 13.5926 16.3852C13.5711 16.4368 13.5395 16.4835 13.4997 16.5228C13.4599 16.562 13.4128 16.593 13.3609 16.6139C13.3091 16.6347 13.2536 16.6451 13.1978 16.6444Z" fill="white"/>
<path d="M22.9347 15.3279H17.7935C17.6816 15.3279 17.5743 15.2834 17.4951 15.2043C17.416 15.1252 17.3716 15.0179 17.3716 14.906V9.76758C17.3716 9.65569 17.416 9.54838 17.4951 9.46927C17.5743 9.39015 17.6816 9.3457 17.7935 9.3457C19.2679 9.34719 20.6817 9.9334 21.7245 10.9758C22.7674 12.0181 23.3543 13.4315 23.3566 14.906C23.3566 15.0179 23.3121 15.1252 23.233 15.2043C23.1539 15.2834 23.0466 15.3279 22.9347 15.3279ZM18.2153 14.4841H22.4931C22.3925 13.3835 21.9095 12.3529 21.128 11.5714C20.3465 10.7899 19.3159 10.3069 18.2153 10.2063V14.4841Z" fill="white"/>
</svg>
