<svg width="33" height="33" viewBox="0 0 33 33" fill="none" xmlns="http://www.w3.org/2000/svg">
<circle cx="16.5" cy="16.5" r="16.5" fill="#4779F1"/>
<g clip-path="url(#clip0)">
<path d="M20.3523 12.1078C19.6534 11.1385 18.7066 10.375 17.6112 9.89754C16.5157 9.42006 15.312 9.24611 14.1262 9.39393C12.9404 9.54175 11.8162 10.0059 10.8715 10.7377C9.92679 11.4695 9.19639 12.442 8.75687 13.5532C8.31736 14.6645 8.18492 15.8735 8.37345 17.0535C8.56197 18.2335 9.06452 19.3411 9.82839 20.26C10.5923 21.179 11.5893 21.8755 12.715 22.2765C13.8407 22.6776 15.0535 22.7683 16.2264 22.5393" stroke="white" stroke-width="0.84375" stroke-miterlimit="10" stroke-linecap="round"/>
<path d="M19.042 13.6713C18.6079 12.9099 17.9698 12.2847 17.1996 11.8662C16.4295 11.4477 15.5578 11.2525 14.6827 11.3026C13.8076 11.3527 12.9639 11.6461 12.2465 12.1497C11.5291 12.6534 10.9666 13.3473 10.6222 14.1533C10.2779 14.9594 10.1653 15.8455 10.2973 16.7121C10.4293 17.5786 10.8006 18.391 11.3694 19.058C11.9381 19.7249 12.6817 20.2199 13.5165 20.4871C14.3513 20.7543 15.2441 20.7831 16.0945 20.5704" stroke="white" stroke-width="0.84375" stroke-miterlimit="10" stroke-linecap="round"/>
<path d="M11.9375 16.0001C11.9375 15.2014 12.2538 14.4352 12.8172 13.8692C13.3807 13.3031 14.1454 12.9832 14.9441 12.9795" stroke="white" stroke-width="0.84375" stroke-linecap="round" stroke-linejoin="round"/>
<path d="M23.9335 10.4904L25.222 11.2343C25.452 11.3671 25.6198 11.5857 25.6885 11.8422C25.7572 12.0987 25.7213 12.372 25.5885 12.602L20.6989 21.0709L17.6762 19.3258L22.5658 10.8569C22.6315 10.743 22.7191 10.6432 22.8234 10.5631C22.9277 10.4831 23.0467 10.4244 23.1737 10.3903C23.3008 10.3563 23.4332 10.3476 23.5636 10.3648C23.6939 10.382 23.8196 10.4246 23.9335 10.4904V10.4904Z" stroke="white" stroke-width="0.84375" stroke-linecap="round" stroke-linejoin="round"/>
<path d="M17.8211 22.5587C17.7155 22.4974 17.6292 22.4078 17.5721 22.2999C17.5149 22.192 17.4891 22.0702 17.4977 21.9484L17.6749 19.3271L20.6955 21.0625L18.513 22.5278C18.412 22.5967 18.2937 22.6361 18.1715 22.6416C18.0493 22.6471 17.928 22.6184 17.8211 22.5587Z" stroke="white" stroke-width="0.84375" stroke-linecap="round" stroke-linejoin="round"/>
<path d="M21.7617 12.2451L24.7823 13.9889" stroke="white" stroke-width="0.84375" stroke-linecap="round" stroke-linejoin="round"/>
<path d="M17.5708 20.8403L19.4355 21.9147" stroke="white" stroke-width="0.84375" stroke-linecap="round" stroke-linejoin="round"/>
</g>
<defs>
<clipPath id="clip0">
<rect width="18" height="18" fill="white" transform="translate(8 7)"/>
</clipPath>
</defs>
</svg>
