<svg width="40" height="40" viewBox="0 0 40 40" fill="none" xmlns="http://www.w3.org/2000/svg">
<rect width="40" height="40" rx="10" fill="#1757EE"/>
<path d="M27.8383 10H25.0391C24.7155 10 24.4531 10.2623 24.4531 10.5859C24.4531 10.9095 24.7155 11.1719 25.0391 11.1719H27.8383C28.3841 11.1719 28.8281 11.6159 28.8281 12.1618V14.9609C28.8281 15.2845 29.0905 15.5469 29.4141 15.5469C29.7377 15.5469 30 15.2845 30 14.9609V12.1618C30 10.9698 29.0302 10 27.8383 10V10Z" fill="white"/>
<path d="M10.5859 15.5469C10.9095 15.5469 11.1719 15.2845 11.1719 14.9609V12.1618C11.1719 11.6159 11.6159 11.1719 12.1617 11.1719H14.9609C15.2845 11.1719 15.5469 10.9095 15.5469 10.5859C15.5469 10.2623 15.2845 10 14.9609 10H12.1617C10.9698 10 10 10.9698 10 12.1618V14.9609C10 15.2845 10.2623 15.5469 10.5859 15.5469Z" fill="white"/>
<path d="M14.9609 28.8281H12.1617C11.6159 28.8281 11.1719 28.3841 11.1719 27.8382V25.0391C11.1719 24.7155 10.9095 24.4531 10.5859 24.4531C10.2623 24.4531 10 24.7155 10 25.0391V27.8382C10 29.0302 10.9698 30 12.1617 30H14.9609C15.2845 30 15.5469 29.7377 15.5469 29.4141C15.5469 29.0905 15.2845 28.8281 14.9609 28.8281Z" fill="white"/>
<path d="M29.4141 24.4531C29.0905 24.4531 28.8281 24.7155 28.8281 25.0391V27.8382C28.8281 28.3841 28.3841 28.8281 27.8383 28.8281H25.0391C24.7155 28.8281 24.4531 29.0905 24.4531 29.4141C24.4531 29.7377 24.7155 30 25.0391 30H27.8383C29.0303 30 30 29.0302 30 27.8382V25.0391C30 24.7155 29.7377 24.4531 29.4141 24.4531Z" fill="white"/>
<path d="M10.0391 20C10.0391 20.3236 10.3014 20.5859 10.625 20.5859H29.375C29.6986 20.5859 29.9609 20.3236 29.9609 20C29.9609 19.6764 29.6986 19.4141 29.375 19.4141H10.625C10.3014 19.4141 10.0391 19.6764 10.0391 20Z" fill="white"/>
</svg>
