<svg width="18" height="21" viewBox="0 0 18 21" fill="none" xmlns="http://www.w3.org/2000/svg">
<path d="M6.95959 1.15651C8.22528 0.439114 9.77472 0.439114 11.0404 1.15651L13.5 2.5506L15.9371 3.98362C17.1912 4.72104 17.966 6.0629 17.9775 7.51772L18 10.3448L17.9775 13.1719C17.966 14.6268 17.1912 15.9686 15.9371 16.706L13.5 18.1391L11.0404 19.5331C9.77472 20.2505 8.22528 20.2505 6.95959 19.5331L4.5 18.1391L2.06289 16.706C0.808762 15.9686 0.034038 14.6268 0.0224733 13.1719L0 10.3448L0.0224733 7.51772C0.034038 6.0629 0.808762 4.72104 2.06289 3.98362L4.5 2.5506L6.95959 1.15651Z" fill="#4779F1"/>
<circle cx="9" cy="10" r="3" fill="#FDFDFD"/>
</svg>
