<svg width="18" height="18" viewBox="0 0 18 18" fill="none" xmlns="http://www.w3.org/2000/svg">
<g clip-path="url(#clip0)">
<path d="M0.886719 15.6856L2.21394 7.69136C2.2838 7.27068 2.50069 6.88844 2.82598 6.61269C3.15128 6.33694 3.56387 6.18558 3.99031 6.18555H14.0096C14.436 6.18558 14.8486 6.33694 15.1739 6.61269C15.4992 6.88844 15.7161 7.27068 15.7859 7.69136L17.1132 15.6856H0.886719Z" fill="#CCCCCC"/>
<path d="M1.96924 15.6855H16.0312V17.113H1.96924V15.6855Z" fill="#B3B3B3"/>
<path d="M0.886719 0.886719V1.55117C0.886719 2.22754 1.1554 2.8762 1.63367 3.35446C2.11193 3.83272 2.76059 4.10141 3.43695 4.10141H14.5629C15.2393 4.10141 15.8879 3.83272 16.3662 3.35446C16.8445 2.8762 17.1132 2.22754 17.1132 1.55117V0.886719H0.886719Z" fill="#CCCCCC"/>
<path d="M7.83887 4.10132H10.1604V6.18538H7.83887V4.10132Z" fill="#B3B3B3"/>
<path d="M9.00014 14.3013C10.8591 14.3013 12.366 12.7944 12.366 10.9354C12.366 9.07653 10.8591 7.56958 9.00014 7.56958C7.14123 7.56958 5.63428 9.07653 5.63428 10.9354C5.63428 12.7944 7.14123 14.3013 9.00014 14.3013Z" fill="#F6F6F6"/>
<g clip-path="url(#clip1)">
<path d="M0.886719 15.6856L2.21394 7.69136C2.2838 7.27068 2.50069 6.88844 2.82598 6.61269C3.15128 6.33694 3.56387 6.18558 3.99031 6.18555H14.0096C14.436 6.18558 14.8486 6.33694 15.1739 6.61269C15.4992 6.88844 15.7161 7.27068 15.7859 7.69136L17.1132 15.6856H0.886719Z" fill="#A5BEF8"/>
<path d="M1.96924 15.6855H16.0312V17.113H1.96924V15.6855Z" fill="#4779F1"/>
<path d="M0.886719 0.886719V1.55117C0.886719 2.22754 1.1554 2.8762 1.63367 3.35446C2.11193 3.83272 2.76059 4.10141 3.43695 4.10141H14.5629C15.2393 4.10141 15.8879 3.83272 16.3662 3.35446C16.8445 2.8762 17.1132 2.22754 17.1132 1.55117V0.886719H0.886719Z" fill="#A5BEF8"/>
<path d="M7.83887 4.10132H10.1604V6.18538H7.83887V4.10132Z" fill="#4779F1"/>
<path d="M9.00014 14.3013C10.8591 14.3013 12.366 12.7944 12.366 10.9354C12.366 9.07653 10.8591 7.56958 9.00014 7.56958C7.14123 7.56958 5.63428 9.07653 5.63428 10.9354C5.63428 12.7944 7.14123 14.3013 9.00014 14.3013Z" fill="#F6F6F6"/>
</g>
</g>
<defs>
<clipPath id="clip0">
<rect width="18" height="18" fill="white"/>
</clipPath>
<clipPath id="clip1">
<rect width="18" height="18" fill="white"/>
</clipPath>
</defs>
</svg>
