<svg width="33" height="33" viewBox="0 0 33 33" fill="none" xmlns="http://www.w3.org/2000/svg">
<circle cx="16.5" cy="16.5" r="16.5" fill="#4779F1"/>
<path d="M21.8319 21.2201C21.7354 21.3813 21.6302 21.5372 21.5169 21.687C20.8869 22.5307 20.1556 23.0117 19.5144 23.0117C19.2883 23.0114 19.0658 22.9544 18.8675 22.8457C18.295 22.5321 17.6528 22.3677 17 22.3677C16.3473 22.3677 15.705 22.5321 15.1325 22.8457C14.9337 22.953 14.7116 23.01 14.4856 23.0117C13.8444 23.0117 13.1131 22.5279 12.4831 21.687C12.3698 21.5372 12.2646 21.3813 12.1681 21.2201C11.9714 20.9004 11.8003 20.5656 11.6563 20.2189H10.655C10.7803 20.5614 10.9268 20.8958 11.0938 21.2201C11.2784 21.5782 11.4919 21.9205 11.7322 22.2439C12.5535 23.3379 13.5266 23.9314 14.48 23.9314C14.8615 23.93 15.2366 23.8333 15.5713 23.6501C16.0073 23.4103 16.4968 23.2846 16.9944 23.2846C17.492 23.2846 17.9815 23.4103 18.4175 23.6501C18.7519 23.834 19.1272 23.9307 19.5088 23.9314C20.4622 23.9314 21.4353 23.3267 22.2566 22.2439C22.5007 21.9209 22.718 21.5785 22.9063 21.2201C23.0732 20.8958 23.2198 20.5614 23.345 20.2189H22.3438C22.1998 20.5656 22.0286 20.9004 21.8319 21.2201ZM11.226 14.7907C11.226 14.757 11.2456 14.7232 11.2569 14.6895C11.4068 14.2239 11.6756 13.8055 12.0366 13.4755C12.3977 13.1456 12.8385 12.9155 13.3156 12.8079C14.2325 12.5857 15.1747 12.8079 15.7147 13.3704C15.88 13.5453 16.0793 13.6845 16.3003 13.7797C16.5213 13.8749 16.7594 13.9239 17 13.9239C17.2406 13.9239 17.4787 13.8749 17.6997 13.7797C17.9207 13.6845 18.12 13.5453 18.2853 13.3704C18.7888 12.8361 19.8041 12.6279 20.7491 12.867C21.2094 12.9713 21.635 13.1929 21.9844 13.5103C22.3338 13.8276 22.5952 14.23 22.7431 14.6782C22.7656 14.7429 22.7853 14.8132 22.805 14.8807C22.8734 15.1408 22.926 15.4047 22.9625 15.6711H23.9019C23.8624 15.3361 23.7994 15.0044 23.7135 14.6782V14.6389C23.5483 13.9859 23.2067 13.391 22.726 12.9192C22.2453 12.4474 21.6441 12.117 20.9881 11.9642C19.7113 11.6407 18.3556 11.9501 17.6131 12.7292C17.5758 12.771 17.5333 12.8079 17.4866 12.8389C17.5712 12.0387 17.9485 11.298 18.5461 10.7592C19.1436 10.2203 19.9192 9.92127 20.7238 9.91949C20.841 9.91037 20.9504 9.85738 21.0303 9.77109C21.1101 9.68481 21.1544 9.57158 21.1544 9.45402C21.1544 9.33647 21.1101 9.22324 21.0303 9.13695C20.9504 9.05067 20.841 8.99767 20.7238 8.98855C20.0791 8.98886 19.4432 9.138 18.8656 9.42436C18.288 9.71072 17.7843 10.1266 17.3938 10.6395C17.2381 9.90957 16.8368 9.25509 16.2569 8.78524C15.677 8.31539 14.9536 8.05857 14.2072 8.05762H12.3481C12.2868 8.05762 12.2261 8.06969 12.1695 8.09316C12.1128 8.11662 12.0614 8.15101 12.018 8.19436C11.9747 8.23772 11.9403 8.28918 11.9168 8.34583C11.8933 8.40247 11.8813 8.46318 11.8813 8.52449C11.882 9.38804 12.2254 10.216 12.836 10.8266C13.4466 11.4372 14.2746 11.7806 15.1381 11.7814H16.775C16.6489 12.1318 16.5722 12.4982 16.5472 12.8698C16.4896 12.8345 16.4375 12.7909 16.3925 12.7404C15.6163 11.9192 14.3535 11.6014 13.0935 11.8967C12.44 12.0496 11.8392 12.3742 11.3531 12.837C10.8671 13.2998 10.5135 13.884 10.3288 14.5292C10.3288 14.5798 10.3006 14.6332 10.2894 14.6839C10.2014 15.0097 10.1375 15.3415 10.0981 15.6767H11.0403C11.0815 15.3774 11.1435 15.0814 11.226 14.7907ZM15.1381 10.8532C14.6019 10.8521 14.0825 10.6663 13.6671 10.3273C13.2517 9.9882 12.9657 9.51647 12.8572 8.99137H14.2072C14.7435 8.99202 15.2633 9.17756 15.6788 9.51671C16.0942 9.85587 16.3801 10.3279 16.4881 10.8532H15.1381Z" fill="white"/>
<path d="M22.805 14.892C22.7853 14.8245 22.7656 14.7541 22.7431 14.6895H11.2569C11.2569 14.7232 11.2344 14.757 11.2259 14.7907C11.1432 15.0832 11.0812 15.3811 11.0403 15.6823H22.9625C22.926 15.4159 22.8734 15.152 22.805 14.892ZM24.4447 14.6895H9.55531C9.292 14.6895 9.03948 14.7941 8.85329 14.9802C8.6671 15.1664 8.5625 15.419 8.5625 15.6823V20.2188C8.5625 20.3491 8.5882 20.478 8.63813 20.5983C8.68806 20.7186 8.76123 20.8279 8.85346 20.9199C8.94569 21.0118 9.05515 21.0847 9.17559 21.1343C9.29603 21.1839 9.42507 21.2092 9.55531 21.2088H24.4447C24.5749 21.2092 24.704 21.1839 24.8244 21.1343C24.9448 21.0847 25.0543 21.0118 25.1465 20.9199C25.2388 20.8279 25.3119 20.7186 25.3619 20.5983C25.4118 20.478 25.4375 20.3491 25.4375 20.2188V15.6823C25.4375 15.419 25.3329 15.1664 25.1467 14.9802C24.9605 14.7941 24.708 14.6895 24.4447 14.6895ZM24.4447 20.2301H9.55531V15.6823H24.4447V20.2301Z" fill="white"/>
<path d="M10.8972 15.187H10.8944C10.621 15.187 10.3994 15.4086 10.3994 15.682V17.1051C10.3994 17.3785 10.621 17.6001 10.8944 17.6001H10.8972C11.1706 17.6001 11.3922 17.3785 11.3922 17.1051V15.682C11.3922 15.4086 11.1706 15.187 10.8972 15.187Z" fill="white"/>
<path d="M12.655 15.187H12.6522C12.3788 15.187 12.1572 15.4086 12.1572 15.682V17.8195C12.1572 18.0929 12.3788 18.3145 12.6522 18.3145H12.655C12.9284 18.3145 13.15 18.0929 13.15 17.8195V15.682C13.15 15.4086 12.9284 15.187 12.655 15.187Z" fill="white"/>
<path d="M14.491 15.187H14.4882C14.2148 15.187 13.9932 15.4086 13.9932 15.682V17.1051C13.9932 17.3785 14.2148 17.6001 14.4882 17.6001H14.491C14.7644 17.6001 14.986 17.3785 14.986 17.1051V15.682C14.986 15.4086 14.7644 15.187 14.491 15.187Z" fill="white"/>
<path d="M16.2463 15.187H16.2435C15.9702 15.187 15.7485 15.4086 15.7485 15.682V17.8195C15.7485 18.0929 15.9702 18.3145 16.2435 18.3145H16.2463C16.5197 18.3145 16.7413 18.0929 16.7413 17.8195V15.682C16.7413 15.4086 16.5197 15.187 16.2463 15.187Z" fill="white"/>
<path d="M18.0691 15.187H18.0663C17.7929 15.187 17.5713 15.4086 17.5713 15.682V17.1051C17.5713 17.3785 17.7929 17.6001 18.0663 17.6001H18.0691C18.3425 17.6001 18.5641 17.3785 18.5641 17.1051V15.682C18.5641 15.4086 18.3425 15.187 18.0691 15.187Z" fill="white"/>
<path d="M19.8269 15.187H19.8241C19.5507 15.187 19.3291 15.4086 19.3291 15.682V17.8195C19.3291 18.0929 19.5507 18.3145 19.8241 18.3145H19.8269C20.1003 18.3145 20.3219 18.0929 20.3219 17.8195V15.682C20.3219 15.4086 20.1003 15.187 19.8269 15.187Z" fill="white"/>
<path d="M21.5813 15.187H21.5785C21.3051 15.187 21.0835 15.4086 21.0835 15.682V17.1051C21.0835 17.3785 21.3051 17.6001 21.5785 17.6001H21.5813C21.8547 17.6001 22.0763 17.3785 22.0763 17.1051V15.682C22.0763 15.4086 21.8547 15.187 21.5813 15.187Z" fill="white"/>
<path d="M23.3391 15.187H23.3363C23.0629 15.187 22.8413 15.4086 22.8413 15.682V17.8195C22.8413 18.0929 23.0629 18.3145 23.3363 18.3145H23.3391C23.6125 18.3145 23.8341 18.0929 23.8341 17.8195V15.682C23.8341 15.4086 23.6125 15.187 23.3391 15.187Z" fill="white"/>
</svg>
