<svg width="116" height="116" viewBox="0 0 116 116" fill="none" xmlns="http://www.w3.org/2000/svg">
<g filter="url(#filter0_d)">
<circle cx="58" cy="56" r="50" fill="#4779F1"/>
</g>
<path d="M75.95 74.3496C75.6015 74.9317 75.2218 75.4945 74.8125 76.0356C72.5375 79.0824 69.8969 80.8192 67.5812 80.8192C66.7647 80.8182 65.9615 80.6122 65.2453 80.2199C63.178 79.0874 60.8588 78.4937 58.5016 78.4937C56.1444 78.4937 53.8251 79.0874 51.7578 80.2199C51.0398 80.6074 50.2378 80.8131 49.4219 80.8192C47.1062 80.8192 44.4656 79.0723 42.1906 76.0356C41.7813 75.4945 41.4016 74.9317 41.0531 74.3496C40.3427 73.195 39.7247 71.986 39.2047 70.734H35.5891C36.0414 71.971 36.5705 73.1786 37.1734 74.3496C37.8402 75.6425 38.6112 76.8789 39.4789 78.0465C42.4445 81.9973 45.9586 84.1403 49.4016 84.1403C50.7792 84.1353 52.1338 83.7862 53.3422 83.1246C54.9166 82.2587 56.6844 81.8047 58.4812 81.8047C60.2781 81.8047 62.0459 82.2587 63.6203 83.1246C64.8277 83.7887 66.183 84.1379 67.5609 84.1403C71.0039 84.1403 74.518 81.9567 77.4836 78.0465C78.3653 76.8804 79.1499 75.6439 79.8297 74.3496C80.4326 73.1786 80.9618 71.971 81.4141 70.734H77.7984C77.2784 71.986 76.6604 73.195 75.95 74.3496ZM37.6508 51.1324C37.6508 51.0106 37.7219 50.8887 37.7625 50.7668C38.3039 49.0856 39.2744 47.5746 40.5781 46.3831C41.8819 45.1915 43.4739 44.3606 45.1969 43.9723C48.5078 43.1699 51.9102 43.9723 53.8602 46.0035C54.4572 46.6348 55.1768 47.1377 55.9748 47.4814C56.7729 47.8251 57.6326 48.0023 58.5016 48.0023C59.3705 48.0023 60.2303 47.8251 61.0283 47.4814C61.8264 47.1377 62.5459 46.6348 63.143 46.0035C64.9609 44.0738 68.6273 43.3223 72.0398 44.1856C73.7023 44.5622 75.239 45.3624 76.5008 46.5085C77.7625 47.6545 78.7064 49.1075 79.2406 50.7262C79.3219 50.9598 79.393 51.2137 79.4641 51.4574C79.7111 52.3964 79.901 53.3494 80.0328 54.3113H83.425C83.2822 53.1019 83.0548 51.9039 82.7445 50.7262V50.584C82.1482 48.2261 80.9146 46.0777 79.1788 44.3741C77.4429 42.6705 75.2718 41.4774 72.9031 40.9254C68.2922 39.7574 63.3969 40.8746 60.7156 43.6879C60.5808 43.8389 60.4272 43.972 60.2586 44.084C60.5642 41.1945 61.9267 38.5199 64.0844 36.574C66.2422 34.6281 69.0429 33.5482 71.9484 33.5418C72.3717 33.5089 72.7669 33.3175 73.0552 33.0059C73.3435 32.6943 73.5036 32.2854 73.5036 31.8609C73.5036 31.4364 73.3435 31.0276 73.0552 30.716C72.7669 30.4044 72.3717 30.213 71.9484 30.1801C69.6204 30.1812 67.3241 30.7197 65.2383 31.7538C63.1526 32.7879 61.3337 34.2895 59.9234 36.1418C59.3612 33.506 57.9122 31.1426 55.8181 29.4459C53.724 27.7492 51.1116 26.8218 48.4164 26.8184H41.7031C41.4817 26.8184 41.2625 26.862 41.0579 26.9467C40.8534 27.0314 40.6675 27.1556 40.511 27.3122C40.3544 27.4687 40.2302 27.6546 40.1455 27.8591C40.0608 28.0637 40.0172 28.2829 40.0172 28.5043C40.0199 31.6227 41.2598 34.6125 43.4649 36.8176C45.6699 39.0226 48.6598 40.2625 51.7781 40.2652H57.6891C57.2337 41.5308 56.9568 42.8537 56.8664 44.1957C56.6583 44.0682 56.4701 43.9108 56.3078 43.7285C53.5047 40.7629 48.9445 39.6152 44.3945 40.6816C42.0347 41.2337 39.8652 42.406 38.11 44.0772C36.3549 45.7484 35.0779 47.858 34.4109 50.1879C34.4109 50.3707 34.3094 50.5637 34.2688 50.7465C33.9511 51.923 33.7202 53.1213 33.5781 54.3316H36.9805C37.1291 53.2509 37.3531 52.1819 37.6508 51.1324ZM51.7781 36.9137C49.8418 36.9094 47.9661 36.2387 46.4661 35.0143C44.9661 33.7899 43.9333 32.0864 43.5414 30.1902H48.4164C50.3532 30.1926 52.2299 30.8626 53.7303 32.0873C55.2307 33.312 56.263 35.0166 56.6531 36.9137H51.7781Z" fill="white"/>
<path d="M79.4625 51.4979C79.3914 51.2541 79.3203 51.0002 79.2391 50.7666H37.7609C37.7609 50.8885 37.6797 51.0104 37.6492 51.1322C37.3506 52.1884 37.1266 53.2642 36.9789 54.3518H80.0312C79.8995 53.3898 79.7095 52.4368 79.4625 51.4979ZM85.3836 50.7666H31.6164C30.6656 50.7666 29.7537 51.1443 29.0813 51.8167C28.409 52.489 28.0313 53.4009 28.0313 54.3518V70.7338C28.0312 71.2041 28.1241 71.6698 28.3043 72.1042C28.4846 72.5386 28.7489 72.9332 29.0819 73.2653C29.415 73.5974 29.8103 73.8605 30.2452 74.0396C30.6801 74.2186 31.1461 74.3101 31.6164 74.3088H85.3836C85.8539 74.3101 86.3199 74.2186 86.7548 74.0396C87.1897 73.8605 87.585 73.5974 87.9181 73.2653C88.2511 72.9332 88.5154 72.5386 88.6957 72.1042C88.8759 71.6698 88.9688 71.2041 88.9688 70.7338V54.3518C88.9688 53.4009 88.591 52.489 87.9187 51.8167C87.2463 51.1443 86.3344 50.7666 85.3836 50.7666ZM85.3836 70.7744H31.6164V54.3518H85.3836V70.7744Z" fill="white"/>
<path d="M36.4622 52.5645H36.4521C35.4648 52.5645 34.6646 53.3647 34.6646 54.352V59.491C34.6646 60.4782 35.4648 61.2785 36.4521 61.2785H36.4622C37.4494 61.2785 38.2497 60.4782 38.2497 59.491V54.352C38.2497 53.3647 37.4494 52.5645 36.4622 52.5645Z" fill="white"/>
<path d="M42.8099 52.5645H42.7997C41.8125 52.5645 41.0122 53.3647 41.0122 54.352V62.0707C41.0122 63.0579 41.8125 63.8582 42.7997 63.8582H42.8099C43.7971 63.8582 44.5974 63.0579 44.5974 62.0707V54.352C44.5974 53.3647 43.7971 52.5645 42.8099 52.5645Z" fill="white"/>
<path d="M49.4397 52.5645H49.4296C48.4424 52.5645 47.6421 53.3647 47.6421 54.352V59.491C47.6421 60.4782 48.4424 61.2785 49.4296 61.2785H49.4397C50.427 61.2785 51.2272 60.4782 51.2272 59.491V54.352C51.2272 53.3647 50.427 52.5645 49.4397 52.5645Z" fill="white"/>
<path d="M55.7801 52.5645H55.7699C54.7827 52.5645 53.9824 53.3647 53.9824 54.352V62.0707C53.9824 63.0579 54.7827 63.8582 55.7699 63.8582H55.7801C56.7673 63.8582 57.5676 63.0579 57.5676 62.0707V54.352C57.5676 53.3647 56.7673 52.5645 55.7801 52.5645Z" fill="white"/>
<path d="M62.3606 52.5645H62.3505C61.3633 52.5645 60.563 53.3647 60.563 54.352V59.491C60.563 60.4782 61.3633 61.2785 62.3505 61.2785H62.3606C63.3479 61.2785 64.1481 60.4782 64.1481 59.491V54.352C64.1481 53.3647 63.3479 52.5645 62.3606 52.5645Z" fill="white"/>
<path d="M68.7083 52.5645H68.6981C67.7109 52.5645 66.9106 53.3647 66.9106 54.352V62.0707C66.9106 63.0579 67.7109 63.8582 68.6981 63.8582H68.7083C69.6955 63.8582 70.4958 63.0579 70.4958 62.0707V54.352C70.4958 53.3647 69.6955 52.5645 68.7083 52.5645Z" fill="white"/>
<path d="M75.0452 52.5645H75.0351C74.0478 52.5645 73.2476 53.3647 73.2476 54.352V59.491C73.2476 60.4782 74.0478 61.2785 75.0351 61.2785H75.0452C76.0324 61.2785 76.8327 60.4782 76.8327 59.491V54.352C76.8327 53.3647 76.0324 52.5645 75.0452 52.5645Z" fill="white"/>
<path d="M81.3929 52.5645H81.3827C80.3955 52.5645 79.5952 53.3647 79.5952 54.352V62.0707C79.5952 63.0579 80.3955 63.8582 81.3827 63.8582H81.3929C82.3801 63.8582 83.1804 63.0579 83.1804 62.0707V54.352C83.1804 53.3647 82.3801 52.5645 81.3929 52.5645Z" fill="white"/>
<defs>
<filter id="filter0_d" x="0" y="0" width="116" height="116" filterUnits="userSpaceOnUse" color-interpolation-filters="sRGB">
<feFlood flood-opacity="0" result="BackgroundImageFix"/>
<feColorMatrix in="SourceAlpha" type="matrix" values="0 0 0 0 0 0 0 0 0 0 0 0 0 0 0 0 0 0 127 0"/>
<feOffset dy="2"/>
<feGaussianBlur stdDeviation="4"/>
<feColorMatrix type="matrix" values="0 0 0 0 0 0 0 0 0 0 0 0 0 0 0 0 0 0 0.15 0"/>
<feBlend mode="normal" in2="BackgroundImageFix" result="effect1_dropShadow"/>
<feBlend mode="normal" in="SourceGraphic" in2="effect1_dropShadow" result="shape"/>
</filter>
</defs>
</svg>
