<svg width="20" height="24" viewBox="0 0 20 24" fill="none" xmlns="http://www.w3.org/2000/svg">
<path d="M13.0328 24H2.74685C2.62338 24 2.51984 23.9069 2.50676 23.7841L0.00138343 0.267047C-0.0138041 0.124359 0.0979929 0 0.241477 0H15.5381C15.6816 0 15.7935 0.124359 15.7782 0.267047L13.2729 23.7841C13.2598 23.9069 13.1563 24 13.0328 24Z" fill="#A5BEF8"/>
<path fill-rule="evenodd" clip-rule="evenodd" d="M2.13086 21L2.43161 23.7841C2.44487 23.9069 2.54986 24 2.67505 24H13.1047C13.2299 24 13.3349 23.9069 13.3481 23.7841L13.6488 21H2.13086Z" fill="#4779F1"/>
<rect x="11.8896" y="5" width="8" height="8" rx="4" fill="#4779F1"/>
<path d="M17.9788 8.9458H16.3717V7.33866C16.3717 7.26762 16.3434 7.19949 16.2932 7.14925C16.243 7.09902 16.1748 7.0708 16.1038 7.0708C16.0328 7.0708 15.9646 7.09902 15.9144 7.14925C15.8642 7.19949 15.8359 7.26762 15.8359 7.33866V8.9458H14.2288C14.1578 8.9458 14.0896 8.97402 14.0394 9.02425C13.9892 9.07449 13.9609 9.14262 13.9609 9.21366C13.9609 9.2847 13.9892 9.35283 14.0394 9.40306C14.0896 9.45329 14.1578 9.48151 14.2288 9.48151H15.8359V11.0887C15.8359 11.1597 15.8642 11.2278 15.9144 11.2781C15.9646 11.3283 16.0328 11.3565 16.1038 11.3565C16.1748 11.3565 16.243 11.3283 16.2932 11.2781C16.3434 11.2278 16.3717 11.1597 16.3717 11.0887V9.48151H17.9788C18.0498 9.48151 18.118 9.45329 18.1682 9.40306C18.2184 9.35283 18.2467 9.2847 18.2467 9.21366C18.2467 9.14262 18.2184 9.07449 18.1682 9.02425C18.118 8.97402 18.0498 8.9458 17.9788 8.9458Z" fill="white"/>
</svg>
