<svg width="33" height="33" viewBox="0 0 33 33" fill="none" xmlns="http://www.w3.org/2000/svg">
<circle cx="16.5" cy="16.5" r="16.5" fill="#4779F1"/>
<path d="M21.0828 10.3881H20.319V9.62424C20.319 9.42164 20.2385 9.22735 20.0952 9.08409C19.952 8.94083 19.7577 8.86035 19.5551 8.86035C19.3525 8.86035 19.1582 8.94083 19.0149 9.08409C18.8717 9.22735 18.7912 9.42164 18.7912 9.62424V10.3881H14.2078V9.62424C14.2078 9.42164 14.1274 9.22735 13.9841 9.08409C13.8409 8.94083 13.6466 8.86035 13.444 8.86035C13.2414 8.86035 13.0471 8.94083 12.9038 9.08409C12.7605 9.22735 12.6801 9.42164 12.6801 9.62424V10.3881H11.9162C11.3084 10.3881 10.7255 10.6296 10.2957 11.0593C9.86595 11.4891 9.62451 12.072 9.62451 12.6798V21.8465C9.62451 22.4542 9.86595 23.0371 10.2957 23.4669C10.7255 23.8967 11.3084 24.1381 11.9162 24.1381H21.0828C21.6906 24.1381 22.2735 23.8967 22.7033 23.4669C23.1331 23.0371 23.3745 22.4542 23.3745 21.8465V12.6798C23.3745 12.072 23.1331 11.4891 22.7033 11.0593C22.2735 10.6296 21.6906 10.3881 21.0828 10.3881ZM13.444 20.3187C13.2929 20.3187 13.1452 20.2739 13.0196 20.1899C12.8939 20.106 12.796 19.9867 12.7382 19.8471C12.6804 19.7075 12.6653 19.5539 12.6947 19.4058C12.7242 19.2576 12.797 19.1215 12.9038 19.0146C13.0106 18.9078 13.1467 18.8351 13.2949 18.8056C13.4431 18.7761 13.5967 18.7912 13.7363 18.8491C13.8759 18.9069 13.9952 19.0048 14.0791 19.1304C14.163 19.256 14.2078 19.4037 14.2078 19.5548C14.2078 19.7574 14.1274 19.9517 13.9841 20.0949C13.8409 20.2382 13.6466 20.3187 13.444 20.3187ZM19.5551 20.3187H16.4995C16.2969 20.3187 16.1026 20.2382 15.9594 20.0949C15.8161 19.9517 15.7356 19.7574 15.7356 19.5548C15.7356 19.3522 15.8161 19.1579 15.9594 19.0146C16.1026 18.8714 16.2969 18.7909 16.4995 18.7909H19.5551C19.7577 18.7909 19.952 18.8714 20.0952 19.0146C20.2385 19.1579 20.319 19.3522 20.319 19.5548C20.319 19.7574 20.2385 19.9517 20.0952 20.0949C19.952 20.2382 19.7577 20.3187 19.5551 20.3187ZM21.8467 15.7354H11.1523V12.6798C11.1523 12.4772 11.2328 12.2829 11.376 12.1396C11.5193 11.9964 11.7136 11.9159 11.9162 11.9159H12.6801V12.6798C12.6801 12.8824 12.7605 13.0767 12.9038 13.2199C13.0471 13.3632 13.2414 13.4437 13.444 13.4437C13.6466 13.4437 13.8409 13.3632 13.9841 13.2199C14.1274 13.0767 14.2078 12.8824 14.2078 12.6798V11.9159H18.7912V12.6798C18.7912 12.8824 18.8717 13.0767 19.0149 13.2199C19.1582 13.3632 19.3525 13.4437 19.5551 13.4437C19.7577 13.4437 19.952 13.3632 20.0952 13.2199C20.2385 13.0767 20.319 12.8824 20.319 12.6798V11.9159H21.0828C21.2854 11.9159 21.4797 11.9964 21.623 12.1396C21.7663 12.2829 21.8467 12.4772 21.8467 12.6798V15.7354Z" fill="white"/>
</svg>
