<svg width="300" height="300" viewBox="0 0 300 300" fill="none" xmlns="http://www.w3.org/2000/svg">
<g filter="url(#filter0_d)">
<circle cx="149.664" cy="145.664" r="70" fill="#FF477C"/>
<circle cx="149.664" cy="145.664" r="70" fill="url(#paint0_linear)"/>
</g>
<g filter="url(#filter1_d)">
<path d="M208.648 220.205C211.866 223.422 217.023 223.723 220.332 220.599C221.061 219.911 221.783 219.21 222.496 218.496C262.72 178.272 262.72 113.056 222.496 72.8321C182.272 32.6081 117.056 32.6081 76.8321 72.8321C38.7511 110.913 36.7222 171.394 70.7454 211.862C73.944 215.666 79.6813 215.647 83.196 212.132C86.7107 208.617 86.6661 202.945 83.5379 199.082C56.5042 165.701 58.5115 116.609 89.56 85.5601C122.755 52.3655 176.574 52.3655 209.768 85.5601C242.963 118.755 242.963 172.574 209.768 205.768C209.554 205.983 209.338 206.196 209.122 206.407C205.288 210.162 204.853 216.41 208.648 220.205Z" fill="url(#paint1_linear)"/>
</g>
<defs>
<filter id="filter0_d" x="71.6641" y="71.6641" width="156" height="156" filterUnits="userSpaceOnUse" color-interpolation-filters="sRGB">
<feFlood flood-opacity="0" result="BackgroundImageFix"/>
<feColorMatrix in="SourceAlpha" type="matrix" values="0 0 0 0 0 0 0 0 0 0 0 0 0 0 0 0 0 0 127 0"/>
<feOffset dy="4"/>
<feGaussianBlur stdDeviation="4"/>
<feColorMatrix type="matrix" values="0 0 0 0 1 0 0 0 0 0.278431 0 0 0 0 0.486275 0 0 0 0.4 0"/>
<feBlend mode="normal" in2="BackgroundImageFix" result="effect1_dropShadow"/>
<feBlend mode="normal" in="SourceGraphic" in2="effect1_dropShadow" result="shape"/>
</filter>
<filter id="filter1_d" x="0.251953" y="0" width="299.076" height="299.076" filterUnits="userSpaceOnUse" color-interpolation-filters="sRGB">
<feFlood flood-opacity="0" result="BackgroundImageFix"/>
<feColorMatrix in="SourceAlpha" type="matrix" values="0 0 0 0 0 0 0 0 0 0 0 0 0 0 0 0 0 0 127 0"/>
<feOffset dy="4"/>
<feGaussianBlur stdDeviation="2"/>
<feColorMatrix type="matrix" values="0 0 0 0 0 0 0 0 0 0 0 0 0 0 0 0 0 0 0.25 0"/>
<feBlend mode="normal" in2="BackgroundImageFix" result="effect1_dropShadow"/>
<feBlend mode="normal" in="SourceGraphic" in2="effect1_dropShadow" result="shape"/>
</filter>
<linearGradient id="paint0_linear" x1="169.164" y1="119.664" x2="101.664" y2="205.664" gradientUnits="userSpaceOnUse">
<stop stop-color="#4779F1"/>
<stop offset="1" stop-color="#FF477C"/>
</linearGradient>
<linearGradient id="paint1_linear" x1="40.7696" y1="146.371" x2="271.286" y2="121.622" gradientUnits="userSpaceOnUse">
<stop stop-color="#4779F1"/>
<stop offset="0.473958" stop-color="#BB9AD5"/>
<stop offset="0.848958" stop-color="#FFADC5"/>
</linearGradient>
</defs>
</svg>
