<svg width="53" height="45" viewBox="0 0 53 45" fill="none" xmlns="http://www.w3.org/2000/svg">
<ellipse cx="29.2251" cy="12.5" rx="10" ry="12.5" fill="#E00040"/>
<ellipse cx="40.0216" cy="21.2327" rx="9.5172" ry="11.6321" transform="rotate(15 40.0216 21.2327)" fill="#FF477C"/>
<path d="M22.8668 28.617C30.8453 20.6385 30.6258 11.7 26.6373 7.70998C25.2563 6.32898 23.3038 5.70098 21.0578 5.75298C17.7468 5.82948 15.0153 8.21448 14.1078 11.3995C13.4762 13.3799 12.3613 15.1719 10.8638 16.6135C9.42215 18.111 7.63021 19.2259 5.64977 19.8575C2.46427 20.766 0.0792677 23.497 0.0027677 26.8075C-0.0472323 29.053 0.579267 31.0075 1.96027 32.387C5.94927 36.3775 14.3938 37.09 22.8668 28.617Z" fill="#D99D08"/>
<path d="M14.1771 19.9268C16.4996 17.6043 17.1056 14.4448 15.5311 12.8703C15.0828 12.4348 14.5095 12.1506 13.8916 12.0573C13.2167 13.7733 12.1847 15.3263 10.8641 16.6133C9.57696 17.934 8.02382 18.9661 6.30762 19.6413C6.40113 20.259 6.68538 20.832 7.12062 21.2803C8.69611 22.8553 11.8551 22.2498 14.1771 19.9268Z" fill="#FAD77F"/>
<path d="M21.9335 44.2505C32.615 44.2505 38.4515 38.1215 38.4515 32.7804C38.4515 30.9304 37.565 29.2039 36.027 27.7354C34.8992 26.7081 33.472 26.0691 31.9546 25.9121C30.4371 25.755 28.9093 26.0883 27.595 26.8629C25.8466 27.7657 23.9009 28.2188 21.9335 28.1814C19.9662 28.2188 18.0205 27.7657 16.272 26.8629C14.9578 26.0883 13.4299 25.755 11.9125 25.9121C10.395 26.0691 8.96781 26.7081 7.84003 27.7354C6.30203 29.2039 5.41553 30.9314 5.41553 32.7804C5.41553 38.1215 10.5905 44.2505 21.9335 44.2505Z" fill="#F7BA1E"/>
<path d="M21.9347 32.6167C25.0437 32.6167 27.5642 30.9077 27.5642 28.7992C27.5557 28.2079 27.3624 27.634 27.0112 27.1582C25.4039 27.8334 23.678 28.1812 21.9347 28.1812C20.1913 28.1812 18.4655 27.8334 16.8582 27.1582C16.507 27.6344 16.3136 28.2086 16.3052 28.8002C16.3052 30.9077 18.8267 32.6167 21.9347 32.6167Z" fill="#FAD77F"/>
</svg>
