<svg width="49" height="41" viewBox="0 0 49 41" fill="none" xmlns="http://www.w3.org/2000/svg">
<g clip-path="url(#clip0)">
<path d="M22.4556 3.45438C22.4556 3.45438 25.9099 1.72705 29.3643 1.72705C34.5457 1.72705 38 5.18141 38 10.3631C38 13.8241 34.5457 17.2718 34.5457 17.2718L22.4556 3.45438Z" fill="#1757EE"/>
<path d="M0.569989 3.53844C1.22868 2.21729 2.453 1.26781 3.89679 0.958466C6.21293 0.459808 6.91105 0 13.8195 0C22.4555 0 36.273 6.90872 36.273 17.2718C36.273 27.6349 24.1826 32.8163 17.2738 32.8163C12.0925 32.8163 8.63809 31.0892 8.63809 31.0892C8.63809 31.0892 7.43406 34.8518 5.24519 37.0749C4.31427 38.0217 2.87976 38.2615 1.69168 37.6686C0.554334 37.1053 -0.112475 35.894 0.0200166 34.6317C0.198605 32.9949 2.46141 30.3569 3.45669 29.3619C3.45669 29.3619 0.407926 27.6639 0.0214662 24.1805C-0.129581 22.9107 0.526792 21.6814 1.66588 21.1007C2.74698 20.5554 4.04986 20.7137 4.96919 21.5017C6.49038 22.8147 8.63809 25.4611 8.63809 27.6349C8.63809 27.6349 24.1826 27.6349 24.1826 20.7262C24.1826 20.7262 20.7282 17.2718 15.5468 17.2718C12.2783 17.2718 2.65478 17.1025 0.18411 6.86002C-0.0814543 5.74181 0.0550966 4.5659 0.569989 3.53844Z" fill="#A5BEF8"/>
<path d="M36.2732 17.2718C36.2732 6.90872 22.4558 0 13.8197 0C6.91129 0 6.21317 0.459808 3.89702 0.958466C3.27138 1.09994 2.67995 1.36406 2.15723 1.73573C4.47917 1.79749 16.578 2.41443 25.9101 8.63576C36.2732 15.5445 36.2732 29.5092 17.2741 32.8163C24.1828 32.8163 36.2732 27.6349 36.2732 17.2718Z" fill="#4779F1"/>
<path d="M10.365 3.45438C10.365 4.4082 9.5918 5.18141 8.63797 5.18141C7.68414 5.18141 6.91064 4.4082 6.91064 3.45438C6.91064 2.50055 7.68414 1.72705 8.63797 1.72705C9.5918 1.72705 10.365 2.50055 10.365 3.45438Z" fill="#0F45C2"/>
<path opacity="0.8" d="M8.62938 3.46103C8.62938 3.93794 8.24263 4.32469 7.76572 4.32469C7.2888 4.32469 6.90234 3.93794 6.90234 3.46103C6.90234 2.98412 7.2888 2.59766 7.76572 2.59766C8.24263 2.59766 8.62938 2.98412 8.62938 3.46103Z" fill="#4779F1"/>
<path d="M4.32018 8.63573C3.84355 8.63602 3.45709 8.24985 3.4568 7.77322C3.4568 7.77293 3.4568 7.77264 3.4568 7.77235V7.0638C3.45854 6.76721 3.30518 6.4915 3.05179 6.33698C0.0882568 4.5708 0.00244141 2.7881 0.00244141 2.59067C0.00244141 2.11346 0.389481 1.72701 0.866684 1.7273C1.32968 1.7273 1.71034 2.09259 1.72948 2.5553C1.73962 2.62952 1.92517 3.65495 3.93575 4.8526C4.7104 5.32024 5.18384 6.15897 5.18384 7.0638V7.77235C5.18413 8.24898 4.79796 8.63573 4.32133 8.63602C4.32104 8.63573 4.32076 8.63573 4.32018 8.63573Z" fill="#C9D9FF"/>
<path d="M8.63802 27.6412C8.63802 25.4674 6.49032 22.8211 4.96912 21.508C4.0498 20.72 2.74691 20.5617 1.66581 21.1071C0.526724 21.6878 -0.129359 22.917 0.0213983 24.1869C0.407858 27.6702 3.45662 29.3682 3.45662 29.3682C2.46163 30.3632 0.198828 33.0012 0.0199488 34.6381C-0.148203 36.3178 1.07728 37.8158 2.75706 37.984C3.68044 38.0762 4.59571 37.7442 5.24512 37.0815C7.43429 34.8581 8.63802 31.0956 8.63802 31.0956C6.91099 31.0956 6.91099 29.3682 6.91099 29.3682C6.91099 29.3682 6.91099 27.6412 8.63802 27.6412Z" fill="#1757EE"/>
</g>
<g clip-path="url(#clip1)">
<path d="M37.1135 27.5936C36.8587 27.5936 36.6268 27.4189 36.5638 27.1604C36.5388 27.0579 35.9796 24.621 38.4417 22.1588C38.6623 21.9383 39.0199 21.9383 39.2404 22.1588C39.461 22.3794 39.461 22.737 39.2404 22.9576C37.2485 24.9495 37.6444 26.8185 37.6622 26.8971C37.7362 27.2001 37.5499 27.5036 37.2468 27.5775C37.2022 27.5884 37.1576 27.5936 37.1135 27.5936Z" fill="#E00040"/>
<path d="M38.1876 28.0171C38.1596 28.0171 38.1314 28.015 38.103 28.0107C37.7945 27.9644 37.582 27.6767 37.6284 27.3682C37.6441 27.2639 38.0495 24.7967 41.2608 23.4505C41.5484 23.33 41.8795 23.4654 42.0001 23.753C42.1207 24.0407 41.9852 24.3717 41.6975 24.4923C39.0656 25.5955 38.7483 27.5168 38.7454 27.5361C38.7033 27.8162 38.4624 28.0171 38.1876 28.0171Z" fill="#E00040"/>
<path d="M35.0235 27.6813C34.8013 27.6813 34.5898 27.5488 34.4995 27.331C34.459 27.2334 33.533 24.9111 35.5888 22.1007C35.7729 21.8488 36.1263 21.7941 36.378 21.9783C36.6298 22.1624 36.6846 22.5159 36.5004 22.7676C34.8373 25.0412 35.5149 26.8275 35.5446 26.9024C35.6641 27.1905 35.5265 27.5189 35.2384 27.6385C35.1681 27.6675 35.0952 27.6813 35.0235 27.6813Z" fill="#E00040"/>
<path d="M32.9419 15.8435H39.9072C44.929 15.8435 48.9999 19.9145 48.9999 24.9363C48.9999 29.3165 45.877 33.0742 41.5707 33.8755L38.0281 34.5348L36.5271 30.6378L40.7347 28.067C41.3661 27.6812 41.7512 26.9947 41.7512 26.2547C41.7512 25.0818 40.8004 24.1309 39.6274 24.1309H32.8564L32.9419 15.8435Z" fill="#FF1457"/>
<path d="M16.7446 23.9504C14.2529 23.9504 12.3966 23.1779 11.5293 21.7025C10.5145 19.9759 10.9686 17.5678 12.8081 14.9219C14.5601 12.4019 17.3858 9.92032 20.7645 7.93437C26.1109 4.79187 31.7042 3.5496 35.0141 4.76946C35.3068 4.8773 35.4566 5.20201 35.3487 5.49465C35.2409 5.78737 34.9162 5.93729 34.6235 5.8293C31.6646 4.73881 26.3252 5.97618 21.3369 8.9082C14.884 12.7011 10.8386 18.2981 12.5032 21.1301C13.4835 22.7979 16.4439 23.2727 20.2293 22.3688C20.5324 22.2964 20.8373 22.4835 20.9098 22.787C20.9822 23.0904 20.795 23.3951 20.4916 23.4675C19.1344 23.7916 17.874 23.9504 16.7446 23.9504Z" fill="#E00040"/>
<path d="M19.8257 23.4411C19.7986 23.4411 19.7712 23.4391 19.7435 23.4351C15.3165 22.7894 12.4483 20.9363 12.0713 18.4778C11.7677 16.4982 13.081 14.4293 15.7692 12.6523C18.3296 10.9598 21.8731 9.70051 25.747 9.10638C31.8766 8.16603 37.5326 9.08256 40.1559 11.4409C40.3879 11.6495 40.4068 12.0066 40.1983 12.2386C39.9896 12.4706 39.6326 12.4895 39.4007 12.2809C37.0556 10.1727 31.6376 9.34559 25.9183 10.2229C22.2023 10.7929 18.8192 11.9902 16.3921 13.5947C14.1262 15.0925 12.9583 16.81 13.1878 18.3066C13.4811 20.2189 16.0556 21.7556 19.9066 22.3173C20.2152 22.3623 20.4289 22.649 20.3839 22.9577C20.343 23.2387 20.1016 23.4411 19.8257 23.4411Z" fill="#E00040"/>
<path d="M40.7319 20.0255C41.5335 20.3025 42.7867 18.8097 43.623 16.6352C42.6493 16.1987 41.5848 15.9289 40.4657 15.8611C39.873 17.9661 39.9649 19.7605 40.7319 20.0255Z" fill="#FF477C"/>
<path d="M47.2399 19.5598C45.307 20.8912 44.1383 22.4746 44.5995 23.1917C45.0351 23.8691 46.7775 23.5436 48.6661 22.4887C48.3681 21.42 47.8797 20.4309 47.2399 19.5598Z" fill="#FF477C"/>
<path d="M48.6161 27.5484C46.6155 26.9662 44.9258 27.0325 44.6503 27.7674C44.3903 28.461 45.471 29.5339 47.1824 30.3892C47.8181 29.5414 48.3063 28.5813 48.6161 27.5484Z" fill="#FF477C"/>
<path d="M35.4792 29.5484L27.7022 31.151C27.2324 31.2478 26.959 31.74 27.125 32.19C27.2417 32.5064 27.5477 32.7127 27.8848 32.7022L31.6884 32.5836C31.8582 32.5783 31.9233 32.8027 31.777 32.889L28.2745 34.9566C27.5619 35.3772 27.9658 36.4723 28.7809 36.3295L32.787 35.6273C32.9543 35.598 33.0506 35.811 32.918 35.9172L29.9485 38.2969C29.6854 38.5079 29.5866 38.8634 29.7033 39.1798C29.8693 39.6298 30.3969 39.8266 30.817 39.5951L37.7719 35.7635C38.9439 35.1178 39.4681 33.7123 39.0049 32.4569L38.5642 31.2622C38.1011 30.0068 36.7899 29.2784 35.4792 29.5484Z" fill="#E00040"/>
<path d="M35.4233 20.0663C35.4233 23.4584 35.0748 26.2082 31.6826 26.2082C28.2905 26.2082 16.2354 23.4584 16.2354 20.0663C16.2354 16.6742 28.2906 13.9243 31.6826 13.9243C35.0747 13.9243 35.4233 16.6742 35.4233 20.0663Z" fill="#FF477C"/>
<path d="M22.8105 20.9745C23.6362 20.9745 24.3056 20.3051 24.3056 19.4794C24.3056 18.6537 23.6362 17.9844 22.8105 17.9844C21.9848 17.9844 21.3154 18.6537 21.3154 19.4794C21.3154 20.3051 21.9848 20.9745 22.8105 20.9745Z" fill="#E00040"/>
</g>
<defs>
<clipPath id="clip0">
<rect width="38" height="38" fill="white"/>
</clipPath>
<clipPath id="clip1">
<rect width="38" height="38" fill="white" transform="translate(11 3)"/>
</clipPath>
</defs>
</svg>
