<svg width="57" height="50" viewBox="0 0 57 50" fill="none" xmlns="http://www.w3.org/2000/svg">
<g clip-path="url(#clip0)">
<path d="M0.917703 17.6059C0.868315 17.7553 0.840336 17.9071 0.83252 18.0605C0.839769 15.5007 0.847019 12.9411 0.854269 10.3813C0.862085 10.2279 0.890064 10.076 0.939452 9.9267C1.65207 7.77684 6.52056 6.54406 14.293 6.54395C22.4462 6.54395 28.5812 7.57544 32.5247 9.61202C32.734 9.71998 32.9344 9.82951 33.1253 9.93984C33.6082 10.2186 34.034 10.5036 34.4093 10.7905C34.4021 13.3504 34.3948 15.9099 34.3876 18.4697C34.0122 18.1829 33.5865 17.8978 33.1036 17.619C32.9126 17.5087 32.7122 17.3993 32.503 17.2912C28.5594 15.2546 22.4246 14.2231 14.2712 14.2231C6.49881 14.2231 1.63032 15.4559 0.917703 17.6059Z" fill="#E56353"/>
<path d="M19.59 15.2926C19.5802 15.3212 19.5757 15.3496 19.5757 15.3779L19.5974 7.6987C19.5975 7.6705 19.6021 7.64207 19.6117 7.61341C19.6933 7.37541 20.1277 7.17831 20.544 7.20686L20.5222 14.8861C20.1059 14.8575 19.6715 15.0546 19.59 15.2926Z" fill="#D5D6DB"/>
<path d="M9.10468 15.1434C8.01939 15.1748 6.94236 15.31 5.93262 15.543C5.94021 12.9832 5.94746 10.4236 5.95471 7.86381C6.96445 7.63092 8.04136 7.49567 9.12655 7.46429C9.7277 7.44696 10.3293 7.49907 10.927 7.47754C11.2865 7.46384 11.7258 7.45081 11.9877 7.60203C12.0584 7.64281 12.1161 7.6956 12.1558 7.76357C12.1843 7.81318 12.1973 7.86427 12.1972 7.91547L12.1755 15.5947C12.1756 15.5435 12.1626 15.4924 12.134 15.4428C12.0943 15.3748 12.0366 15.322 11.9659 15.2812C11.704 15.13 11.2647 15.1432 10.9052 15.1567C10.3074 15.1782 9.70595 15.126 9.10468 15.1434Z" fill="#D5D6DB"/>
<path d="M18.536 15.0791C18.1381 14.8494 17.5426 14.7271 16.9858 14.785L17.0076 7.10583C17.5643 7.04795 18.1598 7.17006 18.5578 7.39989C18.7493 7.51045 18.8951 7.64604 18.9687 7.79829C19.0099 7.88279 19.0289 7.96876 19.0287 8.0544L19.0069 15.7336C19.0071 15.648 18.9881 15.562 18.947 15.4775C18.8734 15.3251 18.7276 15.1896 18.536 15.0791Z" fill="#D5D6DB"/>
<path d="M15.458 15.8042C15.4555 15.8272 15.4541 15.8503 15.4541 15.8734L15.4759 8.19418C15.476 8.17107 15.4772 8.14808 15.4797 8.12497C15.5334 7.64083 16.1833 7.19146 17.008 7.10571L16.9863 14.7849C16.1616 14.8707 15.5116 15.3201 15.458 15.8042Z" fill="#D5D6DB"/>
<path d="M20.2165 8.67232L20.1948 16.3515C20.1952 16.1989 20.0655 16.0398 19.9267 15.9022C19.7623 15.7384 19.5752 15.5615 19.5757 15.3777L19.5974 7.69849C19.5969 7.88233 19.784 8.05916 19.9485 8.22295C20.0874 8.36058 20.217 8.51974 20.2165 8.67232Z" fill="#E56353"/>
<path d="M20.1944 16.3516C20.1943 16.3833 20.1886 16.4147 20.1763 16.4455C20.1835 13.8857 20.1908 11.3261 20.198 8.76627C20.2104 8.73546 20.216 8.70408 20.2161 8.67236C20.2097 10.9762 20.2008 14.0479 20.1944 16.3516Z" fill="#D5D6DB"/>
<path d="M19.6518 16.9164C19.6389 16.9423 19.6329 16.9681 19.6328 16.9936L19.6546 9.31439C19.6547 9.2889 19.6607 9.26307 19.6736 9.23725C19.7521 9.08092 20.0337 8.98906 20.1527 8.84203C20.1729 8.81722 20.1878 8.79196 20.1981 8.76636C20.1908 11.3262 20.1836 13.8858 20.1763 16.4456C20.166 16.4712 20.1512 16.4965 20.131 16.5212C20.0119 16.6683 19.7303 16.7602 19.6518 16.9164Z" fill="#D5D6DB"/>
<path d="M19.0287 8.0542L19.007 15.7334C19.0046 16.5611 17.1964 17.3655 16.0381 16.6967C15.9958 16.6722 15.9541 16.6457 15.9135 16.6172C15.6168 16.4103 15.4529 16.1419 15.4536 15.8734L15.4754 8.19421C15.4746 8.46267 15.6386 8.73102 15.9353 8.93786C15.9758 8.96641 16.0174 8.99292 16.0598 9.01738C17.2181 9.68628 19.0263 8.88191 19.0287 8.0542Z" fill="#E56353"/>
<path d="M18.5582 7.39995C18.7498 7.51051 18.8956 7.6461 18.9692 7.79834C19.4078 8.69991 17.3383 9.75552 16.0604 9.01764C16.018 8.99318 15.9763 8.96667 15.9359 8.93812C15.6137 8.71339 15.448 8.41626 15.48 8.12514C15.5337 7.641 16.1835 7.19164 17.0083 7.10577C17.5649 7.048 18.1603 7.17023 18.5582 7.39995Z" fill="#E00040"/>
<path d="M30.6892 17.321C29.9549 16.8971 26.0918 15.2656 20.522 14.886L20.5437 7.20679C26.1135 7.58637 29.9768 9.21789 30.7109 9.64177C30.7747 9.67858 30.8149 9.70633 30.8307 9.72333C30.861 9.75618 30.8751 9.78812 30.875 9.81916L30.8532 17.4984C30.8533 17.4673 30.8392 17.4354 30.8089 17.4025C30.7933 17.3857 30.7531 17.3579 30.6892 17.321Z" fill="#D5D6DB"/>
<path d="M14.8477 16.9332C14.854 14.673 14.8605 12.4131 14.8668 10.1527C14.8668 10.1524 14.8668 10.152 14.8669 10.1516C14.8605 12.4123 14.854 14.6726 14.8477 16.9332Z" fill="#D5D6DB"/>
<path d="M1.98607 17.606C1.77843 17.904 1.67229 18.2292 1.67139 18.5532L1.69314 10.874C1.69404 10.55 1.80018 10.2248 2.00782 9.92675C2.61656 9.04841 3.9582 8.39583 5.43713 7.99336C5.60739 7.94725 5.78002 7.9041 5.95458 7.86377C5.94733 10.4236 5.94008 12.9832 5.93249 15.543C5.75804 15.5832 5.58552 15.6263 5.41538 15.6724C3.93645 16.0749 2.59481 16.7276 1.98607 17.606Z" fill="#D5D6DB"/>
<path d="M12.1972 7.91553L12.1754 15.5947C12.175 15.764 12.0304 15.9349 11.8254 16.0587C11.5583 16.2222 11.1974 16.3212 10.8488 16.4172C10.4439 16.5296 10.0372 16.6409 9.63055 16.7522C9.09532 16.8992 8.56009 17.0464 8.02316 17.1944C6.95984 17.4866 5.88055 17.7838 5.00685 18.2403C4.16023 18.6826 3.51999 19.3013 3.51807 19.9608L3.53982 12.2816C3.54174 11.6221 4.18198 11.0034 5.0286 10.5611C5.9023 10.1046 6.98159 9.80735 8.04491 9.51521C8.58184 9.36716 9.11707 9.22001 9.6523 9.07298C10.059 8.96163 10.4656 8.85028 10.8706 8.73802C11.2191 8.64197 11.5801 8.54296 11.8471 8.37951C12.0522 8.25558 12.1967 8.08476 12.1972 7.91553Z" fill="#E56353"/>
<path d="M9.56427 17.4404C8.463 17.8837 7.35992 18.3259 6.25684 18.7681C6.26409 16.2083 6.27134 13.6487 6.27859 11.0889C7.38167 10.6467 8.48475 10.2045 9.58602 9.76122C9.58613 9.76122 9.58613 9.76111 9.58624 9.76111C9.57899 12.3209 9.57174 14.8805 9.56449 17.4403C9.56438 17.4403 9.56427 17.4404 9.56427 17.4404Z" fill="#D5D6DB"/>
<path d="M6.25667 18.7681C5.75338 18.9706 5.20366 19.2102 5.20264 19.5931L5.22439 11.9139C5.22552 11.531 5.77513 11.2915 6.27853 11.0889C6.27117 13.6488 6.26381 16.2083 6.25667 18.7681Z" fill="#D5D6DB"/>
<path d="M3.51989 20.0245C3.51865 20.0032 3.51797 19.982 3.51808 19.9608L3.53983 12.2816C3.53971 12.3028 3.54039 12.324 3.54164 12.3453C3.5345 14.9051 3.52714 17.4647 3.51989 20.0245Z" fill="#D5D6DB"/>
<path d="M3.52285 20.0863C3.52296 20.0653 3.52161 20.0445 3.52002 20.0245C3.52727 17.4647 3.53452 14.9051 3.54177 12.3453C3.54336 12.3653 3.5446 12.3861 3.5446 12.4071C3.53814 14.7109 3.52942 17.7825 3.52285 20.0863Z" fill="#D5D6DB"/>
<path d="M3.54407 12.407L3.52232 20.0862C3.52209 20.1684 3.50057 20.2529 3.38707 20.2961C3.23403 20.3543 3.02912 20.2889 2.88764 20.2195C2.82907 20.1903 2.77289 20.16 2.71863 20.1288C2.0119 19.7207 1.66969 19.1392 1.67139 18.5532L1.69314 10.874C1.69144 11.46 2.03365 12.0416 2.74038 12.4496C2.79464 12.481 2.85093 12.5111 2.90938 12.5403C3.05087 12.6097 3.25578 12.6751 3.40882 12.6169C3.52232 12.5738 3.54384 12.4892 3.54407 12.407Z" fill="#E56353"/>
<path d="M12.8596 16.8635C11.5237 16.6603 10.521 17.0565 9.56396 17.4405C9.57121 14.8807 9.57846 12.3211 9.58571 9.7613C10.5427 9.37729 11.5455 8.98105 12.8814 9.18427C12.8742 11.7435 12.867 14.3024 12.8597 16.8617C12.8654 14.8779 12.8711 12.8943 12.8766 10.9105C12.8782 10.335 12.8815 9.75971 12.8815 9.18427C13.4107 9.26515 13.8908 9.42169 14.2673 9.63907H14.2674C14.2647 9.93835 14.2657 10.2377 14.2648 10.537C14.2586 12.7969 14.252 15.0565 14.2457 17.3164C14.2529 14.7571 14.2602 12.1982 14.2674 9.63907C14.5188 9.78418 14.724 9.95647 14.8669 10.1514C14.8669 10.1514 14.8669 10.1514 14.867 10.1515V10.1522V10.1524C14.8655 10.6877 14.8639 11.2228 14.8624 11.758C14.8609 12.3345 14.8592 12.9109 14.8576 13.4874C14.8535 14.935 14.8494 16.3825 14.8453 17.8301C14.8526 15.2705 14.8598 12.7111 14.8671 10.1515C15.0505 10.4012 15.1252 10.6621 15.1246 10.9274L15.1028 18.6066C15.1036 18.3413 15.0287 18.0804 14.8453 17.8306C14.7024 17.6357 14.4971 17.4634 14.2458 17.3183C13.869 17.1008 13.3888 16.9442 12.8596 16.8635Z" fill="#D5D6DB"/>
<path d="M15.1246 10.9271L15.1029 18.6063C15.1027 18.6905 15.0948 18.7751 15.0805 18.8601C15.0516 19.0334 15.0371 19.2071 15.0366 19.3808L15.0584 11.7016C15.0588 11.5279 15.0733 11.3541 15.1022 11.1809C15.1166 11.096 15.1244 11.0113 15.1246 10.9271Z" fill="#E56353"/>
<path d="M15.3342 20.7844C15.137 20.3251 15.0348 19.8534 15.0361 19.381L15.0579 11.7018C15.0565 12.1741 15.1587 12.6459 15.3559 13.1052V13.1053C15.3488 15.6651 15.3414 18.2247 15.3342 20.7844C15.3342 20.7845 15.3342 20.7845 15.3342 20.7844Z" fill="#D5D6DB"/>
<path d="M15.48 21.2634C15.4526 21.101 15.4024 20.9417 15.3345 20.7844C15.3417 18.2246 15.349 15.665 15.3562 13.1052C15.4241 13.2625 15.4744 13.4218 15.5018 13.5842C15.5139 13.659 15.52 13.7348 15.5198 13.8106L15.498 21.4898C15.4983 21.414 15.4921 21.3383 15.48 21.2634Z" fill="#D5D6DB"/>
<path d="M15.5197 13.8106L15.4979 21.4898C15.4967 21.9393 15.2719 22.3938 14.7457 22.7189C13.8653 23.2613 12.3492 23.3041 11.1556 23.0222C10.0583 22.7636 9.16908 22.2852 8.32528 21.798C8.25256 21.756 8.18029 21.714 8.10813 21.672C7.34918 21.2338 6.59205 20.7947 5.83491 20.3555C5.62977 20.237 5.4526 20.1002 5.33887 19.9449C5.24327 19.8153 5.20181 19.6988 5.20215 19.5932L5.2239 11.9139C5.22356 12.0195 5.26502 12.136 5.36062 12.2655C5.47435 12.4207 5.6514 12.5577 5.85666 12.6762C6.6138 13.1153 7.37093 13.5545 8.12988 13.9927C8.20193 14.0346 8.27431 14.0766 8.34703 14.1186C9.19082 14.6058 10.0802 15.0843 11.1773 15.3429C12.3709 15.6248 13.887 15.5819 14.7674 15.0396C15.2937 14.7146 15.5183 14.2601 15.5197 13.8106Z" fill="#E56353"/>
<path d="M0.830085 18.145L0.851834 10.4658C0.848889 11.5155 1.77719 12.6288 3.28545 13.4997C4.1638 14.0068 5.2389 14.4317 6.57363 14.7537L6.55188 22.4329C5.21715 22.1109 4.14205 21.6859 3.26371 21.1789C1.75544 20.308 0.82714 19.1949 0.830085 18.145Z" fill="#D5D6DB"/>
<path d="M0.832344 18.0606C0.830871 18.0887 0.830191 18.1167 0.830078 18.1449L0.851827 10.4657C0.85194 10.4375 0.85262 10.4094 0.854093 10.3813C0.846843 12.9413 0.839593 15.5007 0.832344 18.0606Z" fill="#E56353"/>
<path d="M30.875 9.81922L30.8533 17.4984C30.8521 17.9081 28.363 18.1564 27.8846 18.1963C27.0492 18.2658 26.1728 18.2362 25.4098 18.0257C24.9736 17.9062 24.5882 17.7305 24.1625 17.5967C23.3323 17.3353 22.3496 17.2403 21.4192 17.3302C21.0403 17.366 20.6563 17.4334 20.2787 17.3884C20.1156 17.3685 19.9559 17.3172 19.8361 17.2481C19.7134 17.1772 19.6325 17.0876 19.6328 16.9938L19.6546 9.31458C19.6543 9.40837 19.7352 9.49797 19.8579 9.56888C19.9776 9.63798 20.1372 9.68929 20.3005 9.70923C20.678 9.7542 21.062 9.6868 21.4409 9.651C22.3714 9.56118 23.354 9.6561 24.1842 9.91754C24.6099 10.0513 24.9953 10.227 25.4315 10.3465C26.1944 10.5569 27.071 10.5866 27.9064 10.5171C28.3847 10.4772 30.8738 10.2289 30.875 9.81922Z" fill="#E56353"/>
<path d="M30.7113 9.64184C30.7751 9.67865 30.8153 9.70641 30.8311 9.7234C31.2622 10.1901 28.4213 10.4741 27.9067 10.517C27.0713 10.5864 26.1949 10.5569 25.4319 10.3464C24.9957 10.2269 24.6103 10.0512 24.1846 9.91744C23.3544 9.656 22.3717 9.56096 21.4413 9.6509C21.0624 9.6867 20.6784 9.7541 20.3008 9.70913C20.1377 9.68919 19.978 9.63788 19.8582 9.56878C19.7022 9.47861 19.6137 9.35808 19.6739 9.23733C19.7524 9.08101 20.0341 8.98914 20.1531 8.84211C20.3142 8.64399 20.1401 8.41314 19.9486 8.22317C19.7589 8.03423 19.539 7.82795 19.612 7.61341C19.6935 7.37541 20.128 7.17831 20.5442 7.20686C26.1138 7.58645 29.9771 9.21796 30.7113 9.64184Z" fill="#E00040"/>
<path d="M17.252 19.3729C17.0893 19.6287 17.0124 19.8974 17.0117 20.167L17.0335 12.4878C17.0343 12.2183 17.1111 11.9496 17.2737 11.6937C17.2673 13.9975 17.8989 17.1618 17.252 19.3729Z" fill="#D5D6DB"/>
<path d="M36.2522 20.4115C35.8412 19.7913 35.2463 19.1259 34.3877 18.4697C34.3949 15.9099 34.4022 13.3503 34.4094 10.7905C35.2682 11.4467 35.863 12.1121 36.274 12.7323C36.2668 15.2921 36.2595 17.8517 36.2522 20.4115Z" fill="#E56353"/>
<path d="M22.8696 17.8847C20.7194 17.419 18.0415 18.1288 17.2515 19.3728L17.2732 11.6936C18.0632 10.4496 20.7412 9.7397 22.8914 10.2055C23.9788 10.4404 24.9003 10.9256 26.0383 11.0573C27.778 11.2575 29.6081 10.5854 31.2972 10.901C31.7811 10.9908 32.2089 11.1571 32.5707 11.366C32.8344 11.5182 33.0631 11.6931 33.2529 11.8774C33.5359 12.1517 33.7451 12.4472 33.9255 12.7494C33.9182 15.3093 33.911 17.8688 33.9037 20.4286C33.7234 20.1264 33.5143 19.831 33.2312 19.5566C33.0413 19.3723 32.8127 19.1974 32.5489 19.0452C32.1871 18.8363 31.7594 18.67 31.2755 18.5802C29.5863 18.2646 27.7563 18.9367 26.0165 18.7365C24.8786 18.6047 23.9572 18.1195 22.8696 17.8847Z" fill="#D5D6DB"/>
<path d="M11.9872 7.60204C12.0579 7.64282 12.1156 7.69561 12.1553 7.76357C12.2782 7.97698 12.1137 8.21804 11.8466 8.37945C11.5795 8.54291 11.2186 8.64191 10.87 8.73797C10.4651 8.85034 10.0584 8.96169 9.65176 9.07293C9.11653 9.21996 8.5813 9.36711 8.04438 9.51516C6.98105 9.8073 5.90176 10.1045 5.02806 10.561C4.15425 11.0175 3.5002 11.6621 3.54109 12.3454C3.54868 12.4435 3.55117 12.5629 3.40856 12.617C3.25552 12.6752 3.05061 12.6099 2.90912 12.5404C2.85056 12.5112 2.79438 12.481 2.74012 12.4497C1.6427 11.8161 1.42419 10.7638 2.00756 9.92681C2.61631 9.04846 3.95795 8.39588 5.43688 7.99341C6.59184 7.68088 7.85328 7.50111 9.12616 7.4643C9.72732 7.44696 10.3289 7.49896 10.9265 7.47755C11.286 7.46396 11.7253 7.45093 11.9872 7.60204Z" fill="#E00040"/>
<path d="M33.9041 20.4285C33.8688 20.2997 33.905 20.1167 33.9054 19.9832C33.9067 19.4963 33.9081 19.0095 33.9096 18.5226C33.9114 17.8875 33.9132 17.2523 33.915 16.6172C33.9186 15.3279 33.9224 14.0387 33.926 12.7494C34.0337 12.93 34.1312 13.1129 34.2278 13.295C34.2563 13.3484 34.2849 13.4019 34.3131 13.4557C34.3058 16.0155 34.2986 18.5751 34.2913 21.1349C34.2631 21.0812 34.2346 21.0276 34.206 20.9742C34.1093 20.7919 34.0119 20.6089 33.9041 20.4285Z" fill="#D5D6DB"/>
<path d="M34.2909 21.1349C34.2799 21.0899 34.2913 21.0269 34.2914 20.9807C34.2925 20.5844 34.2936 20.188 34.2948 19.7916C34.296 19.3438 34.2973 18.896 34.2986 18.4482C34.3033 16.784 34.308 15.1199 34.3128 13.4557C34.5106 13.8321 34.6928 14.2178 34.7464 14.605C34.7392 17.1648 34.7319 19.7244 34.7247 22.2842C34.671 21.897 34.4887 21.5113 34.2909 21.1349Z" fill="#D5D6DB"/>
<path d="M34.7247 22.2842C34.721 22.2307 34.725 22.159 34.7251 22.1054C34.7253 22.0097 34.7257 21.914 34.7259 21.8184C34.726 21.7588 34.7263 21.6793 34.7265 21.6196C34.7266 21.5895 34.7267 21.5494 34.7268 21.5193C34.7275 21.2646 34.7283 21.0097 34.729 20.755C34.7347 18.7049 34.7406 16.6552 34.7464 14.6051C34.7569 14.6809 34.7625 14.7567 34.7623 14.8326L34.7405 22.5118C34.7408 22.4357 34.7352 22.36 34.7247 22.2842Z" fill="#D5D6DB"/>
<path d="M36.9561 21.8801C36.8239 21.4474 36.6063 20.9462 36.252 20.4115C36.2592 17.8517 36.2665 15.2921 36.2737 12.7323C36.628 13.267 36.8456 13.7682 36.9778 14.2009C37.0437 14.416 37.0958 14.6624 37.13 14.9331C37.1227 17.493 37.1155 20.0525 37.1082 22.6124C37.074 22.3416 37.0219 22.0953 36.9561 21.8801Z" fill="#E56353"/>
<path d="M14.267 9.63899C14.5183 9.7841 14.7236 9.95639 14.8665 10.1513C15.1082 10.4802 15.1613 10.8285 15.1016 11.1809C14.9942 11.8253 15.086 12.477 15.3558 13.1051C15.4236 13.2625 15.4739 13.4217 15.5013 13.5842C15.5854 14.103 15.3822 14.6596 14.7672 15.0395C13.8868 15.5819 12.3707 15.6247 11.1771 15.3429C10.0798 15.0843 9.19062 14.6058 8.34683 14.1186C8.27411 14.0767 8.20184 14.0347 8.12968 13.9926C7.37073 13.5545 6.6136 13.1153 5.85646 12.6761C5.65132 12.5577 5.47415 12.4208 5.36042 12.2655C4.91797 11.666 5.63557 11.3473 6.27773 11.0889C7.38081 10.6467 8.4839 10.2045 9.58517 9.76122C10.5422 9.37721 11.5451 8.98086 12.881 9.18419C13.4103 9.26507 13.8903 9.42161 14.267 9.63899Z" fill="#E00040"/>
<path d="M37.1083 22.6122C37.1038 22.538 37.1088 22.4639 37.109 22.3897C37.1092 22.3157 37.1095 22.2417 37.1097 22.1677C37.1165 19.756 37.1234 17.3446 37.1302 14.933C37.1606 15.1735 37.1769 15.4331 37.1761 15.7071L37.1543 23.3863C37.155 23.1123 37.1387 22.8527 37.1083 22.6122Z" fill="#E56353"/>
<path d="M11.2463 17.5939L11.2245 25.2731C10.4333 24.536 9.58744 23.9664 8.826 23.5266C7.61621 22.8282 6.61893 22.4579 6.55176 22.4327L6.57351 14.7535C6.64079 14.7787 7.63807 15.149 8.84775 15.8474C9.60919 16.2872 10.455 16.857 11.2463 17.5939Z" fill="#D5D6DB"/>
<path d="M34.7619 14.8324L34.7402 22.5116C34.7398 22.6253 34.7266 22.7391 34.6973 22.8526C34.5921 23.2622 34.2207 23.6788 33.6384 23.9249C32.9621 24.2125 32.6489 24.1603 32.2445 23.9269C32.1461 23.8701 32.0425 23.8027 31.9269 23.7268C31.8328 23.6649 31.7353 23.6047 31.6345 23.5465C30.5553 22.9235 29.1031 22.5207 27.5804 22.4553C24.9861 22.3439 22.2999 23.1488 19.8531 22.6279C19.299 22.5099 18.8051 22.3193 18.3908 22.0801C17.527 21.5814 17.0093 20.8715 17.0112 20.167L17.033 12.4878C17.0309 13.1923 17.5487 13.9022 18.4126 14.4009C18.8267 14.64 19.3206 14.8307 19.8748 14.9487C22.3216 15.4696 25.0078 14.6647 27.6022 14.7761C29.1248 14.8414 30.577 15.2443 31.6562 15.8673C31.757 15.9255 31.8547 15.9856 31.9487 16.0476C32.0643 16.1235 32.168 16.1909 32.2662 16.2477C32.6705 16.4811 32.9837 16.5333 33.6602 16.2457C34.2424 15.9996 34.6138 15.5828 34.7191 15.1733C34.7483 15.0598 34.7616 14.9461 34.7619 14.8324Z" fill="#E56353"/>
<path d="M32.5713 11.366C32.835 11.5183 33.0637 11.6932 33.2536 11.8775C33.7056 12.3156 33.9693 12.8079 34.2278 13.2951C34.554 13.9049 34.882 14.5422 34.7198 15.1733C34.6146 15.5829 34.2431 15.9996 33.6609 16.2457C32.9845 16.5333 32.6713 16.4811 32.2669 16.2476C32.1686 16.1909 32.065 16.1235 31.9494 16.0476C31.8554 15.9856 31.7577 15.9255 31.6569 15.8673C30.5778 15.2442 29.1256 14.8414 27.6029 14.7761C25.0085 14.6647 22.3223 15.4696 19.8756 14.9487C19.3214 14.8307 18.8275 14.64 18.4133 14.4009C17.219 13.7114 16.6862 12.6182 17.274 11.6937C18.0639 10.4497 20.7419 9.73982 22.8921 10.2056C23.9795 10.4405 24.901 10.9256 26.039 11.0574C27.7787 11.2576 29.6087 10.5855 31.298 10.9011C31.7818 10.9907 32.2095 11.1571 32.5713 11.366Z" fill="#E00040"/>
<path d="M33.2358 25.217C33.2264 25.2081 33.2168 25.1993 33.207 25.1904C33.2143 22.6306 33.2215 20.071 33.2288 17.5112C33.2386 17.52 33.2483 17.5288 33.2575 17.5376C33.2504 20.0976 33.243 22.6571 33.2358 25.217Z" fill="#D5D6DB"/>
<path d="M16.8666 22.9822C15.0436 23.0128 13.6851 24.1159 13.7033 25.171L13.7251 17.4918C13.7068 16.4367 15.0653 15.3336 16.8884 15.303C18.9671 15.2693 20.4606 16.5123 22.4811 16.8034C23.8646 17.0015 25.1481 16.6757 26.1448 16.1395C26.8867 15.7411 27.5494 15.3683 28.625 15.7085L28.6033 23.3877C27.5276 23.0476 26.8649 23.4204 26.1231 23.8187C25.1264 24.3548 23.8427 24.6807 22.4593 24.4826C20.4388 24.1915 18.9454 22.9485 16.8666 22.9822Z" fill="#D5D6DB"/>
<path d="M33.2358 25.2169C33.2431 22.6571 33.2503 20.0975 33.2576 17.5377C33.3515 17.6265 33.4225 17.7215 33.4737 17.8208C33.4665 20.3806 33.4592 22.9402 33.452 25.5C33.4009 25.4006 33.3298 25.3057 33.2358 25.2169Z" fill="#D5D6DB"/>
<path d="M33.465 25.5258C33.4609 25.5171 33.4566 25.5085 33.4521 25.4999C33.4594 22.9401 33.4667 20.3805 33.4739 17.8207C33.4783 17.8293 33.4826 17.8379 33.4867 17.8466C33.4795 20.4065 33.4721 22.966 33.465 25.5258Z" fill="#D5D6DB"/>
<path d="M31.3009 24.8655C30.4995 25.0059 29.9954 25.3617 29.6914 25.781C29.6987 23.2212 29.7059 20.6616 29.7132 18.1018C30.0172 17.6825 30.5213 17.3267 31.3227 17.1863C31.9377 17.078 32.5915 17.1162 33.0337 17.3715C33.1045 17.4124 33.1699 17.4587 33.2288 17.511C33.2289 17.5112 33.2289 17.5112 33.229 17.5113C33.2218 20.0711 33.2145 22.6307 33.2073 25.1905C33.2071 25.1904 33.2071 25.1904 33.207 25.1902C33.1481 25.138 33.0828 25.0916 33.012 25.0507C32.5697 24.7955 31.9159 24.7572 31.3009 24.8655Z" fill="#D5D6DB"/>
<path d="M29.6777 25.7999C29.685 23.2401 29.6922 20.6805 29.6995 18.1207C29.704 18.1144 29.7085 18.108 29.7131 18.1017C29.7058 20.6615 29.6986 23.2211 29.6913 25.7809C29.6867 25.7872 29.6822 25.7936 29.6777 25.7999Z" fill="#D5D6DB"/>
<path d="M33.4649 25.5258C33.4603 25.505 33.465 25.4763 33.4651 25.4551C33.4653 25.4326 33.4653 25.4026 33.4654 25.3802C33.4655 25.328 33.4657 25.2758 33.4658 25.2235C33.4662 25.1229 33.4664 25.0224 33.4667 24.9217C33.4734 22.5633 33.4801 20.2051 33.4868 17.8466C33.5352 17.9481 33.5634 18.0541 33.5741 18.1628C33.5669 20.7226 33.5596 23.2822 33.5524 25.842C33.5414 25.7333 33.5133 25.6273 33.4649 25.5258Z" fill="#D5D6DB"/>
<path d="M33.5567 25.9083C33.5559 25.8861 33.5544 25.864 33.5522 25.8421C33.5595 23.2822 33.5668 20.7227 33.574 18.1628C33.5762 18.1848 33.5776 18.2069 33.5784 18.2291C33.5712 20.7889 33.5638 23.3485 33.5567 25.9083Z" fill="#D5D6DB"/>
<path d="M33.5566 25.9083C33.5527 25.6697 33.5579 25.4311 33.5586 25.1924C33.5593 24.9537 33.56 24.7152 33.5607 24.4765C33.5666 22.3939 33.5724 20.3116 33.5783 18.229C33.5788 18.2429 33.579 18.257 33.579 18.2709L33.5573 25.9501C33.5573 25.9362 33.557 25.9223 33.5566 25.9083Z" fill="#D5D6DB"/>
<path d="M29.6775 25.8001C29.5872 25.9276 29.5151 26.0608 29.4585 26.1955C29.4657 23.6357 29.4731 21.076 29.4804 18.5162C29.5369 18.3816 29.6089 18.2485 29.6992 18.121C29.6925 20.4876 29.6857 22.854 29.6791 25.2205C29.6788 25.3171 29.6785 25.4136 29.6783 25.5101C29.6783 25.5215 29.6781 25.5367 29.6781 25.548C29.6781 25.5594 29.678 25.5745 29.678 25.5859C29.6779 25.6461 29.6777 25.7064 29.6775 25.7668C29.6775 25.7767 29.6804 25.7905 29.6775 25.8001Z" fill="#D5D6DB"/>
<path d="M29.3392 26.5712C29.2938 26.7752 29.2711 26.9808 29.2705 27.1865L29.2923 19.5073C29.2928 19.3016 29.3156 19.0959 29.3609 18.892C29.3888 18.7677 29.428 18.6413 29.4806 18.516C29.4734 21.0758 29.4661 23.6355 29.4588 26.1953C29.4062 26.3206 29.367 26.447 29.3392 26.5712Z" fill="#D5D6DB"/>
<path d="M26.6553 27.8192L26.677 20.14C26.6789 19.4643 27.0252 18.7898 27.3691 18.1371C27.7896 17.3374 28.3333 16.5254 28.625 15.7084L28.6033 23.3876C28.3117 24.2046 27.7679 25.0166 27.3474 25.8163C27.0035 26.469 26.6572 27.1436 26.6553 27.8192Z" fill="#E56353"/>
<path d="M26.7089 28.2697C26.6715 28.1198 26.6548 27.9696 26.6553 27.8193L26.677 20.1401C26.6766 20.2902 26.6932 20.4404 26.7306 20.5905V20.5906C26.7233 23.1504 26.7161 25.71 26.7089 28.2698C26.7089 28.2698 26.7089 28.2698 26.7089 28.2697Z" fill="#D5D6DB"/>
<path d="M27.0622 29.5575C27.0634 29.145 26.8133 28.6892 26.709 28.2698C26.7162 25.71 26.7235 23.1504 26.7307 20.5906C26.8349 21.01 27.0851 21.4657 27.0839 21.8783C27.0775 24.1821 27.0688 27.2537 27.0622 29.5575Z" fill="#D5D6DB"/>
<path d="M27.0837 21.8783L27.062 29.5575C27.0613 29.809 26.9672 30.0445 26.6899 30.246C26.049 30.7127 24.818 30.678 23.8139 30.5422C21.0038 30.1621 18.3845 29.3184 16.3411 28.1386C16.2379 28.079 16.136 28.0184 16.0357 27.9571C14.7778 27.1902 13.7197 26.227 13.7031 25.1709L13.7249 17.4917C13.7414 18.5478 14.7995 19.5108 16.0575 20.2779C16.1577 20.3392 16.2596 20.3998 16.3628 20.4594C18.4061 21.6391 21.0254 22.4829 23.8357 22.863C24.8397 22.9988 26.0707 23.0336 26.7116 22.5668C26.989 22.3653 27.0831 22.1298 27.0837 21.8783Z" fill="#E56353"/>
<path d="M33.5791 18.2711L33.5573 25.9503C33.5554 26.6328 32.9272 27.4013 32.3598 27.8653C31.9293 28.2163 30.5666 29.2573 29.8685 28.8543C29.7582 28.7906 29.6644 28.6908 29.5936 28.5465C29.3781 28.1045 29.2693 27.6454 29.2705 27.1867L29.2923 19.5075C29.2909 19.9662 29.3999 20.4252 29.6153 20.8673C29.6861 21.0116 29.7799 21.1113 29.8903 21.1751C30.5884 21.5781 31.9512 20.5371 32.3815 20.1861C32.9488 19.7221 33.5772 18.9536 33.5791 18.2711Z" fill="#E56353"/>
<path d="M34.3068 21.4709L34.2851 29.1501C32.5909 30.4604 30.2007 31.2224 27.1813 31.4134C26.7302 31.442 26.2752 31.4564 25.8292 31.4553C21.5438 31.4553 18.0925 30.1264 15.6233 28.7008C12.7931 27.0668 11.253 25.3059 11.2246 25.2732L11.2464 17.594C11.2748 17.6267 12.8149 19.3876 15.6451 21.0216C18.1143 22.4472 21.5656 23.7761 25.8509 23.7761C26.297 23.7772 26.7519 23.7629 27.2031 23.7342C30.2225 23.5432 32.6127 22.7814 34.3068 21.4709Z" fill="#D5D6DB"/>
<path d="M37.1763 15.7073L37.1546 23.3865C37.1496 25.1374 36.4486 27.4764 34.2856 29.1502L34.3074 21.471C36.4704 19.7972 37.1713 17.4582 37.1763 15.7073Z" fill="#D5D6DB"/>
<path d="M33.0334 17.3716C33.1042 17.4125 33.1696 17.4589 33.2285 17.5112C34.095 18.2823 33.1782 19.5344 32.3813 20.1861C31.9508 20.5371 30.5881 21.5781 29.89 21.1751C29.7797 21.1114 29.6859 21.0116 29.6151 20.8673C29.3029 20.227 29.2144 19.5508 29.3607 18.892C29.5189 18.1873 30.04 17.4111 31.3224 17.1863C31.9372 17.0781 32.5911 17.1163 33.0334 17.3716Z" fill="#E00040"/>
<path d="M28.6254 15.7084C28.3338 16.5255 27.7899 17.3375 27.3695 18.1372C26.949 18.9349 26.5252 19.7652 26.7309 20.5904C26.8987 21.2655 27.4443 22.0346 26.712 22.5667C26.0711 23.0334 24.8401 22.9988 23.8361 22.863C21.0259 22.4828 18.4066 21.6391 16.3632 20.4594C16.2601 20.3998 16.1581 20.3392 16.0579 20.2779C14.7999 19.5109 13.7418 18.5477 13.7253 17.4916C13.7069 16.4366 15.0656 15.3335 16.8886 15.3029C18.9673 15.2692 20.4608 16.5121 22.4813 16.8033C23.8648 17.0014 25.1484 16.6756 26.1451 16.1393C26.887 15.7412 27.5497 15.3684 28.6254 15.7084Z" fill="#E00040"/>
<path d="M34.3071 21.4708C32.613 22.7811 30.2227 23.5432 27.2034 23.7341C26.7522 23.7627 26.2973 23.7771 25.8512 23.776C21.5658 23.776 18.1145 22.4471 15.6454 21.0215C12.8152 19.3875 11.2751 17.6266 11.2466 17.5939C10.4554 16.8568 9.60956 16.2871 8.84812 15.8474C7.63833 15.149 6.64105 14.7787 6.57388 14.7535C5.23915 14.4315 4.16405 14.0066 3.2857 13.4995C1.51577 12.4777 0.544426 11.122 0.939532 9.92671C1.65215 7.77673 6.52064 6.54395 14.293 6.54395C22.4462 6.54395 28.5811 7.57544 32.5247 9.61202C32.7339 9.71998 32.9343 9.82951 33.1254 9.93984C35.6653 11.4061 36.6256 13.0468 36.9782 14.2009C37.4757 15.8279 37.1899 19.2401 34.3071 21.4708ZM17.2737 11.6936C16.6858 12.618 17.2186 13.7113 18.4129 14.4008C18.827 14.6399 19.3209 14.8305 19.8752 14.9486C22.322 15.4694 25.0082 14.6646 27.6025 14.7759C29.1252 14.8413 30.5774 15.2441 31.6566 15.8671C31.7574 15.9253 31.855 15.9855 31.949 16.0475C32.0647 16.1234 32.1683 16.1908 32.2666 16.2475C32.671 16.481 32.984 16.5332 33.6605 16.2456C34.2428 15.9994 34.6142 15.5827 34.7194 15.1732C34.8816 14.542 34.5536 13.9047 34.2275 13.295C33.9691 12.8078 33.7053 12.3155 33.2532 11.8773C33.0633 11.693 32.8348 11.5181 32.5709 11.3659C32.2091 11.157 31.7814 10.9907 31.2975 10.9009C29.6083 10.5853 27.7783 11.2574 26.0385 11.0572C24.9006 10.9255 23.9792 10.4403 22.8916 10.2054C20.7416 9.7398 18.0637 10.4496 17.2737 11.6936ZM23.836 22.8629C24.8401 22.9987 26.071 23.0335 26.712 22.5667C27.4443 22.0345 26.8985 21.2655 26.7308 20.5904C26.5251 19.7652 26.9489 18.9347 27.3693 18.1371C27.7898 17.3373 28.3335 16.5254 28.6252 15.7083C27.5495 15.3683 26.8869 15.741 26.145 16.1393C25.1483 16.6755 23.8647 17.0014 22.4812 16.8032C20.4607 16.5121 18.9673 15.2691 16.8886 15.3029C15.0655 15.3335 13.707 16.4366 13.7252 17.4916C13.7418 18.5477 14.7999 19.5108 16.0578 20.2779C16.158 20.3391 16.2599 20.3997 16.3632 20.4593C18.4065 21.6391 21.0257 22.4828 23.836 22.8629ZM11.1775 15.3429C12.371 15.6247 13.8872 15.5819 14.7676 15.0395C15.3826 14.6596 15.5858 14.103 15.5017 13.5842C15.4743 13.4217 15.4241 13.2625 15.3562 13.1051C15.0865 12.477 14.9946 11.8253 15.102 11.1809C15.1618 10.8285 15.1087 10.4803 14.8669 10.1514C14.724 9.9565 14.5187 9.7842 14.2674 9.6391C13.8907 9.42161 13.4106 9.26506 12.8813 9.18429C11.5453 8.98108 10.5425 9.37732 9.58543 9.76132C8.48416 10.2046 7.38108 10.6468 6.278 11.089C5.63584 11.3474 4.91824 11.6661 5.36069 12.2656C5.47442 12.4208 5.65147 12.5578 5.85673 12.6763C6.61386 13.1154 7.371 13.5546 8.12995 13.9927C8.20199 14.0347 8.27438 14.0767 8.34699 14.1187C9.191 14.6058 10.0803 15.0843 11.1775 15.3429ZM20.544 7.20684C20.1277 7.17829 19.6933 7.37539 19.6117 7.61338C19.5389 7.82781 19.7587 8.0342 19.9484 8.22315C20.1399 8.41311 20.314 8.64397 20.1528 8.84209C20.0338 8.98912 19.7522 9.0811 19.6737 9.23731C19.6134 9.35806 19.7019 9.47859 19.858 9.56875C19.9777 9.63785 20.1373 9.68916 20.3005 9.7091C20.6781 9.75407 21.0621 9.68667 21.441 9.65088C22.3715 9.56105 23.3541 9.65598 24.1843 9.91742C24.61 10.0512 24.9954 10.2269 25.4316 10.3464C26.1945 10.5567 27.071 10.5864 27.9065 10.517C28.4211 10.4741 31.2618 10.1901 30.8308 9.72337C30.8152 9.70638 30.7749 9.67863 30.7111 9.64182C29.977 9.21794 26.1138 7.58642 20.544 7.20684ZM3.40917 12.617C3.55168 12.5629 3.5493 12.4434 3.54171 12.3454C3.50081 11.6621 4.15487 11.0177 5.02868 10.5611C5.90238 10.1045 6.98167 9.80731 8.04499 9.51517C8.58192 9.36701 9.11715 9.21998 9.65238 9.07294C10.059 8.96159 10.4657 8.85024 10.8707 8.73787C11.2192 8.64182 11.5802 8.54281 11.8472 8.37936C12.1143 8.21794 12.2787 7.97689 12.1559 7.76347C12.1161 7.69551 12.0585 7.64272 11.9878 7.60194C11.7259 7.45072 11.2866 7.46386 10.9271 7.47745C10.3294 7.49886 9.72793 7.44687 9.12666 7.4642C7.85378 7.50101 6.59223 7.68078 5.43738 7.99331C3.95856 8.39578 2.61681 9.04836 2.00818 9.92671C1.42481 10.7637 1.64332 11.8159 2.74073 12.4496C2.79499 12.481 2.85129 12.5111 2.90974 12.5403C3.05122 12.6098 3.25614 12.6751 3.40917 12.617ZM29.8901 21.175C30.5883 21.578 31.951 20.537 32.3814 20.186C33.1783 19.5343 34.0952 18.2822 33.2286 17.5111C33.1697 17.4589 33.1043 17.4124 33.0335 17.3715C32.5913 17.1162 31.9375 17.078 31.3225 17.1863C30.0401 17.4111 29.5191 18.1872 29.3608 18.8919C29.2147 19.5507 29.303 20.2268 29.6152 20.8672C29.686 21.0115 29.7798 21.1112 29.8901 21.175ZM17.0081 7.10568C16.1834 7.19143 15.5334 7.64091 15.4797 8.12494C15.4479 8.41606 15.6135 8.71318 15.9357 8.93792C15.9762 8.96646 16.0178 8.99297 16.0603 9.01744C17.3383 9.75532 19.4077 8.6997 18.9691 7.79814C18.8955 7.64578 18.7497 7.5103 18.5581 7.39974C18.1603 7.17002 17.5649 7.0478 17.0081 7.10568Z" fill="#FFADC5"/>
<path d="M27.3073 23.9405C22.0583 24.2726 17.9239 22.7435 15.0707 21.0962C12.0966 19.3792 10.594 17.6259 10.515 17.5336C9.80359 16.8752 8.99956 16.3344 8.27652 15.9171C7.10275 15.2395 6.19099 14.9049 6.14296 14.8873C4.86057 14.5861 3.68884 14.1251 2.7218 13.5667C1.08043 12.619 0.0184722 11.6645 0.0217572 10.4661L8.21828e-06 18.1452C-0.00339006 19.3436 1.04736 20.571 2.68873 21.5186C3.65588 22.077 4.8276 22.5381 6.10989 22.8393C6.15792 22.8569 7.06967 23.1915 8.24344 23.8691C8.96637 24.2865 9.7704 24.8273 10.4819 25.4855C10.561 25.5779 12.0636 27.3312 15.0376 29.0482C17.8908 30.6954 22.0253 32.2244 27.2743 31.8924C36.0928 31.3329 37.9699 26.3728 37.9784 23.388L38.0001 15.7088C37.9915 18.6936 36.1259 23.3809 27.3073 23.9405Z" fill="#FF477C"/>
<path d="M37.796 14.1172C38.4786 16.3499 38.0165 23.5329 27.2962 24.2132C22.0473 24.5454 17.9127 23.0163 15.0597 21.3691C12.0856 19.6521 10.583 17.8988 10.5039 17.8065C9.79244 17.1481 8.98852 16.6073 8.26548 16.19C7.09172 15.5124 6.17996 15.1778 6.13193 15.1602C4.84953 14.859 3.67781 14.3979 2.71066 13.8395C-2.01578 11.1107 -1.84451 6.06292 14.2904 6.06201C24.6502 6.06201 30.4491 7.71595 33.7103 9.59906C36.5682 11.2491 37.4772 13.0754 37.796 14.1172ZM27.2035 23.7342C30.2229 23.5432 32.6131 22.7812 34.3073 21.4708C37.19 19.2402 37.4758 15.8279 36.9782 14.2009C36.6257 13.0467 35.6653 11.4061 33.1255 9.93979C32.9345 9.82946 32.7341 9.72003 32.5249 9.61197C28.5813 7.57538 22.4465 6.54389 14.2931 6.54389C6.52069 6.54389 1.65221 7.77667 0.939587 9.92665C0.54448 11.1219 1.51582 12.4776 3.28576 13.4995C4.1641 14.0066 5.2392 14.4315 6.4414 14.7137C6.6411 14.7786 7.63839 15.1489 8.84817 15.8474C9.60961 16.287 10.4554 16.8568 11.2059 17.5519C11.2751 17.6266 12.8153 19.3875 15.6454 21.0215C18.1146 22.4471 21.5659 23.776 25.8512 23.776C26.2975 23.7771 26.7523 23.7629 27.2035 23.7342Z" fill="#E00040"/>
</g>
<path d="M29.4576 43.8266C29.2935 44.9445 28.3166 45.7199 27.1868 45.7199C26.6842 45.7199 26.1889 45.5721 25.8073 45.2451C23.1469 42.9651 20.3398 38.0075 20.3398 34.2463C20.3398 31.6288 21.5619 29.6685 23.5501 29.309C23.5645 29.3065 23.5788 29.304 23.5932 29.3014C24.1692 29.2041 24.8094 29.2404 25.5012 29.4324C26.7595 29.7825 27.7905 30.6765 28.363 31.8503C30.2732 35.7679 29.8657 41.0471 29.4576 43.8266Z" fill="#F9C84E"/>
<path d="M29.6772 24.6282C26.8644 25.9212 24.7273 23.3342 25.6838 19.734C26.6394 16.1347 28.9457 16.1347 27.9892 13.8285C27.4463 12.5186 28.029 11.8614 28.7985 12.0246H28.8002C29.3846 12.149 30.0764 12.7443 30.4646 13.8852C31.3644 16.528 32.7142 21.5904 29.6772 24.6282Z" fill="#F9C84E"/>
<path d="M55.6601 34.2462C55.6601 38.0778 53.7259 42.4961 50.2013 45.2645C49.8092 45.5725 49.3182 45.7198 48.8197 45.7198C47.686 45.7198 46.7059 44.9419 46.5415 43.8202C46.1337 41.039 45.7282 35.7648 47.637 31.8503C48.2095 30.6764 49.2404 29.7826 50.4989 29.4324C51.1069 29.2632 51.6752 29.2151 52.1953 29.2725C52.2664 29.2793 52.3374 29.2894 52.4068 29.3013C52.4212 29.3038 52.4355 29.3064 52.4499 29.309C54.4381 29.6684 55.6601 31.6287 55.6601 34.2462Z" fill="#F9C84E"/>
<path d="M49.2056 24.5114C48.453 25.0434 47.4415 25.1424 46.3226 24.6282C43.2856 21.5904 44.6355 16.528 45.5352 13.8852C45.9801 12.5777 46.8241 11.9857 47.4482 12.0009C47.6909 12.0059 47.9006 12.1032 48.0402 12.2859L48.0419 12.2876C48.2676 12.5853 48.3091 13.1079 48.0106 13.8285C47.0541 16.1347 49.3603 16.1347 50.3159 19.734C50.892 21.9024 50.3457 23.7038 49.2056 24.5114Z" fill="#F9C84E"/>
<path d="M38.0003 45.3844C39.3059 45.3844 40.3643 44.326 40.3643 43.0204C40.3643 41.7148 39.3059 40.6564 38.0003 40.6564C36.6946 40.6564 35.6362 41.7148 35.6362 43.0204C35.6362 44.326 36.6946 45.3844 38.0003 45.3844Z" fill="#F9C84E"/>
<path d="M49.7282 32.4935C49.7282 25.2557 44.4774 16.8096 38.0001 16.8096C31.5228 16.8096 26.272 25.2556 26.272 32.4935C26.272 39.7315 31.5228 43.0203 38.0001 43.0203C44.4774 43.0203 49.7282 39.7314 49.7282 32.4935Z" fill="#F7BA1E"/>
<defs>
<clipPath id="clip0">
<rect width="38" height="38" fill="white"/>
</clipPath>
</defs>
</svg>
