<svg width="84" height="39" viewBox="0 0 84 39" fill="none" xmlns="http://www.w3.org/2000/svg">
<g clip-path="url(#clip0)">
<path d="M70.1928 18.8995C69.2019 12.5369 66.5409 8.58032 63.9758 6.16739C60.727 3.11134 55.6576 3.11097 52.4085 6.16664C49.843 8.57928 47.1816 12.5356 46.1898 18.898C46.1898 18.898 44.3227 27.8185 52.3007 32.483C55.9425 34.6123 60.4382 34.6126 64.0803 32.4838C72.0588 27.8202 70.1928 18.8995 70.1928 18.8995Z" fill="#D99D08"/>
<path d="M83.8104 18.9443C82.8195 12.5817 80.1585 8.62512 77.5934 6.21219C74.3446 3.15614 69.2752 3.15577 66.0261 6.21144C63.4607 8.62401 60.7993 12.5804 59.8075 18.9428C59.8075 18.9428 57.9403 27.8633 65.9184 32.5278C69.5602 34.6571 74.0559 34.6574 77.698 32.5286C85.6764 27.8649 83.8104 18.9443 83.8104 18.9443Z" fill="#FAD77F"/>
<path d="M71.8104 29.724C75.2343 29.724 78.0099 26.9484 78.0099 23.5245C78.0099 20.1006 75.2343 17.325 71.8104 17.325C68.3865 17.325 65.6108 20.1006 65.6108 23.5245C65.6108 26.9484 68.3865 29.724 71.8104 29.724Z" fill="#F7BA1E"/>
</g>
<path d="M30.5096 13.2371V16.9721L33.7476 17.3979L33.7463 9.67356C33.6934 7.52027 26.1609 5.1012 16.8745 5.1012C7.58739 5.1012 0.0549172 7.52094 0.00271196 9.67356L0 22.051C0 24.2144 7.2789 26.8721 16.5986 26.8721C16.7165 26.8721 16.8325 26.8708 16.9498 26.8701V14.5931L13.7605 9.69661L30.5096 13.2371Z" fill="#F9C84E"/>
<path d="M16.95 21.3729V14.593L13.7607 9.69653L30.5098 13.237V16.972L21.018 15.949V22.7289C21.018 22.7289 16.9358 21.3559 16.95 21.3729Z" fill="#FAD77F"/>
<path d="M16.8745 5.1012C7.55485 5.1012 0 7.53315 0 9.69661C0 11.8601 7.2789 14.5931 16.5979 14.5931C16.7152 14.5931 16.8311 14.5917 16.9477 14.591L13.7605 9.69661L30.7408 13.2371C32.6351 12.6038 33.7483 10.5258 33.7483 9.69661C33.749 7.53315 26.1942 5.1012 16.8745 5.1012Z" fill="#F7BA1E"/>
<path d="M24.4075 19.6421V32.8988C30.0098 32.8724 35.0154 32.212 37.9999 31.214V17.9566L21.0176 15.7253L24.4075 19.6421Z" fill="#FAD77F"/>
<path d="M21.0503 15.7253L24.4382 19.6401C30.0167 19.6062 34.9952 18.9444 37.9594 17.9471L21.0503 15.7253Z" fill="#EEAF4B"/>
<path d="M24.4075 19.6421V32.8988L21.0176 28.8309V15.7253L24.4075 19.6421Z" fill="#F9C84E"/>
<g clip-path="url(#clip1)">
<path d="M49.8955 1H38.2109C37.357 1 36.6582 1.52495 36.6582 2.1665V4.51864C36.6582 5.16018 37.357 5.68513 38.2109 5.68513H49.8956C50.7495 5.68513 51.4483 5.16018 51.4483 4.51864V2.1665C51.4481 1.52495 50.7495 1 49.8955 1Z" fill="#4779F1"/>
<path d="M36.7619 4.16449C36.7619 4.16449 35.8275 4.13524 35.2884 4.82362L29.0615 12.6393L41.0383 15.5285L50.4411 14.1145L51.4486 4.16486L36.7619 4.16449Z" fill="#96C8EF"/>
<path d="M29.731 12.3125H48.5279C48.9971 12.3125 49.3809 12.6964 49.3809 13.1656V38.1468C49.3809 38.616 48.9971 38.9998 48.5279 38.9998H29.731C29.2618 38.9998 28.8779 38.616 28.8779 38.1468V13.1656C28.8779 12.6964 29.2618 12.3125 29.731 12.3125Z" fill="#D1E7F8"/>
<path d="M57.122 28.4996H28.8779V30.3639H57.122V28.4996Z" fill="#759CF5"/>
<path d="M56.9343 12.332L52.0327 4.53225C51.8861 4.29913 51.6731 4.16502 51.4489 4.16479C51.4487 4.16479 51.4486 4.16479 51.4484 4.16479C51.2243 4.16479 51.0113 4.29846 50.8648 4.53129L45.9631 12.3128C45.8417 12.5055 45.7749 12.7518 45.7749 13.0067V37.9397C45.7749 38.5253 46.1205 39.0001 46.5468 39.0001H56.35C56.7763 39.0001 57.1218 38.5253 57.1218 37.9397V13.025C57.1219 12.7705 57.0553 12.5245 56.9343 12.332Z" fill="#759CF5"/>
<path d="M51.4484 4.16479C51.2243 4.16479 51.0113 4.29846 50.8648 4.53129L45.9631 12.3128C45.8417 12.5055 45.7749 12.7518 45.7749 13.0067V37.9397C45.7749 38.5253 46.1205 39.0001 46.5468 39.0001H51.4484V4.16479Z" fill="#4779F1"/>
<path d="M45.9631 12.3125C45.8417 12.5052 45.7749 12.7516 45.7749 13.0064V37.9394C45.7749 38.525 46.1205 38.9998 46.5468 38.9998H56.35C56.7763 38.9998 57.1218 38.525 57.1218 37.9394V13.0247C57.1218 12.7703 57.0553 12.5242 56.9342 12.3317L45.9631 12.3125Z" fill="#96C8EF"/>
<path d="M57.1226 28.4996H45.7754V30.3639H57.1226V28.4996Z" fill="#5AAAE7"/>
<path d="M57.122 19.3448H28.8779V28.4997H57.122V19.3448Z" fill="#4779F1"/>
<path d="M57.1226 19.3448H45.7754V28.4997H57.1226V19.3448Z" fill="#0F45C2"/>
<path d="M34.34 26.4992C34.0187 26.4992 33.7583 26.2389 33.7583 25.9176V23.713L33.3357 24.4294C33.2321 24.6051 33.0441 24.7136 32.8403 24.7155C32.8384 24.7155 32.8366 24.7155 32.8348 24.7155C32.6329 24.7155 32.4454 24.6108 32.3394 24.4388L31.8454 23.6365V25.9176C31.8454 26.2389 31.5851 26.4992 31.2638 26.4992C30.9425 26.4992 30.6821 26.2389 30.6821 25.9176V21.5824C30.6821 21.3222 30.855 21.0936 31.1053 21.0228C31.3554 20.9517 31.6227 21.0559 31.759 21.2774L32.824 23.0072L33.8389 21.2868C33.9722 21.0609 34.2401 20.9519 34.4931 21.0211C34.7462 21.0902 34.9216 21.32 34.9216 21.5822V25.9174C34.9217 26.2388 34.6613 26.4992 34.34 26.4992Z" fill="white"/>
<path d="M36.1466 26.4992C35.8253 26.4992 35.5649 26.2389 35.5649 25.9176V21.5824C35.5649 21.2611 35.8253 21.0007 36.1466 21.0007C36.4679 21.0007 36.7282 21.2611 36.7282 21.5824V25.9176C36.7282 26.2388 36.4678 26.4992 36.1466 26.4992Z" fill="white"/>
<path d="M39.7428 26.4992H37.9073C37.586 26.4992 37.3257 26.2389 37.3257 25.9176V21.5824C37.3257 21.2611 37.586 21.0007 37.9073 21.0007C38.2286 21.0007 38.489 21.2611 38.489 21.5824V25.3359H39.7428C40.0641 25.3359 40.3244 25.5963 40.3244 25.9176C40.3244 26.2389 40.0641 26.4992 39.7428 26.4992Z" fill="white"/>
<path d="M44.2935 25.6074L42.9072 23.4091L44.0313 21.9351C44.2262 21.6797 44.177 21.3147 43.9215 21.1199C43.666 20.9251 43.301 20.9743 43.1063 21.2298L41.8498 22.8774V21.5824C41.8498 21.2611 41.5895 21.0008 41.2682 21.0008C40.9469 21.0008 40.6865 21.2611 40.6865 21.5824V25.9176C40.6865 26.2389 40.9469 26.4993 41.2682 26.4993C41.5895 26.4993 41.8498 26.2389 41.8498 25.9176V24.7957L42.1545 24.3962L43.3095 26.2278C43.4201 26.4033 43.8338 26.6026 44.1116 26.4096C44.3755 26.2263 44.4648 25.8791 44.2935 25.6074Z" fill="white"/>
</g>
<defs>
<clipPath id="clip0">
<rect width="38" height="38" fill="white" transform="translate(46)"/>
</clipPath>
<clipPath id="clip1">
<rect width="38" height="38" fill="white" transform="translate(24 1)"/>
</clipPath>
</defs>
</svg>
