<svg width="77" height="55" viewBox="0 0 77 55" fill="none" xmlns="http://www.w3.org/2000/svg">
<g clip-path="url(#clip0)" filter="url(#filter0_d)">
<path d="M40.4444 46.0245C40.4444 46.0245 34.2113 44.841 35.2371 35.9254C35.2371 35.9254 35.1581 33.9529 42.1013 26.063C42.1013 26.063 48.7288 14.3858 53.4628 11.7821C53.4628 11.7821 58.1968 8.38943 63.1674 9.33624C70.3472 10.6775 72.3986 18.5675 72.3986 18.5675C72.3986 18.5675 75.3179 26.6941 68.2958 35.373C61.3527 44.052 52.7526 46.0244 52.7526 46.0244C52.7526 46.0244 46.2041 47.8391 40.4444 46.0245Z" fill="#F7BA1E"/>
<path d="M53.3049 18.2517C52.5159 18.2517 51.7269 17.6994 51.4902 16.9104C51.4113 16.6737 51.5691 16.516 51.7269 16.4371C51.9637 16.3582 52.1214 16.516 52.2003 16.6738C52.3581 17.1472 52.7526 17.4628 53.226 17.4628C53.6994 17.4628 54.0939 17.1472 54.2517 16.6738C54.3307 16.4371 54.5674 16.3582 54.7251 16.4371C54.9618 16.516 55.0407 16.7527 54.9618 16.9104C54.804 17.6994 54.0939 18.2517 53.3049 18.2517Z" fill="#D99D08"/>
<path d="M66.6389 17.9363C65.8499 17.9363 65.0609 17.384 64.8242 16.595C64.7453 16.3583 64.9031 16.2005 65.0609 16.1216C65.2977 16.0427 65.4554 16.2005 65.5343 16.3584C65.6921 16.8317 66.0866 17.1473 66.56 17.1473C67.0335 17.1473 67.4279 16.8317 67.5857 16.3584C67.6646 16.1216 67.9014 16.0427 68.0591 16.1216C68.2958 16.2005 68.3747 16.4373 68.2958 16.595C68.138 17.384 67.4279 17.9363 66.6389 17.9363Z" fill="#D99D08"/>
<path d="M64.114 28.7456C63.325 28.7456 62.536 28.1933 62.2993 27.4043C62.2204 27.1676 62.3782 27.0099 62.536 26.931C62.7728 26.8521 62.9306 27.0099 63.0094 27.1677C63.1672 27.641 63.5617 27.9567 64.0351 27.9567C64.5086 27.9567 64.903 27.641 65.0608 27.1677C65.1398 26.931 65.3765 26.8521 65.5342 26.931C65.7709 27.0099 65.8499 27.2466 65.7709 27.4043C65.692 28.1933 64.903 28.7456 64.114 28.7456Z" fill="#D99D08"/>
<path d="M58.4334 25.2742C57.6444 25.2742 56.8554 24.7219 56.6186 23.9329C56.5397 23.6962 56.6976 23.5384 56.8554 23.4595C57.0921 23.3806 57.2498 23.5384 57.3287 23.6962C57.4865 24.1696 57.881 24.4852 58.3544 24.4852C58.8278 24.4852 59.2223 24.1696 59.3802 23.6962C59.4591 23.4595 59.6958 23.3806 59.8535 23.4595C60.0903 23.5384 60.1692 23.7752 60.0903 23.9329C60.0113 24.7219 59.3013 25.2742 58.4334 25.2742Z" fill="#D99D08"/>
<path d="M47.782 31.5857C46.993 31.5857 46.204 31.0334 45.9673 30.2444C45.8884 30.0077 46.0462 29.85 46.204 29.771C46.4407 29.6921 46.5985 29.8499 46.6774 30.0078C46.8352 30.4811 47.2296 30.7967 47.7031 30.7967C48.1764 30.7967 48.571 30.4811 48.7288 30.0078C48.8077 29.771 49.0444 29.6921 49.2022 29.771C49.4389 29.85 49.5178 30.0867 49.4389 30.2444C49.2811 31.0334 48.571 31.5857 47.782 31.5857Z" fill="#D99D08"/>
<path d="M72.3194 18.4884C72.3194 18.4884 72.2405 18.2517 72.0827 17.7783C72.3194 20.9343 71.6883 26.0627 67.4277 31.349C60.4845 40.0279 51.8845 42.0004 51.8845 42.0004C51.8845 42.0004 45.3358 43.8151 39.5762 42.0004C39.5762 42.0004 36.4991 41.4481 35 37.9765C35.1578 44.9196 40.3652 45.9454 40.3652 45.9454C46.1248 47.7601 52.6735 45.9454 52.6735 45.9454C52.6735 45.9454 61.2735 43.9729 68.2166 35.294C75.2387 26.6151 72.3194 18.4884 72.3194 18.4884Z" fill="#D99D08"/>
</g>
<g clip-path="url(#clip1)" filter="url(#filter1_d)">
<path d="M8.88916 4.71069H13.3087V23.5344H8.88916V4.71069Z" fill="#D99D08"/>
<path d="M18.1846 -0.0742188V2.21236C18.1846 4.85495 16.0426 6.99657 13.4003 6.99657H11.1138V4.70999C11.1138 2.06769 13.2557 -0.0742188 15.8983 -0.0742188H18.1846Z" fill="#D99D08"/>
<path d="M18.1842 -0.0742188V2.21236C18.1842 4.85495 16.0423 6.99657 13.4 6.99657H13.3081V4.70999C13.3081 2.06769 15.45 -0.0742188 18.0923 -0.0742188H18.1842Z" fill="#F7BA1E"/>
<path d="M11.1138 4.71048V6.99706H8.82718C6.18488 6.99706 4.04297 4.85515 4.04297 2.21256V-0.0737305H6.32954C8.97185 -0.0737305 11.1138 2.06789 11.1138 4.71048Z" fill="#D99D08"/>
<path d="M11.1138 4.71048V6.99706H10.9407C8.29815 6.99706 6.15625 4.85515 6.15625 2.21256V-0.0737305H6.32962C8.97192 -0.0737305 11.1138 2.06789 11.1138 4.71048Z" fill="#F7BA1E"/>
<path d="M11.1136 37.9258C10.777 37.9258 10.5039 37.6529 10.5039 37.3161V25.7716C10.5039 25.435 10.777 25.1619 11.1136 25.1619C11.4502 25.1619 11.7233 25.435 11.7233 25.7716V37.3161C11.7233 37.6529 11.4505 37.9258 11.1136 37.9258Z" fill="#A77A06"/>
<path d="M18.1846 6.18408V8.47066C18.1846 11.1133 16.0426 13.2549 13.4003 13.2549H11.1138V10.9686C11.1138 8.32599 13.2557 6.18408 15.8983 6.18408H18.1846Z" fill="#D99D08"/>
<path d="M18.1842 6.18408V8.47066C18.1842 11.1133 16.0423 13.2549 13.4 13.2549H13.3081V10.9686C13.3081 8.32599 15.45 6.18408 18.0926 6.18408H18.1842Z" fill="#F7BA1E"/>
<path d="M11.1138 10.9688V13.2554H8.82718C6.18488 13.2554 4.04297 11.1134 4.04297 8.47086V6.18457H6.32954C8.97185 6.18457 11.1138 8.32648 11.1138 10.9688Z" fill="#D99D08"/>
<path d="M11.1138 10.9688V13.2554H10.9407C8.29815 13.2554 6.15625 11.1134 6.15625 8.47086V6.18457H6.32962C8.97192 6.18457 11.1138 8.32648 11.1138 10.9688Z" fill="#F7BA1E"/>
<path d="M18.1846 12.4421V14.7287C18.1846 17.3713 16.0426 19.5129 13.4003 19.5129H11.1138V17.2266C11.1138 14.584 13.2557 12.4421 15.8983 12.4421H18.1846Z" fill="#D99D08"/>
<path d="M18.1842 12.4421V14.7287C18.1842 17.3713 16.0423 19.5129 13.4 19.5129H13.3081V17.2266C13.3081 14.584 15.45 12.4421 18.0926 12.4421H18.1842Z" fill="#F7BA1E"/>
<path d="M11.1138 17.2268V19.5134H8.82718C6.18488 19.5134 4.04297 17.3715 4.04297 14.7292V12.4426H6.32954C8.97185 12.4426 11.1138 14.5845 11.1138 17.2268Z" fill="#D99D08"/>
<path d="M11.1138 17.2268V19.5134H10.9407C8.29815 19.5134 6.15625 17.3715 6.15625 14.7292V12.4426H6.32962C8.97192 12.4426 11.1138 14.5845 11.1138 17.2268Z" fill="#F7BA1E"/>
<path d="M11.1138 23.4849V25.7715H8.82718C6.18488 25.7715 4.04297 23.6296 4.04297 20.9873V18.7007H6.32954C8.97185 18.7007 11.1138 20.8426 11.1138 23.4849Z" fill="#D99D08"/>
<path d="M11.1138 23.4849V25.7715H10.9407C8.29815 25.7715 6.15625 23.6296 6.15625 20.9873V18.7007H6.32962C8.97192 18.7007 11.1138 20.8426 11.1138 23.4849Z" fill="#F7BA1E"/>
<path d="M18.1846 18.7007V20.9873C18.1846 23.6299 16.0426 25.7715 13.4003 25.7715H11.1138V23.4849C11.1138 20.8426 13.2557 18.7007 15.8983 18.7007H18.1846Z" fill="#D99D08"/>
<path d="M18.1842 18.7007V20.9873C18.1842 23.6299 16.0423 25.7715 13.4 25.7715H13.3081V23.4849C13.3081 20.8426 15.45 18.7007 18.0926 18.7007H18.1842Z" fill="#F7BA1E"/>
<path d="M26.7192 10.969H31.1387V23.5346H26.7192V10.969Z" fill="#D99D08"/>
<path d="M28.9442 37.926C28.6076 37.926 28.3345 37.6532 28.3345 37.3163V25.7718C28.3345 25.4352 28.6076 25.1621 28.9442 25.1621C29.2808 25.1621 29.5539 25.4352 29.5539 25.7718V37.3163C29.5536 37.6532 29.2808 37.926 28.9442 37.926Z" fill="#A77A06"/>
<path d="M36.0151 6.18408V8.47066C36.0151 11.1133 33.8732 13.2549 31.2306 13.2549H28.9443V10.9686C28.9443 8.32599 31.086 6.18408 33.7285 6.18408H36.0151Z" fill="#D99D08"/>
<path d="M36.0148 6.18408V8.47066C36.0148 11.1133 33.8729 13.2549 31.2303 13.2549H31.1387V10.9686C31.1387 8.32599 33.2803 6.18408 35.9229 6.18408H36.0148Z" fill="#F7BA1E"/>
<path d="M28.9443 10.9688V13.2554H26.6577C24.0152 13.2554 21.8735 11.1134 21.8735 8.47086V6.18457H24.1598C26.8024 6.18457 28.9443 8.32648 28.9443 10.9688Z" fill="#D99D08"/>
<path d="M28.9444 10.9688V13.2554H28.771C26.1284 13.2554 23.9868 11.1134 23.9868 8.47086V6.18457H24.1599C26.8025 6.18457 28.9444 8.32648 28.9444 10.9688Z" fill="#F7BA1E"/>
<path d="M36.0151 12.4421V14.7287C36.0151 17.3713 33.8732 19.5129 31.2306 19.5129H28.9443V17.2266C28.9443 14.584 31.086 12.4421 33.7285 12.4421H36.0151Z" fill="#D99D08"/>
<path d="M36.0148 12.4421V14.7287C36.0148 17.3713 33.8729 19.5129 31.2303 19.5129H31.1387V17.2266C31.1387 14.584 33.2803 12.4421 35.9229 12.4421H36.0148Z" fill="#F7BA1E"/>
<path d="M28.9443 17.2268V19.5134H26.6577C24.0152 19.5134 21.8735 17.3715 21.8735 14.7292V12.4426H24.1598C26.8024 12.4426 28.9443 14.5845 28.9443 17.2268Z" fill="#D99D08"/>
<path d="M28.9444 17.2268V19.5134H28.771C26.1284 19.5134 23.9868 17.3715 23.9868 14.7292V12.4426H24.1599C26.8025 12.4426 28.9444 14.5845 28.9444 17.2268Z" fill="#F7BA1E"/>
<path d="M28.9443 23.4849V25.7715H26.6577C24.0152 25.7715 21.8735 23.6296 21.8735 20.9873V18.7007H24.1598C26.8024 18.7007 28.9443 20.8426 28.9443 23.4849Z" fill="#D99D08"/>
<path d="M28.9444 23.4849V25.7715H28.771C26.1284 25.7715 23.9868 23.6296 23.9868 20.9873V18.7007H24.1599C26.8025 18.7007 28.9444 20.8426 28.9444 23.4849Z" fill="#F7BA1E"/>
<path d="M36.0151 18.7007V20.9873C36.0151 23.6299 33.8732 25.7715 31.2306 25.7715H28.9443V23.4849C28.9443 20.8426 31.086 18.7007 33.7285 18.7007H36.0151Z" fill="#D99D08"/>
<path d="M36.0148 18.7007V20.9873C36.0148 23.6299 33.8729 25.7715 31.2303 25.7715H31.1387V23.4849C31.1387 20.8426 33.2803 18.7007 35.9229 18.7007H36.0148Z" fill="#F7BA1E"/>
</g>
<defs>
<filter id="filter0_d" x="31" y="9" width="46" height="46" filterUnits="userSpaceOnUse" color-interpolation-filters="sRGB">
<feFlood flood-opacity="0" result="BackgroundImageFix"/>
<feColorMatrix in="SourceAlpha" type="matrix" values="0 0 0 0 0 0 0 0 0 0 0 0 0 0 0 0 0 0 127 0"/>
<feOffset dy="4"/>
<feGaussianBlur stdDeviation="2"/>
<feColorMatrix type="matrix" values="0 0 0 0 0 0 0 0 0 0 0 0 0 0 0 0 0 0 0.25 0"/>
<feBlend mode="normal" in2="BackgroundImageFix" result="effect1_dropShadow"/>
<feBlend mode="normal" in="SourceGraphic" in2="effect1_dropShadow" result="shape"/>
</filter>
<filter id="filter1_d" x="-3" y="0" width="46" height="46" filterUnits="userSpaceOnUse" color-interpolation-filters="sRGB">
<feFlood flood-opacity="0" result="BackgroundImageFix"/>
<feColorMatrix in="SourceAlpha" type="matrix" values="0 0 0 0 0 0 0 0 0 0 0 0 0 0 0 0 0 0 127 0"/>
<feOffset dy="4"/>
<feGaussianBlur stdDeviation="2"/>
<feColorMatrix type="matrix" values="0 0 0 0 0 0 0 0 0 0 0 0 0 0 0 0 0 0 0.25 0"/>
<feBlend mode="normal" in2="BackgroundImageFix" result="effect1_dropShadow"/>
<feBlend mode="normal" in="SourceGraphic" in2="effect1_dropShadow" result="shape"/>
</filter>
<clipPath id="clip0">
<rect width="38" height="38" fill="white" transform="translate(35 9)"/>
</clipPath>
<clipPath id="clip1">
<rect width="38" height="38" fill="white" transform="translate(1)"/>
</clipPath>
</defs>
</svg>
