<svg width="38" height="38" viewBox="0 0 38 38" fill="none" xmlns="http://www.w3.org/2000/svg">
<g clip-path="url(#clip0)">
<path d="M34.2467 9.13742C33.9786 9.02216 33.7968 8.77041 33.7721 8.48051C33.569 6.09319 31.6268 4.16848 29.1865 4.04884C28.8031 4.03014 28.4693 3.76889 28.3358 3.38332C27.0598 -0.302384 22.0364 -0.615291 20.2219 2.70362L20.1782 2.78341L20.2645 2.81235C22.0082 3.3966 23.4116 5.0165 23.5637 7.08958C26.769 8.05494 29.3771 9.92763 31.2834 12.4081L31.3775 12.5306L31.4174 12.3814C31.691 11.3564 32.4546 9.60767 34.4941 9.41122L34.7542 9.38279C34.443 9.22871 34.356 9.1844 34.2467 9.13742Z" fill="#2E9E93"/>
<path d="M4.75342 23.0395L4.75839 23.0402L4.77925 22.8894L4.75342 23.0395Z" fill="#30AA44"/>
<path d="M4.38672 22.9974L4.38946 22.9975C4.39295 22.9062 4.39243 22.9388 4.39213 22.8452L4.38672 22.9974Z" fill="#30AA44"/>
<path d="M19.0238 2.42042C17.5983 2.34323 16.2069 2.87857 15.2058 3.89076C14.8817 4.21829 14.414 4.32138 14.0142 4.15357C11.4917 3.0938 8.60404 4.10273 7.24851 6.40856C7.08159 6.69245 6.77165 6.86003 6.44294 6.84704C1.3286 6.63849 -1.81212 12.4175 1.14001 16.5903C1.5065 17.1082 1.57716 17.7798 1.32444 18.3429C0.57335 20.0175 0.932346 22.1075 2.55477 23.4447C3.11445 23.1462 3.54462 23.0324 4.07915 22.9951C3.33392 13.8844 10.4918 6.46007 19.223 6.46007C20.8472 6.46007 22.2869 6.70469 23.7198 7.13627C23.5158 4.36895 21.3839 2.54911 19.0238 2.42042Z" fill="#22776E"/>
<path d="M31.4042 12.315C30 10.488 28.1734 8.97583 26.1221 7.94203C23.9707 6.85784 21.6496 6.30811 19.2233 6.30811C10.4432 6.30811 3.17196 13.7688 3.92758 23.0061L4.00262 23.0008C6.07592 22.8557 7.52972 24.8724 7.54412 24.8928L7.56482 24.922L7.60045 24.9248C9.34065 25.0576 10.7185 26.0474 11.6956 27.8666C12.4282 29.2303 12.6466 30.5738 12.6487 30.5871L12.6582 30.6473L12.7191 30.6513C15.7138 30.8435 17.9263 33.8664 19.1811 36.609C20.2912 32.7101 22.8196 29.4279 26.8043 28.7638L26.8772 28.7516L26.8673 28.6784C26.8589 28.6166 26.0667 22.4761 29.5676 20.2651L29.6191 20.2325L29.5985 20.1751C29.5808 20.1256 27.8663 15.2078 31.2658 13.0027L31.2958 12.9833L31.3 12.9478C31.3003 12.9455 31.3277 12.7167 31.4174 12.3811L31.427 12.3449L31.4042 12.315Z" fill="#61D1C6"/>
<path d="M17.7464 33.7966C16.4121 31.9564 14.8709 30.8484 13.26 30.5631C12.9807 30.5136 12.7539 30.3101 12.685 30.0349C12.0667 27.5665 10.5799 25.2468 8.04742 24.8252C7.79522 24.7832 7.56396 24.6578 7.39415 24.4667C5.90376 22.7896 3.90349 22.2411 1.96363 23.6397C-1.26682 25.9689 1.50978 28.8935 4.49167 28.2936C5.36226 28.118 5.86078 29.1286 6.55124 30.5266C7.31258 32.0682 8.26013 33.9868 10.1635 35.3918C11.8142 36.6104 13.8763 37.2137 16.4183 37.2137C17.4699 37.2137 18.4615 37.1144 19.4877 36.9593C19.1492 36.0729 18.4911 34.8236 17.7464 33.7966Z" fill="#2E9E93"/>
<path d="M26.8409 14.2921C26.6933 14.0134 26.3476 13.9073 26.069 14.0548C22.7656 15.8049 21.1578 18.4185 20.3907 20.3028C20.1893 20.7977 20.0341 21.2676 19.914 21.6973C19.3881 20.2664 18.7192 18.8923 17.9123 17.5871C18.0337 16.9979 18.801 13.767 21.3929 11.5999C21.6348 11.3976 21.667 11.0375 21.4647 10.7955C21.2623 10.5536 20.9022 10.5215 20.6603 10.7238C18.5174 12.5155 17.5054 14.9044 17.0662 16.3138C14.7212 13.0265 12.2891 11.4239 12.1777 11.3516C11.9133 11.1799 11.5595 11.255 11.3878 11.5195C11.216 11.784 11.2913 12.1377 11.5557 12.3095C11.5733 12.3209 12.6973 13.0616 14.1266 14.5521C11.9192 14.303 10.2055 14.867 10.1171 14.8969C9.81826 14.9979 9.65787 15.3219 9.75881 15.6206C9.83926 15.8589 10.0615 16.0091 10.2997 16.0091C10.3604 16.0091 10.422 15.9994 10.4825 15.9789C10.5057 15.9711 12.7956 15.2176 15.3624 15.9572C15.8237 16.5295 16.2928 17.1696 16.7478 17.879C17.1656 18.5302 17.5865 19.266 17.9837 20.0854C14.1256 18.2878 8.99777 20.2791 8.75062 20.3771C8.45746 20.4935 8.31422 20.8254 8.43059 21.1185C8.54697 21.4117 8.87887 21.5549 9.17204 21.4386C9.23475 21.4137 15.454 18.9951 18.7851 21.9602C19.3026 23.3482 19.726 24.919 19.9686 26.6708C18.8142 26.0539 16.6277 25.1411 14.1056 25.3679C13.7915 25.3961 13.5597 25.6737 13.588 25.9878C13.6163 26.3019 13.8938 26.534 14.2078 26.5054C17.1854 26.2381 19.7265 27.8266 20.1208 28.0872C20.2846 30.2224 20.1762 32.5988 19.6602 35.2145C19.5992 35.5239 19.8006 35.8242 20.11 35.8853C20.4194 35.9463 20.7197 35.7449 20.7808 35.4355C21.5167 31.705 21.5253 28.1185 20.8066 24.7758C20.7576 24.5477 20.7039 24.321 20.6481 24.0951C20.6488 24.0855 20.65 24.0761 20.6502 24.0664C20.6517 24.0072 20.8641 18.1048 26.6039 15.0639C26.8823 14.9164 26.9885 14.5708 26.8409 14.2921Z" fill="#88DDD4"/>
<path d="M36.6594 21.117C36.5553 18.5222 36.005 15.7678 35.5228 14.2759L35.4661 14.2771C32.8821 14.3335 32.5672 18.8087 32.555 19.0005C32.3733 22.8621 27.1275 28.4211 26.7854 28.7666C22.6111 29.4828 19.8716 33.1039 18.9697 36.8393C19.5428 37.1362 20.9381 37.5963 22.7066 37.5963C22.85 37.5963 22.997 37.5933 23.1468 37.5871C25.4498 37.4911 29.008 36.5742 32.8806 32.7508C35.9398 29.7306 36.8303 25.3783 36.6594 21.117Z" fill="#39C6B8"/>
<path d="M37.9916 11.2776C37.8958 10.1956 36.9794 9.46738 35.4772 9.27961C33.1696 8.99127 31.699 10.3967 31.217 12.5489C31.1686 12.7648 31.0485 12.9588 30.8728 13.0935C29.6251 14.0499 28.9759 15.5368 28.9904 17.4193C28.9985 18.4701 29.2129 19.3975 29.3475 19.8782C29.396 20.0514 29.331 20.2343 29.1868 20.3419C27.8729 21.3224 27.0294 23.0217 26.7394 25.2839C26.5051 27.1118 26.7855 28.7669 26.7855 28.7669C30.4117 27.4354 32.8193 25.5672 33.961 23.1139C34.9306 21.0301 34.8445 18.9539 34.7754 17.2856C34.7126 15.7739 34.6674 14.6817 35.4905 14.4263C37.0076 13.9555 38.1062 12.5725 37.9916 11.2776Z" fill="#22776E"/>
</g>
<defs>
<clipPath id="clip0">
<rect width="38" height="38" fill="white"/>
</clipPath>
</defs>
</svg>
