<svg width="142" height="172" viewBox="0 0 142 172" fill="none" xmlns="http://www.w3.org/2000/svg">
<g filter="url(#filter0_d)">
<rect x="6" y="2" width="130" height="160" rx="20" fill="#FF477C"/>
<rect x="6" y="2" width="130" height="160" rx="20" fill="url(#paint0_linear)"/>
</g>
<path d="M25 71C48.196 71 67 52.196 67 29C67 18.7189 63.3059 9.3006 57.1727 2H16C10.4772 2 6 6.47714 6 12V66.4667C11.7055 69.3658 18.1619 71 25 71Z" fill="#FF7AA0"/>
<path d="M25 71C48.196 71 67 52.196 67 29C67 18.7189 63.3059 9.3006 57.1727 2H16C10.4772 2 6 6.47714 6 12V66.4667C11.7055 69.3658 18.1619 71 25 71Z" fill="url(#paint1_linear)"/>
<defs>
<filter id="filter0_d" x="0" y="0" width="142" height="172" filterUnits="userSpaceOnUse" color-interpolation-filters="sRGB">
<feFlood flood-opacity="0" result="BackgroundImageFix"/>
<feColorMatrix in="SourceAlpha" type="matrix" values="0 0 0 0 0 0 0 0 0 0 0 0 0 0 0 0 0 0 127 0"/>
<feOffset dy="4"/>
<feGaussianBlur stdDeviation="3"/>
<feColorMatrix type="matrix" values="0 0 0 0 0.8 0 0 0 0 0.8 0 0 0 0 0.8 0 0 0 0.6 0"/>
<feBlend mode="normal" in2="BackgroundImageFix" result="effect1_dropShadow"/>
<feBlend mode="normal" in="SourceGraphic" in2="effect1_dropShadow" result="shape"/>
</filter>
<linearGradient id="paint0_linear" x1="6" y1="-2.5" x2="200.305" y2="177.379" gradientUnits="userSpaceOnUse">
<stop offset="0.349098" stop-color="#4779F1"/>
<stop offset="0.705696" stop-color="#759CF5"/>
<stop offset="1" stop-color="#4779F1"/>
</linearGradient>
<linearGradient id="paint1_linear" x1="-2.5" y1="-0.5" x2="94.5" y2="40.5" gradientUnits="userSpaceOnUse">
<stop stop-color="#A5BEF8"/>
<stop offset="0.712861" stop-color="#4779F1"/>
</linearGradient>
</defs>
</svg>
