<svg width="49" height="48" viewBox="0 0 49 48" fill="none" xmlns="http://www.w3.org/2000/svg">
<rect x="0.586914" width="48" height="48" rx="5" fill="url(#paint0_linear)"/>
<path d="M12.0043 31H14.7943V17.59H9.39434V19.948H12.0043V31ZM22.6799 31.216C23.7599 31.216 24.7019 30.928 25.5059 30.352C26.3219 29.764 26.9519 28.954 27.3959 27.922C27.8519 26.878 28.0799 25.666 28.0799 24.286C28.0799 22.906 27.8519 21.7 27.3959 20.668C26.9519 19.624 26.3219 18.814 25.5059 18.238C24.7019 17.662 23.7539 17.374 22.6619 17.374C21.5939 17.374 20.6519 17.662 19.8359 18.238C19.0319 18.814 18.4019 19.618 17.9459 20.65C17.5019 21.682 17.2799 22.894 17.2799 24.286C17.2799 25.666 17.5079 26.878 17.9639 27.922C18.4199 28.966 19.0499 29.776 19.8539 30.352C20.6699 30.928 21.6119 31.216 22.6799 31.216ZM22.6799 28.696C21.8519 28.696 21.2099 28.306 20.7539 27.526C20.2979 26.746 20.0699 25.666 20.0699 24.286C20.0699 22.894 20.2919 21.814 20.7359 21.046C21.1919 20.278 21.8339 19.894 22.6619 19.894C23.5139 19.894 24.1619 20.284 24.6059 21.064C25.0619 21.832 25.2899 22.906 25.2899 24.286C25.2899 25.666 25.0619 26.746 24.6059 27.526C24.1619 28.306 23.5199 28.696 22.6799 28.696ZM35.2834 31.216C36.3634 31.216 37.3054 30.928 38.1094 30.352C38.9254 29.764 39.5554 28.954 39.9994 27.922C40.4554 26.878 40.6834 25.666 40.6834 24.286C40.6834 22.906 40.4554 21.7 39.9994 20.668C39.5554 19.624 38.9254 18.814 38.1094 18.238C37.3054 17.662 36.3574 17.374 35.2654 17.374C34.1974 17.374 33.2554 17.662 32.4394 18.238C31.6354 18.814 31.0054 19.618 30.5494 20.65C30.1054 21.682 29.8834 22.894 29.8834 24.286C29.8834 25.666 30.1114 26.878 30.5674 27.922C31.0234 28.966 31.6534 29.776 32.4574 30.352C33.2734 30.928 34.2154 31.216 35.2834 31.216ZM35.2834 28.696C34.4554 28.696 33.8134 28.306 33.3574 27.526C32.9014 26.746 32.6734 25.666 32.6734 24.286C32.6734 22.894 32.8954 21.814 33.3394 21.046C33.7954 20.278 34.4374 19.894 35.2654 19.894C36.1174 19.894 36.7654 20.284 37.2094 21.064C37.6654 21.832 37.8934 22.906 37.8934 24.286C37.8934 25.666 37.6654 26.746 37.2094 27.526C36.7654 28.306 36.1234 28.696 35.2834 28.696Z" fill="white"/>
<defs>
<linearGradient id="paint0_linear" x1="24.5869" y1="0" x2="24.5869" y2="48" gradientUnits="userSpaceOnUse">
<stop stop-color="#39C6B8"/>
<stop offset="1" stop-color="#61D1C6"/>
</linearGradient>
</defs>
</svg>
