<svg width="49" height="48" viewBox="0 0 49 48" fill="none" xmlns="http://www.w3.org/2000/svg">
<circle cx="24.5869" cy="24" r="24" fill="url(#paint0_linear)"/>
<path d="M33.9202 14.6667H31.2536V13.3333C31.2536 12.6 30.6536 12 29.9202 12H19.2536C18.5202 12 17.9202 12.6 17.9202 13.3333V14.6667H15.2536C13.7869 14.6667 12.5869 15.8667 12.5869 17.3333V18.6667C12.5869 22.0667 15.1469 24.84 18.4402 25.2533C19.2802 27.2533 21.0802 28.76 23.2536 29.2V33.3333H19.2536C18.5202 33.3333 17.9202 33.9333 17.9202 34.6667C17.9202 35.4 18.5202 36 19.2536 36H29.9202C30.6536 36 31.2536 35.4 31.2536 34.6667C31.2536 33.9333 30.6536 33.3333 29.9202 33.3333H25.9202V29.2C28.0936 28.76 29.8936 27.2533 30.7336 25.2533C34.0269 24.84 36.5869 22.0667 36.5869 18.6667V17.3333C36.5869 15.8667 35.3869 14.6667 33.9202 14.6667ZM17.9202 22.4267C16.3736 21.8667 15.2536 20.4 15.2536 18.6667V17.3333H17.9202V22.4267ZM33.9202 18.6667C33.9202 20.4 32.8002 21.8667 31.2536 22.4267V17.3333H33.9202V18.6667Z" fill="white"/>
<defs>
<linearGradient id="paint0_linear" x1="8.58691" y1="6.66667" x2="41.2536" y2="38.6667" gradientUnits="userSpaceOnUse">
<stop stop-color="#F7BA1E"/>
<stop offset="1" stop-color="#FAD77F"/>
</linearGradient>
</defs>
</svg>
