<svg width="49" height="48" viewBox="0 0 49 48" fill="none" xmlns="http://www.w3.org/2000/svg">
<circle cx="24.5869" cy="24" r="24" fill="url(#paint0_linear)"/>
<path d="M27.8475 21.0583L25.231 12.4715C25.0431 11.8428 24.1441 11.8428 23.9429 12.4715L21.3264 21.0583H13.2622C12.6047 21.0583 12.3364 21.8876 12.8731 22.2755L19.4613 26.9702L16.9253 35.129C16.7375 35.7443 17.4486 36.2525 17.9719 35.8647L24.5869 30.8356L31.2019 35.8513C31.7252 36.2392 32.4364 35.7443 32.2485 35.1157L29.7125 26.9568L36.3007 22.2621C36.8374 21.8876 36.5691 21.045 35.9116 21.045H27.8475V21.0583Z" fill="white"/>
<defs>
<linearGradient id="paint0_linear" x1="11.2536" y1="6.66667" x2="42.5869" y2="35.3333" gradientUnits="userSpaceOnUse">
<stop stop-color="#FF1457"/>
<stop offset="1" stop-color="#FF7AA0"/>
</linearGradient>
</defs>
</svg>
