<svg width="48" height="42" viewBox="0 0 48 42" fill="none" xmlns="http://www.w3.org/2000/svg">
<g clip-path="url(#clip0)">
<path d="M24 41.9001C22.8 41.9001 21.7 41.5001 20.8 40.7001L19.1 39.2001C13.2 33.9001 8.60001 29.8001 5.40001 25.9001C1.60001 21.3001 -0.0999901 17.4001 9.86783e-06 13.2001C0.10001 7.00005 4.00001 3.60005 5.60001 2.50005L6.80001 1.70005L6.90001 1.80005C10.3 -0.0999486 13.8 -0.399949 17.4 0.900051C20.6 1.90005 23.1 4.00005 24 5.10005C24.9 4.00005 27.3 1.90005 30.5 0.800051C34.5 -0.599949 38.5 -0.0999486 42.1 2.30005C43.3 3.10005 47.5 6.30005 47.9 12.2001C48.2 16.8001 46.3 21.4001 41.9 26.7001C38.7 30.5001 34.5 34.2 30 38.1L29.9 38.2001C29 39.0001 28.1 39.8 27.2 40.6C26.3 41.5 25.2 41.9001 24 41.9001ZM7.30001 5.00005C5.90001 6.00005 3.10001 8.60005 3.00001 13.2001C3.00001 16.7001 4.40001 19.9001 7.70001 23.9001C10.8 27.6001 15.4 31.7001 21.1 36.9001L22.8 38.4001C23.2 38.8001 23.7 38.9001 24 38.9001C24.3 38.9001 24.8 38.8 25.2 38.5C26.1 37.7 27 36.9 27.9 36.1L28 36C32.4 32.1 36.5 28.5001 39.6 24.9001C43.5 20.3001 45.2 16.4001 44.9 12.6001C44.5 8.00005 41.4 5.60005 40.4 4.90005C37.5 3.00005 34.5 2.60005 31.4 3.70005C28.7 4.70005 26.7 6.50005 26.2 7.10005L24 9.80005L21.7 7.10005C21 6.30005 19 4.50005 16.4 3.60005C13.3 2.50005 10.2 3.00005 7.30001 5.00005Z" fill="#FF477C"/>
<path d="M17.6 26.1999C18.5 26.1999 19.4 25.9999 20.1 25.5999C20.8 25.1999 21.4 24.5999 21.8 23.8999C22.2 23.1999 22.4 22.3999 22.4 21.4999C22.4 20.5999 22.3 19.9999 22 19.2999C21.7 18.5999 21.2 18.0999 20.5 17.7999C19.9 17.3999 19.1 17.1999 18.2 17.1999C17.4 17.1999 16.7 17.2999 16.2 17.5999L16.6 14.8999H22V12.5999H14.5L13.4 20.0999L15.7 20.5999C15.9 20.1999 16.1 19.8999 16.4 19.7999C16.7 19.5999 17.1 19.4999 17.6 19.4999C18.2 19.4999 18.7 19.6999 19.1 20.0999C19.5 20.4999 19.7 20.9999 19.7 21.5999C19.7 22.1999 19.5 22.6999 19.1 23.0999C18.7 23.4999 18.2 23.6999 17.6 23.6999C17.1 23.6999 16.7 23.5999 16.3 23.2999C15.9 22.9999 15.6 22.5999 15.4 21.9999L13 22.8999C13.1 23.5999 13.5 24.1999 13.9 24.6999C14.4 25.1999 14.9 25.5999 15.6 25.8999C16.3 26.0999 16.9 26.1999 17.6 26.1999ZM29.7 26.1999C30.8 26.1999 31.7 25.8999 32.5 25.2999C33.3 24.6999 33.9 23.8999 34.4 22.8999C34.9 21.8999 35.1 20.5999 35.1 19.2999C35.1 17.8999 34.9 16.6999 34.4 15.6999C34 14.6999 33.3 13.7999 32.5 13.2999C31.7 12.6999 30.7 12.3999 29.7 12.3999C28.6 12.3999 27.7 12.6999 26.9 13.2999C26.1 13.8999 25.5 14.6999 25 15.6999C24.6 16.6999 24.3 17.8999 24.3 19.2999C24.3 20.6999 24.5 21.8999 25 22.8999C25.5 23.8999 26.1 24.7999 26.9 25.2999C27.7 25.8999 28.6 26.1999 29.7 26.1999ZM29.7 23.6999C28.9 23.6999 28.2 23.2999 27.8 22.4999C27.3 21.6999 27.1 20.5999 27.1 19.2999C27.1 17.8999 27.3 16.7999 27.8 16.0999C28.3 15.2999 28.9 14.8999 29.7 14.8999C30.6 14.8999 31.2 15.2999 31.6 16.0999C32.1 16.8999 32.3 17.8999 32.3 19.2999C32.3 20.6999 32.1 21.7999 31.6 22.4999C31.2 23.2999 30.5 23.6999 29.7 23.6999Z" fill="#FF477C"/>
</g>
<defs>
<clipPath id="clip0">
<rect width="48" height="41.9" fill="white"/>
</clipPath>
</defs>
</svg>
