<svg width="45" height="41" viewBox="0 0 45 41" fill="none" xmlns="http://www.w3.org/2000/svg">
<path d="M13.5 34.1667C13.5 32.3672 12.8025 30.75 11.6775 29.5428L20.925 13.4617C21.4425 13.5756 21.96 13.6667 22.5 13.6667C23.04 13.6667 23.5575 13.5756 24.075 13.4617L33.3225 29.52C32.1975 30.7272 31.5 32.3672 31.5 34.1667C31.5 37.9478 34.515 41 38.25 41C41.985 41 45 37.9478 45 34.1667C45 30.3856 41.985 27.3333 38.25 27.3333C37.71 27.3333 37.17 27.4244 36.675 27.5383L27.4275 11.48C28.5525 10.25 29.25 8.63278 29.25 6.83333C29.25 3.05222 26.235 -8.20244e-07 22.5 -9.83506e-07C18.765 -1.14677e-06 15.75 3.05222 15.75 6.83333C15.75 8.63278 16.4475 10.25 17.5725 11.48L8.3025 27.5383C7.8075 27.4244 7.29 27.3333 6.75 27.3333C3.015 27.3333 -1.32819e-06 30.3856 -1.49347e-06 34.1667C-1.65875e-06 37.9478 3.015 41 6.75 41C10.485 41 13.5 37.9478 13.5 34.1667Z" fill="#F7BA1E"/>
</svg>
