<svg width="48" height="42" viewBox="0 0 48 42" fill="none" xmlns="http://www.w3.org/2000/svg">
<path d="M24.0063 7.44819L22.8615 6.09919C22.0884 5.18821 19.8769 3.21048 16.895 2.17001C13.99 1.15641 10.3678 1.02602 6.49056 3.68464L6.4895 3.68309C5.78157 4.18349 1.58117 7.20354 1.50125 13.1676L24.0063 7.44819ZM24.0063 7.44819L25.1498 6.09809M24.0063 7.44819L25.1498 6.09809M25.1498 6.09809C25.9081 5.20282 28.0902 3.25798 31.0397 2.21646C33.9164 1.20062 37.4972 1.04268 41.3237 3.57732L41.3276 3.57987M25.1498 6.09809L41.3276 3.57987M41.3276 3.57987C42.4256 4.30229 46.0611 7.11338 46.4652 12.3909C46.805 16.9719 44.6239 21.2712 40.7869 25.7596C37.6129 29.4724 33.4736 33.129 29.0489 37.0377C28.1096 37.8675 27.1574 38.7086 26.1989 39.5641L26.194 39.5685M41.3276 3.57987L26.194 39.5685M26.194 39.5685C25.5832 40.1184 24.7991 40.3909 23.9812 40.3909C23.2207 40.3909 22.4508 40.1156 21.8163 39.5443C21.2407 39.0249 20.6766 38.5166 20.124 38.0188M26.194 39.5685L20.124 38.0188M20.124 38.0188C14.2743 32.7482 9.71903 28.644 6.54304 24.8532M20.124 38.0188L6.54304 24.8532M6.54304 24.8532C3.10356 20.7478 1.4479 17.1985 1.50125 13.1678L6.54304 24.8532Z" stroke="#FF477C" stroke-width="3"/>
<path d="M17.6498 26.216C18.5858 26.216 19.4198 26.018 20.1518 25.622C20.8838 25.214 21.4598 24.662 21.8798 23.966C22.3118 23.258 22.5278 22.466 22.5278 21.59C22.5278 20.714 22.3478 19.946 21.9878 19.286C21.6398 18.626 21.1418 18.11 20.4938 17.738C19.8458 17.354 19.0718 17.162 18.1718 17.162C17.3558 17.162 16.7018 17.306 16.2098 17.594L16.5698 14.93H22.0418V12.59H14.5538L13.4738 20.096L15.7598 20.636C15.9158 20.252 16.1618 19.97 16.4978 19.79C16.8338 19.598 17.2178 19.502 17.6498 19.502C18.2738 19.502 18.7778 19.694 19.1618 20.078C19.5458 20.462 19.7378 20.966 19.7378 21.59C19.7378 22.214 19.5458 22.724 19.1618 23.12C18.7778 23.504 18.2738 23.696 17.6498 23.696C17.1578 23.696 16.7138 23.564 16.3178 23.3C15.9218 23.036 15.6338 22.616 15.4538 22.04L12.9878 22.868C13.1318 23.564 13.4378 24.164 13.9058 24.668C14.3738 25.16 14.9378 25.544 15.5978 25.82C16.2578 26.084 16.9418 26.216 17.6498 26.216ZM29.6965 26.216C30.7765 26.216 31.7185 25.928 32.5225 25.352C33.3385 24.764 33.9685 23.954 34.4125 22.922C34.8685 21.878 35.0965 20.666 35.0965 19.286C35.0965 17.906 34.8685 16.7 34.4125 15.668C33.9685 14.624 33.3385 13.814 32.5225 13.238C31.7185 12.662 30.7705 12.374 29.6785 12.374C28.6105 12.374 27.6685 12.662 26.8525 13.238C26.0485 13.814 25.4185 14.618 24.9625 15.65C24.5185 16.682 24.2965 17.894 24.2965 19.286C24.2965 20.666 24.5245 21.878 24.9805 22.922C25.4365 23.966 26.0665 24.776 26.8705 25.352C27.6865 25.928 28.6285 26.216 29.6965 26.216ZM29.6965 23.696C28.8685 23.696 28.2265 23.306 27.7705 22.526C27.3145 21.746 27.0865 20.666 27.0865 19.286C27.0865 17.894 27.3085 16.814 27.7525 16.046C28.2085 15.278 28.8505 14.894 29.6785 14.894C30.5305 14.894 31.1785 15.284 31.6225 16.064C32.0785 16.832 32.3065 17.906 32.3065 19.286C32.3065 20.666 32.0785 21.746 31.6225 22.526C31.1785 23.306 30.5365 23.696 29.6965 23.696Z" fill="#FF477C"/>
</svg>
