<svg width="24" height="24" viewBox="0 0 24 24" fill="none" xmlns="http://www.w3.org/2000/svg">
<path d="M15.8496 10.4601C15.1371 8.41321 15.095 6.19253 15.7296 4.12012H8.26965C8.90103 6.19358 8.8555 8.41427 8.13965 10.4601C10.6679 11.1152 13.3214 11.1152 15.8496 10.4601ZM11.8996 8.46012C12.0323 8.42829 12.1721 8.45045 12.2883 8.52171C12.4046 8.59298 12.4878 8.70751 12.5196 8.84012C12.5515 8.97273 12.5293 9.11255 12.4581 9.22882C12.3868 9.34509 12.2723 9.42829 12.1396 9.46012C12.0733 9.47949 12.0036 9.48489 11.935 9.47597C11.8665 9.46705 11.8005 9.444 11.7413 9.40829C11.6821 9.37258 11.6309 9.32498 11.5911 9.26849C11.5512 9.212 11.5235 9.14786 11.5096 9.08012C11.486 8.95166 11.5136 8.81905 11.5865 8.71066C11.6594 8.60226 11.7718 8.5267 11.8996 8.50012V8.46012Z" fill="#FF477C"/>
<path d="M7.15044 14.0801C6.86871 16.0808 7.10987 18.1203 7.85044 20.0001H11.4704V16.6201C10.7904 15.0001 8.33044 14.3301 7.15044 14.0801Z" fill="#FF477C"/>
<path d="M16.2201 11.4399C13.4533 12.1899 10.5368 12.1899 7.77008 11.4399C7.59297 11.9509 7.44605 12.4718 7.33008 12.9999C8.57008 13.2599 10.8401 13.9199 12.0001 15.4199C13.1501 13.9999 15.4301 13.2999 16.6701 12.9999C16.5506 12.4716 16.4003 11.9507 16.2201 11.4399Z" fill="#FF477C"/>
<path d="M16.8495 14.0801C15.6695 14.3301 13.2095 15.0301 12.5195 16.6201V20.0001H16.1495C16.8857 18.1192 17.1267 16.0808 16.8495 14.0801Z" fill="#FF477C"/>
<path d="M16.9998 20.7198C17.4419 19.7689 17.7418 18.758 17.8898 17.7198C18.2612 15.2525 17.9607 12.7307 17.0198 10.4198C16.4391 8.95001 16.2529 7.35385 16.4798 5.78983C16.5684 5.10288 16.7466 4.43049 17.0098 3.78983C17.0471 3.70991 17.0635 3.6218 17.0574 3.53379C17.0513 3.44579 17.0229 3.36079 16.9749 3.28678C16.9269 3.21277 16.8609 3.15219 16.783 3.11074C16.7051 3.06929 16.618 3.04833 16.5298 3.04983H7.52981C7.43483 3.03669 7.33807 3.05006 7.25022 3.08847C7.16237 3.12688 7.08684 3.18883 7.032 3.26748C6.97715 3.34612 6.94512 3.4384 6.93944 3.53412C6.93376 3.62983 6.95465 3.72525 6.99981 3.80983C7.8355 5.94083 7.8355 8.30883 6.99981 10.4398C6.30277 12.1811 5.9627 14.0446 5.99981 15.9198V15.9998C6.00753 16.5931 6.06102 17.1848 6.15981 17.7698C6.30786 18.808 6.60773 19.8189 7.04981 20.7698C7.09528 20.8548 7.16307 20.9258 7.24589 20.9752C7.32871 21.0245 7.42341 21.0503 7.51981 21.0498H16.5198C16.6233 21.0477 16.7239 21.0153 16.8092 20.9567C16.8945 20.898 16.9608 20.8157 16.9998 20.7198ZM8.26981 4.11983H15.7298C15.0952 6.19224 15.1372 8.41292 15.8498 10.4598C13.3216 11.1149 10.6681 11.1149 8.13981 10.4598C8.85566 8.41399 8.90119 6.1933 8.26981 4.11983ZM11.4698 19.9998H7.84981C7.11786 18.1353 6.87683 16.1142 7.14981 14.1298C8.32981 14.3798 10.7898 15.0798 11.4698 16.6698V19.9998ZM11.9998 15.4598C10.8398 13.9998 8.56981 13.2998 7.32981 12.9998C7.44425 12.4582 7.59118 11.9239 7.76981 11.3998C10.5366 12.1498 13.4531 12.1498 16.2198 11.3998C16.4015 11.9237 16.5518 12.458 16.6698 12.9998C15.4298 13.2998 13.1498 13.9998 11.9998 15.4598ZM16.1498 19.9998H12.5198V16.6198C13.2098 15.0298 15.6698 14.3298 16.8498 14.0798C17.127 16.0806 16.886 18.1189 16.1498 19.9998Z" fill="#333333"/>
<path d="M12.1401 9.47021C12.2333 9.44299 12.3166 9.38921 12.3798 9.31543C12.443 9.24165 12.4833 9.15106 12.4958 9.05474C12.5084 8.95842 12.4926 8.86054 12.4504 8.77305C12.4082 8.68556 12.3414 8.61226 12.2582 8.56209C12.1751 8.51192 12.0791 8.48707 11.982 8.49056C11.885 8.49405 11.791 8.52574 11.7117 8.58175C11.6323 8.63777 11.571 8.71568 11.5352 8.80598C11.4994 8.89627 11.4907 8.99504 11.5101 9.09021C11.5239 9.15795 11.5516 9.22209 11.5915 9.27858C11.6314 9.33507 11.6825 9.38267 11.7418 9.41838C11.801 9.45409 11.8669 9.47714 11.9355 9.48606C12.0041 9.49498 12.0737 9.48958 12.1401 9.47021Z" fill="#333333"/>
</svg>
