<svg width="32" height="32" viewBox="0 0 32 32" fill="none" xmlns="http://www.w3.org/2000/svg">
<path d="M24.5166 16.8547C22.7686 18.4456 21.2617 20.79 20.3958 22.2876C20.1804 22.6597 19.6133 22.5061 19.6133 22.0762V15.5107L15.2908 15.1665L14.1809 21.3323C14.1091 21.7317 13.5708 21.8079 13.3933 21.4429C12.2402 19.0703 10.3669 16.5063 9.22632 15.0591L7.74243 14.6614L7.48438 16.113C11.2305 21.5239 12.8848 28.3289 13.2852 30.6106C13.3721 31.1057 13.7996 31.4678 14.3022 31.4678H19.2703C19.7612 31.4678 20.1858 31.1228 20.2817 30.6411C20.7703 28.1924 22.7534 20.6553 26.5811 17.2527L24.5166 16.8547Z" fill="#61D1C6"/>
<path d="M25.3623 17.0178L24.5166 16.8547C22.7686 18.4456 21.2617 20.79 20.3958 22.2876C20.1804 22.6597 19.6133 22.5059 19.6133 22.0759V24.6946C19.6133 25.0146 19.8728 25.2742 20.1931 25.2742C20.459 25.2742 20.6846 25.0918 20.7529 24.8347C21.606 21.6228 23.8857 18.6807 25.3623 17.0178Z" fill="#2E9E93"/>
<path d="M17.0762 15.3088L15.2908 15.1667L14.1809 21.3323C14.1091 21.7317 13.5708 21.8079 13.3933 21.4429C12.2402 19.0706 10.3669 16.5063 9.22632 15.0591L7.74243 14.6614L7.48438 16.113C11.2305 21.5239 12.8848 28.3289 13.2852 30.6108C13.3721 31.106 13.7996 31.4678 14.3022 31.4678H16.052L17.0762 15.3088Z" fill="#39C6B8"/>
<path d="M7.48438 16.113C11.2305 21.5239 12.8848 28.3289 13.2852 30.6106C13.3721 31.1057 13.7996 31.4678 14.3022 31.4678H14.3994C13.4329 21.9082 9.13232 16.4856 7.69653 14.9192L7.48438 16.113Z" fill="#2E9E93"/>
<path d="M26.3225 6.17749C26.0547 6.17749 25.7932 6.20239 25.5352 6.23828C24.6511 2.93555 21.6462 0.5 18.0645 0.5C15.6509 0.5 13.4961 1.60522 12.0762 3.33643C11.5198 3.17236 10.9321 3.08057 10.3225 3.08057C7.24683 3.08057 4.70215 5.32471 4.21851 8.26343C1.85327 8.479 0 10.4656 0 12.8872C0 15.4526 2.07959 17.5322 4.64526 17.5322C6.35376 17.5322 7.84302 16.6069 8.6499 15.2329C9.18262 15.3821 9.74219 15.4678 10.3225 15.4678C11.5161 15.4678 12.627 15.1245 13.5725 14.5396C14.8401 15.4453 16.3877 15.9839 18.0645 15.9839C19.3645 15.9839 20.5874 15.6599 21.6631 15.0938C22.6887 16.5664 24.3918 17.5322 26.3225 17.5322C29.458 17.5322 32 14.9905 32 11.855C32 8.71924 29.458 6.17749 26.3225 6.17749Z" fill="#2E9E93"/>
<path d="M21.5199 14.8691C21.2943 14.5127 20.8927 14.3201 20.4747 14.3765C20.1927 14.4148 19.9054 14.4355 19.6129 14.4355C17.2103 14.4355 15.108 13.1697 13.9237 11.2712C13.7174 10.9404 13.3434 10.7615 12.9552 10.7966C12.7679 10.8135 12.5787 10.8225 12.3871 10.8225C9.01841 10.8225 6.23667 8.33008 5.75718 5.09497C4.96787 5.96069 4.41733 7.05518 4.2186 8.26343C1.63999 8.49854 -0.33023 10.8384 0.0462353 13.552C0.318452 15.5144 1.86655 17.1238 3.8187 17.4607C5.86509 17.814 7.71519 16.8245 8.64976 15.2327C9.18247 15.3821 9.74204 15.4678 10.3226 15.4678C11.5162 15.4678 12.6268 15.1243 13.5724 14.5396C14.8399 15.4453 16.3876 15.9839 18.0643 15.9839C19.3644 15.9839 20.5873 15.6599 21.663 15.0938C21.663 15.0938 21.5863 14.9739 21.5199 14.8691Z" fill="#22776E"/>
</svg>
