<svg width="29" height="32" viewBox="0 0 29 32" fill="none" xmlns="http://www.w3.org/2000/svg">
<g clip-path="url(#clip0)">
<path d="M27.1952 14.7863C25.681 11.8464 22.1634 10.9453 19.3384 12.7739C16.5135 14.6025 15.4508 18.4682 16.9649 21.4084C18.479 24.3486 21.9966 25.2495 24.8215 23.4208C27.6466 21.5922 28.7093 17.7265 27.1952 14.7863Z" fill="#1757EE"/>
<path d="M25.3846 21.7632C22.5595 23.5918 19.0417 22.6907 17.5276 19.7505C17.3579 19.4209 17.2209 19.0796 17.1153 18.731C16.8414 18.8503 16.5439 18.925 16.3057 19.1169C16.378 19.9075 16.5933 20.686 16.9657 21.4089C18.4799 24.3491 21.9974 25.2503 24.8225 23.4216C26.3685 22.4209 27.3909 20.7927 27.7478 19.0574C27.226 20.1299 26.4207 21.0925 25.3846 21.7632Z" fill="#0F45C2"/>
<path d="M25.1721 15.3109C24.7122 14.7952 24.0478 14.7042 23.6882 15.1072C23.3287 15.5103 23.4099 16.2552 23.8698 16.7708C24.3298 17.2864 24.9942 17.3775 25.3537 16.9744C25.7133 16.5713 25.6318 15.8265 25.1721 15.3109Z" fill="#759CF5"/>
<path d="M16.3802 18.5809C16.1869 18.5809 16.0066 18.4432 15.9428 18.2259C15.4249 16.4606 15.2975 14.5841 15.2999 13.1542C14.1107 14.8317 12.6135 15.1886 12.5304 15.2074C12.2791 15.2628 12.0386 15.0817 11.9886 14.8026C11.9387 14.5233 12.0996 14.2518 12.3487 14.1954C12.4509 14.1713 14.5689 13.6334 15.4486 10.6754C15.5242 10.4222 15.7579 10.2755 15.9909 10.3365C16.2224 10.3978 16.3744 10.6473 16.341 10.9117C16.336 10.9493 15.877 14.6991 16.8175 17.9034C16.8968 18.1739 16.7655 18.4659 16.524 18.5548C16.4763 18.5724 16.4277 18.5809 16.3802 18.5809Z" fill="#7DBE81"/>
<path d="M1.47303 13.5347C-0.170456 16.7259 0.983058 20.9217 4.04922 22.9063C7.11539 24.891 10.9333 23.9132 12.5766 20.722C14.22 17.5311 13.0665 13.3353 10.0004 11.3506C6.9342 9.36578 3.11631 10.3438 1.47303 13.5347Z" fill="#1757EE"/>
<path d="M4.7995 21.1663C2.14122 19.4456 0.923897 16.0635 1.71722 13.1143C1.63317 13.2512 1.54845 13.3879 1.47289 13.5342C-0.170384 16.7253 0.98313 20.9211 4.04929 22.906C7.11568 24.8906 10.9336 23.9126 12.5768 20.7214C12.7955 20.2971 12.9612 19.854 13.0827 19.4016C11.3303 22.2512 7.72521 23.0598 4.7995 21.1663Z" fill="#0F45C2"/>
<path d="M5.74601 15.9632C6.36403 15.0825 6.37906 13.9399 5.77955 13.4111C5.18003 12.8823 4.19311 13.1677 3.57509 14.0483C2.95706 14.929 2.94204 16.0716 3.54155 16.6004C4.14107 17.1289 5.12799 16.8438 5.74601 15.9632Z" fill="#759CF5"/>
<path d="M21.9021 24.7742C21.9021 20.7834 18.8102 17.5483 14.9965 17.5483C11.1825 17.5483 8.09082 20.7834 8.09082 24.7742C8.09082 28.7649 11.1825 32 14.9965 32C18.8102 32 21.9021 28.7649 21.9021 24.7742Z" fill="#1757EE"/>
<path d="M16.3775 30.4516C12.5638 30.4516 9.4719 27.2165 9.4719 23.2258C9.4719 21.7043 9.92355 20.2944 10.6912 19.1301C9.10779 20.4541 8.09082 22.4885 8.09082 24.7742C8.09082 28.7649 11.1825 32 14.9964 32C17.3562 32 19.4424 30.7566 20.688 28.8669C19.5071 29.8545 18.0069 30.4516 16.3775 30.4516Z" fill="#0F45C2"/>
<path d="M17.2978 23.7419C17.2978 25.4521 16.0611 26.8386 14.5356 26.8386C13.0101 26.8386 11.7734 25.4521 11.7734 23.7419C11.7734 22.0317 13.0101 20.6453 14.5356 20.6453C16.0611 20.6453 17.2978 22.0317 17.2978 23.7419Z" fill="#759CF5"/>
<path d="M14.5359 20.6453C13.537 20.6453 12.6607 21.2417 12.1758 22.1323C12.5945 21.8457 13.0887 21.6775 13.6152 21.6775C15.1407 21.6775 16.3774 23.064 16.3774 24.7742C16.3774 25.3645 16.2271 25.9189 15.9715 26.3884C16.7659 25.8447 17.2981 24.8618 17.2981 23.7419C17.2981 22.0317 16.0614 20.6453 14.5359 20.6453Z" fill="#0F45C2"/>
<path d="M5.78048 13.4119C5.40222 13.0781 4.86738 13.0696 4.37065 13.3293C4.55902 13.3628 4.73737 13.4441 4.88872 13.5774C5.48824 14.1062 5.47321 15.2488 4.85519 16.1294C4.62718 16.4543 4.3491 16.6973 4.05859 16.8491C4.61717 16.9477 5.28484 16.6223 5.74694 15.9636C6.36497 15.083 6.37999 13.9404 5.78048 13.4119Z" fill="#0F45C2"/>
<path d="M12.4214 2.14955C11.1039 0.596567 9.27077 -0.107779 7.40342 0.0133144C7.03866 0.0367519 6.73857 0.356576 6.69937 0.764047C6.49794 2.84876 7.03365 4.93666 8.35114 6.48963C9.81236 8.21205 11.9079 8.89076 13.9811 8.55702C14.3822 6.25233 13.8826 3.87196 12.4214 2.14955Z" fill="#AFDC82"/>
<path d="M22.75 7.20106C23.9128 5.96107 24.4403 4.23597 24.3497 2.4784C24.3321 2.13514 24.0925 1.85291 23.7876 1.8158C22.2265 1.62635 20.6631 2.1305 19.5002 3.37025C18.2106 4.74549 17.7023 6.71766 17.9523 8.66883C19.6777 9.04627 21.4604 8.5763 22.75 7.20106Z" fill="#AFDC82"/>
<path d="M15.9168 11.3548C15.7951 11.3548 15.6736 11.3011 15.5832 11.1944L9.22352 3.69758C9.048 3.49128 9.05583 3.16462 9.23963 2.96809C9.42343 2.77156 9.71567 2.77986 9.89054 2.9864L15.9345 10.1104L21.5191 4.19539C21.704 3.99959 21.9956 4.00911 22.1696 4.21638C22.3444 4.42341 22.3359 4.75007 22.1511 4.94587L16.2328 11.2139C16.1439 11.3082 16.0305 11.3548 15.9168 11.3548Z" fill="#96CD82"/>
</g>
<defs>
<clipPath id="clip0">
<rect width="28.5432" height="32" fill="white"/>
</clipPath>
</defs>
</svg>
