<svg width="51" height="51" viewBox="0 0 51 51" fill="none" xmlns="http://www.w3.org/2000/svg">
<path d="M38.25 19.125H31.875V12.0487C31.8694 10.5457 31.2698 9.10581 30.207 8.04299C29.1442 6.98016 27.7043 6.3806 26.2013 6.375H12.0487C10.5457 6.3806 9.10581 6.98016 8.04299 8.04299C6.98016 9.10581 6.3806 10.5457 6.375 12.0487V26.2013C6.3806 27.7043 6.98016 29.1442 8.04299 30.207C9.10581 31.2698 10.5457 31.8694 12.0487 31.875H19.125V38.25C19.125 39.9408 19.7966 41.5623 20.9922 42.7578C22.1877 43.9534 23.8092 44.625 25.5 44.625H38.25C39.9408 44.625 41.5623 43.9534 42.7578 42.7578C43.9534 41.5623 44.625 39.9408 44.625 38.25V25.5C44.625 23.8092 43.9534 22.1877 42.7578 20.9922C41.5623 19.7966 39.9408 19.125 38.25 19.125ZM19.125 25.5V27.625H12.0487C11.6711 27.625 11.309 27.475 11.042 27.208C10.775 26.941 10.625 26.5789 10.625 26.2013V12.0487C10.625 11.6711 10.775 11.309 11.042 11.042C11.309 10.775 11.6711 10.625 12.0487 10.625H26.2013C26.5789 10.625 26.941 10.775 27.208 11.042C27.475 11.309 27.625 11.6711 27.625 12.0487V19.125H25.5C23.8092 19.125 22.1877 19.7966 20.9922 20.9922C19.7966 22.1877 19.125 23.8092 19.125 25.5Z" fill="#CCCCCC"/>
</svg>
