<svg width="29" height="22" viewBox="0 0 29 22" fill="none" xmlns="http://www.w3.org/2000/svg">
<path fill-rule="evenodd" clip-rule="evenodd" d="M4 0C1.79086 0 0 1.79086 0 4V10C0 12.2091 1.79086 14 4 14H11.4807L14 22L16.5193 14H25C27.2091 14 29 12.2091 29 10V4C29 1.79086 27.2091 0 25 0H4Z" fill="white"/>
<path d="M8.73203 10.096C9.08403 10.096 9.42536 10.0373 9.75603 9.92C10.0867 9.79733 10.3827 9.61867 10.644 9.384C10.9107 9.144 11.1214 8.85067 11.276 8.504C11.4307 8.152 11.508 7.744 11.508 7.28V6.68H8.70803V7.6H10.42V7.624C10.42 7.928 10.3427 8.192 10.188 8.416C10.0334 8.63467 9.82803 8.80533 9.57203 8.928C9.31603 9.04533 9.03603 9.104 8.73203 9.104C8.3587 9.104 8.02803 9.016 7.74003 8.84C7.45203 8.664 7.22536 8.42133 7.06003 8.112C6.90003 7.79733 6.82003 7.432 6.82003 7.016C6.82003 6.6 6.90003 6.23733 7.06003 5.928C7.22003 5.61333 7.44136 5.37067 7.72403 5.2C8.0067 5.024 8.3347 4.936 8.70803 4.936C9.0867 4.936 9.40936 5.032 9.67603 5.224C9.9427 5.416 10.1347 5.66667 10.252 5.976L11.22 5.512C11.1187 5.22933 10.9507 4.97067 10.716 4.736C10.4814 4.496 10.1934 4.304 9.85203 4.16C9.51603 4.016 9.1347 3.944 8.70803 3.944C8.28136 3.944 7.8867 4.02133 7.52403 4.176C7.16136 4.32533 6.8467 4.53867 6.58003 4.816C6.31336 5.088 6.10536 5.41333 5.95603 5.792C5.8067 6.16533 5.73203 6.57333 5.73203 7.016C5.73203 7.45867 5.8067 7.86933 5.95603 8.248C6.1107 8.62133 6.32403 8.94667 6.59603 9.224C6.86803 9.50133 7.18536 9.71733 7.54803 9.872C7.9107 10.0213 8.30536 10.096 8.73203 10.096ZM14.409 10.096C14.8303 10.096 15.2143 10 15.561 9.808C15.9076 9.61067 16.185 9.34133 16.393 9C16.601 8.65333 16.705 8.26133 16.705 7.824C16.705 7.38667 16.601 6.99733 16.393 6.656C16.1903 6.31467 15.9156 6.04533 15.569 5.848C15.2223 5.65067 14.8356 5.552 14.409 5.552C13.977 5.552 13.5876 5.65067 13.241 5.848C12.8943 6.04533 12.617 6.31467 12.409 6.656C12.2063 6.99733 12.105 7.38667 12.105 7.824C12.105 8.26133 12.2063 8.65067 12.409 8.992C12.617 9.33333 12.8943 9.60267 13.241 9.8C13.593 9.99733 13.9823 10.096 14.409 10.096ZM14.409 9.136C14.1743 9.136 13.9636 9.08 13.777 8.968C13.5956 8.856 13.4516 8.70133 13.345 8.504C13.2436 8.30133 13.193 8.07467 13.193 7.824C13.193 7.57333 13.2436 7.34933 13.345 7.152C13.4516 6.95467 13.5956 6.8 13.777 6.688C13.9636 6.57067 14.1743 6.512 14.409 6.512C14.6436 6.512 14.849 6.57067 15.025 6.688C15.2063 6.8 15.3476 6.95467 15.449 7.152C15.5556 7.34933 15.609 7.57333 15.609 7.824C15.609 8.07467 15.5556 8.30133 15.449 8.504C15.3476 8.70133 15.2063 8.856 15.025 8.968C14.849 9.08 14.6436 9.136 14.409 9.136ZM18.8197 10.096C19.3851 10.096 19.8384 9.90933 20.1797 9.536V10H21.1717V7.104C21.1717 6.8 21.0944 6.53067 20.9397 6.296C20.7851 6.06133 20.5717 5.88 20.2997 5.752C20.0331 5.61867 19.7211 5.552 19.3637 5.552C18.9264 5.552 18.5371 5.656 18.1957 5.864C17.8544 6.072 17.6197 6.34667 17.4917 6.688L18.3477 7.104C18.4277 6.90667 18.5531 6.74933 18.7237 6.632C18.8944 6.50933 19.0944 6.448 19.3237 6.448C19.5637 6.448 19.7557 6.512 19.8997 6.64C20.0491 6.76267 20.1237 6.91733 20.1237 7.104V7.248L18.8277 7.456C18.3157 7.54133 17.9371 7.704 17.6917 7.944C17.4464 8.184 17.3237 8.48533 17.3237 8.848C17.3237 9.232 17.4597 9.536 17.7317 9.76C18.0037 9.984 18.3664 10.096 18.8197 10.096ZM18.4117 8.808C18.4117 8.504 18.6171 8.312 19.0277 8.232L20.1237 8.048V8.224C20.1237 8.52267 20.0197 8.776 19.8117 8.984C19.6091 9.192 19.3424 9.296 19.0117 9.296C18.8357 9.296 18.6917 9.25333 18.5797 9.168C18.4677 9.07733 18.4117 8.95733 18.4117 8.808ZM22.1403 10H23.1883V3.944H22.1403V10Z" fill="#4779F1"/>
</svg>
