<svg width="24" height="24" viewBox="0 0 24 24" fill="none" xmlns="http://www.w3.org/2000/svg">
<path d="M6.00023 11.6298L4.49023 10.7598V12.4998L6.00023 11.6298Z" fill="#333333"/>
<path d="M18 11.6298L19.51 12.4998V10.7598L18 11.6298Z" fill="#333333"/>
<path d="M12.4904 8.88988C12.4772 8.82422 12.4513 8.76179 12.414 8.70615C12.3768 8.65052 12.3289 8.60276 12.2732 8.56562C12.2175 8.52847 12.155 8.50267 12.0893 8.48967C12.0236 8.47668 11.956 8.47675 11.8904 8.48988C11.8247 8.50301 11.7623 8.52895 11.7066 8.56621C11.651 8.60347 11.6032 8.65132 11.5661 8.70704C11.529 8.76275 11.5032 8.82524 11.4902 8.89093C11.4772 8.95662 11.4772 9.02422 11.4904 9.08988C11.5169 9.22249 11.595 9.33913 11.7075 9.41415C11.82 9.48916 11.9578 9.5164 12.0904 9.48988C12.223 9.46336 12.3396 9.38525 12.4146 9.27273C12.4896 9.1602 12.5169 9.02249 12.4904 8.88988Z" fill="#333333"/>
<path d="M12.0001 15.4599C13.1501 13.9999 15.4301 13.2999 16.6701 12.9999C16.5521 12.4581 16.4018 11.9238 16.2201 11.3999C13.4533 12.1498 10.5368 12.1498 7.77008 11.3999C7.59145 11.9239 7.44452 12.4582 7.33008 12.9999C8.57008 13.2999 10.8401 13.9999 12.0001 15.4599Z" fill="#4779F1"/>
<path d="M16.9998 10.5199V10.4399C16.9409 10.2964 16.8908 10.1494 16.8498 9.99987C16.3905 8.65364 16.2569 7.21773 16.4598 5.80986C16.5483 5.12291 16.7265 4.45052 16.9898 3.80986C17.0271 3.72994 17.0435 3.64183 17.0374 3.55383C17.0313 3.46582 17.0029 3.38082 16.9549 3.30681C16.9069 3.2328 16.8409 3.17222 16.763 3.13077C16.6851 3.08932 16.598 3.06836 16.5098 3.06986H7.50978C7.4191 3.06295 7.32818 3.07994 7.24611 3.11914C7.16405 3.15834 7.0937 3.21839 7.04208 3.29327C6.99047 3.36816 6.9594 3.45528 6.95198 3.54592C6.94456 3.63657 6.96104 3.72758 6.99978 3.80986C7.78243 5.78853 7.84613 7.97906 7.17978 9.99987C7.17978 10.1499 7.08978 10.2899 7.02978 10.4399V10.5099C6.10925 12.8016 5.8192 15.2981 6.18978 17.7399C6.33783 18.7781 6.6377 19.7889 7.07978 20.7399C7.12525 20.8249 7.19305 20.8959 7.27586 20.9452C7.35868 20.9945 7.45339 21.0204 7.54978 21.0199H16.5498C16.6462 21.0204 16.7409 20.9945 16.8237 20.9452C16.9065 20.8959 16.9743 20.8249 17.0198 20.7399C17.4619 19.7889 17.7617 18.7781 17.9098 17.7399C18.2545 15.2951 17.9403 12.8026 16.9998 10.5199ZM8.26978 4.11986H15.7298C15.1544 6.03763 15.1544 8.0821 15.7298 9.99987C15.7298 10.1499 15.8198 10.3099 15.8698 10.4599C13.3415 11.1149 10.688 11.1149 8.15978 10.4599C8.20887 10.309 8.24894 10.1554 8.27978 9.99987C8.85195 8.08112 8.84847 6.03665 8.26978 4.11986ZM7.76978 11.4399C10.5365 12.1898 13.453 12.1898 16.2198 11.4399C16.4015 11.9638 16.5518 12.498 16.6698 13.0399C15.4298 13.2999 13.1498 13.9599 11.9998 15.4599C10.8398 13.9999 8.56978 13.2999 7.32978 12.9999C7.44576 12.4717 7.59268 11.9508 7.76978 11.4399ZM11.4698 19.9999H7.84978C7.33949 18.7274 7.07155 17.3708 7.05978 15.9999C7.04054 15.3585 7.07063 14.7166 7.14978 14.0799C8.6209 14.3169 9.98861 14.9851 11.0798 15.9999C11.2429 16.1837 11.3747 16.3932 11.4698 16.6199V19.9999ZM16.1498 19.9999H12.5198V16.6199C12.6221 16.3948 12.7569 16.1859 12.9198 15.9999C14.0096 14.9831 15.3779 14.3146 16.8498 14.0799C16.924 14.717 16.954 15.3586 16.9398 15.9999C16.9239 17.3704 16.6561 18.7262 16.1498 19.9999Z" fill="#333333"/>
</svg>
