<svg width="32" height="32" viewBox="0 0 32 32" fill="none" xmlns="http://www.w3.org/2000/svg">
<path d="M15.9997 29.3332C17.4663 29.3332 18.6663 28.1332 18.6663 26.6665H13.333C13.333 28.1332 14.533 29.3332 15.9997 29.3332Z" fill="white"/>
<path d="M12.0003 25.3332H20.0003C20.7337 25.3332 21.3337 24.7332 21.3337 23.9998C21.3337 23.2665 20.7337 22.6665 20.0003 22.6665H12.0003C11.267 22.6665 10.667 23.2665 10.667 23.9998C10.667 24.7332 11.267 25.3332 12.0003 25.3332Z" fill="white"/>
<path d="M16 2.6665C10.48 2.6665 6 7.1465 6 12.6665C6 17.7598 9.54667 20.4798 11.0267 21.3332H20.9733C22.4533 20.4798 26 17.7598 26 12.6665C26 7.1465 21.52 2.6665 16 2.6665Z" fill="white"/>
</svg>
