<svg width="30" height="30" viewBox="0 0 30 30" fill="none" xmlns="http://www.w3.org/2000/svg">
<path d="M15 11.4844C10.6381 11.4844 7.08984 15.0326 7.08984 19.3945C7.08984 20.785 7.45635 22.1522 8.14898 23.3505H21.851C22.5437 22.1522 22.9102 20.785 22.9102 19.3945C22.9102 15.0326 19.3619 11.4844 15 11.4844ZM15 9.72656C15.4858 9.72656 15.8789 9.33346 15.8789 8.84766V7.08984C15.8789 6.60404 15.4858 6.21094 15 6.21094C14.5142 6.21094 14.1211 6.60404 14.1211 7.08984V8.84766C14.1211 9.33346 14.5142 9.72656 15 9.72656ZM4.45312 18.5156H2.69531C2.20951 18.5156 1.81641 18.9087 1.81641 19.3945C1.81641 19.8803 2.20951 20.2734 2.69531 20.2734H4.45312C4.93893 20.2734 5.33203 19.8803 5.33203 19.3945C5.33203 18.9087 4.93893 18.5156 4.45312 18.5156ZM27.3047 18.5156H25.5469C25.0611 18.5156 24.668 18.9087 24.668 19.3945C24.668 19.8803 25.0611 20.2734 25.5469 20.2734H27.3047C27.7905 20.2734 28.1836 19.8803 28.1836 19.3945C28.1836 18.9087 27.7905 18.5156 27.3047 18.5156ZM26.4172 12.8027C26.1735 12.3813 25.6336 12.2362 25.2165 12.4809L23.6947 13.3598C23.2741 13.6027 23.1299 14.14 23.3728 14.5605C23.6159 14.9815 24.1545 15.1245 24.5736 14.8824L26.0954 14.0035C26.5159 13.7606 26.6601 13.2233 26.4172 12.8027ZM19.834 11.0217C20.2523 11.2634 20.7912 11.1216 21.0347 10.6999L21.9137 9.17807C22.1566 8.75748 22.0124 8.22018 21.5918 7.9773C21.1721 7.73268 20.6339 7.87775 20.391 8.29916L19.5121 9.82096C19.2692 10.2415 19.4134 10.7788 19.834 11.0217ZM8.96525 10.6999C9.20836 11.1208 9.74689 11.2638 10.166 11.0217C10.5866 10.7788 10.7308 10.2415 10.4879 9.82096L9.60896 8.29916C9.36434 7.87775 8.82703 7.73268 8.4082 7.9773C7.98762 8.22023 7.84342 8.75748 8.08635 9.17807L8.96525 10.6999ZM6.30533 13.3598L4.78354 12.4809C4.36295 12.2362 3.82652 12.3813 3.58277 12.8027C3.33984 13.2233 3.48404 13.7606 3.90463 14.0035L5.42643 14.8824C5.84473 15.124 6.38367 14.9822 6.62719 14.5605C6.87012 14.14 6.72592 13.6027 6.30533 13.3598Z" fill="url(#paint0_linear)"/>
<path d="M29.1211 22.0312H0.878906C0.393105 22.0312 0 22.4244 0 22.9102C0 23.396 0.393105 23.7891 0.878906 23.7891H29.1211C29.6069 23.7891 30 23.396 30 22.9102C30 22.4244 29.6069 22.0312 29.1211 22.0312Z" fill="url(#paint1_linear)"/>
<defs>
<linearGradient id="paint0_linear" x1="15" y1="23.3505" x2="15" y2="6.21094" gradientUnits="userSpaceOnUse">
<stop stop-color="#4779F1"/>
<stop offset="1" stop-color="#4779F1"/>
</linearGradient>
<linearGradient id="paint1_linear" x1="15" y1="23.7891" x2="15" y2="22.0312" gradientUnits="userSpaceOnUse">
<stop stop-color="#1757EE"/>
<stop offset="1" stop-color="#1757EE"/>
</linearGradient>
</defs>
</svg>
