<svg width="29" height="22" viewBox="0 0 29 22" fill="none" xmlns="http://www.w3.org/2000/svg">
<path fill-rule="evenodd" clip-rule="evenodd" d="M4 0C1.79086 0 0 1.79086 0 4V10C0 12.2091 1.79086 14 4 14H11.4807L14 22L16.5193 14H25C27.2091 14 29 12.2091 29 10V4C29 1.79086 27.2091 0 25 0H4Z" fill="white"/>
<path d="M6.00959 10H7.09759V6.104L9.92959 10H10.7856V4.04H9.69759V7.864L6.85759 4.04H6.00959V10ZM13.9793 10.096C14.4006 10.096 14.7846 10 15.1313 9.808C15.4779 9.61067 15.7553 9.34133 15.9633 9C16.1713 8.65333 16.2753 8.26133 16.2753 7.824C16.2753 7.38667 16.1713 6.99733 15.9633 6.656C15.7606 6.31467 15.4859 6.04533 15.1393 5.848C14.7926 5.65067 14.4059 5.552 13.9793 5.552C13.5473 5.552 13.1579 5.65067 12.8113 5.848C12.4646 6.04533 12.1873 6.31467 11.9793 6.656C11.7766 6.99733 11.6753 7.38667 11.6753 7.824C11.6753 8.26133 11.7766 8.65067 11.9793 8.992C12.1873 9.33333 12.4646 9.60267 12.8113 9.8C13.1633 9.99733 13.5526 10.096 13.9793 10.096ZM13.9793 9.136C13.7446 9.136 13.5339 9.08 13.3473 8.968C13.1659 8.856 13.0219 8.70133 12.9153 8.504C12.8139 8.30133 12.7633 8.07467 12.7633 7.824C12.7633 7.57333 12.8139 7.34933 12.9153 7.152C13.0219 6.95467 13.1659 6.8 13.3473 6.688C13.5339 6.57067 13.7446 6.512 13.9793 6.512C14.2139 6.512 14.4193 6.57067 14.5953 6.688C14.7766 6.8 14.9179 6.95467 15.0193 7.152C15.1259 7.34933 15.1793 7.57333 15.1793 7.824C15.1793 8.07467 15.1259 8.30133 15.0193 8.504C14.9179 8.70133 14.7766 8.856 14.5953 8.968C14.4193 9.08 14.2139 9.136 13.9793 9.136ZM18.0879 10H19.0159L20.0399 7.064L21.0479 10H21.9839L23.4799 5.648H22.3759L21.4639 8.384L20.5039 5.648H19.5759L18.6079 8.392L17.6959 5.648H16.5919L18.0879 10Z" fill="#4779F1"/>
</svg>
