<svg width="24" height="24" viewBox="0 0 24 24" fill="none" xmlns="http://www.w3.org/2000/svg">
<rect width="24" height="24" rx="8" fill="#4779F1"/>
<path d="M17.25 11.3332H12.75V7.33317C12.75 7.15636 12.671 6.98679 12.5303 6.86177C12.3897 6.73674 12.1989 6.6665 12 6.6665C11.8011 6.6665 11.6103 6.73674 11.4697 6.86177C11.329 6.98679 11.25 7.15636 11.25 7.33317V11.3332H6.75C6.55109 11.3332 6.36032 11.4034 6.21967 11.5284C6.07902 11.6535 6 11.823 6 11.9998C6 12.1766 6.07902 12.3462 6.21967 12.4712C6.36032 12.5963 6.55109 12.6665 6.75 12.6665H11.25V16.6665C11.25 16.8433 11.329 17.0129 11.4697 17.1379C11.6103 17.2629 11.8011 17.3332 12 17.3332C12.1989 17.3332 12.3897 17.2629 12.5303 17.1379C12.671 17.0129 12.75 16.8433 12.75 16.6665V12.6665H17.25C17.4489 12.6665 17.6397 12.5963 17.7803 12.4712C17.921 12.3462 18 12.1766 18 11.9998C18 11.823 17.921 11.6535 17.7803 11.5284C17.6397 11.4034 17.4489 11.3332 17.25 11.3332Z" fill="white"/>
</svg>
