<svg width="19" height="21" viewBox="0 0 19 21" fill="none" xmlns="http://www.w3.org/2000/svg">
<path d="M9.40274 20.7017H8.05423C4.14425 20.7017 0.974609 17.5321 0.974609 13.6221H16.4824C16.4824 17.5321 13.3127 20.7017 9.40274 20.7017Z" fill="#A5BEF8"/>
<path d="M16.0262 5.53916C15.9807 5.53916 15.9348 5.53006 15.8904 5.51049C15.7201 5.43498 15.6432 5.23639 15.7181 5.0658L16.535 3.21565C16.6105 3.04608 16.8087 2.96921 16.9797 3.04339C17.1499 3.1189 17.2268 3.31749 17.1519 3.48808L16.335 5.33822C16.2794 5.46432 16.156 5.53916 16.0262 5.53916Z" fill="#A5BEF8"/>
<path d="M16.0266 5.53919C15.8776 5.53919 15.7411 5.43938 15.701 5.28837L15.1481 3.20189C15.1002 3.02221 15.2078 2.83748 15.3878 2.78959C15.5671 2.74205 15.7519 2.84928 15.8001 3.02928L16.3533 5.11575C16.4012 5.29544 16.2936 5.48016 16.1136 5.52805C16.0843 5.53583 16.0553 5.53919 16.0266 5.53919Z" fill="#A5BEF8"/>
<path d="M16.027 5.53918C15.9053 5.53918 15.788 5.47344 15.7276 5.35782C15.6417 5.19297 15.7057 4.98899 15.8709 4.90305L17.7851 3.90551C17.9507 3.81923 18.1536 3.8836 18.2399 4.0488C18.3259 4.21364 18.2618 4.41762 18.0966 4.50356L16.1824 5.5011C16.1329 5.52703 16.0796 5.53918 16.027 5.53918Z" fill="#A5BEF8"/>
<path d="M10.75 13.6222L12.9133 6.40843C13.4396 5.21601 14.8329 4.67629 16.0253 5.20253C17.2177 5.72878 17.7574 7.12214 17.2312 8.31452L14.049 13.6222" fill="#4779F1"/>
<path d="M14.7018 9.03906L14.4297 9.65601L16.0101 10.3539L16.3597 9.77097L14.7018 9.03906Z" fill="#1757EE"/>
<path d="M11.6465 10.6388L13.3041 11.3704L13.5762 10.7534L11.8413 9.98779L11.6465 10.6388Z" fill="#1757EE"/>
<path d="M16.2719 15.3076H12.4367C12.2505 15.3076 12.0996 15.4586 12.0996 15.6447C12.0996 15.8309 12.2505 15.9819 12.4367 15.9819H16.0706C16.1488 15.7617 16.2155 15.5372 16.2719 15.3076Z" fill="#759CF5"/>
<path d="M4.53599 3.69705C3.0631 4.09171 1.54896 3.21752 1.1543 1.74463C1.89073 1.5473 2.63761 1.66725 3.24969 2.02061C3.86135 2.37377 4.33866 2.96059 4.53599 3.69705Z" fill="#1757EE"/>
<path d="M5.05742 5.60015C4.94987 5.62897 4.83937 5.56515 4.81056 5.45763L4.44099 4.07837C4.25586 3.38745 4.42558 2.6521 4.89502 2.11137C4.96803 2.02726 5.09531 2.0183 5.17936 2.0913C5.26341 2.16429 5.27243 2.29159 5.19943 2.37564C4.81791 2.81513 4.67996 3.41267 4.83038 3.97406L5.19995 5.35332C5.22876 5.46081 5.16497 5.57134 5.05742 5.60015Z" fill="#526071"/>
<path d="M5.42707 4.03781C7.57181 3.46313 9.63671 5.19159 9.44856 7.40411L9.27723 9.41459C9.26308 9.58087 9.23047 9.74263 9.18117 9.89718C9.1136 10.1081 9.01478 10.3062 8.88988 10.4849L8.88962 10.485C8.77663 10.6469 8.64213 10.7928 8.48988 10.9193C8.13421 11.2138 7.67345 11.3498 7.21357 11.3136C7.10476 11.3052 6.99637 11.3067 6.88906 11.3174C6.79261 11.3271 6.69695 11.3449 6.60375 11.3699C6.40647 11.4228 6.21834 11.5088 6.04749 11.6261C5.92079 11.7129 5.78501 11.7835 5.643 11.836C5.35793 11.9413 5.04877 11.9744 4.74503 11.9228C4.17632 11.8261 3.65491 11.5073 3.31054 11.0134L2.15719 9.35783C0.887728 7.53587 1.81175 5.00653 3.95649 4.43185L4.69191 4.23479L5.42707 4.03781Z" fill="#4779F1"/>
</svg>
