<svg width="60" height="60" viewBox="0 0 60 60" fill="none" xmlns="http://www.w3.org/2000/svg">
<circle cx="30" cy="30" r="29" stroke="#E8E8E8" stroke-width="2"/>
<g clip-path="url(#clip0)">
<path d="M36.0481 29.9996C36.0481 27.1481 33.7282 24.8281 30.8766 24.8281C28.025 24.8281 25.7051 27.1481 25.7051 29.9996C25.7051 32.8512 28.025 35.1712 30.8766 35.1712C33.7282 35.1712 36.0481 32.8512 36.0481 29.9996ZM27.8926 29.9996C27.8926 28.3542 29.2312 27.0156 30.8766 27.0156C32.522 27.0156 33.8606 28.3543 33.8606 29.9996C33.8606 31.645 32.522 32.9837 30.8766 32.9837C29.2312 32.9837 27.8926 31.645 27.8926 29.9996Z" fill="#999999"/>
<path d="M30.8768 16.8765C24.3307 16.8765 19.0036 21.635 17.9476 27.732H17.0938C16.6904 27.732 16.3197 27.954 16.1294 28.3097C15.9391 28.6653 15.96 29.0968 16.1837 29.4324L18.1207 32.3378C18.3235 32.6421 18.665 32.8249 19.0307 32.8249C19.3965 32.8249 19.7379 32.6421 19.9408 32.3378L21.8777 29.4324C22.1015 29.0968 22.1223 28.6653 21.932 28.3097C21.7416 27.954 21.371 27.732 20.9676 27.732H20.1781C21.2251 22.7866 25.6241 19.064 30.8767 19.064C36.9067 19.064 41.8125 23.9697 41.8125 29.9997C41.8125 36.0297 36.9067 40.9355 30.8767 40.9355C30.2727 40.9355 29.783 41.4251 29.783 42.0292C29.783 42.6333 30.2727 43.123 30.8767 43.123C38.1305 43.123 44 37.2525 44 29.9997C44 22.7459 38.1296 16.8765 30.8768 16.8765Z" fill="#999999"/>
</g>
<defs>
<clipPath id="clip0">
<rect width="28" height="28" fill="white" transform="translate(16 16)"/>
</clipPath>
</defs>
</svg>
