<svg width="39" height="34" viewBox="0 0 39 34" fill="none" xmlns="http://www.w3.org/2000/svg">
<path fill-rule="evenodd" clip-rule="evenodd" d="M4 0C1.79086 0 0 1.79086 0 4V22C0 24.2091 1.79086 26 4 26H16.4807L19 34L21.5193 26H35C37.2091 26 39 24.2091 39 22V4C39 1.79086 37.2091 0 35 0H4Z" fill="white"/>
<path d="M5.95791 11.096C6.36857 11.096 6.72857 11.0213 7.03791 10.872C7.34724 10.7227 7.58991 10.5173 7.76591 10.256C7.94191 9.99467 8.02991 9.69333 8.02991 9.352C8.02991 8.55733 7.55524 8.008 6.60591 7.704L5.50991 7.36C5.29657 7.29067 5.13391 7.19467 5.02191 7.072C4.91524 6.944 4.86191 6.79733 4.86191 6.632C4.86191 6.41333 4.94457 6.23733 5.10991 6.104C5.28057 5.96533 5.50457 5.896 5.78191 5.896C6.09124 5.896 6.36324 5.97867 6.59791 6.144C6.83257 6.304 7.00857 6.53333 7.12591 6.832L8.02191 6.432C7.86191 5.984 7.58191 5.624 7.18191 5.352C6.78724 5.08 6.32057 4.944 5.78191 4.944C5.39257 4.944 5.04591 5.01867 4.74191 5.168C4.44324 5.312 4.20857 5.51467 4.03791 5.776C3.87257 6.03733 3.78991 6.33867 3.78991 6.68C3.78991 7.06933 3.90724 7.408 4.14191 7.696C4.37657 7.97867 4.72591 8.19467 5.18991 8.344L6.33391 8.712C6.54191 8.78133 6.69657 8.872 6.79791 8.984C6.90457 9.096 6.95791 9.24 6.95791 9.416C6.95791 9.63467 6.86991 9.81067 6.69391 9.944C6.52324 10.0773 6.29657 10.144 6.01391 10.144C5.67257 10.144 5.36591 10.048 5.09391 9.856C4.82191 9.65867 4.61391 9.38933 4.46991 9.048L3.56591 9.44C3.67257 9.77067 3.84057 10.0613 4.06991 10.312C4.30457 10.5573 4.58191 10.7493 4.90191 10.888C5.22724 11.0267 5.57924 11.096 5.95791 11.096ZM10.9056 11.048C11.0816 11.048 11.2549 11.0347 11.4256 11.008V10.104C11.3243 10.12 11.2309 10.128 11.1456 10.128C10.8896 10.128 10.7029 10.0693 10.5856 9.952C10.4683 9.83467 10.4096 9.66667 10.4096 9.448V7.584H11.4096V6.648H10.4096V5.656H9.36159V5.992C9.36159 6.20533 9.30293 6.368 9.18559 6.48C9.06826 6.592 8.90293 6.648 8.68959 6.648H8.60959V7.584H9.36159V9.504C9.36159 9.98933 9.49493 10.368 9.76159 10.64C10.0336 10.912 10.4149 11.048 10.9056 11.048ZM13.5228 11.096C14.0882 11.096 14.5415 10.9093 14.8828 10.536V11H15.8748V8.104C15.8748 7.8 15.7975 7.53067 15.6428 7.296C15.4882 7.06133 15.2748 6.88 15.0028 6.752C14.7362 6.61867 14.4242 6.552 14.0668 6.552C13.6295 6.552 13.2402 6.656 12.8988 6.864C12.5575 7.072 12.3228 7.34667 12.1948 7.688L13.0508 8.104C13.1308 7.90667 13.2562 7.74933 13.4268 7.632C13.5975 7.50933 13.7975 7.448 14.0268 7.448C14.2668 7.448 14.4588 7.512 14.6028 7.64C14.7522 7.76267 14.8268 7.91733 14.8268 8.104V8.248L13.5308 8.456C13.0188 8.54133 12.6402 8.704 12.3948 8.944C12.1495 9.184 12.0268 9.48533 12.0268 9.848C12.0268 10.232 12.1628 10.536 12.4348 10.76C12.7068 10.984 13.0695 11.096 13.5228 11.096ZM13.1148 9.808C13.1148 9.504 13.3202 9.312 13.7308 9.232L14.8268 9.048V9.224C14.8268 9.52267 14.7228 9.776 14.5148 9.984C14.3122 10.192 14.0455 10.296 13.7148 10.296C13.5388 10.296 13.3948 10.2533 13.2828 10.168C13.1708 10.0773 13.1148 9.95733 13.1148 9.808ZM16.8435 11H17.8915V8.576C17.8915 8.24533 17.9821 7.98933 18.1635 7.808C18.3501 7.62133 18.5901 7.528 18.8835 7.528H19.2595V6.6H19.0035C18.7368 6.6 18.5021 6.648 18.2995 6.744C18.0968 6.84 17.9395 7.01333 17.8275 7.264V6.648H16.8435V11ZM21.9368 11.048C22.1128 11.048 22.2862 11.0347 22.4568 11.008V10.104C22.3555 10.12 22.2622 10.128 22.1768 10.128C21.9208 10.128 21.7342 10.0693 21.6168 9.952C21.4995 9.83467 21.4408 9.66667 21.4408 9.448V7.584H22.4408V6.648H21.4408V5.656H20.3928V5.992C20.3928 6.20533 20.3342 6.368 20.2168 6.48C20.0995 6.592 19.9342 6.648 19.7208 6.648H19.6408V7.584H20.3928V9.504C20.3928 9.98933 20.5262 10.368 20.7928 10.64C21.0648 10.912 21.4462 11.048 21.9368 11.048ZM23.2575 6.16H24.3055V5.04H23.2575V6.16ZM23.2575 11H24.3055V6.648H23.2575V11ZM25.2732 11H26.3212V8.448C26.3212 8.16533 26.4012 7.93867 26.5612 7.768C26.7265 7.59733 26.9398 7.512 27.2012 7.512C27.4625 7.512 27.6732 7.59733 27.8332 7.768C27.9985 7.93333 28.0812 8.16 28.0812 8.448V11H29.1292V8.2C29.1292 7.87467 29.0598 7.58933 28.9212 7.344C28.7825 7.09333 28.5878 6.89867 28.3372 6.76C28.0918 6.62133 27.8092 6.552 27.4892 6.552C27.2172 6.552 26.9718 6.60533 26.7532 6.712C26.5398 6.81867 26.3745 6.976 26.2572 7.184V6.648H25.2732V11ZM32.1273 12.76C32.5433 12.76 32.9113 12.6747 33.2313 12.504C33.5513 12.3333 33.802 12.0987 33.9833 11.8C34.1647 11.5013 34.2553 11.1627 34.2553 10.784V6.648H33.2633V7.152C32.9327 6.752 32.4873 6.552 31.9273 6.552C31.5273 6.552 31.17 6.64533 30.8553 6.832C30.5407 7.01333 30.2927 7.264 30.1113 7.584C29.93 7.904 29.8393 8.26933 29.8393 8.68C29.8393 9.08533 29.93 9.45067 30.1113 9.776C30.2927 10.1013 30.5433 10.3573 30.8633 10.544C31.1833 10.7307 31.546 10.824 31.9513 10.824C32.4793 10.824 32.898 10.6533 33.2073 10.312V10.784C33.2073 11.104 33.106 11.352 32.9033 11.528C32.7007 11.7093 32.442 11.8 32.1273 11.8C31.85 11.8 31.6153 11.736 31.4233 11.608C31.2367 11.4853 31.1113 11.3227 31.0473 11.12L30.0713 11.488C30.21 11.872 30.4633 12.1787 30.8313 12.408C31.2047 12.6427 31.6367 12.76 32.1273 12.76ZM32.0793 9.856C31.7433 9.856 31.466 9.74667 31.2473 9.528C31.034 9.304 30.9273 9.024 30.9273 8.688C30.9273 8.464 30.9753 8.264 31.0713 8.088C31.1727 7.90667 31.3113 7.76533 31.4873 7.664C31.6633 7.56267 31.8607 7.512 32.0793 7.512C32.41 7.512 32.6793 7.624 32.8873 7.848C33.1007 8.06667 33.2073 8.34667 33.2073 8.688C33.2073 9.02933 33.1007 9.30933 32.8873 9.528C32.6793 9.74667 32.41 9.856 32.0793 9.856ZM6.65284 21H7.90084L9.04484 16.712L10.1888 21H11.4368L13.0368 15.04H11.8688L10.7648 19.52L9.61284 15.04H8.48484L7.32484 19.52L6.22084 15.04H5.05284L6.65284 21ZM15.4075 21.096C15.8501 21.096 16.2368 20.9973 16.5675 20.8C16.9035 20.5973 17.1381 20.3413 17.2715 20.032L16.4235 19.616C16.3275 19.7813 16.1941 19.9173 16.0235 20.024C15.8581 20.1253 15.6555 20.176 15.4155 20.176C15.1008 20.176 14.8368 20.08 14.6235 19.888C14.4101 19.696 14.2875 19.44 14.2555 19.12H17.3915C17.4128 19.0613 17.4261 18.9947 17.4315 18.92C17.4421 18.84 17.4475 18.76 17.4475 18.68C17.4475 18.2907 17.3648 17.936 17.1995 17.616C17.0341 17.296 16.7941 17.04 16.4795 16.848C16.1648 16.6507 15.7808 16.552 15.3275 16.552C14.9221 16.552 14.5541 16.6507 14.2235 16.848C13.8981 17.0453 13.6395 17.3147 13.4475 17.656C13.2608 17.992 13.1675 18.3787 13.1675 18.816C13.1675 19.2373 13.2608 19.6213 13.4475 19.968C13.6341 20.3147 13.8955 20.5893 14.2315 20.792C14.5675 20.9947 14.9595 21.096 15.4075 21.096ZM15.3275 17.416C15.6048 17.416 15.8341 17.5013 16.0155 17.672C16.2021 17.8373 16.3061 18.0533 16.3275 18.32H14.2795C14.3381 18.032 14.4608 17.8107 14.6475 17.656C14.8395 17.496 15.0661 17.416 15.3275 17.416ZM18.2419 16.16H19.2899V15.04H18.2419V16.16ZM18.2419 21H19.2899V16.648H18.2419V21ZM22.3695 22.76C22.7855 22.76 23.1535 22.6747 23.4735 22.504C23.7935 22.3333 24.0442 22.0987 24.2255 21.8C24.4069 21.5013 24.4975 21.1627 24.4975 20.784V16.648H23.5055V17.152C23.1749 16.752 22.7295 16.552 22.1695 16.552C21.7695 16.552 21.4122 16.6453 21.0975 16.832C20.7829 17.0133 20.5349 17.264 20.3535 17.584C20.1722 17.904 20.0815 18.2693 20.0815 18.68C20.0815 19.0853 20.1722 19.4507 20.3535 19.776C20.5349 20.1013 20.7855 20.3573 21.1055 20.544C21.4255 20.7307 21.7882 20.824 22.1935 20.824C22.7215 20.824 23.1402 20.6533 23.4495 20.312V20.784C23.4495 21.104 23.3482 21.352 23.1455 21.528C22.9429 21.7093 22.6842 21.8 22.3695 21.8C22.0922 21.8 21.8575 21.736 21.6655 21.608C21.4789 21.4853 21.3535 21.3227 21.2895 21.12L20.3135 21.488C20.4522 21.872 20.7055 22.1787 21.0735 22.408C21.4469 22.6427 21.8789 22.76 22.3695 22.76ZM22.3215 19.856C21.9855 19.856 21.7082 19.7467 21.4895 19.528C21.2762 19.304 21.1695 19.024 21.1695 18.688C21.1695 18.464 21.2175 18.264 21.3135 18.088C21.4149 17.9067 21.5535 17.7653 21.7295 17.664C21.9055 17.5627 22.1029 17.512 22.3215 17.512C22.6522 17.512 22.9215 17.624 23.1295 17.848C23.3429 18.0667 23.4495 18.3467 23.4495 18.688C23.4495 19.0293 23.3429 19.3093 23.1295 19.528C22.9215 19.7467 22.6522 19.856 22.3215 19.856ZM25.4763 21H26.5243V18.448C26.5243 18.1653 26.6069 17.9387 26.7723 17.768C26.9376 17.5973 27.1483 17.512 27.4043 17.512C27.6603 17.512 27.8709 17.5973 28.0363 17.768C28.2016 17.9333 28.2843 18.16 28.2843 18.448V21H29.3323V18.2C29.3323 17.8747 29.2629 17.5893 29.1243 17.344C28.9856 17.0933 28.7909 16.8987 28.5403 16.76C28.2949 16.6213 28.0123 16.552 27.6923 16.552C27.4416 16.552 27.2149 16.5973 27.0123 16.688C26.8096 16.7733 26.6469 16.904 26.5243 17.08V14.944H25.4763V21ZM32.2025 21.048C32.3785 21.048 32.5518 21.0347 32.7225 21.008V20.104C32.6211 20.12 32.5278 20.128 32.4425 20.128C32.1865 20.128 31.9998 20.0693 31.8825 19.952C31.7651 19.8347 31.7065 19.6667 31.7065 19.448V17.584H32.7065V16.648H31.7065V15.656H30.6585V15.992C30.6585 16.2053 30.5998 16.368 30.4825 16.48C30.3651 16.592 30.1998 16.648 29.9865 16.648H29.9065V17.584H30.6585V19.504C30.6585 19.9893 30.7918 20.368 31.0585 20.64C31.3305 20.912 31.7118 21.048 32.2025 21.048Z" fill="#4779F1"/>
</svg>
