<svg width="32" height="32" viewBox="0 0 32 32" fill="none" xmlns="http://www.w3.org/2000/svg">
<path d="M10.3218 6.61518C10.2063 6.61518 10.0894 6.57636 9.99321 6.49677L6.38041 3.50849C6.16117 3.32685 6.12992 3.00165 6.3118 2.78193C6.49222 2.56196 6.81791 2.53046 7.03861 2.71332L10.6514 5.70136C10.8707 5.883 10.9019 6.20844 10.72 6.42792C10.6182 6.55146 10.4705 6.61518 10.3218 6.61518Z" fill="#91CD7E"/>
<path d="M14.3335 2.78198C14.1531 2.5625 13.8274 2.53101 13.6067 2.71313L10.8391 5.0022V2.07861C10.8391 1.7937 10.6082 1.5625 10.3228 1.5625C10.0376 1.5625 9.80664 1.7937 9.80664 2.07861V6.10791C9.80664 6.11938 9.80713 6.11938 9.80786 6.11353C9.81079 6.22461 9.84863 6.33569 9.92529 6.42798C10.0271 6.55151 10.1746 6.61523 10.3235 6.61523C10.4387 6.61523 10.5557 6.57642 10.6521 6.49683L14.2649 3.50854C14.4841 3.3269 14.5154 3.00146 14.3335 2.78198Z" fill="#6FBE58"/>
<path d="M10.3225 6.09912C11.9741 6.09912 12.387 5.17529 14.4517 5.17529C17.0322 5.17529 20.6453 7.02271 20.6453 12.1023C20.6453 16.6931 18.5891 22.7239 10.3225 22.7239C2.05615 22.7239 0 16.6934 0 12.1025C0 7.02271 3.61279 5.17554 6.1936 5.17554C8.25806 5.17554 8.6709 6.09912 10.3225 6.09912Z" fill="#FF1457"/>
<path d="M13.4194 20.1433C5.15283 20.1433 3.09692 14.1125 3.09692 9.52173C3.09692 7.8811 3.48291 6.57715 4.08008 5.56421C1.99805 6.33862 0 8.33081 0 12.1023C0 16.6931 2.05615 22.7239 10.3225 22.7239C14.4944 22.7239 17.083 21.187 18.6252 19.0754C17.2515 19.7439 15.5413 20.1433 13.4194 20.1433Z" fill="#E00040"/>
<path d="M21.677 13.8411C23.3286 13.8411 23.7415 12.9172 25.8059 12.9172C28.3867 12.9172 31.9995 14.7646 31.9995 19.8442C31.9995 24.4351 29.9434 30.4658 21.677 30.4658C13.4106 30.4658 11.3545 24.4351 11.3545 19.8442C11.3545 14.7646 14.9673 12.9172 17.5481 12.9172C19.6123 12.9175 20.0254 13.8411 21.677 13.8411Z" fill="#E00040"/>
<path d="M29.1821 15.2451C28.2754 14.4341 27.0134 13.9497 25.8059 13.9497C24.9189 13.9497 24.4387 14.146 23.8828 14.3733C23.3093 14.6077 22.6594 14.8733 21.677 14.8733C20.6943 14.8733 20.0444 14.6077 19.4712 14.3733C18.915 14.146 18.4348 13.9497 17.5478 13.9497C15.7627 13.9497 12.3867 15.1816 12.3867 19.8445C12.3867 22.7275 13.292 29.4336 21.677 29.4336C30.062 29.4336 30.9673 22.7275 30.9673 19.8445C30.9673 17.8523 30.3667 16.3049 29.1821 15.2451Z" fill="#FF8087"/>
<path d="M24.1281 18.0786C23.3447 18.0786 22.7097 17.4436 22.7097 16.6602V13.7024C22.4113 13.7859 22.0818 13.8411 21.6775 13.8411C21.2729 13.8411 20.9436 13.7859 20.6452 13.7024V16.6602C20.6452 17.4436 20.01 18.0786 19.2265 18.0786C17.531 18.0786 16.0522 19.3853 16.0014 21.0801C15.9489 22.834 17.3549 24.2722 19.0969 24.2722H19.8994C20.2568 24.8867 20.9153 25.3044 21.6775 25.3044C22.4397 25.3044 23.0981 24.8867 23.4555 24.2722H24.2583C26.0002 24.2722 27.406 22.834 27.3535 21.0801C27.3025 19.3853 25.824 18.0786 24.1281 18.0786Z" fill="#FFADC5"/>
<path d="M17.042 20.9727C17.1445 19.8992 18.1074 19.1111 19.1855 19.1111H19.2873C19.9031 19.1111 20.3972 18.6038 20.3867 17.9883C20.3708 17.0315 19.7859 16.1743 18.8977 15.8115L18.8857 15.8066C18.3833 15.6011 18.1311 15.498 17.5483 15.498C17.1787 15.498 13.9355 15.6201 13.9355 19.8445C13.9355 22.7668 14.7903 26.1348 18.3735 27.3833C19.3611 27.7275 20.3872 26.9524 20.3872 25.9062V24.5303C20.3872 23.8176 19.8093 23.24 19.0969 23.24C17.8896 23.24 16.9246 22.2039 17.042 20.9727Z" fill="#FF1457"/>
<path d="M18.3657 18.9177C18.156 18.9177 17.9595 18.789 17.8819 18.5813L17.5296 17.6333C17.4302 17.3659 17.5664 17.0688 17.8335 16.9694C18.1011 16.872 18.3975 17.0063 18.4973 17.2734L18.8496 18.2214C18.949 18.4887 18.8128 18.7858 18.5457 18.8852C18.4861 18.9069 18.4256 18.9177 18.3657 18.9177Z" fill="#FFC369"/>
<path d="M16.6872 19.7128C16.5749 19.7128 16.4618 19.6765 16.3666 19.601L15.7568 19.1169C15.5334 18.9396 15.4963 18.6152 15.6735 18.3918C15.8505 18.1684 16.1745 18.1308 16.3989 18.3083L17.0087 18.7924C17.2321 18.9697 17.2692 19.2944 17.092 19.5175C16.9902 19.6462 16.8393 19.7128 16.6872 19.7128Z" fill="#FFE17D"/>
<path d="M16.3706 23.9798C16.2299 23.9798 16.0898 23.9224 15.9875 23.8096C15.7966 23.5982 15.8132 23.2718 16.0244 23.0809L16.5571 22.5992C16.7683 22.4083 17.0944 22.4239 17.2863 22.636C17.4775 22.8475 17.4609 23.1739 17.2497 23.3648L16.717 23.8465C16.6181 23.9356 16.4941 23.9798 16.3706 23.9798Z" fill="#FFE17D"/>
<path d="M17.8488 25.6703C17.7787 25.6703 17.7072 25.6557 17.6386 25.6251C17.3786 25.5087 17.2616 25.2035 17.3781 24.9435L17.8295 23.9327C17.9455 23.6725 18.2494 23.5553 18.5117 23.6718C18.7717 23.7882 18.8886 24.0934 18.7721 24.3536L18.3205 25.3644C18.2348 25.5563 18.0463 25.6703 17.8488 25.6703Z" fill="#FFC369"/>
<path d="M16.3657 21.6887H15.7446C15.4595 21.6887 15.2285 21.4578 15.2285 21.1726C15.2285 20.8877 15.4595 20.6565 15.7446 20.6565H16.3657C16.6509 20.6565 16.8819 20.8877 16.8819 21.1726C16.8819 21.4578 16.6509 21.6887 16.3657 21.6887Z" fill="#FFC369"/>
<path d="M26.313 20.9727C26.2104 19.8992 25.2476 19.1111 24.1692 19.1111H24.0674C23.4519 19.1111 22.9578 18.6038 22.968 17.9883C22.9841 17.0315 23.5688 16.1743 24.4573 15.8115L24.469 15.8066C24.9714 15.6011 25.2236 15.498 25.8064 15.498C26.1763 15.498 29.4194 15.6201 29.4194 19.8445C29.4194 22.7668 28.5647 26.1348 24.9814 27.3833C23.9937 27.7275 22.9678 26.9524 22.9678 25.9062V24.5303C22.9678 23.8176 23.5454 23.24 24.2581 23.24C25.4651 23.24 26.4304 22.2039 26.313 20.9727Z" fill="#FF1457"/>
<path d="M24.989 18.9177C25.1988 18.9177 25.3953 18.789 25.4729 18.5813L25.8252 17.6333C25.9246 17.3659 25.7884 17.0688 25.5213 16.9694C25.2537 16.872 24.9573 17.0063 24.8574 17.2734L24.5051 18.2214C24.4058 18.4887 24.542 18.7858 24.8091 18.8852C24.8684 18.9069 24.929 18.9177 24.989 18.9177Z" fill="#FFC369"/>
<path d="M26.6671 19.7128C26.7796 19.7128 26.8924 19.6765 26.9877 19.601L27.5975 19.1169C27.8209 18.9396 27.8583 18.6152 27.6808 18.3918C27.5038 18.1684 27.1798 18.1308 26.9554 18.3083L26.3456 18.7924C26.1224 18.9697 26.0851 19.2944 26.2623 19.5175C26.3644 19.6462 26.515 19.7128 26.6671 19.7128Z" fill="#FFE17D"/>
<path d="M26.9844 23.9798C27.1251 23.9798 27.2652 23.9224 27.3675 23.8096C27.5584 23.5982 27.5418 23.2718 27.3306 23.0809L26.7979 22.5992C26.5867 22.4083 26.2606 22.4239 26.0687 22.636C25.8775 22.8475 25.8943 23.1739 26.1055 23.3648L26.6383 23.8465C26.7369 23.9356 26.8609 23.9798 26.9844 23.9798Z" fill="#FFE17D"/>
<path d="M25.5065 25.6703C25.5766 25.6703 25.6481 25.6557 25.7167 25.6251C25.9767 25.5087 26.0937 25.2035 25.9772 24.9435L25.5256 23.9327C25.4096 23.6725 25.1056 23.5553 24.8437 23.6718C24.5837 23.7882 24.4667 24.0934 24.5832 24.3536L25.0348 25.3644C25.1203 25.5563 25.3088 25.6703 25.5065 25.6703Z" fill="#FFC369"/>
<path d="M26.9897 21.6887H27.6106C27.896 21.6887 28.1267 21.4578 28.1267 21.1726C28.1267 20.8877 27.8958 20.6565 27.6106 20.6565H26.9897C26.7043 20.6565 26.4736 20.8877 26.4736 21.1726C26.4736 21.4578 26.7043 21.6887 26.9897 21.6887Z" fill="#FFC369"/>
</svg>
