<svg width="24" height="24" viewBox="0 0 24 24" fill="none" xmlns="http://www.w3.org/2000/svg">
<path d="M5.00023 16.6298L3.49023 15.7598V17.4998L5.00023 16.6298Z" fill="#333333"/>
<path d="M19 16.6298L20.51 17.4998V15.7598L19 16.6298Z" fill="#333333"/>
<path d="M12.4904 8.88988C12.4772 8.82422 12.4513 8.76179 12.414 8.70615C12.3768 8.65052 12.3289 8.60276 12.2732 8.56562C12.2175 8.52847 12.155 8.50267 12.0893 8.48967C12.0236 8.47668 11.956 8.47675 11.8904 8.48988C11.8247 8.50301 11.7623 8.52895 11.7066 8.56621C11.651 8.60347 11.6032 8.65132 11.5661 8.70704C11.529 8.76275 11.5032 8.82524 11.4902 8.89093C11.4772 8.95662 11.4772 9.02422 11.4904 9.08988C11.5169 9.22249 11.595 9.33913 11.7075 9.41415C11.82 9.48916 11.9578 9.5164 12.0904 9.48988C12.223 9.46336 12.3396 9.38525 12.4146 9.27273C12.4896 9.1602 12.5169 9.02249 12.4904 8.88988Z" fill="#333333"/>
<path d="M16.4805 20.9999H17.0005V20.6099L16.9505 20.7199C16.905 20.8049 16.8372 20.8759 16.7544 20.9252C16.6716 20.9745 16.5769 21.0003 16.4805 20.9999Z" fill="#333333"/>
<path d="M7.0498 20.7201V20.6201V21.0001H7.56981C7.46513 21.0103 7.35979 20.9891 7.26719 20.9393C7.17459 20.8894 7.09892 20.8131 7.0498 20.7201Z" fill="#333333"/>
<path d="M16.8495 14.0801C15.6695 14.3301 13.2095 15.0301 12.5195 16.6201V20.0001H16.1495C16.8857 18.1192 17.1267 16.0808 16.8495 14.0801Z" fill="#39C6B8"/>
<path d="M7.15044 14.0801C6.86871 16.0808 7.10987 18.1203 7.85044 20.0001H11.4704V16.6201C10.7904 15.0001 8.33044 14.3301 7.15044 14.0801Z" fill="#39C6B8"/>
<path d="M17.0004 10.4399C16.4196 8.97004 16.2335 7.37388 16.4604 5.80986C16.5489 5.12291 16.7271 4.45052 16.9904 3.80986C17.0277 3.72994 17.0441 3.64183 17.038 3.55383C17.0319 3.46582 17.0035 3.38082 16.9555 3.30681C16.9075 3.2328 16.8414 3.17222 16.7636 3.13077C16.6857 3.08932 16.5986 3.06836 16.5104 3.06986H7.51037C7.41968 3.06295 7.32876 3.07994 7.2467 3.11914C7.16463 3.15834 7.09428 3.21839 7.04267 3.29327C6.99105 3.36816 6.95999 3.45528 6.95256 3.54592C6.94514 3.63657 6.96162 3.72758 7.00037 3.80986C7.83605 5.94086 7.83605 8.30887 7.00037 10.4399C6.05611 12.7499 5.75546 15.2726 6.13037 17.7399C6.28236 18.7363 6.57529 19.706 7.00037 20.6199V20.7199C7.04584 20.8049 7.11363 20.8759 7.19645 20.9252C7.27926 20.9745 7.37397 21.0003 7.47037 20.9999H16.4704C16.5668 21.0003 16.6615 20.9745 16.7443 20.9252C16.8271 20.8759 16.8949 20.8049 16.9404 20.7199L16.9904 20.6099C17.4041 19.6975 17.6869 18.7313 17.8304 17.7399C18.2144 15.2761 17.9277 12.7545 17.0004 10.4399ZM8.27037 4.11986H15.7304C15.0958 6.19227 15.1378 8.41295 15.8504 10.4599C13.3221 11.1149 10.6686 11.1149 8.14037 10.4599C8.85621 8.41402 8.90175 6.19333 8.27037 4.11986ZM11.4704 19.9999H7.85037C7.11841 18.1354 6.87739 16.1142 7.15037 14.1299C8.33037 14.3799 10.7904 15.0799 11.4704 16.6699V19.9999ZM12.0004 15.4599C11.4932 14.8404 10.8544 14.3416 10.1304 13.9999C9.24366 13.5481 8.30264 13.212 7.33037 12.9999C7.44481 12.4582 7.59174 11.9239 7.77037 11.3999C10.5371 12.1498 13.4536 12.1498 16.2204 11.3999C16.4021 11.9238 16.5524 12.458 16.6704 12.9999C15.6948 13.2118 14.7505 13.5479 13.8604 13.9999C13.1408 14.3443 12.5058 14.8427 12.0004 15.4599ZM16.1504 19.9999H12.5204V16.6199C13.2104 15.0299 15.6704 14.3299 16.8504 14.0799C17.1275 16.0806 16.8865 18.119 16.1504 19.9999Z" fill="#333333"/>
</svg>
