<svg width="24" height="24" viewBox="0 0 24 24" fill="none" xmlns="http://www.w3.org/2000/svg">
<path d="M15.8496 10.4601C15.1371 8.41321 15.095 6.19253 15.7296 4.12012H8.26965C8.90103 6.19358 8.8555 8.41427 8.13965 10.4601C10.6679 11.1152 13.3214 11.1152 15.8496 10.4601Z" fill="#F7BA1E"/>
<path d="M7.00023 7.62977L5.49023 6.75977V8.49977L7.00023 7.62977Z" fill="#333333"/>
<path d="M17 7.62977L18.51 8.49977V6.75977L17 7.62977Z" fill="#333333"/>
<path d="M12.4904 8.88988C12.4772 8.82422 12.4513 8.76179 12.414 8.70615C12.3768 8.65052 12.3289 8.60276 12.2732 8.56562C12.2175 8.52847 12.155 8.50267 12.0893 8.48967C12.0236 8.47668 11.956 8.47675 11.8904 8.48988C11.8247 8.50301 11.7623 8.52895 11.7066 8.56621C11.651 8.60347 11.6032 8.65132 11.5661 8.70704C11.529 8.76275 11.5032 8.82524 11.4902 8.89093C11.4772 8.95662 11.4772 9.02422 11.4904 9.08988C11.5169 9.22249 11.595 9.33913 11.7075 9.41415C11.82 9.48916 11.9578 9.5164 12.0904 9.48988C12.223 9.46336 12.3396 9.38525 12.4146 9.27273C12.4896 9.1602 12.5169 9.02249 12.4904 8.88988Z" fill="#333333"/>
<path d="M17.0005 10.5198V10.4398C16.4197 8.97002 16.2336 7.37385 16.4605 5.80984C16.5491 5.12288 16.7272 4.4505 16.9905 3.80984C17.0056 3.73391 17.0056 3.65576 16.9905 3.57984V3.52984C16.9757 3.40257 16.9145 3.28524 16.8185 3.20035C16.7225 3.11546 16.5986 3.06898 16.4705 3.06984H7.47049C7.35264 3.08019 7.24185 3.13043 7.1564 3.21224C7.07096 3.29405 7.01596 3.40255 7.00049 3.51984V3.59984C6.98621 3.66911 6.98621 3.74056 7.00049 3.80984C7.83617 5.94083 7.83617 8.30884 7.00049 10.4398V10.5098C6.07995 12.8016 5.78991 15.2981 6.16049 17.7398C6.30854 18.778 6.60841 19.7889 7.05049 20.7398C7.09596 20.8248 7.16375 20.8958 7.24657 20.9452C7.32938 20.9945 7.42409 21.0203 7.52049 21.0198H16.5205C16.6169 21.0203 16.7116 20.9945 16.7944 20.9452C16.8772 20.8958 16.945 20.8248 16.9905 20.7398C17.4326 19.7889 17.7324 18.778 17.8805 17.7398C18.2346 15.2977 17.9309 12.8054 17.0005 10.5198ZM8.27049 4.11984H15.7305C15.0959 6.19224 15.1379 8.41293 15.8505 10.4598C13.3222 11.1149 10.6687 11.1149 8.14049 10.4598C8.85634 8.41399 8.90187 6.1933 8.27049 4.11984ZM11.4705 19.9998H7.85049C7.11853 18.1353 6.87751 16.1142 7.15049 14.1298C8.33049 14.3798 10.7905 15.0798 11.4705 16.6698V19.9998ZM12.0005 15.4598C10.8405 13.9998 8.57049 13.2998 7.33049 12.9998C7.44493 12.4582 7.59186 11.9239 7.77049 11.3998C10.5372 12.1498 13.4537 12.1498 16.2205 11.3998C16.4022 11.9237 16.5525 12.458 16.6705 12.9998C15.4305 13.2998 13.1505 13.9998 12.0005 15.4598ZM16.1505 19.9998H12.5205V16.6198C13.2105 15.0298 15.6705 14.3298 16.8505 14.0798C17.1277 16.0806 16.8866 18.1189 16.1505 19.9998Z" fill="#333333"/>
</svg>
