<svg width="32" height="32" viewBox="0 0 32 32" fill="none" xmlns="http://www.w3.org/2000/svg">
<path d="M25.9194 4.74707H6.07943C5.34305 4.74707 4.74609 5.34402 4.74609 6.0804V25.9204C4.74609 26.6568 5.34305 27.2537 6.07943 27.2537H25.9194C26.6558 27.2537 27.2528 26.6568 27.2528 25.9204V6.0804C27.2528 5.34402 26.6558 4.74707 25.9194 4.74707Z" stroke="#4779F1" stroke-width="2" stroke-miterlimit="10"/>
<path d="M22.4795 11.2805L19.2529 14.6672C18.8293 14.2333 18.3234 13.8886 17.7646 13.6533C17.2059 13.4179 16.6058 13.2966 15.9995 13.2966C15.3933 13.2966 14.7931 13.4179 14.2344 13.6533C13.6757 13.8886 13.1697 14.2333 12.7462 14.6672L9.51953 11.2805C11.3588 9.82462 13.6551 9.06865 15.9995 9.14715C18.344 9.06865 20.6402 9.82462 22.4795 11.2805Z" stroke="#4779F1" stroke-width="2" stroke-miterlimit="10"/>
</svg>
