<svg width="392" height="410" viewBox="0 0 392 410" fill="none" xmlns="http://www.w3.org/2000/svg">
<path d="M153.408 234.602C153.85 233.717 153.739 232.686 153.076 231.949C152.339 231.175 151.16 230.29 149.391 230.069C146.775 229.738 145.006 238.029 144.379 241.751C144.269 242.451 145.006 242.93 145.595 242.561C147.696 241.087 151.565 238.176 153.408 234.602Z" fill="#F8BA1D"/>
<path d="M153.076 235.965C152.67 236.592 152.191 237.218 151.675 237.808L150.349 233.938L153.076 235.965Z" fill="#D99D08"/>
<path d="M150.533 239.023C150.238 239.318 149.907 239.613 149.575 239.908L148.838 237.771L150.533 239.023Z" fill="#D99D08"/>
<path d="M152.818 229.848C153.112 229.038 153.333 228.006 153.407 226.753L152.596 226.863C152.596 226.863 152.781 228.043 152.449 229.738C152.375 229.996 152.707 230.069 152.818 229.848Z" fill="#22776E"/>
<path d="M155.434 225.905C155.434 225.905 156.135 226.9 155.25 227.342C154.366 227.784 154.108 227.047 154.108 227.047C154.108 227.047 153.592 228.743 152.044 227.563C150.497 226.384 151.455 225.684 151.455 225.684C151.455 225.684 150.976 225.721 150.828 225.021C150.681 224.321 151.602 223.289 152.413 223.805C152.413 223.805 152.855 222.552 154.182 223.436C155.324 224.173 154.919 224.394 154.919 224.394C154.919 224.394 156.171 225.168 155.434 225.905Z" fill="#2E9E93"/>
<path d="M152.781 230.954C153.15 230.585 153.666 230.143 154.403 229.774L154.55 230.29C154.55 230.29 153.813 230.511 152.929 231.138C152.818 231.248 152.671 231.064 152.781 230.954Z" fill="#22776E"/>
<path d="M154.292 228.411C154.292 228.411 153.555 228.264 153.518 228.89C153.482 229.517 153.998 229.48 153.998 229.48C153.998 229.48 153.15 230.217 154.255 230.77C155.361 231.323 155.508 230.586 155.508 230.586C155.508 230.586 155.619 230.844 156.061 230.77C156.503 230.696 156.835 229.849 156.319 229.517C156.319 229.517 156.909 228.927 156.024 228.411C155.287 227.969 155.287 228.264 155.287 228.264C155.287 228.264 154.513 227.785 154.292 228.411Z" fill="#2E9E93"/>
<path d="M155.692 179.326L155.139 182.274C155.139 182.274 151.786 182.458 150.459 179.252L153.186 176.82L155.692 179.326Z" fill="#22776E"/>
<path d="M167.632 169.671C166.047 167.534 161.588 163.702 152.597 171.809C152.597 171.809 152.56 178.221 157.571 176.12C161.957 174.278 164.61 170.777 167.189 170.666C167.668 170.593 167.89 170.04 167.632 169.671Z" fill="#22776E"/>
<path d="M157.092 162.301C157.276 161.748 157.755 161.417 158.308 161.38C158.308 161.196 158.308 161.011 158.382 160.864C158.603 160.201 159.266 159.832 159.929 159.943C159.929 159.795 159.966 159.648 160.003 159.501C160.224 158.874 160.85 158.506 161.477 158.579C161.44 158.358 161.477 158.174 161.551 157.953C161.772 157.253 162.509 156.884 163.209 157.068C163.504 156.442 164.241 156.147 164.904 156.368C164.978 156.405 165.051 156.442 165.125 156.479C165.494 156.074 166.083 155.889 166.599 156.074C166.82 156.147 167.041 156.295 167.189 156.479C167.262 156.516 167.336 156.553 167.41 156.589C167.557 156.589 167.741 156.626 167.889 156.663C168.478 156.847 168.847 157.4 168.847 157.99C169.252 158.358 169.4 158.911 169.215 159.464C169.179 159.574 169.105 159.685 169.068 159.795C169.473 160.164 169.658 160.754 169.473 161.269C169.4 161.491 169.252 161.712 169.068 161.859C169.326 162.301 169.326 162.854 169.031 163.296C168.884 163.517 168.7 163.702 168.478 163.812C168.81 164.254 168.884 164.918 168.552 165.397C168.368 165.691 168.073 165.876 167.778 165.986C167.815 166.318 167.778 166.65 167.557 166.944C167.41 167.165 167.226 167.313 167.004 167.423C167.152 167.829 167.115 168.271 166.857 168.639C166.71 168.861 166.489 169.045 166.231 169.155C166.378 169.561 166.341 170.04 166.12 170.408C165.752 170.961 165.051 171.182 164.462 170.961C164.056 171.551 163.577 172.177 163.098 172.804L155.36 174.867L153.48 168.418C153.48 168.418 155.028 166.06 157.165 163.444C156.981 163.075 156.944 162.67 157.092 162.301Z" fill="#F8BA1D"/>
<path d="M153.518 173.762C153.591 173.799 153.665 173.799 153.702 173.799L161.44 171.735C161.477 171.735 161.551 171.698 161.588 171.661C162.03 171.108 162.435 170.519 162.841 169.929C163.504 170.077 164.204 169.819 164.609 169.229C164.867 168.861 164.941 168.382 164.831 167.939C165.052 167.829 165.199 167.645 165.347 167.423C165.568 167.055 165.678 166.613 165.568 166.207C165.752 166.097 165.899 165.913 166.047 165.728C166.231 165.434 166.305 165.139 166.305 164.807C166.599 164.697 166.857 164.475 167.042 164.181C167.373 163.665 167.373 163.038 167.115 162.522C167.3 162.412 167.447 162.264 167.558 162.08C167.852 161.638 167.889 161.048 167.705 160.569C167.852 160.422 167.963 160.201 168.037 160.017C168.221 159.464 168.11 158.837 167.705 158.395C167.742 158.321 167.779 158.248 167.779 158.211C168 157.584 167.815 156.921 167.336 156.479C167.226 156.368 167.078 156.405 166.968 156.479C166.857 156.59 166.894 156.737 166.968 156.847C167.3 157.142 167.41 157.621 167.263 158.064C167.226 158.137 167.189 158.248 167.152 158.321C167.078 158.432 167.115 158.579 167.189 158.653C167.521 158.948 167.668 159.427 167.521 159.869C167.447 160.053 167.336 160.238 167.189 160.348C167.115 160.422 167.078 160.569 167.152 160.643C167.373 161.012 167.336 161.454 167.115 161.822C167.005 162.006 166.857 162.154 166.636 162.228C166.563 162.264 166.526 162.338 166.489 162.412C166.489 162.486 166.489 162.559 166.526 162.633C166.821 163.001 166.821 163.554 166.563 163.923C166.415 164.144 166.194 164.328 165.899 164.402C165.789 164.439 165.715 164.549 165.715 164.697C165.752 164.954 165.715 165.249 165.531 165.47C165.42 165.655 165.273 165.765 165.089 165.876C164.978 165.949 164.904 166.06 164.978 166.171C165.089 166.502 165.052 166.871 164.867 167.166C164.757 167.35 164.573 167.497 164.352 167.608C164.241 167.645 164.167 167.792 164.204 167.939C164.352 168.271 164.315 168.676 164.094 168.971C163.799 169.413 163.246 169.598 162.73 169.413C162.62 169.377 162.509 169.413 162.435 169.524C162.03 170.114 161.588 170.703 161.146 171.293L153.481 173.356C153.333 173.393 153.26 173.541 153.297 173.651C153.407 173.688 153.444 173.725 153.518 173.762Z" fill="#D99D08"/>
<path d="M157.829 174.019L156.724 167.497C156.724 167.46 156.724 167.386 156.76 167.349C157.018 166.833 157.313 166.318 157.608 165.838C157.276 165.396 157.24 164.733 157.571 164.254C157.755 163.959 158.087 163.738 158.456 163.627C158.492 163.443 158.566 163.259 158.677 163.075C158.861 162.78 159.156 162.559 159.524 162.485C159.561 162.301 159.635 162.153 159.708 161.969C159.856 161.748 160.077 161.564 160.298 161.453C160.298 161.195 160.372 160.937 160.519 160.679C160.777 160.274 161.256 160.016 161.735 160.053C161.772 159.906 161.846 159.721 161.92 159.611C162.177 159.242 162.583 158.984 163.025 158.984C163.099 158.837 163.209 158.69 163.32 158.542C163.688 158.21 164.167 158.063 164.646 158.21C164.683 158.174 164.72 158.137 164.757 158.1C165.162 157.731 165.752 157.621 166.268 157.842C166.415 157.879 166.452 158.026 166.415 158.174C166.378 158.284 166.231 158.358 166.084 158.321C165.752 158.174 165.383 158.247 165.125 158.505C165.089 158.542 165.015 158.616 164.978 158.69C164.904 158.8 164.794 158.837 164.646 158.8C164.315 158.653 163.946 158.726 163.651 158.984C163.541 159.095 163.467 159.242 163.394 159.39C163.357 159.5 163.246 159.574 163.136 159.574C162.804 159.537 162.472 159.721 162.288 159.979C162.214 160.127 162.141 160.274 162.141 160.458C162.141 160.532 162.104 160.606 162.03 160.643C161.956 160.679 161.883 160.716 161.809 160.679C161.44 160.606 161.072 160.753 160.851 161.085C160.74 161.269 160.703 161.49 160.703 161.711C160.74 161.822 160.63 161.969 160.519 162.006C160.298 162.08 160.114 162.19 160.003 162.375C159.93 162.522 159.856 162.669 159.856 162.817C159.856 162.927 159.745 163.038 159.635 163.075C159.34 163.112 159.119 163.259 158.971 163.48C158.861 163.627 158.824 163.812 158.824 163.996C158.824 164.143 158.714 164.254 158.603 164.254C158.308 164.254 158.05 164.438 157.903 164.659C157.682 165.028 157.719 165.47 158.013 165.765C158.087 165.838 158.124 165.986 158.05 166.06C157.755 166.575 157.461 167.091 157.166 167.644L158.234 174.093C158.271 174.24 158.161 174.351 158.013 174.388C157.94 174.388 157.903 174.388 157.829 174.351C157.866 174.13 157.829 174.093 157.829 174.019Z" fill="#D99D08"/>
<path d="M168.11 172.693C166.378 170.334 161.477 166.17 151.602 175.014C151.602 175.014 151.565 182.053 157.055 179.731C161.846 177.704 164.794 173.872 167.631 173.724C168.147 173.724 168.405 173.135 168.11 172.693Z" fill="#2E9E93"/>
<path d="M153.222 161.27C156.097 161.86 161.919 164.586 157.939 177.263C157.939 177.263 151.564 180.211 151.38 174.241C151.233 169.045 153.517 164.771 152.449 162.154C152.264 161.638 152.707 161.159 153.222 161.27Z" fill="#2E9E93"/>
<path d="M159.266 170.15C159.266 170.15 155.544 171.845 154.328 172.766L159.192 168.308L159.266 170.15Z" fill="#22776E"/>
<path d="M265.063 129.321C265.063 129.321 236.136 111.154 186.941 122.172L186.02 115.87C186.02 115.87 236.689 94.3131 291.816 129.137L265.063 129.321Z" fill="#759CF6"/>
<path opacity="0.57" d="M291.817 129.137C291.817 129.137 384.937 181.28 339.832 283.134C292.443 390.294 0 409.825 0 409.825V246.689C0 246.689 427.867 290.541 287.395 141.518L291.817 129.137Z" fill="url(#paint0_linear)"/>
<path d="M273.576 156.038C273.576 156.038 272.655 165.913 275.934 174.794C279.214 183.675 307.957 208.918 307.957 208.918C307.957 208.918 284.999 219.825 267.201 237.919C249.365 256.012 246.565 257.56 246.565 257.56L245.349 278.233C245.349 278.233 245.533 278.786 248.333 277.238C251.134 275.69 258.43 257.818 258.43 257.818L317.612 226.274C326.53 221.52 330.067 210.576 325.608 201.511L296.423 142.219L273.576 156.038Z" fill="#D99D08"/>
<path d="M294.655 196.646L290.564 166.244L307.958 208.917L294.655 196.646Z" fill="#A77A06"/>
<path d="M279.029 227.379L274.46 231.137C274.46 231.137 285.478 228.889 287.505 224.394L283.157 223.73L279.029 227.379Z" fill="#A77A06"/>
<path d="M261.046 146.529C261.046 146.529 257.03 155.595 257.325 165.065C257.619 174.536 276.818 207.59 276.818 207.59C276.818 207.59 251.576 210.649 228.95 222.109C225.007 224.099 221.654 225.757 218.816 227.158C205.292 233.754 203.155 234.159 203.155 234.159L197.038 252.031C197.038 252.031 195.416 253.948 198.549 253.358C201.718 252.768 214.32 238.176 214.32 238.176L280.466 227.121C290.416 225.462 297.27 216.176 295.944 206.19L287.173 140.707L261.046 146.529Z" fill="#D99D08"/>
<path d="M325.239 90.0752C325.239 90.0752 342.67 91.8808 355.42 93.5391C368.17 95.1974 369.828 95.1974 369.828 95.1974L377.862 90.0752C377.862 90.0752 379.888 91.3649 376.572 95.1974L389.838 95.9712C389.838 95.9712 391.496 99.0298 390.98 101.72C390.464 104.41 381.694 107.063 381.694 107.063C381.694 107.063 374.066 106.289 369.46 102.604C369.46 102.604 331.467 103.12 323.323 100.577L325.239 90.0752Z" fill="#FFD5CD"/>
<path d="M237.168 102.457C237.168 102.457 220.364 107.506 208.167 111.522C195.969 115.539 194.348 115.871 194.348 115.871L185.504 112.37C185.504 112.37 183.735 114.028 187.715 117.16L174.854 120.403C174.854 120.403 173.786 123.72 174.817 126.262C175.849 128.805 184.951 129.763 184.951 129.763C184.951 129.763 192.321 127.589 196.117 123.093C196.117 123.093 233.52 116.46 241.037 112.443L237.168 102.457Z" fill="#FFD5CD"/>
<path d="M287.911 82.8896L324.54 89.191C324.54 89.191 330.03 95.6766 326.198 103.673L303.13 101.241L298.929 121.509L297.971 145.793C297.971 145.793 275.05 153.237 261.084 146.567C261.084 146.567 265.653 123.646 263.553 117.123C261.452 110.601 259.278 106.621 259.278 106.621L239.637 116.129C239.637 116.129 234.478 108.722 235.436 102.604L262.189 87.9013L287.911 82.8896Z" fill="#4779F1"/>
<path d="M265.653 67.0068L267.938 84.2159L262.189 87.864C262.189 87.864 270.407 95.1235 278.809 94.5708C287.211 93.9812 287.874 82.9261 287.874 82.9261L279.767 80.8256L271.771 71.0235L265.653 67.0068Z" fill="#FFD5CD"/>
<path d="M280.688 59.047C280.688 59.047 282.972 57.3519 284.041 58.789C285.11 60.263 284.852 63.4322 282.788 64.0586C280.761 64.6851 280.688 59.047 280.688 59.047Z" fill="#E0AAA4"/>
<path d="M282.015 60.2265C282.015 60.2265 291.633 57.7576 284.005 48.4713C277.703 40.8433 269.596 42.17 263.184 45.2285C257.325 47.9923 254.488 51.8616 255.372 56.7258C255.372 56.7258 247.449 63.6905 261.673 71.0605L282.015 60.2265Z" fill="black"/>
<path d="M280.872 57.5362C280.872 57.5362 287.505 70.6917 281.388 78.3197C281.388 78.3197 272.286 79.7937 264.953 72.1657C264.953 72.1657 262.521 73.7871 260.973 71.1707C258.873 67.6331 263.368 68.5175 263.368 68.5175C263.368 68.5175 267.864 65.8275 265.506 61.0369C263.147 56.2464 264.769 54.8092 264.769 54.8092C264.769 54.8092 269.191 53.3352 271.586 56.3201C274.055 59.3418 279.914 58.7891 280.872 57.5362Z" fill="#FFD5CD"/>
<path d="M258.099 57.4255C258.099 57.4255 249.071 56.3936 247.154 61.2947C245.238 66.1958 259.168 68.9596 259.684 79.425C259.978 85.2473 251.503 93.5386 241 90.1116C230.498 86.6476 239.047 93.0596 237.721 98.7713C236.394 104.483 209.383 116.496 198.807 90.6643C188.231 64.8323 221.544 62.9161 232.304 69.5123C232.304 69.5123 230.277 63.2109 229.503 57.7202C228.213 48.692 233.999 40.4375 258.762 53.0403L258.099 57.4255Z" fill="black"/>
<path d="M279.25 67.2276C282.42 67.1539 283.009 65.2377 283.046 65.164C283.083 65.0903 283.046 64.9797 283.009 64.906C282.935 64.8323 282.862 64.7955 282.751 64.7955C282.714 64.7955 279.398 64.8323 278.219 63.6163C277.961 63.3215 277.813 63.0267 277.85 62.6213C277.961 60.3735 281.093 60.2261 281.203 60.1892C281.351 60.1892 281.498 60.0418 281.498 59.8944C281.498 59.747 281.351 59.5996 281.203 59.5996C279.914 59.6365 277.408 60.3366 277.26 62.5845C277.224 63.1372 277.408 63.6163 277.813 64.0216C278.882 65.1271 281.24 65.3114 282.272 65.3482C281.94 65.8273 281.13 66.5643 279.25 66.6011C279.103 66.6011 278.956 66.7485 278.956 66.8959C278.956 67.117 279.103 67.2276 279.25 67.2276Z" fill="#0C0C0C"/>
<path d="M269.522 65.0169C269.596 65.0169 269.706 64.9801 269.743 64.9064C272.433 61.7741 275.197 63.4324 275.307 63.5061C275.455 63.5798 275.639 63.5429 275.713 63.3955C275.787 63.2481 275.75 63.0639 275.602 62.9902C275.565 62.9533 272.286 60.9634 269.264 64.501C269.153 64.6116 269.19 64.7958 269.301 64.9064C269.375 64.9801 269.448 65.0169 269.522 65.0169Z" fill="#0C0C0C"/>
<path d="M274.608 66.233C274.681 66.233 274.755 66.1961 274.829 66.1593C274.939 66.0487 274.939 65.8645 274.829 65.7539C274.792 65.7171 273.834 64.7958 272.176 65.238C272.028 65.2748 271.918 65.4591 271.954 65.6065C271.991 65.7539 272.176 65.8645 272.323 65.8276C273.613 65.4591 274.35 66.1593 274.387 66.1961C274.46 66.1961 274.534 66.233 274.608 66.233Z" fill="#0C0C0C"/>
<path d="M280.098 63.7644C280.209 63.7644 280.356 63.6908 280.393 63.5434C280.725 62.5115 281.756 62.401 281.793 62.401C281.941 62.401 282.088 62.2536 282.051 62.0693C282.051 61.9219 281.904 61.7745 281.72 61.8114C281.646 61.8114 280.282 61.9219 279.803 63.3591C279.766 63.5065 279.84 63.6908 279.988 63.7276C280.024 63.7645 280.061 63.7644 280.098 63.7644Z" fill="#0C0C0C"/>
<path d="M280.762 70.8028L273.687 70.25C273.687 70.25 273.981 73.9719 277.629 73.8245C281.241 73.6771 280.762 70.8028 280.762 70.8028Z" fill="white"/>
<path d="M263.884 70.1029C263.884 70.1029 262.742 70.2872 263.037 71.061C263.368 71.8717 261.342 71.061 261.305 70.0292C261.342 70.0292 261.563 69.5133 263.884 70.1029Z" fill="#E0AAA4"/>
<path d="M277.776 78.3572C277.776 78.3572 272.138 78.4677 266.537 73.6035L267.016 77.1043C267.016 77.1043 272.802 80.2734 278.292 78.9468L277.776 78.3572Z" fill="#E0AAA4"/>
<path d="M327.082 101.278C327.082 101.278 328.262 96.7819 326.861 93.6865C326.861 93.6865 330.952 98.3665 330.509 101.646L327.082 101.278Z" fill="#E0AAA4"/>
<path d="M376.241 96.3034C376.241 96.3034 376.425 98.9935 373.661 99.3988C373.661 99.3988 377.236 99.9147 378.009 102.421C378.009 102.421 379.741 102.089 380.552 102.421C380.552 102.421 379.741 98.7724 380.184 97.7774C380.147 97.7774 378.525 96.2665 376.241 96.3034Z" fill="#E0AAA4"/>
<path d="M235.694 107.247L234.847 114.617L238.163 113.548C238.163 113.585 236.026 109.458 235.694 107.247Z" fill="#E0AAA4"/>
<path d="M259.277 106.583L262.594 103.451C262.594 103.451 264.547 113.953 263.663 117.528C263.663 117.528 260.899 108.942 259.277 106.583Z" fill="#0F45C2"/>
<path d="M303.13 101.241C303.13 101.241 300.403 93.7602 297.713 90.0752C297.713 90.0752 307.662 97.9611 307.773 101.72L303.13 101.241Z" fill="#0F45C2"/>
<path d="M193.685 119.261C193.685 119.261 192.174 119.519 189.115 118.561L184.988 120.293C184.988 120.293 187.936 123.646 187.936 125.267L190.811 123.83C190.811 123.83 191.548 119.887 194.017 120.256L193.685 119.261Z" fill="#E0AAA4"/>
<path d="M218.816 227.194L221.396 236.996L213.068 238.544H208.388V234.97L211.999 230.4L218.816 227.194Z" fill="#FFD5CD"/>
<path d="M259.793 245.361L264.805 254.463L256.808 258.812L252.755 259.549L251.76 256.122L253.86 251.147L259.793 245.361Z" fill="#FFD5CD"/>
<path d="M211.999 230.4L209.677 237.697C209.677 237.697 214.468 230.216 216.494 231.838C218.521 233.422 219.111 236.444 212.736 240.092C212.736 240.092 202.307 252.289 198.88 253.653C198.88 253.653 196.669 254.206 195.711 253.727L203.118 234.38L211.999 230.4Z" fill="black"/>
<path d="M210.931 245.362C211.078 245.362 211.226 245.252 211.226 245.104C211.226 244.994 211.557 241.935 206.693 239.835C206.546 239.761 206.361 239.835 206.288 239.982C206.214 240.129 206.288 240.314 206.435 240.387C210.857 242.304 210.636 244.957 210.599 245.067C210.636 245.178 210.747 245.325 210.931 245.362C210.931 245.325 210.931 245.362 210.931 245.362Z" fill="#2E9E93"/>
<path d="M209.678 246.615C209.825 246.615 209.973 246.504 209.973 246.357C209.973 246.247 210.304 243.188 205.44 241.088C205.293 241.014 205.108 241.088 205.035 241.235C204.961 241.382 205.035 241.567 205.182 241.64C209.604 243.556 209.383 246.21 209.346 246.32C209.346 246.468 209.457 246.615 209.678 246.615C209.641 246.615 209.641 246.615 209.678 246.615Z" fill="#2E9E93"/>
<path d="M208.388 247.904C208.535 247.904 208.683 247.794 208.683 247.646C208.683 247.536 209.014 244.477 204.15 242.377C204.003 242.303 203.818 242.377 203.745 242.524C203.671 242.671 203.745 242.856 203.892 242.929C208.314 244.846 208.093 247.499 208.056 247.609C208.056 247.72 208.204 247.867 208.388 247.904C208.351 247.904 208.388 247.904 208.388 247.904Z" fill="#2E9E93"/>
<path d="M253.861 251.147V258.812C253.861 258.812 256.183 250.263 258.578 251.147C261.01 252.068 262.484 254.759 257.472 260.139C257.472 260.139 251.208 274.916 248.333 277.237C248.333 277.237 246.38 278.453 245.349 278.232L246.565 257.559L253.861 251.147Z" fill="black"/>
<path d="M256.772 266.44C256.919 266.44 257.066 266.33 257.066 266.182C257.066 266.072 257.398 263.013 252.534 260.913C252.386 260.839 252.202 260.913 252.129 261.06C252.055 261.208 252.129 261.392 252.276 261.465C256.698 263.382 256.477 266.035 256.44 266.145C256.477 266.256 256.587 266.403 256.772 266.44Z" fill="#2E9E93"/>
<path d="M255.52 267.73C255.667 267.73 255.815 267.62 255.815 267.472C255.815 267.362 256.146 264.303 251.282 262.203C251.135 262.129 250.95 262.203 250.877 262.35C250.803 262.498 250.877 262.682 251.024 262.755C255.446 264.672 255.225 267.325 255.188 267.435C255.188 267.546 255.299 267.693 255.52 267.73C255.483 267.73 255.483 267.73 255.52 267.73Z" fill="#2E9E93"/>
<path d="M254.23 268.982C254.377 268.982 254.524 268.872 254.524 268.724C254.524 268.614 254.856 265.555 249.992 263.455C249.844 263.381 249.66 263.455 249.587 263.602C249.513 263.75 249.587 263.934 249.734 264.007C254.156 265.924 253.935 268.577 253.898 268.687C253.935 268.835 254.045 268.982 254.23 268.982Z" fill="#2E9E93"/>
<path d="M220.069 231.506L278.882 214.187C280.209 213.781 281.314 212.86 281.94 211.607C282.53 210.354 282.604 208.917 282.088 207.627C278.329 198.231 269.301 175.568 266.795 168.014C263.626 158.543 268.453 149.588 268.49 149.478L267.827 149.109C267.79 149.22 262.815 158.432 266.095 168.198C268.638 175.789 277.629 198.452 281.388 207.849C281.83 208.954 281.793 210.17 281.277 211.239C280.761 212.307 279.803 213.081 278.698 213.413L219.885 230.733L220.069 231.506Z" fill="#A77A06"/>
<path d="M335.815 42.3169C340.348 41.7273 341.969 47.4759 341.969 47.4759C341.969 47.4759 347.423 45.0069 349.892 48.8393C352.361 52.6717 353.098 57.7202 343.886 63.5057C337.658 67.4118 335.926 65.3114 335.447 63.5794C335.263 62.9161 334.563 62.5845 333.936 62.8793C332.278 63.6531 329.588 63.6531 328.519 56.3936C326.935 45.6334 331.283 42.9433 335.815 42.3169Z" fill="#DF003F"/>
<path d="M343.517 44.1967C343.517 44.1967 345.323 37.3426 340.053 34.6525C340.053 34.6157 335.631 40.438 343.517 44.1967Z" fill="#2E9E93"/>
<path d="M342.669 45.965L347.054 41.5062L345.249 40.4375L342.301 45.1543L342.669 45.965Z" fill="black"/>
<path d="M205.845 292.566C208.904 288.623 214.615 291.903 214.615 291.903C214.615 291.903 217.011 285.786 221.875 286.891C226.739 287.997 231.161 291.387 228.361 302.958C226.481 310.77 223.533 310.476 221.801 309.444C221.175 309.075 220.364 309.37 220.069 310.033C219.369 311.913 217.269 313.976 210.894 309.112C201.423 301.926 202.75 296.509 205.845 292.566Z" fill="#DF003F"/>
<path d="M213.289 288.145C213.289 288.145 209.456 281.401 203.266 283.317C203.266 283.281 204.261 291.24 213.289 288.145Z" fill="#2E9E93"/>
<path d="M213.989 290.172V283.317L211.778 283.87L213.068 289.84L213.989 290.172Z" fill="black"/>
<path d="M327.782 123.424C330.62 124.309 329.993 128.178 329.993 128.178C329.993 128.178 333.899 128.215 334.305 131.163C334.71 134.111 333.752 137.28 326.714 138.128C321.96 138.717 321.518 136.985 321.739 135.843C321.813 135.401 321.481 135.032 321.039 135.032C319.86 135.032 318.238 134.295 319.638 129.726C321.665 122.908 324.982 122.503 327.782 123.424Z" fill="#DF003F"/>
<path d="M331.836 126.63C331.836 126.63 334.784 123.093 332.463 120.034C332.426 120.034 328.225 122.282 331.836 126.63Z" fill="#2E9E93"/>
<path d="M330.841 127.441L334.673 126.041L333.899 124.898L330.841 126.888V127.441Z" fill="black"/>
<path d="M194.938 16.8543C195.823 14.0169 199.692 14.6433 199.692 14.6433C199.692 14.6433 199.729 10.7372 202.677 10.3318C205.625 9.92649 208.794 10.8846 209.642 17.923C210.231 22.6767 208.499 23.1189 207.357 22.8978C206.915 22.8241 206.546 23.1557 206.546 23.5979C206.546 24.7771 205.809 26.3985 201.24 24.9982C194.422 23.0083 194.054 19.6918 194.938 16.8543Z" fill="#DF003F"/>
<path d="M198.144 12.8379C198.144 12.8379 194.606 9.88991 191.548 12.2115C191.585 12.2483 193.796 16.4492 198.144 12.8379Z" fill="#2E9E93"/>
<path d="M198.991 13.8324L197.553 10L196.411 10.7739L198.401 13.8324H198.991Z" fill="black"/>
<path d="M175.076 62.769C173.454 61.0371 170.911 60.4843 168.737 61.4424C166.342 62.4742 163.357 64.501 161.441 68.4071C158.603 74.1557 176.218 84.8055 184.141 89.2275C185.615 90.0382 187.347 88.7116 186.941 87.0533C185.394 81.0467 181.782 69.8811 175.076 62.769Z" fill="#F8BA1D"/>
<path d="M177.986 64.6113C179.128 66.0853 180.123 67.6699 181.045 69.2545L171.132 69.2176L177.986 64.6113Z" fill="#D99D08"/>
<path d="M182.925 72.9023C183.367 73.8604 183.809 74.8186 184.214 75.7767L178.724 75.7398L182.925 72.9023Z" fill="#D99D08"/>
<path d="M163.689 60.3737C162.104 59.0839 159.93 57.6836 157.019 56.5781L156.613 58.568C156.613 58.568 159.488 59.0471 163.099 61.1844C163.652 61.4792 164.168 60.7422 163.689 60.3737Z" fill="#22776E"/>
<path d="M156.798 51.198C156.798 51.198 159.635 50.3504 159.967 52.7457C160.298 55.1409 158.345 55.1409 158.345 55.1409C158.345 55.1409 161.846 57.6468 157.866 60.2263C153.886 62.8058 153.039 60.0789 153.039 60.0789C153.039 60.0789 152.707 61.1844 150.975 61.0001C149.243 60.8159 147.585 57.831 149.464 56.3938C149.464 56.3938 146.959 54.4039 150.054 52.0087C152.634 50.0188 152.855 51.1243 152.855 51.1243C152.855 51.1243 155.692 48.9133 156.798 51.198Z" fill="#2E9E93"/>
<path d="M166.231 61.3316C165.679 60.1892 165.126 58.6415 164.831 56.6885L166.121 56.7253C166.121 56.7253 166.01 58.5678 166.821 61.0736C166.932 61.479 166.416 61.7001 166.231 61.3316Z" fill="#22776E"/>
<path d="M161.551 55.804C161.551 55.804 160.63 57.4254 162.067 57.9782C163.504 58.5309 163.762 57.3149 163.762 57.3149C163.762 57.3149 164.831 59.8207 166.968 57.7202C169.105 55.6198 167.557 54.7354 167.557 54.7354C167.557 54.7354 168.294 54.6985 168.405 53.593C168.516 52.5244 166.931 51.0872 165.789 52.0084C165.789 52.0084 164.904 50.1659 163.025 51.7505C161.44 53.0771 162.104 53.3351 162.104 53.3351C162.104 53.3351 160.298 54.8459 161.551 55.804Z" fill="#2E9E93"/>
<path d="M382.064 142.182L360.58 150.731C360.58 150.731 369.756 156.995 378.158 153.31C386.559 149.625 382.064 142.182 382.064 142.182Z" fill="#A77A06"/>
<path d="M360.543 150.731C360.543 150.731 358.037 147.93 354.72 148.888C351.404 149.883 356.452 152.131 356.452 152.131C356.452 152.131 355.163 155.632 356.821 156.074C358.516 156.516 360.543 150.731 360.543 150.731Z" fill="#A77A06"/>
<path d="M376.535 147.23C377.818 147.23 378.857 146.191 378.857 144.908C378.857 143.626 377.818 142.587 376.535 142.587C375.253 142.587 374.214 143.626 374.214 144.908C374.214 146.191 375.253 147.23 376.535 147.23Z" fill="#FAC84E"/>
<path d="M372.63 147.525C372.63 147.525 372.814 150.289 375.246 152.5C375.246 152.5 371.598 151.137 372.63 147.525Z" fill="#D99D08"/>
<path d="M369.755 147.967C369.755 147.967 369.94 150.731 372.372 152.942C372.372 152.942 368.76 151.578 369.755 147.967Z" fill="#D99D08"/>
<path d="M222.207 208.659L209.567 189.312C209.567 189.312 205.256 199.557 210.525 207.037C215.832 214.555 222.207 208.659 222.207 208.659Z" fill="#A77A06"/>
<path d="M209.567 189.313C209.567 189.313 211.815 186.291 210.193 183.232C208.572 180.211 207.356 185.554 207.356 185.554C207.356 185.554 203.671 184.964 203.56 186.733C203.487 188.465 209.567 189.313 209.567 189.313Z" fill="#A77A06"/>
<path d="M218.411 206.117C219.694 206.117 220.733 205.077 220.733 203.795C220.733 202.513 219.694 201.474 218.411 201.474C217.129 201.474 216.09 202.513 216.09 203.795C216.09 205.077 217.129 206.117 218.411 206.117Z" fill="#FAC84E"/>
<path d="M215.094 200.478C215.094 200.478 212.441 201.215 210.746 204.053C210.746 204.053 211.336 200.22 215.094 200.478Z" fill="#D99D08"/>
<path d="M214.099 197.752C214.099 197.752 211.446 198.489 209.751 201.326C209.751 201.326 210.341 197.494 214.099 197.752Z" fill="#D99D08"/>
<path d="M333.457 298.426L335.152 300.637C335.152 300.637 333.162 303.069 330.104 302L330.14 298.536L333.457 298.426Z" fill="#22776E"/>
<path d="M334.268 284.018C331.799 283.76 326.308 284.46 326.271 295.81C326.271 295.81 330.73 299.863 332.389 295.073C333.863 290.872 333.126 286.818 334.636 284.939C334.968 284.607 334.71 284.092 334.268 284.018Z" fill="#22776E"/>
<path d="M322.513 286.744C322.255 286.265 322.329 285.713 322.624 285.307C322.513 285.197 322.402 285.086 322.292 284.939C321.96 284.349 322.144 283.649 322.624 283.281C322.513 283.17 322.439 283.059 322.366 282.949C322.071 282.396 322.181 281.733 322.66 281.327C322.513 281.217 322.366 281.07 322.255 280.885C321.923 280.296 322.108 279.559 322.66 279.153C322.402 278.564 322.66 277.864 323.25 277.532C323.324 277.495 323.397 277.458 323.471 277.421C323.434 276.905 323.655 276.39 324.134 276.132C324.355 276.021 324.54 275.984 324.761 275.984C324.835 275.947 324.908 275.911 324.982 275.874C325.092 275.763 325.203 275.653 325.35 275.579C325.866 275.284 326.456 275.395 326.861 275.763C327.377 275.726 327.856 275.947 328.114 276.426C328.151 276.537 328.225 276.648 328.225 276.721C328.741 276.684 329.257 276.905 329.515 277.385C329.625 277.606 329.699 277.827 329.662 278.048C330.104 278.158 330.509 278.49 330.62 278.969C330.694 279.227 330.694 279.448 330.62 279.669C331.136 279.706 331.615 280.075 331.762 280.627C331.836 280.959 331.799 281.254 331.689 281.549C331.947 281.733 332.131 281.991 332.241 282.286C332.315 282.507 332.315 282.765 332.241 282.986C332.61 283.133 332.868 283.428 332.978 283.833C333.052 284.091 333.052 284.349 332.942 284.57C333.31 284.718 333.642 285.013 333.752 285.455C333.9 286.044 333.642 286.671 333.089 286.966C333.236 287.629 333.384 288.329 333.531 289.066L330.104 295.736L324.429 292.972C324.429 292.972 323.766 290.43 323.287 287.26C322.992 287.26 322.697 287.076 322.513 286.744Z" fill="#F8BA1D"/>
<path d="M328.224 296.436C328.298 296.436 328.335 296.362 328.372 296.326L331.799 289.656C331.836 289.619 331.836 289.545 331.836 289.508C331.725 288.845 331.578 288.182 331.43 287.555C331.946 287.187 332.204 286.523 332.057 285.897C331.946 285.492 331.688 285.16 331.32 284.939C331.357 284.718 331.357 284.497 331.283 284.239C331.172 283.833 330.914 283.502 330.583 283.317C330.62 283.096 330.62 282.912 330.546 282.691C330.472 282.396 330.288 282.138 330.067 281.917C330.177 281.622 330.177 281.328 330.104 281.033C329.956 280.48 329.551 280.075 328.998 279.927C329.035 279.743 328.998 279.522 328.961 279.338C328.814 278.859 328.482 278.453 328.003 278.269C327.966 278.048 327.93 277.864 327.819 277.679C327.561 277.2 327.045 276.906 326.492 276.869C326.456 276.795 326.456 276.758 326.419 276.684C326.124 276.169 325.534 275.837 324.945 275.911C324.797 275.911 324.724 276.021 324.724 276.169C324.724 276.316 324.834 276.39 324.982 276.39C325.387 276.353 325.792 276.574 326.013 276.942C326.05 277.016 326.087 277.09 326.124 277.2C326.161 277.311 326.271 277.385 326.382 277.385C326.824 277.348 327.229 277.569 327.414 277.937C327.487 278.085 327.561 278.269 327.561 278.49C327.561 278.601 327.635 278.711 327.745 278.711C328.151 278.785 328.445 279.08 328.556 279.485C328.593 279.669 328.593 279.89 328.556 280.075C328.519 280.148 328.556 280.222 328.593 280.259C328.63 280.333 328.703 280.369 328.777 280.369C329.219 280.406 329.588 280.738 329.735 281.143C329.809 281.401 329.772 281.659 329.662 281.88C329.625 281.991 329.662 282.101 329.735 282.175C329.956 282.323 330.104 282.544 330.177 282.802C330.214 282.986 330.214 283.17 330.177 283.354C330.141 283.465 330.214 283.575 330.325 283.649C330.62 283.797 330.841 284.055 330.951 284.349C330.988 284.57 330.988 284.755 330.951 284.976C330.914 285.086 330.988 285.234 331.099 285.271C331.43 285.381 331.651 285.676 331.762 286.008C331.909 286.487 331.651 287.003 331.209 287.224C331.099 287.26 331.062 287.371 331.099 287.482C331.246 288.145 331.394 288.808 331.504 289.508L328.114 296.141C328.04 296.252 328.114 296.399 328.224 296.473C328.114 296.436 328.188 296.436 328.224 296.436Z" fill="#D99D08"/>
<path d="M331.135 293.599L325.903 290.245C325.866 290.208 325.829 290.171 325.792 290.135C325.608 289.619 325.424 289.103 325.276 288.587C324.76 288.55 324.281 288.145 324.134 287.629C324.06 287.297 324.097 286.929 324.281 286.634C324.171 286.486 324.06 286.339 324.023 286.155C323.949 285.823 323.986 285.491 324.134 285.197C324.023 285.049 323.949 284.902 323.913 284.755C323.839 284.497 323.839 284.239 323.913 284.018C323.728 283.833 323.581 283.612 323.507 283.391C323.397 282.949 323.507 282.47 323.839 282.138C323.765 282.028 323.692 281.88 323.655 281.733C323.544 281.327 323.655 280.885 323.913 280.554C323.839 280.406 323.802 280.222 323.802 280.075C323.802 279.596 324.023 279.19 324.392 278.932C324.392 278.895 324.392 278.822 324.392 278.785C324.392 278.269 324.686 277.79 325.166 277.569C325.276 277.495 325.423 277.569 325.497 277.679C325.571 277.79 325.497 277.937 325.387 278.011C325.092 278.158 324.908 278.453 324.908 278.785C324.908 278.859 324.908 278.932 324.944 279.006C324.981 279.116 324.908 279.227 324.797 279.301C324.502 279.448 324.281 279.743 324.281 280.075C324.281 280.222 324.318 280.369 324.392 280.48C324.465 280.59 324.429 280.701 324.355 280.775C324.134 280.996 324.023 281.291 324.134 281.622C324.171 281.77 324.244 281.917 324.355 282.028C324.392 282.064 324.429 282.138 324.429 282.212C324.429 282.286 324.392 282.359 324.318 282.396C324.023 282.617 323.913 282.949 323.986 283.317C324.023 283.502 324.171 283.686 324.318 283.796C324.429 283.87 324.465 283.981 324.392 284.091C324.318 284.275 324.281 284.497 324.318 284.681C324.355 284.828 324.429 284.976 324.539 285.049C324.613 285.123 324.65 285.27 324.576 285.344C324.429 285.565 324.355 285.823 324.429 286.081C324.465 286.229 324.576 286.376 324.686 286.486C324.797 286.56 324.797 286.708 324.723 286.818C324.539 287.039 324.502 287.297 324.576 287.555C324.686 287.924 325.018 288.182 325.423 288.182C325.534 288.182 325.645 288.255 325.645 288.366C325.792 288.882 325.976 289.434 326.197 289.987L331.356 293.304C331.467 293.377 331.504 293.525 331.43 293.635C331.393 293.672 331.356 293.709 331.283 293.746C331.246 293.635 331.172 293.635 331.135 293.599Z" fill="#D99D08"/>
<path d="M336.7 285.602C333.973 285.307 327.967 286.118 327.93 298.573C327.93 298.573 332.794 303.032 334.636 297.762C336.258 293.156 335.447 288.697 337.105 286.634C337.437 286.228 337.179 285.675 336.7 285.602Z" fill="#2E9E93"/>
<path d="M319.343 288.771C321.554 287.15 327.156 284.828 333.457 295.552C333.457 295.552 331.467 301.853 327.229 298.205C323.507 295.036 321.997 290.761 319.491 289.84C319.049 289.656 318.975 289.029 319.343 288.771Z" fill="#2E9E93"/>
<path d="M329.367 290.135C329.367 290.135 328.188 293.783 328.077 295.22V289.029L329.367 290.135Z" fill="#22776E"/>
<path d="M234.147 169.081H238.127C238.532 169.081 238.827 168.713 238.753 168.307L237.5 162.338C237.5 162.301 237.5 162.301 237.5 162.264C237.463 161.748 237.095 156.294 238.458 153.678C238.716 153.236 238.311 152.683 237.795 152.757L235.953 153.051C235.695 153.088 235.473 153.309 235.437 153.567C235.289 154.304 235.031 155.852 235.031 157.473C235.031 158.174 234.11 158.358 233.815 157.731C233.52 157.068 233.262 156.184 233.115 155.078C233.078 154.71 232.747 154.489 232.415 154.525C232.083 154.562 231.862 154.857 231.862 155.189C231.899 155.705 231.936 156.515 232.046 157.289C232.157 157.989 231.236 158.321 230.867 157.695C230.757 157.51 230.646 157.289 230.572 157.068C230.462 156.7 230.057 156.552 229.688 156.7L229.614 156.736C229.283 156.884 229.135 157.326 229.32 157.621C229.946 158.69 231.309 160.864 232.673 161.564C232.857 161.674 232.968 161.859 233.005 162.08L233.484 168.529C233.52 168.823 233.815 169.081 234.147 169.081Z" fill="#88DDD4"/>
<path d="M243.654 150.288C243.838 149.809 243.949 149.256 243.949 148.704C243.949 146.419 242.106 144.576 239.822 144.576C238.79 144.576 237.868 144.945 237.131 145.571C236.652 143.802 235.068 142.513 233.152 142.513C230.867 142.513 229.024 144.355 229.024 146.64C229.024 146.677 229.024 146.714 229.024 146.75C228.73 146.677 228.398 146.64 228.103 146.64C225.818 146.64 223.976 148.482 223.976 150.767C223.976 151.209 224.05 151.652 224.197 152.057C223.497 152.794 223.055 153.789 223.055 154.894C223.055 157.179 224.897 159.022 227.182 159.022C228.803 159.022 230.204 158.1 230.867 156.737C231.309 156.884 231.751 156.958 232.23 156.958C233.41 156.958 234.441 156.479 235.215 155.705C235.842 156.074 236.542 156.258 237.316 156.258C237.574 156.258 237.868 156.221 238.126 156.184C238.863 157.216 240.079 157.879 241.443 157.879C243.728 157.879 245.57 156.037 245.57 153.752C245.533 152.278 244.796 151.025 243.654 150.288Z" fill="#39C6BB"/>
<path d="M361.795 211.791L364.375 214.849C364.632 215.144 365.112 215.144 365.37 214.849L369.165 210.059C369.165 210.022 369.202 210.022 369.202 209.985C369.57 209.616 373.513 205.821 376.425 205.231C376.94 205.121 377.088 204.494 376.719 204.126L375.319 202.873C375.098 202.689 374.84 202.652 374.582 202.799C373.919 203.168 372.592 203.978 371.339 205.01C370.823 205.452 370.049 204.863 370.344 204.236C370.676 203.573 371.155 202.799 371.929 201.988C372.187 201.73 372.15 201.325 371.892 201.067C371.634 200.846 371.266 200.846 371.044 201.067C370.676 201.399 370.086 201.952 369.534 202.578C369.055 203.094 368.244 202.615 368.465 201.952C368.539 201.73 368.649 201.509 368.76 201.325C368.944 200.993 368.833 200.588 368.465 200.404L368.391 200.367C368.06 200.22 367.654 200.367 367.544 200.736C367.138 201.878 366.328 204.347 366.659 205.858C366.696 206.079 366.622 206.3 366.475 206.447L361.832 210.943C361.611 211.164 361.574 211.533 361.795 211.791Z" fill="#88DDD4"/>
<path d="M382.321 207C382.837 206.853 383.316 206.595 383.721 206.227C385.453 204.753 385.711 202.173 384.237 200.404C383.574 199.63 382.689 199.151 381.768 198.967C382.837 197.493 382.8 195.393 381.547 193.955C380.073 192.223 377.493 191.966 375.724 193.44C375.688 193.476 375.688 193.476 375.651 193.513C375.503 193.255 375.356 192.96 375.135 192.739C373.661 191.007 371.081 190.749 369.313 192.223C368.981 192.518 368.686 192.85 368.465 193.218C367.433 193.145 366.401 193.476 365.554 194.177C363.822 195.651 363.564 198.23 365.038 199.999C366.07 201.252 367.691 201.731 369.165 201.362C369.313 201.768 369.57 202.173 369.865 202.542C370.602 203.426 371.671 203.942 372.74 204.016C372.85 204.716 373.145 205.416 373.661 206.005C373.845 206.227 374.029 206.411 374.25 206.558C373.956 207.774 374.214 209.138 375.098 210.206C376.572 211.938 379.152 212.196 380.92 210.722C381.989 209.764 382.505 208.364 382.321 207Z" fill="#39C6BB"/>
<path d="M282.862 19.3968L285.773 18.4387C286.068 18.3282 286.215 17.9965 286.031 17.7386L283.709 13.6851C283.709 13.6851 283.672 13.6482 283.672 13.6114C283.525 13.2429 281.94 9.33674 282.346 7.12572C282.42 6.72037 282.014 6.42557 281.646 6.60982L280.356 7.27312C280.172 7.38367 280.061 7.56792 280.098 7.78902C280.172 8.34178 280.356 9.55783 280.724 10.737C280.872 11.2529 280.245 11.6214 279.914 11.2161C279.545 10.8107 279.14 10.2211 278.771 9.44728C278.661 9.18933 278.366 9.07878 278.108 9.22618C277.887 9.33673 277.776 9.59468 277.85 9.85264C277.998 10.2211 278.219 10.8107 278.477 11.3635C278.698 11.8425 278.108 12.2848 277.703 11.9531C277.555 11.8426 277.445 11.6951 277.334 11.5846C277.15 11.3635 276.818 11.3266 276.597 11.5109L276.56 11.5477C276.339 11.732 276.339 12.0636 276.56 12.2479C277.261 12.8744 278.771 14.1273 279.951 14.3115C280.098 14.3484 280.245 14.4589 280.319 14.6063L282.198 19.1757C282.383 19.36 282.641 19.4705 282.862 19.3968Z" fill="#88DDD4"/>
<path d="M285.294 3.40351C285.331 2.99816 285.294 2.59281 285.147 2.18746C284.594 0.529199 282.825 -0.392055 281.167 0.160697C280.43 0.418649 279.84 0.897694 279.435 1.52415C278.661 0.344942 277.187 -0.207811 275.787 0.234391C274.128 0.787144 273.207 2.55596 273.76 4.21422C273.76 4.25107 273.797 4.25106 273.797 4.28791C273.576 4.32476 273.318 4.36161 273.097 4.43531C271.438 4.98806 270.517 6.75688 271.07 8.41514C271.18 8.74679 271.328 9.04159 271.512 9.29954C271.18 9.99969 271.107 10.8472 271.365 11.6211C271.917 13.2794 273.686 14.2006 275.345 13.6479C276.524 13.2794 277.334 12.2476 277.482 11.1052C277.813 11.1052 278.182 11.0683 278.514 10.9578C279.361 10.663 280.024 10.0734 280.393 9.33639C280.909 9.44694 281.498 9.44694 282.051 9.26269C282.235 9.18898 282.457 9.11529 282.604 9.00474C283.378 9.55749 284.446 9.77859 285.441 9.44694C287.1 8.89418 288.021 7.12538 287.468 5.46712C287.173 4.43532 286.326 3.69831 285.294 3.40351Z" fill="#39C6BB"/>
<defs>
<linearGradient id="paint0_linear" x1="-17.6117" y1="375.974" x2="344.094" y2="187.871" gradientUnits="userSpaceOnUse">
<stop stop-color="#88DED4" stop-opacity="0.5"/>
<stop offset="0.5922" stop-color="#88DED4"/>
<stop offset="1" stop-color="#759CF6"/>
</linearGradient>
</defs>
</svg>
