<svg width="313" height="163" viewBox="0 0 313 163" fill="none" xmlns="http://www.w3.org/2000/svg">
<path d="M282.031 0.0927734H30.9686C13.8739 0.0927734 0 13.9667 0 31.0614V130.842C0 147.937 13.8739 161.811 30.9686 161.811H282.031C299.126 161.811 313 147.937 313 130.842V31.0614C313 13.9357 299.126 0.0927734 282.031 0.0927734Z" fill="#A5BEF8"/>
<path d="M228.363 161.811L253.169 147.38C271.193 136.881 278.285 114.429 269.583 95.4762L225.7 0.0927734H133.259L82.7799 29.513C62.0618 41.5907 56.3017 68.9361 70.4234 88.3224L123.999 161.501L228.363 161.811Z" fill="#0F45C2"/>
<path d="M246.788 147.318C264.812 136.819 271.904 114.367 263.202 95.4144L219.319 0H126.878L76.399 29.4202C55.681 41.498 49.9208 68.8433 64.0425 88.2297L117.556 161.811H221.859L246.788 147.318Z" fill="#4779F1"/>
<path d="M172.836 29.451C162.121 11.0866 139.08 4.39735 120.313 13.7808C102.909 25.456 97.3344 48.8373 108.05 67.2017C109.97 70.5154 114.212 71.6303 117.526 69.7102L170.327 38.9583C173.641 36.9763 174.756 32.7337 172.836 29.451Z" fill="white"/>
<path d="M136.169 52.5231L114.801 29.0799L116.504 28.0889L140.66 47.2275L136.169 52.5231Z" fill="#0F45C2"/>
<path d="M144.623 67.2642C151.909 67.2642 157.816 61.3576 157.816 54.0715C157.816 46.7855 151.909 40.8789 144.623 40.8789C137.337 40.8789 131.431 46.7855 131.431 54.0715C131.431 61.3576 137.337 67.2642 144.623 67.2642Z" fill="#4779F1"/>
<path d="M227.527 126.384C236.384 118.92 240.41 108.391 236.973 100.184L232.049 88.416L227.527 126.384Z" fill="#F7B91F"/>
<path d="M142.889 54.3505C144.702 54.3505 146.172 52.8808 146.172 51.0678C146.172 49.2549 144.702 47.7852 142.889 47.7852C141.076 47.7852 139.606 49.2549 139.606 51.0678C139.606 52.8808 141.076 54.3505 142.889 54.3505Z" fill="white"/>
<path d="M244.064 99.8739L220.745 44.0374C215.542 31.588 197.239 28.8318 181.322 38.1224L115.885 76.2448C99.905 85.5664 93.3087 102.909 101.67 113.562L139.111 161.192C139.173 161.285 139.452 161.78 139.514 161.873H178.844L227.589 133.351C241.463 125.206 248.616 110.744 244.064 99.8739Z" fill="#0F45C2"/>
<path d="M124.154 77.7L118.61 124.339L130.131 138.987L138.43 69.4004L124.154 77.7Z" fill="#A5BEF8"/>
<path d="M140.938 67.9448L132.174 141.557L142.858 155.122C143.137 155.462 143.415 155.803 143.725 156.144L155.184 59.6143L140.938 67.9448Z" fill="#A5BEF8"/>
<path d="M157.693 58.1902L145.801 158.033C149.207 160.573 153.791 161.811 158.715 161.842L171.969 49.8906L157.693 58.1902Z" fill="#A5BEF8"/>
<path d="M216.037 50.0761C214.272 45.8643 210.835 42.8913 206.468 41.25L193.926 146.574L208.202 138.275L218.112 55.031L216.037 50.0761Z" fill="#A5BEF8"/>
<path d="M180.702 44.781L174.446 48.4353L160.913 161.811C165.404 161.471 170.142 160.139 174.663 157.755L188.537 41.3125C185.936 42.1177 183.272 43.2635 180.702 44.781Z" fill="#A5BEF8"/>
<path d="M109.227 112.416L116.597 121.768L121.676 79.1553C107.585 87.5478 101.794 102.939 109.227 112.416Z" fill="#A5BEF8"/>
<path d="M190.953 40.6617L177.172 156.36L191.448 148.061L204.269 40.5997C200.244 39.5778 195.66 39.5778 190.953 40.6617Z" fill="#A5BEF8"/>
<path d="M219.94 59.3672L210.711 136.851L222.2 130.161C223.16 129.604 224.12 128.985 225.018 128.365L230.252 84.0802L219.94 59.3672Z" fill="#F7B91F"/>
<path d="M221.643 70.0202C219.723 62.9903 234.557 60.2031 234.557 60.2031C237.871 65.9323 240.751 72.7764 242.361 80.7663C245.427 96.0648 246.108 114.832 244.963 129.914L238.304 113.934C238.304 113.934 223.563 77.0501 221.643 70.0202Z" fill="#1A1A1A"/>
<path d="M197.859 92.4728C195.505 85.9074 194.979 77.9485 195.35 70.2683C199.376 68.9986 207.676 67.0476 209.348 72.2813C211.547 79.2492 219.165 118.239 219.165 118.239L223.067 139.762L209.008 134.373C208.048 130.471 207.18 125.981 206.468 120.809C206.468 120.809 204.92 112.107 197.859 92.4728Z" fill="#1A1A1A"/>
<path d="M219.134 118.238C219.134 118.238 211.516 79.2488 209.317 72.2809C207.676 67.0472 199.345 68.9982 195.319 70.2679C196.032 55.0313 200.15 40.9096 200.15 40.9096C200.15 40.9096 203.34 32.4552 212.197 36.8527C212.197 36.8527 225.204 44.1923 234.495 60.2031C234.495 60.2031 219.661 62.9903 221.581 70.0202C223.501 77.05 238.242 113.934 238.242 113.934L244.869 129.913C243.723 144.747 240.812 156.051 236.662 157.042C229.292 158.807 216.161 163.422 208.976 134.342L223.036 139.731L219.134 118.238Z" fill="black"/>
<path d="M231.955 107.368L278.532 161.811H233.008L232.358 160.944C225.08 152.087 220.558 141.279 219.382 129.882C218.793 124.153 218.762 118.021 220.032 112.509C222.788 100.586 231.955 107.368 231.955 107.368Z" fill="#FFD5CD"/>
<path d="M223.098 74.5723L241.586 123.379C242.453 125.825 242.268 128.582 240.998 130.842C240.255 132.174 239.14 133.413 237.375 134.063C232.389 135.952 225.39 134.93 222.665 129.232C219.939 123.503 210.463 76.771 210.463 76.771L223.098 74.5723Z" fill="black"/>
<path d="M220.744 83.3055C226.381 81.4164 228.796 78.6292 228.951 78.4434C229.571 77.7002 229.478 76.6163 228.734 75.9969C227.991 75.3775 226.907 75.4704 226.288 76.1827C226.195 76.2756 220.899 82.0977 207.242 81.4783C206.282 81.4474 205.477 82.1906 205.415 83.1506C205.384 84.1107 206.127 84.9158 207.087 84.9778C212.909 85.2255 217.4 84.4204 220.744 83.3055Z" fill="#2E9E93"/>
<path d="M223.718 92.1629C229.354 90.2738 231.77 87.4866 231.925 87.3008C232.544 86.5576 232.451 85.4737 231.708 84.8543C230.965 84.2349 229.881 84.3278 229.261 85.0401C229.169 85.164 223.873 90.9551 210.216 90.3358C209.256 90.3048 208.451 91.048 208.389 92.008C208.358 92.9681 209.101 93.7733 210.061 93.8352C215.852 94.083 220.343 93.2778 223.718 92.1629Z" fill="#2E9E93"/>
<path d="M226.66 100.989C232.296 99.1 234.711 96.3128 234.866 96.127C235.486 95.3838 235.393 94.2998 234.649 93.6805C233.906 93.0611 232.822 93.154 232.203 93.8663C232.11 93.9592 226.814 99.7813 213.157 99.1619C212.197 99.131 211.392 99.8742 211.33 100.834C211.299 101.794 212.042 102.599 213.002 102.661C218.824 102.909 223.315 102.104 226.66 100.989Z" fill="#2E9E93"/>
<path d="M111.486 109.567C105.912 104.891 97.1787 117.216 97.1787 117.216C100.988 122.636 106.005 128.086 112.601 132.886C125.205 142.084 141.99 150.507 156.174 155.741L144.437 143.044C144.437 143.044 117.061 114.243 111.486 109.567Z" fill="#1A1A1A"/>
<path d="M141.805 97.3345C136.819 92.4415 129.789 88.6633 122.666 85.7832C119.817 88.911 114.583 95.6622 118.671 99.3475C124.06 104.241 156.329 127.436 156.329 127.436L174.26 139.978L175.22 124.959C172.092 122.45 168.376 119.818 163.947 116.969C163.947 116.969 156.7 111.921 141.805 97.3345Z" fill="#1A1A1A"/>
<path d="M156.329 127.405C156.329 127.405 124.06 104.209 118.671 99.3162C114.614 95.6309 119.848 88.8798 122.666 85.7519C108.545 80.0537 93.9893 77.9169 93.9893 77.9169C93.9893 77.9169 84.9774 77.2975 85.2871 87.1765C85.2871 87.1765 86.5258 102.072 97.1791 117.185C97.1791 117.185 105.881 104.86 111.487 109.536C117.061 114.212 144.437 143.013 144.437 143.013L156.174 155.71C170.141 160.882 181.631 162.926 184.263 159.581C188.939 153.604 198.632 143.632 175.22 124.927L174.26 139.947L156.329 127.405Z" fill="black"/>
<path d="M141.093 134.527L153.759 162.12L192.16 161.811L189.652 157.258C184.635 146.946 176.707 138.336 166.859 132.483C161.904 129.541 156.33 126.971 150.817 125.825C138.77 123.348 141.093 134.527 141.093 134.527Z" fill="#FFD5CD"/>
<path d="M114.986 112.787L151.622 149.98C153.511 151.777 156.051 152.768 158.652 152.582C160.17 152.458 161.749 151.962 163.081 150.631C166.89 146.884 168.872 140.101 164.815 135.239C160.758 130.377 122.233 102.258 122.233 102.258L114.986 112.787Z" fill="black"/>
<path d="M123.936 114.305C119.879 118.64 116.318 119.662 116.07 119.724C115.141 119.972 114.181 119.446 113.933 118.517C113.685 117.587 114.212 116.627 115.141 116.38C115.265 116.349 122.759 113.964 127.931 101.267C128.303 100.369 129.325 99.9354 130.192 100.307C131.09 100.679 131.523 101.701 131.152 102.568C128.953 107.956 126.352 111.703 123.936 114.305Z" fill="#2E9E93"/>
<path d="M130.718 120.685C126.661 125.02 123.1 126.042 122.852 126.104C121.923 126.352 120.963 125.825 120.715 124.896C120.468 123.967 120.994 123.007 121.923 122.76C122.078 122.729 129.572 120.344 134.713 107.647C135.085 106.749 136.107 106.315 136.974 106.687C137.872 107.059 138.306 108.08 137.934 108.948C135.735 114.367 133.134 118.114 130.718 120.685Z" fill="#2E9E93"/>
<path d="M137.531 127.065C133.474 131.4 129.912 132.422 129.665 132.484C128.736 132.732 127.776 132.205 127.528 131.276C127.28 130.347 127.807 129.387 128.736 129.139C128.86 129.109 136.354 126.724 141.526 114.027C141.897 113.129 142.919 112.695 143.786 113.067C144.684 113.438 145.118 114.46 144.746 115.327C142.548 120.747 139.946 124.494 137.531 127.065Z" fill="#2E9E93"/>
</svg>
