<svg width="314" height="250" viewBox="0 0 314 250" fill="none" xmlns="http://www.w3.org/2000/svg">
<path d="M276.578 230.249H37.2621C16.6748 230.249 0 213.574 0 192.987V37.2621C0 16.6748 16.6748 0 37.2621 0H276.578C297.165 0 313.84 16.6748 313.84 37.2621V192.987C313.84 213.574 297.134 230.249 276.578 230.249Z" fill="#AFC1EC"/>
<path d="M164.295 56.9799L180.163 28.4123C183.05 23.1957 191.031 25.3072 190.906 31.3002L190.379 63.9666C190.316 68.4691 195.223 71.2948 199.073 68.997L227.082 52.198C232.205 49.1239 238.043 54.9616 234.969 60.0851L218.17 88.0938C215.841 91.9442 218.698 96.8504 223.2 96.7883L255.867 96.2604C261.829 96.1673 263.971 104.116 258.755 107.004L230.187 122.872C226.243 125.045 226.243 130.728 230.187 132.901L258.755 148.769C263.971 151.657 261.86 159.637 255.867 159.513L223.2 158.985C218.698 158.923 215.872 163.829 218.17 167.679L234.969 195.688C238.043 200.812 232.205 206.649 227.082 203.575L199.073 186.776C195.223 184.447 190.316 187.304 190.379 191.807L190.906 224.473C191 230.435 183.05 232.578 180.163 227.361L164.295 198.793C162.122 194.85 156.439 194.85 154.265 198.793L138.398 227.361C135.51 232.578 127.53 230.466 127.654 224.473L128.182 191.807C128.244 187.304 123.338 184.478 119.487 186.776L91.4788 203.544C86.3552 206.618 80.5175 200.781 83.5916 195.657L100.391 167.648C102.72 163.798 99.8628 158.892 95.3603 158.954L62.6938 159.482C56.7319 159.575 54.5893 151.626 59.806 148.738L88.3736 132.87C92.3172 130.697 92.3172 125.014 88.3736 122.841L59.806 106.973C54.5893 104.085 56.7008 96.1052 62.6938 96.2294L95.3603 96.7572C99.8628 96.8193 102.688 91.9132 100.391 88.0627L83.5916 60.0541C80.5175 54.9305 86.3552 49.0928 91.4788 52.1669L119.487 68.9659C123.338 71.2948 128.244 68.438 128.182 63.9355L127.654 31.2691C127.561 25.3072 135.51 23.1646 138.398 28.3813L154.265 56.9489C156.439 60.9235 162.122 60.9235 164.295 56.9799Z" fill="#759CF5"/>
<path d="M202.644 88.1875C202.644 88.1875 214.443 98.1241 218.48 105.887C222.517 113.65 206.68 151.533 206.68 151.533L202.644 88.1875Z" fill="#4779F1"/>
<path d="M203.42 92.5029C203.514 92.8445 218.294 116.475 218.294 116.475C218.294 116.475 215.531 129.237 213.667 132.839C211.804 136.441 195.844 110.233 195.844 110.233L203.42 92.5029Z" fill="#0F45C2"/>
<path d="M71.6359 218.355C60.5504 230.838 80.5167 237.359 92.2232 236.521L90.9501 231.614C90.9501 231.614 71.3565 232.111 73.1885 220.312C73.499 218.324 74.3064 216.616 75.4863 215.157L75.4242 215.126C74.089 215.964 72.8159 217.051 71.6359 218.355Z" fill="white"/>
<path d="M101.57 215.529L102.067 211.4C96.1979 207.239 81.5725 207.953 75.6416 215.002C86.6339 208.046 101.57 215.529 101.57 215.529Z" fill="white"/>
<path d="M75.4238 215.095L75.4859 215.126C75.517 215.064 75.5791 215.033 75.6101 214.971C75.548 215.033 75.4859 215.064 75.4238 215.095Z" fill="#4978F3"/>
<path d="M279.031 173.89C287.104 159.295 266.207 157.277 254.966 160.693L257.295 165.195C257.295 165.195 276.298 160.413 277.106 172.337C277.23 174.356 276.826 176.188 275.988 177.864L276.05 177.895C277.168 176.778 278.161 175.442 279.031 173.89Z" fill="white"/>
<path d="M250.463 183.205L250.898 187.335C257.512 190.099 271.64 186.186 275.894 178.051C266.672 187.242 250.463 183.205 250.463 183.205Z" fill="white"/>
<path d="M276.05 177.895L275.988 177.864C275.957 177.926 275.926 177.988 275.895 178.051C275.957 177.988 276.019 177.957 276.05 177.895Z" fill="#4978F3"/>
<path d="M199.539 159.606L238.043 165.506L254.252 149.856C255.37 148.769 257.264 149.576 257.233 151.129C257.233 152.371 256.954 153.954 256.053 155.88L257.637 155.196C259.624 154.327 261.922 154.979 263.164 156.749L266.238 161.127C266.704 161.779 266.952 162.525 267.014 163.301L267.263 166.561C267.418 168.518 266.3 170.381 264.499 171.188L258.32 173.89C256.612 174.635 254.594 174.169 253.414 172.71L252.637 171.747L251.892 172.648C249.284 175.908 245.092 177.492 240.993 176.715L237.422 176.063L198.297 177.926L199.539 159.606Z" fill="#FFD5CD"/>
<path d="M120.667 162.401L121.599 180.721L112.904 219.847L121.909 223.262L141.782 186.311L139.298 156.812L120.667 162.401Z" fill="#FFD5CD"/>
<path d="M113.835 113.339C113.835 113.339 111.662 135.696 117.872 165.816L143.024 169.232L126.256 110.544L113.835 113.339Z" fill="#4779F1"/>
<path d="M216.214 230.714C216.214 230.714 212.27 206.493 208.233 202.457C204.197 198.42 208.233 187.552 204.197 174.2L212.394 143.52C214.133 136.969 214.133 130.075 212.332 123.554L202.644 88.1862L192.086 85.2363L140.447 95.235C140.447 95.235 127.809 99.6754 113.836 113.338C113.836 113.338 126.878 126.069 138.677 165.195L134.33 230.714H216.214Z" fill="#4779F1"/>
<path d="M147.372 53.3154L151.999 87.9071L140.479 95.2042C140.479 95.2042 156.998 109.799 173.921 108.65C190.844 107.501 192.118 85.2056 192.118 85.2056L175.846 81.0136L159.7 61.3889L147.372 53.3154Z" fill="#FFD5CD"/>
<path d="M177.616 37.2617C177.616 37.2617 182.212 33.815 184.354 36.7649C186.497 39.7148 186 46.1115 181.87 47.3846C177.74 48.6577 177.616 37.2617 177.616 37.2617Z" fill="#E0AAA4"/>
<path d="M180.286 39.6533C180.286 39.6533 199.662 34.654 184.261 16.0229C171.561 0.652307 155.29 3.38486 142.341 9.50206C130.541 15.0603 124.89 22.8233 126.66 32.6356C126.66 32.6356 110.73 46.671 139.329 61.4827L180.286 39.6533Z" fill="black"/>
<path d="M177.989 34.2813C177.989 34.2813 191.342 60.7684 179.045 76.0459C179.045 76.0459 160.725 79.0268 146.037 63.6562C146.037 63.6562 141.162 66.9167 138.057 61.6689C133.834 54.5581 142.901 56.328 142.901 56.328C142.901 56.328 151.968 50.9561 147.217 41.299C142.466 31.6419 145.758 28.8162 145.758 28.8162C145.758 28.8162 154.638 25.8973 159.451 31.8903C164.264 37.8833 176.064 36.7965 177.989 34.2813Z" fill="#FFD5CD"/>
<path d="M132.125 34.0014C132.125 34.0014 113.991 31.8899 110.141 41.7644C106.29 51.6388 134.299 57.166 135.386 78.2191C135.976 89.9256 118.959 106.631 97.8131 99.6759C76.6668 92.7203 93.8384 105.576 91.2301 117.127C88.6217 128.678 34.2501 152.774 12.9797 100.794C-8.29075 48.8131 58.75 44.9627 80.3309 58.2218C80.3309 58.2218 76.2632 45.5527 74.7106 34.5293C72.1333 16.3951 83.7777 -0.217577 133.585 25.1206L132.125 34.0014Z" fill="black"/>
<path d="M174.728 53.7812C181.125 53.657 182.305 49.8065 182.367 49.6202C182.429 49.4339 182.367 49.2476 182.274 49.0924C182.15 48.9371 181.994 48.875 181.777 48.8439C181.715 48.8439 175.039 48.9371 172.679 46.5151C172.12 45.9561 171.871 45.304 171.934 44.5277C172.182 39.9631 178.423 39.6837 178.672 39.6837C179.013 39.6837 179.262 39.4042 179.231 39.0626C179.231 38.7211 178.92 38.4727 178.61 38.4727C175.97 38.5658 170.94 39.9631 170.722 44.4656C170.66 45.5835 171.033 46.5461 171.809 47.3535C173.952 49.5581 178.734 49.9618 180.814 50.055C180.162 51.0176 178.516 52.508 174.728 52.6012C174.387 52.6012 174.138 52.8807 174.138 53.2222C174.138 53.5328 174.418 53.7812 174.728 53.7812Z" fill="#0C0C0C"/>
<path d="M155.104 49.2788C155.259 49.2788 155.445 49.2167 155.569 49.0615C160.972 42.758 166.531 46.1116 166.748 46.2358C167.027 46.4221 167.4 46.3289 167.586 46.0494C167.773 45.77 167.679 45.3974 167.4 45.2111C167.338 45.18 160.724 41.1433 154.669 48.2541C154.451 48.5025 154.482 48.8752 154.731 49.0925C154.824 49.2478 154.979 49.2788 155.104 49.2788Z" fill="#0C0C0C"/>
<path d="M177.709 60.9237L163.519 59.8369C163.519 59.8369 164.109 67.3514 171.406 67.0409C178.734 66.7614 177.709 60.9237 177.709 60.9237Z" fill="white"/>
<path d="M143.801 59.4956C143.801 59.4956 141.503 59.8371 142.124 61.4518C142.746 63.0665 138.74 61.4208 138.678 59.3403C138.678 59.3714 139.144 58.3777 143.801 59.4956Z" fill="#E0AAA4"/>
<path d="M171.778 76.1384C171.778 76.1384 160.444 76.3247 149.142 66.6055L150.073 73.6232C150.073 73.6232 161.687 79.9888 172.741 77.3183L171.778 76.1384Z" fill="#E0AAA4"/>
<path d="M163.891 52.6636C164.714 52.6636 165.381 51.9963 165.381 51.1731C165.381 50.3499 164.714 49.6826 163.891 49.6826C163.068 49.6826 162.4 50.3499 162.4 51.1731C162.4 51.9963 163.068 52.6636 163.891 52.6636Z" fill="#0C0C0C"/>
<path d="M176.312 47.3853C177.135 47.3853 177.802 46.7179 177.802 45.8948C177.802 45.0716 177.135 44.4043 176.312 44.4043C175.489 44.4043 174.821 45.0716 174.821 45.8948C174.821 46.7179 175.489 47.3853 176.312 47.3853Z" fill="#0C0C0C"/>
<path d="M163.674 52.1669C163.931 52.1669 164.14 51.9584 164.14 51.7011C164.14 51.4439 163.931 51.2354 163.674 51.2354C163.417 51.2354 163.208 51.4439 163.208 51.7011C163.208 51.9584 163.417 52.1669 163.674 52.1669Z" fill="white"/>
<path d="M176.095 46.8886C176.352 46.8886 176.56 46.68 176.56 46.4228C176.56 46.1656 176.352 45.957 176.095 45.957C175.837 45.957 175.629 46.1656 175.629 46.4228C175.629 46.68 175.837 46.8886 176.095 46.8886Z" fill="white"/>
<path d="M112.904 219.846L97.8443 220.839C95.4533 220.995 93.3107 222.423 92.286 224.597L89.7398 229.969C88.715 232.142 88.9324 234.719 90.3608 236.707L91.5097 238.29C93.2797 240.712 96.5711 241.427 99.1795 239.967L102.347 238.197V234.782L105.079 236.489C107.936 238.259 111.569 238.166 114.333 236.21L115.699 235.247C118.121 233.54 119.829 231.055 120.605 228.199L121.909 223.292L112.904 219.846Z" fill="#FFD5CD"/>
<path d="M103.589 228.851L206.37 196.868C206.37 196.868 206.215 200.719 208.544 202.768L102.347 233.82L103.589 228.851Z" fill="white"/>
<path d="M136.504 197.178L136.814 192.52L255.432 160.537L254.811 165.567L136.504 197.178Z" fill="white"/>
<path d="M107.626 225.125L105.297 230.559C105.048 231.118 105.483 231.739 106.073 231.708C107.16 231.677 108.775 231.335 110.42 230.093C113.215 227.92 114.147 224.504 114.147 224.504L107.626 225.125Z" fill="#FFD5CD"/>
<path d="M102.347 233.82L115.078 230.094C115.078 230.094 106.383 233.509 105.762 234.13C105.762 234.13 104.52 233.509 102.347 233.82Z" fill="#E0AAA4"/>
<path d="M103.589 228.851C103.589 228.851 105.731 226.678 107.284 226.057L106.415 227.982L103.589 228.851Z" fill="#E0AAA4"/>
<path d="M255.432 160.537V157.463C255.432 157.463 254.221 158.674 253.134 158.984L252.265 161.375L255.432 160.537Z" fill="#E0AAA4"/>
<path d="M251.953 166.312C251.953 166.312 251.394 169.107 252.637 171.684C252.637 171.684 248.103 167.337 242.824 168.735L251.953 166.312Z" fill="#E0AAA4"/>
<path d="M122.717 126.102C122.717 126.102 135.013 149.018 138.708 165.196L138.491 168.611L130.946 167.587C130.914 167.587 134.392 165.196 122.717 126.102Z" fill="#0F45C2"/>
<path d="M195.408 206.587L210.561 206.866C210.561 206.866 209.444 203.451 208.543 202.768L195.408 206.587Z" fill="#0F45C2"/>
<path d="M136.503 197.179L179.479 185.689L136.286 201.495L136.503 197.179Z" fill="#0F45C2"/>
<path d="M248.538 114.332L256.27 118.555C257.388 119.176 257.388 120.76 256.27 121.35L248.538 125.573C248.259 125.728 248.041 125.945 247.917 126.194L243.694 133.926C243.073 135.044 241.489 135.044 240.899 133.926L236.645 126.225C236.49 125.945 236.273 125.728 236.024 125.604L228.292 121.381C227.175 120.76 227.175 119.176 228.292 118.586L236.024 114.363C236.304 114.208 236.521 113.991 236.645 113.742L240.868 106.01C241.489 104.892 243.073 104.892 243.663 106.01L247.886 113.742C248.041 113.96 248.259 114.177 248.538 114.332Z" fill="white"/>
<path d="M264.281 88.5596L269.684 91.5095C270.46 91.9442 270.46 93.0621 269.684 93.4658L264.281 96.4157C264.095 96.5088 263.94 96.6641 263.846 96.8504L260.896 102.253C260.462 103.03 259.344 103.03 258.94 102.253L255.99 96.8504C255.897 96.6641 255.742 96.5088 255.556 96.4157L250.153 93.4658C249.376 93.031 249.376 91.9132 250.153 91.5095L255.556 88.5596C255.742 88.4664 255.897 88.3112 255.99 88.1249L258.94 82.7219C259.375 81.9456 260.493 81.9456 260.896 82.7219L263.846 88.1249C263.94 88.3112 264.095 88.4664 264.281 88.5596Z" fill="white"/>
<path d="M267.945 132.622L270.895 134.237C271.33 134.454 271.33 135.075 270.895 135.324L267.945 136.938C267.852 137 267.759 137.093 267.697 137.187L266.082 140.137C265.865 140.571 265.244 140.571 264.996 140.137L263.381 137.187C263.319 137.093 263.226 137 263.132 136.938L260.182 135.324C259.748 135.106 259.748 134.485 260.182 134.237L263.132 132.622C263.226 132.56 263.319 132.467 263.381 132.374L264.996 129.424C265.213 128.989 265.834 128.989 266.082 129.424L267.697 132.374C267.759 132.467 267.852 132.56 267.945 132.622Z" fill="white"/>
</svg>
