<svg width="312" height="229" viewBox="0 0 312 229" fill="none" xmlns="http://www.w3.org/2000/svg">
<path d="M274.956 229H37.0436C16.577 229 0 212.416 0 191.94V37.06C0 16.5844 16.577 0 37.0436 0H274.956C295.423 0 312 16.5844 312 37.06V191.94C312 212.385 295.423 229 274.956 229Z" fill="#AFC1EC"/>
<path d="M280 58.1374L274.367 125L259.252 119.222L245 63.8239L257.713 46L280 58.1374Z" fill="#FFD5CD"/>
<path d="M78 204.742C78 204.742 111.168 215.839 148.131 220L151 196.173L145.446 177L78 204.742Z" fill="#4779F1"/>
<path d="M191.626 35H63.6734C57.2897 35 52.1335 40.1663 52.1335 46.5626V146.259C52.1335 148.289 52.0107 150.349 51.7652 152.348C50.6296 161.758 46.3022 187.22 32 201.058C32 201.058 116.708 216.157 159.891 187.251C203.073 158.345 191.626 35 191.626 35Z" fill="white"/>
<path d="M60.3655 35H198V69H52V43.4007C52 38.7574 55.7553 35 60.3655 35Z" fill="#FF477C"/>
<path d="M187 112H52V113H187V112Z" fill="#CCCCCC"/>
<path d="M187 160H50V161H187V160Z" fill="#CCCCCC"/>
<path d="M92.001 205L91 204.262C105.796 184.697 104.732 159.903 104.732 159.656V69H105.984V159.626C105.984 159.872 107.047 185.066 92.001 205Z" fill="#CCCCCC"/>
<path d="M95.5 157C97.9853 157 100 154.985 100 152.5C100 150.015 97.9853 148 95.5 148C93.0147 148 91 150.015 91 152.5C91 154.985 93.0147 157 95.5 157Z" fill="#4678F1"/>
<path d="M84 200C86.2091 200 88 198.209 88 196C88 193.791 86.2091 192 84 192C81.7909 192 80 193.791 80 196C80 198.209 81.7909 200 84 200Z" fill="#4678F1"/>
<path d="M271.255 113.168L277.946 135.665C281.893 148.955 282.972 162.92 281.122 176.639L274.061 229H135.962C135.962 229 127.637 179.77 127.421 145.057C127.39 142.234 127.236 139.379 126.897 136.586L125.016 120.473C124.862 119 125.818 117.68 127.267 117.373L149.158 113.045C152.858 112.309 156.651 111.971 160.412 112.002L271.255 113.168Z" fill="#D99D08"/>
<path d="M149.727 3L146.689 39.2938L142.823 58.5153L112.262 99.5684C110.942 101.012 104.161 104.328 103.67 106.201L102.075 118.176C101.799 120.356 102.29 122.567 103.517 124.378L105.051 126.681C107.475 130.304 111.986 131.87 116.128 130.519L123.645 128.063C126.223 127.234 127.88 124.685 127.573 121.953L125.671 104.481L156.078 76.6929C159.269 73.7759 161.141 69.6921 161.264 65.3626L162 38.5261L149.727 3Z" fill="#FFD5CD"/>
<path d="M150 0C150 0 162.764 69.1565 162.764 78.5493C162.764 87.9421 151.999 128.03 151.999 128.03C151.999 128.03 201.673 160.352 271 114.033C271 114.033 255.529 83.1229 255.96 72.4102C256.421 61.6976 263.618 0 263.618 0H150Z" fill="#4779F1"/>
<path d="M130 119.056L156 114L152.533 128L130 119.056Z" fill="#A77A06"/>
<path d="M126.184 108L134 121L129.574 119.315L120 110.769L126.184 108Z" fill="#FFD5CD"/>
<path d="M149.442 145.176C149.51 144.9 149.987 144.962 149.953 145.268C148.93 153.152 146.852 174.225 150.396 191.801C152.986 204.592 154.315 215.052 154.996 221.555C155.064 222.076 154.212 222.168 154.11 221.678C152.1 212.077 148.692 196.157 147.84 193.856C147.09 191.985 143.308 167.078 149.442 145.176Z" fill="#A77A06"/>
<path d="M206.007 172.895L209.531 229H216.3L211.293 175.731C211.138 174.221 211.54 172.741 212.374 171.477L218 163L208.171 168.857C206.749 169.72 205.914 171.262 206.007 172.895Z" fill="#A77A06"/>
<path d="M133 133.125C133.673 133.486 134.347 133.816 135.02 134.176C135.694 134.537 136.367 134.837 137.071 135.167C137.745 135.497 138.449 135.798 139.122 136.098L140.163 136.548L141.204 136.999L143.286 137.869L145.398 138.68C146.806 139.251 148.245 139.731 149.653 140.242C155.347 142.253 161.163 143.875 167.041 145.316L171.449 146.337L175.888 147.208C177.357 147.538 178.857 147.718 180.357 147.958L182.592 148.289C183.327 148.409 184.092 148.529 184.857 148.589C187.857 148.889 190.888 149.249 193.918 149.339C195.418 149.399 196.949 149.49 198.449 149.55H200.714H201.847L202.98 149.52C215.071 149.159 227.041 146.637 238.429 142.704C241.276 141.713 244.092 140.662 246.908 139.521C249.694 138.38 252.449 137.149 255.173 135.828C257.898 134.507 260.561 133.155 263.194 131.684C265.827 130.213 268.429 128.681 270.939 127L271 127.06C269.806 127.961 268.551 128.802 267.296 129.642C266.041 130.483 264.755 131.264 263.469 132.044C260.867 133.606 258.235 135.077 255.541 136.428C252.847 137.809 250.092 139.101 247.306 140.302C244.52 141.503 241.673 142.584 238.827 143.604C237.388 144.085 235.949 144.595 234.48 145.016C233.041 145.466 231.571 145.886 230.102 146.277C227.163 147.027 224.194 147.748 221.194 148.258C215.224 149.399 209.133 149.97 203.041 150H201.908L200.776 149.97L198.51 149.91L193.918 149.67C190.888 149.55 187.857 149.159 184.857 148.889C178.827 148.168 172.796 147.388 166.888 146.007C160.949 144.685 155.133 142.944 149.439 140.842C148.031 140.302 146.592 139.791 145.214 139.191L143.102 138.32L141.02 137.389L139.98 136.909L138.969 136.398C138.296 136.068 137.592 135.738 136.949 135.377C135.602 134.687 134.286 133.966 133 133.155V133.125Z" fill="#A77A06"/>
<path d="M152 130C152 130 148.609 134.223 150.658 139L152 130Z" fill="#A77A06"/>
<path d="M163 135C163 135 159.916 137.466 161.407 142L163 135Z" fill="#A77A06"/>
<path d="M179 139C179 139 175.94 142.485 177.39 146L179 139Z" fill="#A77A06"/>
<path d="M212 140C212 140 216.5 142.435 212 148V140Z" fill="#A77A06"/>
<path d="M224 138C224 138 226.25 140.435 224 146V138Z" fill="#A77A06"/>
<path d="M251 128C251 128 253.25 130.435 251 136V128Z" fill="#A77A06"/>
<path d="M264 121C264 121 268.5 123.739 264 130V121Z" fill="#A77A06"/>
<path d="M150.342 0L140 39.8371L160.634 60L166 27.9837L150.342 0Z" fill="#4779F1"/>
<path d="M153 52.4382L161 60L156.02 32L153 52.4382Z" fill="#0F45C2"/>
<path d="M154.159 119C154.159 119 184.257 138.238 227 134.554C227 134.554 187.711 148.25 152 127.564L154.159 119Z" fill="#0F45C2"/>
<path d="M257.812 0H271.219L282 56.0241C282 56.0241 281.719 63.2956 257 60.2581L257.812 0Z" fill="#4779F1"/>
<path d="M257 60.2788L260.122 43L266 61L257 60.2788Z" fill="#0F45C2"/>
<path d="M81.4428 63H69.5572C67.0323 63 65 60.9932 65 58.5C65 56.0068 67.0323 54 69.5572 54H81.4428C83.9677 54 86 56.0068 86 58.5C86 60.9628 83.9677 63 81.4428 63Z" fill="white"/>
<path d="M131.443 63H119.557C117.032 63 115 60.9932 115 58.5C115 56.0068 117.032 54 119.557 54H131.443C133.968 54 136 56.0068 136 58.5C136 60.9628 133.968 63 131.443 63Z" fill="white"/>
</svg>
