<svg width="313" height="229" viewBox="0 0 313 229" fill="none" xmlns="http://www.w3.org/2000/svg">
<path d="M274.992 228.928H37.0484C16.5791 228.928 0 212.349 0 191.88V37.0484C0 16.5791 16.5791 0 37.0484 0H274.992C295.461 0 312.04 16.5791 312.04 37.0484V191.88C312.04 212.318 295.461 228.928 274.992 228.928Z" fill="#AFC1EC"/>
<path d="M225.007 100.37L233.466 81.877H229.854L221.395 100.37C220.654 101.976 221.827 103.766 223.587 103.766H227.199C225.439 103.766 224.266 101.945 225.007 100.37Z" fill="#759CF5"/>
<path d="M233.467 81.8766L235.628 68.4774C235.875 66.9337 237.202 65.8223 238.746 65.8223H235.134C233.59 65.8223 232.263 66.9646 232.016 68.4774L229.854 81.8766H233.467Z" fill="#759CF5"/>
<path d="M273.787 101.945L281.228 85.6744C282.031 83.8837 280.734 81.877 278.789 81.877H233.467L225.007 100.37C224.266 101.976 225.439 103.766 227.199 103.766H270.978C272.182 103.766 273.293 103.056 273.787 101.945Z" fill="#4779F1"/>
<path d="M235.628 68.4774L233.467 81.8766H278.789L281.753 69.7432C282.247 67.7364 280.734 65.8223 278.666 65.8223H238.746C237.202 65.8223 235.875 66.9337 235.628 68.4774Z" fill="#4779F1"/>
<path d="M311.886 175.084L283.235 83.9455C282.834 82.7105 281.691 81.877 280.395 81.877H229.854L231.8 87.8047H278.233L306.236 176.875C306.637 178.141 307.81 178.944 309.076 178.944C309.385 178.944 309.663 178.913 309.972 178.82C311.515 178.326 312.38 176.659 311.886 175.084Z" fill="#4779F1"/>
<path d="M312.04 174.251H188.669V190.768H312.04V174.251Z" fill="#4779F1"/>
<path d="M259.369 190.768H136.739V186.539C136.739 179.746 142.235 174.251 149.027 174.251H259.369V190.768Z" fill="#759CF5"/>
<path d="M298.61 167.953H188.731C187.434 167.953 186.385 169.003 186.385 170.3V171.905C186.385 173.202 187.434 174.251 188.731 174.251H298.61C299.907 174.251 300.957 173.202 300.957 171.905V170.3C300.957 169.003 299.907 167.953 298.61 167.953Z" fill="#759CF5"/>
<path d="M257.764 167.953H147.854C146.558 167.953 145.508 169.003 145.508 170.3V171.905C145.508 173.202 146.558 174.251 147.854 174.251H257.733C259.03 174.251 260.08 173.202 260.08 171.905V170.3C260.08 169.003 259.03 167.953 257.764 167.953Z" fill="#4779F1"/>
<path d="M199.506 86.8789H228.002C229.021 86.8789 229.854 86.0453 229.854 85.0264V83.7606C229.854 82.7418 229.021 81.9082 228.002 81.9082H199.506C198.487 81.9082 197.653 82.7418 197.653 83.7606V85.0264C197.622 86.0453 198.456 86.8789 199.506 86.8789Z" fill="#759CF5"/>
<path d="M227.755 81.877C226.798 81.877 225.933 82.3401 225.347 83.081C224.791 83.8529 224.636 84.8408 224.914 85.7362L253.565 176.875C254.059 178.45 255.726 179.314 257.301 178.82C258.875 178.326 259.74 176.659 259.246 175.084L231.83 87.8047L229.885 81.877H227.755Z" fill="#759CF5"/>
<path d="M207.718 44.5813L212.472 47.1747C213.151 47.5452 213.151 48.5331 212.472 48.9036L207.718 51.497C207.563 51.5896 207.409 51.7131 207.316 51.8984L204.723 56.6529C204.352 57.3321 203.365 57.3321 202.994 56.6529L200.401 51.8984C200.308 51.744 200.185 51.5896 199.999 51.497L195.245 48.9036C194.566 48.5331 194.566 47.5452 195.245 47.1747L199.999 44.5813C200.154 44.4887 200.308 44.3652 200.401 44.18L202.994 39.4254C203.365 38.7462 204.352 38.7462 204.723 39.4254L207.316 44.18C207.409 44.3343 207.532 44.4887 207.718 44.5813Z" fill="white"/>
<path d="M196.634 64.0322L204.26 68.2001C205.341 68.7867 205.341 70.3613 204.26 70.9788L196.634 75.1467C196.356 75.3011 196.14 75.5172 196.017 75.7642L191.849 83.39C191.262 84.4706 189.688 84.4706 189.07 83.39L184.902 75.7642C184.748 75.4863 184.532 75.2702 184.285 75.1467L176.659 70.9788C175.578 70.3922 175.578 68.8176 176.659 68.2001L184.285 64.0322C184.563 63.8778 184.779 63.6617 184.902 63.4147L189.07 55.7889C189.657 54.7084 191.231 54.7084 191.849 55.7889L196.017 63.4147C196.171 63.6617 196.387 63.8778 196.634 64.0322Z" fill="white"/>
<path d="M124.544 219.821C172.543 219.821 211.453 217.332 211.453 214.263C211.453 211.194 172.543 208.706 124.544 208.706C76.5454 208.706 37.6348 211.194 37.6348 214.263C37.6348 217.332 76.5454 219.821 124.544 219.821Z" fill="#0C44C2"/>
<path d="M162.511 160.374C164.473 154.414 161.848 148.195 156.649 146.484C151.45 144.773 145.645 148.218 143.683 154.178C141.722 160.139 144.347 166.358 149.546 168.069C154.745 169.78 160.55 166.335 162.511 160.374Z" fill="#0F45C2"/>
<path d="M159.869 159.503C160.445 157.753 160.124 156.076 159.152 155.756C158.18 155.436 156.926 156.595 156.35 158.344C155.774 160.094 156.095 161.771 157.067 162.091C158.039 162.411 159.294 161.252 159.869 159.503Z" fill="#759CF5"/>
<path d="M103.427 164.032C108.9 164.032 113.337 158.945 113.337 152.67C113.337 146.395 108.9 141.309 103.427 141.309C97.9537 141.309 93.5166 146.395 93.5166 152.67C93.5166 158.945 97.9537 164.032 103.427 164.032Z" fill="#0F45C2"/>
<path d="M107.069 157.981C108.792 157.981 110.188 155.479 110.188 152.393C110.188 149.307 108.792 146.805 107.069 146.805C105.347 146.805 103.951 149.307 103.951 152.393C103.951 155.479 105.347 157.981 107.069 157.981Z" fill="#759CF5"/>
<path d="M71.0715 197.745L72.9239 196.943L73.7575 186.507L61.7168 185.581L62.7356 198.548C64.6189 196.943 71.0715 197.745 71.0715 197.745Z" fill="#FFD5CD"/>
<path d="M52.7942 186.693L50.7566 208.706C50.6639 209.632 50.8492 210.589 51.3123 211.423L51.9915 212.689C52.4237 213.492 53.1956 214.016 54.06 214.14C55.6037 214.356 57.6105 214.233 58.1971 214.263C58.228 214.263 58.228 214.263 58.2588 214.263H60.0804C60.3274 214.263 60.5744 214.14 60.6979 213.924C61.2845 212.781 57.1165 211.979 58.4132 209.169C60.42 204.816 61.6241 199.784 62.5194 198.703C62.5503 198.672 62.5503 198.672 62.5812 198.641C62.7046 198.518 62.7664 198.394 62.7664 198.24L63.8778 186.292C63.9087 185.891 63.6 185.52 63.1986 185.52L54.4305 185.242C53.5969 185.242 52.8868 185.86 52.7942 186.693Z" fill="black"/>
<path d="M118.493 156.035C118.462 156.159 118.431 156.313 118.369 156.436C110.836 185.118 112.935 184.408 112.935 184.408C112.935 184.408 104.569 187.187 70.7311 186.23L70.5459 198.178C70.5459 198.178 94.2877 200.339 117.69 204.507C123 205.464 128.403 204.414 131.274 199.845C136.677 191.231 145.322 176.659 149.088 165.853L149.335 165.112L158.598 145.631L142.111 137.789L120.345 135.442L118.493 156.035Z" fill="#D99D08"/>
<path d="M62.7352 198.517C62.7352 198.517 65.977 199.629 66.5018 198.301C67.0267 196.974 66.6253 192.59 60.7902 194.041C54.9551 195.43 62.7352 198.517 62.7352 198.517Z" fill="black"/>
<path d="M156.684 149.552C156.684 149.552 135.319 151.898 127.478 150.54C127.478 150.54 144.335 163.105 151.003 161.129L156.684 149.552Z" fill="#A77A06"/>
<path d="M130.008 149.737H112.75V153.658H130.008V149.737Z" fill="#0F45C2"/>
<path d="M106.792 86.1064L110.003 106.143L108.397 142.636L106.885 147.668C106.823 147.854 106.792 148.039 106.792 148.224V152.701C106.792 155.078 108.521 157.085 110.898 157.425L113.893 157.857C117.351 158.351 120.593 156.097 121.333 152.701L121.488 151.991C121.673 151.065 121.488 150.107 120.932 149.336L116.085 142.667L115.714 128.681L126.767 112.226L123.865 92.2812L106.792 86.1064Z" fill="#FFD5CD"/>
<path d="M112.256 60.5742C112.256 60.5742 102.408 72.4297 105.063 94.4735C105.063 94.4735 110.003 99.6294 123.803 99.7837L120.623 66.502L115.405 60.5742H112.256Z" fill="#4779F1"/>
<path d="M109.416 97.1904C109.416 97.1904 120.407 105.434 120.407 106.607L120.006 99.5368C120.006 99.5368 115.097 99.5368 109.416 97.1904Z" fill="#E0AAA4"/>
<path d="M179.036 192.497L178.048 190.737L167.088 192.898L167.582 200.74H180.58C178.851 198.981 179.036 192.497 179.036 192.497Z" fill="#FFD5CD"/>
<path d="M169.064 211.7H196.696C197.437 211.7 198.054 211.083 198.054 210.342V208.551C197.653 204.815 182.772 202.284 180.796 200.894C180.703 200.832 180.642 200.771 180.58 200.709H167.582L168.2 210.866C168.23 211.36 168.601 211.7 169.064 211.7Z" fill="black"/>
<path d="M145.909 57.9187C153.133 66.903 156.004 78.635 153.781 89.9347L151.589 101.204L153.874 122.568L115.683 128.619L120.253 111.67C120.5 110.744 120.592 109.786 120.561 108.799L118.307 70.1756C118.307 70.1756 115.683 62.2411 112.287 60.543L120.654 55.8193L125.532 57.116L145.909 57.9187Z" fill="#4779F1"/>
<path d="M129.947 35.1953L127.57 53.6577L120.623 55.8498C120.623 55.8498 122.475 65.081 131.367 66.8099C140.259 68.5388 145.909 57.9183 145.909 57.9183L140.814 53.4108L135.195 41.0613L129.947 35.1953Z" fill="#FFD5CD"/>
<path d="M147.73 31.09C147.73 31.09 150.571 29.9476 151.281 31.7692C151.991 33.5907 150.849 36.8016 148.533 36.8942C146.248 36.9868 147.73 31.09 147.73 31.09Z" fill="#E0AAA4"/>
<path d="M148.811 32.6948C148.811 32.6948 159.493 32.7875 154.121 21.0555C149.706 11.392 140.938 10.5584 133.405 11.9169C126.551 13.1518 122.569 16.3936 122.136 21.7038C122.136 21.7038 112.01 26.7671 124.699 38.3138L148.811 32.6948Z" fill="black"/>
<path d="M148.348 29.6076C148.348 29.6076 151.59 45.1062 143.161 51.2809C143.161 51.2809 133.312 50.293 127.848 40.3517C127.848 40.3517 124.884 41.3705 124.019 38.2522C122.815 34.0226 127.261 36.1528 127.261 36.1528C127.261 36.1528 132.664 34.6091 131.553 28.9901C130.441 23.3711 132.51 22.3523 132.51 22.3523C132.51 22.3523 137.511 22.0745 139.147 25.8102C140.784 29.5768 147.02 30.6265 148.348 29.6076Z" fill="#FFD5CD"/>
<path d="M124.76 23.1552C124.76 23.1552 115.683 19.5739 112.349 24.1432C109.015 28.7125 122.692 35.4121 120.345 46.4031C119.048 52.516 107.965 58.7834 98.0235 52.2999C88.0822 45.8165 95.1832 54.8007 92.2502 60.3888C89.3172 65.977 57.9804 70.9476 54.1521 41.2163C50.3238 11.485 85.3962 18.7094 94.7201 28.5272C94.7201 28.5272 94.3496 21.4263 95.0597 15.5294C96.2329 5.83511 104.507 -1.14233 126.705 18.7712L124.76 23.1552Z" fill="black"/>
<path d="M143.995 39.2093C147.298 40.012 148.44 38.1904 148.502 38.1287C148.564 38.0361 148.564 37.9434 148.533 37.8508C148.502 37.7582 148.409 37.6965 148.317 37.6656C148.286 37.6656 144.828 36.8011 143.964 35.2266C143.748 34.8561 143.717 34.4856 143.84 34.0842C144.581 31.7687 147.854 32.4788 147.977 32.5097C148.162 32.5406 148.317 32.4479 148.348 32.2627C148.379 32.0775 148.286 31.9231 148.101 31.8922C146.742 31.5835 143.964 31.6143 143.192 33.899C143.007 34.4547 143.068 35.0105 143.346 35.5353C144.149 36.9555 146.557 37.8508 147.607 38.1596C147.144 38.5609 146.094 39.1166 144.118 38.6227C143.933 38.5918 143.778 38.6844 143.717 38.8697C143.717 38.9931 143.84 39.1475 143.995 39.2093Z" fill="black"/>
<path d="M134.486 34.2075C134.578 34.2384 134.671 34.2076 134.764 34.1767C138.407 31.6759 140.815 34.1458 140.907 34.2693C141.031 34.3928 141.216 34.3928 141.371 34.2693C141.494 34.1458 141.494 33.9606 141.401 33.8062C141.371 33.7753 138.53 30.8114 134.424 33.6209C134.27 33.7136 134.239 33.9297 134.331 34.0532C134.362 34.1458 134.424 34.1767 134.486 34.2075Z" fill="black"/>
<path d="M144.55 43.2849L137.388 40.7842C137.388 40.7842 136.677 44.736 140.475 45.6005C144.272 46.4341 144.55 43.2849 144.55 43.2849Z" fill="white"/>
<path d="M127.261 37.9131C127.261 37.9131 126.026 37.7587 126.118 38.6849C126.211 39.6112 124.389 38.2218 124.636 37.1104C124.636 37.1104 125.038 36.6782 127.261 37.9131Z" fill="#E0AAA4"/>
<path d="M139.395 50.324C139.395 50.324 133.529 48.873 129.021 42.2969L128.527 46.0326C128.527 46.0326 133.621 50.9106 139.704 51.065L139.395 50.324Z" fill="#E0AAA4"/>
<path d="M138.777 37.1718C139.221 37.1718 139.58 36.8124 139.58 36.3691C139.58 35.9258 139.221 35.5664 138.777 35.5664C138.334 35.5664 137.975 35.9258 137.975 36.3691C137.975 36.8124 138.334 37.1718 138.777 37.1718Z" fill="#0C0C0C"/>
<path d="M145.908 36.1533C146.352 36.1533 146.711 35.7939 146.711 35.3506C146.711 34.9072 146.352 34.5479 145.908 34.5479C145.465 34.5479 145.105 34.9072 145.105 35.3506C145.105 35.7939 145.465 36.1533 145.908 36.1533Z" fill="#0C0C0C"/>
<path d="M138.592 36.8631C138.728 36.8631 138.839 36.7525 138.839 36.6161C138.839 36.4797 138.728 36.3691 138.592 36.3691C138.455 36.3691 138.345 36.4797 138.345 36.6161C138.345 36.7525 138.455 36.8631 138.592 36.8631Z" fill="white"/>
<path d="M145.724 35.8446C145.86 35.8446 145.971 35.734 145.971 35.5976C145.971 35.4612 145.86 35.3506 145.724 35.3506C145.587 35.3506 145.477 35.4612 145.477 35.5976C145.477 35.734 145.587 35.8446 145.724 35.8446Z" fill="white"/>
<path d="M138.035 119.142C148.996 119.142 164.679 122.229 174.682 124.483C180.734 125.841 184.994 131.275 184.84 137.481C184.346 157.271 179.097 191.88 179.005 192.497L167.057 192.899C162.549 158.382 167.458 147.206 167.458 147.206C167.458 147.206 168.816 148.966 138.838 151.312C109.107 153.658 115.559 129.114 115.683 128.682C130.132 126.49 135.442 121.426 136.831 119.728C137.14 119.358 137.572 119.142 138.035 119.142Z" fill="#D99D08"/>
<path d="M180.579 200.74C180.579 200.74 181.382 197.406 180.024 197.005C178.665 196.603 174.343 197.406 176.288 203.087C178.233 208.768 180.579 200.74 180.579 200.74Z" fill="black"/>
<path d="M119.018 82.0928L114.912 98.7645C114.912 98.7645 118.648 99.7525 120.006 99.5364C120.006 99.5364 120.006 90.1199 119.018 82.0928Z" fill="#0F45C2"/>
<path d="M117.69 144.057L122.043 145.724C122.846 146.033 123.494 146.681 123.803 147.515C124.081 148.256 123.587 149.089 122.815 149.213L120.16 149.645C119.82 149.707 119.45 149.614 119.172 149.398L116.023 147.051C115.498 146.65 115.344 145.94 115.683 145.384L116.147 144.582C116.424 144.057 117.104 143.841 117.69 144.057Z" fill="#FFD5CD"/>
<path d="M132.046 164.032C137.52 164.032 141.957 158.945 141.957 152.67C141.957 146.395 137.52 141.309 132.046 141.309C126.573 141.309 122.136 146.395 122.136 152.67C122.136 158.945 126.573 164.032 132.046 164.032Z" fill="#0F45C2"/>
<path d="M137.356 156.005C138.379 156.005 139.209 154.512 139.209 152.67C139.209 150.829 138.379 149.336 137.356 149.336C136.333 149.336 135.504 150.829 135.504 152.67C135.504 154.512 136.333 156.005 137.356 156.005Z" fill="#759CF5"/>
<path d="M182.154 204.569C182.031 204.569 181.938 204.538 181.845 204.445C181.629 204.26 181.598 203.951 181.784 203.766C181.876 203.673 183.883 201.265 186.971 200.648C187.248 200.586 187.495 200.771 187.557 201.018C187.619 201.296 187.434 201.543 187.187 201.605C184.47 202.161 182.586 204.353 182.556 204.383C182.432 204.507 182.309 204.569 182.154 204.569Z" fill="#37C3B4"/>
<path d="M184.532 205.742C184.409 205.742 184.316 205.711 184.223 205.618C184.007 205.433 183.976 205.124 184.162 204.939C184.254 204.846 186.261 202.438 189.348 201.821C189.626 201.759 189.873 201.944 189.935 202.191C189.997 202.469 189.812 202.716 189.565 202.778C186.848 203.333 184.964 205.525 184.934 205.556C184.81 205.68 184.656 205.742 184.532 205.742Z" fill="#37C3B4"/>
<path d="M186.878 206.915C186.754 206.915 186.662 206.884 186.569 206.792C186.353 206.607 186.322 206.298 186.507 206.113C186.6 206.02 188.607 203.612 191.694 202.994C191.972 202.933 192.219 203.118 192.281 203.365C192.342 203.643 192.157 203.89 191.91 203.951C189.193 204.507 187.31 206.699 187.279 206.73C187.156 206.854 187.001 206.915 186.878 206.915Z" fill="#37C3B4"/>
<path d="M62.9207 205.217C62.6429 205.217 62.4267 204.97 62.4267 204.723C62.5194 201.944 60.7904 199.629 60.7596 199.598C60.6052 199.382 60.6361 199.073 60.8522 198.919C61.0683 198.764 61.377 198.795 61.5314 199.011C61.624 199.104 63.4764 201.636 63.3838 204.754C63.4147 205.001 63.1986 205.217 62.9207 205.217Z" fill="#37C3B4"/>
<path d="M61.2537 207.224C61.2229 207.224 61.2229 207.224 61.2537 207.224C60.9759 207.224 60.7597 206.977 60.7597 206.73C60.8524 203.951 59.1234 201.636 59.0926 201.605C58.9382 201.389 58.9691 201.08 59.1852 200.926C59.4013 200.771 59.71 200.802 59.8644 201.018C59.957 201.111 61.8095 203.642 61.7168 206.761C61.7168 207.039 61.5007 207.224 61.2537 207.224Z" fill="#37C3B4"/>
<path d="M59.5555 209.262C59.2776 209.262 59.0615 209.015 59.0615 208.768C59.1541 205.989 57.4252 203.674 57.3943 203.643C57.24 203.427 57.2708 203.118 57.487 202.964C57.7031 202.809 58.0118 202.84 58.1662 203.056C58.2588 203.149 60.1112 205.681 60.0186 208.799C60.0495 209.046 59.8334 209.262 59.5555 209.262Z" fill="#37C3B4"/>
<path d="M112.966 184.408C112.966 184.408 114.201 185.859 116.053 186.785C116.053 186.785 105.834 188.113 101.203 185.952C101.172 185.952 107.007 185.705 112.966 184.408Z" fill="#C69007"/>
<path d="M171.781 192.652L170.855 192.621L172.553 140.166C172.583 139.055 172.182 138.005 171.41 137.203C170.638 136.4 169.589 135.937 168.477 135.937C160.574 135.875 141.679 135.751 136.739 135.968C130.132 136.276 121.611 128.157 121.271 127.817L121.92 127.138C122.012 127.23 130.194 135.041 136.369 135.041C136.492 135.041 136.585 135.041 136.708 135.041C141.679 134.794 160.605 134.918 168.477 135.01C169.836 135.01 171.102 135.566 172.059 136.554C173.016 137.542 173.51 138.839 173.448 140.197L171.781 192.652Z" fill="#A77A06"/>
</svg>
