<svg width="313" height="229" viewBox="0 0 313 229" fill="none" xmlns="http://www.w3.org/2000/svg">
<path d="M247.884 150.386L253.812 155.048L251.589 142.204L247.884 150.386Z" fill="#E0AAA4"/>
<path d="M274.775 163.661C276.309 163.661 277.553 161.463 277.553 158.752C277.553 156.041 276.309 153.843 274.775 153.843C273.24 153.843 271.996 156.041 271.996 158.752C271.996 161.463 273.24 163.661 274.775 163.661Z" fill="#FFC3BB"/>
<path d="M274.992 228.928H37.0493C16.5801 228.928 0.000976562 212.349 0.000976562 191.879V37.0483C0.000976562 16.5791 16.5801 0 37.0493 0H274.992C295.461 0 312.04 16.5791 312.04 37.0483V191.879C312.04 212.349 295.461 228.928 274.992 228.928Z" fill="#AFC1EC"/>
<path d="M229.607 156.653H129.268V228.774H229.607V156.653Z" fill="#1757EE"/>
<path d="M131.953 228.743L31.6143 228.558V84.5322H131.953V228.743Z" fill="#1757EE"/>
<path d="M140.783 74.9922H22.7842V84.6556H140.783V74.9922Z" fill="#1757EE"/>
<path d="M76.6591 228.743H35.2885C15.8073 228.743 0 212.935 0 193.454V84.5322H76.6283V228.743H76.6591Z" fill="#759CF5"/>
<path d="M192.929 156.653H92.5898V228.774H192.929V156.653Z" fill="#759CF5"/>
<path d="M85.4581 74.9922H0V84.6556H85.4581V74.9922Z" fill="#759CF5"/>
<path d="M22.7848 116.27C29.878 116.27 35.6282 110.52 35.6282 103.426C35.6282 96.3332 29.878 90.583 22.7848 90.583C15.6916 90.583 9.94141 96.3332 9.94141 103.426C9.94141 110.52 15.6916 116.27 22.7848 116.27Z" fill="#1757EE"/>
<path d="M28.8364 100.803H25.4095V97.3447H20.161V100.803H16.7031V106.051H20.161V109.478H25.4095V106.051H28.8364V100.803Z" fill="#759CF5"/>
<path d="M13.6765 124.205H1.08008V144.427H13.6765V124.205Z" fill="#1757EE"/>
<path d="M31.614 124.205H19.0176V144.427H31.614V124.205Z" fill="#1757EE"/>
<path d="M49.5525 124.205H36.9561V144.427H49.5525V124.205Z" fill="#1757EE"/>
<path d="M67.49 124.205H54.8936V144.427H67.49V124.205Z" fill="#1757EE"/>
<path d="M13.6765 152.393H1.08008V172.615H13.6765V152.393Z" fill="#1757EE"/>
<path d="M31.614 152.393H19.0176V172.615H31.614V152.393Z" fill="#1757EE"/>
<path d="M49.5525 152.393H36.9561V172.615H49.5525V152.393Z" fill="#1757EE"/>
<path d="M67.49 152.393H54.8936V172.615H67.49V152.393Z" fill="#1757EE"/>
<path d="M13.6765 180.549H1.08008V200.771H13.6765V180.549Z" fill="#1757EE"/>
<path d="M31.614 180.549H19.0176V200.771H31.614V180.549Z" fill="#1757EE"/>
<path d="M49.5525 180.549H36.9561V200.771H49.5525V180.549Z" fill="#1757EE"/>
<path d="M67.49 180.549H54.8936V200.771H67.49V180.549Z" fill="#1757EE"/>
<path d="M123.649 164.094H98.7646V176.968H123.649V164.094Z" fill="#1757EE"/>
<path d="M151.991 164.094H127.106V176.968H151.991V164.094Z" fill="#1757EE"/>
<path d="M180.302 164.094H155.418V176.968H180.302V164.094Z" fill="#1757EE"/>
<path d="M123.649 180.549H98.7646V193.423H123.649V180.549Z" fill="#1757EE"/>
<path d="M151.991 180.549H127.106V193.423H151.991V180.549Z" fill="#1757EE"/>
<path d="M180.302 180.549H155.418V193.423H180.302V180.549Z" fill="#1757EE"/>
<path d="M123.649 197.005H98.7646V209.879H123.649V197.005Z" fill="#1757EE"/>
<path d="M151.991 197.005H127.106V209.879H151.991V197.005Z" fill="#1757EE"/>
<path d="M180.302 197.005H155.418V209.879H180.302V197.005Z" fill="#1757EE"/>
<path d="M216.918 148.903H192.93V156.622H216.918V148.903Z" fill="#1757EE"/>
<path d="M192.929 148.903H155.418V156.622H192.929V148.903Z" fill="#759CF5"/>
<path d="M196.233 133.467H192.93V148.904H196.233V133.467Z" fill="#1757EE"/>
<path d="M192.929 133.467H189.626V148.904H192.929V133.467Z" fill="#759CF5"/>
<path d="M192.929 144.056C203.228 144.056 211.577 135.707 211.577 125.408C211.577 115.11 203.228 106.761 192.929 106.761C182.63 106.761 174.281 115.11 174.281 125.408C174.281 135.707 182.63 144.056 192.929 144.056Z" fill="#1757EE"/>
<path d="M201.728 121.611H196.758V116.609H189.132V121.611H184.161V129.206H189.132V134.207H196.758V129.206H201.728V121.611Z" fill="#759CF5"/>
<path d="M172.46 196.819L174.683 228.774H231.521L234.485 197.746L172.46 196.819Z" fill="#D99D08"/>
<path d="M197.529 43.1928C197.529 43.1928 181.753 21.4577 166.131 27.9721C150.54 34.4864 146.619 37.4503 148.656 54.7086C148.656 54.7086 113.923 43.0075 115.035 77.9255C116.146 112.844 148.286 118.802 167.983 103.365C187.68 87.9595 170.206 67.1507 170.206 67.1507C170.206 67.1507 180.796 68.0769 172.985 53.7824C166.069 41.1242 177.245 31.3064 190.459 44.4894L197.529 43.1928Z" fill="black"/>
<path d="M189.162 99.8754C189.162 99.8754 156.467 97.8378 133.621 109.909L134.547 74.4356C134.547 74.4356 139.919 76.288 142.914 72.7684L147.545 74.4356L149.582 71.657L151.064 68.8784L150.107 64.7413C149.459 62.0244 147.112 60.0794 144.303 59.9868L139.795 59.8324C138.53 59.8015 137.295 60.0794 136.183 60.6969L127.477 65.4205C126.057 66.1924 125.069 67.5508 124.791 69.1562L120.221 95.0592C120.221 95.0592 116.27 103.735 116.177 113.398C116.146 116.763 118.709 119.604 122.043 119.943L179.097 125.871L189.162 99.8754Z" fill="#FFD5CD"/>
<path d="M157.98 101.729C157.98 101.729 153.349 118.833 156.313 127.539L183.605 127.725L189.162 99.8767C189.162 99.8767 170.237 99.5062 157.98 101.729Z" fill="#4779F1"/>
<path d="M180.456 114.727L170.422 127.539L175.238 127.724L180.085 119.913L180.456 114.727Z" fill="#0F45C2"/>
<path d="M189.163 99.876L181.723 109.972C174.961 119.172 172.924 130.997 176.289 141.926L179.5 152.454L172.43 196.85C172.43 196.85 193.609 212.071 234.856 199.629L229.669 164.711L237.851 107.502L227.261 100.246L189.163 99.876Z" fill="#4779F1"/>
<path d="M200.863 75.3319L197.714 94.6587L189.162 99.8764C189.162 99.8764 191.941 109.91 204.383 109.91C216.825 109.91 222.413 104.538 227.229 100.247L216.856 94.4735L212.935 74.0352L200.863 75.3319Z" fill="#FFD5CD"/>
<path d="M199.382 83.8838L197.715 94.8439C197.715 94.8439 209.416 94.6587 215.56 88.1443L215.189 86.1067L199.382 83.8838Z" fill="#E0AAA4"/>
<path d="M218.152 63.5997C218.152 63.5997 235.812 61.5621 235.997 47.0823C236.182 32.6026 218.152 28.4964 209.446 30.565C202.005 32.2939 189.934 33.9302 188.081 41.3707C188.081 41.3707 176.38 44.8595 178.418 55.6343C180.456 66.4092 184.191 75.3317 197.189 77.1841C210.156 79.0365 218.152 63.5997 218.152 63.5997Z" fill="black"/>
<path d="M190.273 64.3712C190.273 64.3712 193.423 89.07 208.859 91.1077C208.859 91.1077 225.377 86.6619 224.265 54.3372C224.265 54.3372 216.269 66.2236 209.6 53.7815C209.6 53.7815 205.895 45.7852 202.16 49.3357C198.455 52.8553 202.561 61.9013 196.016 64.3712C192.157 65.8531 190.273 64.3712 190.273 64.3712Z" fill="#FFD5CD"/>
<path d="M191.417 69.5272L190.305 64.4021C190.305 64.4021 186.045 62.8276 185.119 66.1928C184.192 69.5271 187.527 75.3623 193.115 73.8186C193.424 73.6951 191.417 69.5272 191.417 69.5272Z" fill="#FFD5CD"/>
<path d="M191.108 71.6266C191.108 71.6266 189.471 69.0332 188.36 70.9783C188.36 70.9783 186.785 69.1567 187.65 67.6748C187.65 67.7057 190.459 69.095 191.108 71.6266Z" fill="#E0AAA4"/>
<path d="M148.873 122.723L155.573 123.464C155.573 123.464 155.202 117.135 155.573 116.394L148.873 122.723Z" fill="#E0AAA4"/>
<path d="M239.888 110.836C239.888 110.836 254.244 119.326 276.566 153.905C278.171 156.405 278.541 159.493 277.554 162.271C274.929 169.681 267.674 184.5 249.181 196.726L249.736 198.393C249.736 202.469 248.44 205.155 244.364 205.834L242.882 205.093L235.473 209.446C233.096 210.836 230.101 210.65 227.94 208.952L224.482 206.204L223.401 201.913C222.907 199.968 223.556 197.93 225.038 196.603L228.218 193.762C229.051 193.021 230.07 192.497 231.151 192.25L241.74 189.841C241.74 189.841 255.355 171.533 262.178 160.851C262.178 160.851 242.481 147.946 237.48 140.505L239.888 110.836Z" fill="#FFD5CD"/>
<path d="M237.851 107.471C237.851 107.471 253.071 121.58 258.289 128.835L246.958 151.867L230.595 137.387L237.851 107.471Z" fill="#4779F1"/>
<path d="M233.188 139.796L237.48 143.717L233.744 129.206L233.188 139.796Z" fill="#0F45C2"/>
<path d="M210.373 75.1771C210.126 75.1771 209.848 75.1771 209.57 75.1462L209.632 74.0347C211.391 74.1582 212.719 73.8495 213.429 73.1085C213.8 72.7072 213.954 72.275 214.016 71.9662C212.966 71.8427 212.04 71.3796 211.361 70.6078C210.218 69.3111 209.786 67.2734 210.126 64.6801C210.249 63.8465 210.65 63.1364 211.391 62.6115C214.293 60.4812 221.456 61.7162 221.734 61.7779L221.549 62.8894C221.487 62.8894 214.571 61.6853 212.04 63.5377C211.577 63.8773 211.299 64.3096 211.237 64.8344C210.959 67.0573 211.299 68.848 212.194 69.8668C212.781 70.546 213.583 70.8856 214.571 70.8856H215.065L215.127 71.3796C215.127 71.4414 215.251 72.7998 214.201 73.8804C213.429 74.7448 212.132 75.1771 210.373 75.1771Z" fill="black"/>
<path d="M208.088 63.7849C203.797 61.9017 200.74 63.6614 200.617 63.7541L200.03 62.797C200.185 62.7044 203.673 60.6358 208.521 62.7661L208.088 63.7849Z" fill="black"/>
<path d="M205.897 69.0332C206.51 69.0332 207.008 68.3697 207.008 67.5513C207.008 66.7328 206.51 66.0693 205.897 66.0693C205.283 66.0693 204.785 66.7328 204.785 67.5513C204.785 68.3697 205.283 69.0332 205.897 69.0332Z" fill="black"/>
<path d="M215.56 69.0332C216.174 69.0332 216.671 68.3697 216.671 67.5513C216.671 66.7328 216.174 66.0693 215.56 66.0693C214.946 66.0693 214.448 66.7328 214.448 67.5513C214.448 68.3697 214.946 69.0332 215.56 69.0332Z" fill="black"/>
<path d="M202.562 77.4004C202.562 77.4004 209.632 79.438 214.633 78.5118L208.489 83.5134C208.489 83.5134 202.747 83.8838 202.562 77.4004Z" fill="white"/>
<path d="M77.3699 79.7466C89.0157 79.7466 98.4565 70.3057 98.4565 58.6599C98.4565 47.0141 89.0157 37.5732 77.3699 37.5732C65.724 37.5732 56.2832 47.0141 56.2832 58.6599C56.2832 70.3057 65.724 79.7466 77.3699 79.7466Z" fill="white"/>
<path d="M84.8411 63.4149C84.8411 67.6754 81.3833 71.1333 77.1227 71.1333C72.8621 71.1333 69.4043 67.6754 69.4043 63.4149C69.4043 59.1543 74.128 49.2439 77.1227 46.2492C77.6475 45.6934 84.8411 59.1235 84.8411 63.4149Z" fill="#FF477C"/>
<path d="M81.5297 67.4772C82.9605 66.2122 83.6259 64.6275 83.016 63.9376C82.4061 63.2478 80.7518 63.7141 79.3211 64.9791C77.8903 66.2441 77.2249 67.8287 77.8348 68.5186C78.4447 69.2084 80.099 68.7421 81.5297 67.4772Z" fill="white"/>
<path d="M100.802 162.272C108.185 162.272 114.17 156.287 114.17 148.903C114.17 141.52 108.185 135.535 100.802 135.535C93.4188 135.535 87.4336 141.52 87.4336 148.903C87.4336 156.287 93.4188 162.272 100.802 162.272Z" fill="white"/>
<path d="M107.1 146.187H103.519V142.605H98.054V146.187H94.4727V151.651H98.054V155.233H103.519V151.651H107.1V146.187Z" fill="#FF477C"/>
<path d="M206.946 211.484L203.303 213.676C201.729 214.633 200.771 216.332 200.771 218.153V228.774H202.933V220.407C202.933 218.215 203.612 216.115 204.909 214.356L206.946 211.484Z" fill="#A77A06"/>
<path d="M206.329 68.0763C206.567 68.0763 206.761 67.8275 206.761 67.5206C206.761 67.2137 206.567 66.9648 206.329 66.9648C206.09 66.9648 205.896 67.2137 205.896 67.5206C205.896 67.8275 206.09 68.0763 206.329 68.0763Z" fill="white"/>
<path d="M215.251 68.0763C215.489 68.0763 215.683 67.8275 215.683 67.5206C215.683 67.2137 215.489 66.9648 215.251 66.9648C215.012 66.9648 214.818 67.2137 214.818 67.5206C214.818 67.8275 215.012 68.0763 215.251 68.0763Z" fill="white"/>
<path d="M271.996 101.451C285.211 101.451 295.923 90.7382 295.923 77.5237C295.923 64.3092 285.211 53.5967 271.996 53.5967C258.782 53.5967 248.069 64.3092 248.069 77.5237C248.069 90.7382 258.782 101.451 271.996 101.451Z" fill="white"/>
<path d="M281.258 68.4468C277.06 65.2359 273.293 69.4038 272.367 70.5462C272.243 70.7005 272.151 70.9166 272.151 71.1328C271.996 70.9166 267.489 64.8345 262.734 68.4776C257.825 72.2133 260.048 78.1102 263.475 80.8888C266.624 83.4204 271.163 87.1562 271.935 87.7428V87.8354C271.935 87.8354 271.965 87.8354 271.996 87.8045C272.027 87.8354 272.058 87.8354 272.058 87.8354V87.7428C272.799 87.1253 277.368 83.4204 280.517 80.8888C283.944 78.0484 286.167 72.1825 281.258 68.4468Z" fill="#FF477C"/>
</svg>
