<svg width="313" height="232" viewBox="0 0 313 232" fill="none" xmlns="http://www.w3.org/2000/svg">
<path d="M274.988 229.044H37.052C16.5808 229.044 0 212.463 0 191.992V37.1448C0 16.6736 16.5808 0.0927734 37.052 0.0927734H274.988C295.459 0.0927734 312.04 16.6736 312.04 37.1448V191.992C312.04 212.463 295.459 229.044 274.988 229.044Z" fill="#AFC1EC"/>
<path d="M310.929 178.591H113.225V0H276.007C295.305 0 310.929 15.6236 310.929 34.9216V178.591Z" fill="#0F45C2"/>
<path d="M243.926 52.3672C241.857 52.3672 239.881 52.7377 238.059 53.417C243.432 54.8373 247.384 59.7158 247.384 65.5207C247.384 72.437 241.765 78.0257 234.879 78.0257C232.81 78.0257 230.896 77.5317 229.167 76.6363C231.946 81.978 237.504 85.6214 243.926 85.6214C253.127 85.6214 260.569 78.1801 260.569 68.9789C260.569 59.7776 253.127 52.3672 243.926 52.3672Z" fill="white"/>
<path d="M276.007 0H260.568C265.91 8.86162 273.567 16.1794 282.645 21.1814C277.489 29.9195 274.525 40.1088 274.525 50.9774C274.525 75.5244 289.562 96.5206 310.897 105.351V34.9216C310.928 15.6236 295.305 0 276.007 0Z" fill="#1757EE"/>
<path d="M153.396 119.802C149.629 119.802 145.954 120.173 142.403 120.821C150.864 110.632 155.989 97.5399 155.989 83.244C155.989 56.9679 138.729 34.7058 114.954 27.1719V178.56H212.216C212.185 146.14 185.878 119.802 153.396 119.802Z" fill="#1757EE"/>
<path d="M271.561 38.6885L273.661 39.8309L271.561 41.0042L270.388 43.1039L269.245 41.0042L267.146 39.8309L269.245 38.6885L270.388 36.5889L271.561 38.6885Z" fill="white"/>
<path d="M283.633 153.396L285.764 154.569L283.633 155.711L282.491 157.842L281.348 155.711L279.218 154.569L281.348 153.396L282.491 151.296L283.633 153.396Z" fill="white"/>
<path d="M87.3503 52.7682C87.3503 52.7682 91.7965 67.6816 88.8324 74.9377C85.8682 82.1937 73.4558 84.2624 75.2466 112.916L142.897 116.282C142.897 116.282 149.011 98.7436 141.014 85.5901C133.017 72.4366 133.418 52.7373 133.418 52.7373L87.3503 52.7682Z" fill="black"/>
<path d="M154.816 205.824L158.367 213.08L155.989 222.775C155.773 223.64 156.576 224.442 157.44 224.195C158.521 223.887 159.818 223.207 160.528 221.849L162.875 227.221C164.079 229.969 166.796 231.729 169.791 231.729H171.551C173.311 231.729 174.886 230.649 175.472 228.981L177.881 222.466C178.869 219.811 178.22 216.847 176.213 214.871L170.162 208.819L165.962 197.147L154.816 205.824Z" fill="#FFD5CD"/>
<path d="M144.133 105.969C144.133 105.969 165.87 152.099 173.836 196.438C173.836 196.438 175.164 204.867 156.761 209.745C156.761 209.745 134.808 175.38 133.696 157.873C132.585 140.365 141.014 106.401 141.014 106.401L144.133 105.969Z" fill="#4779F1"/>
<path d="M144.132 228.241L140.736 182.976C138.358 146.912 144.132 105.969 144.132 105.969C143.021 101.77 132.091 96.4285 126.347 94.8538C120.604 93.3099 113.379 93.4026 113.379 93.4026L111.31 93.2482C111.31 93.2482 103.56 89.1725 92.3831 95.6257C83.892 100.504 75.8023 107.019 72.4058 109.86C71.3252 110.755 70.4915 111.959 69.9975 113.287C66.9407 121.439 55.6398 152.13 55.8868 158.614C56.1029 164.234 62.1239 169.637 70.7385 169.637V229.044H144.132V228.241Z" fill="#4779F1"/>
<path d="M66.8171 146.17C66.8171 146.17 72.0044 133.603 76.4197 127.088C80.866 120.573 80.7116 119.832 80.7116 119.832C80.7116 119.832 70.9546 125.606 67.5581 132.986C64.1617 140.396 65.1806 143.669 66.8171 146.17Z" fill="#0F45C2"/>
<path d="M70.7383 169.605C70.7383 169.605 82.1318 170.47 88.832 161.824C88.832 161.824 79.816 179.331 70.7383 183.561V169.605Z" fill="#0F45C2"/>
<path d="M140.551 179.888C140.551 179.888 138.235 150.246 140.643 145.398L145.645 190.355L140.551 179.888Z" fill="#0F45C2"/>
<path d="M90.4067 158.582C90.9316 156.915 91.6109 155.34 92.2285 153.735C92.5372 152.932 92.8769 152.129 93.2165 151.357C93.5562 150.554 93.8958 149.782 94.2663 148.98C95.0074 147.436 95.8102 145.892 96.5203 144.317C96.86 143.514 97.1687 142.712 97.4466 141.909C97.7554 141.106 98.0024 140.272 98.2494 139.439C98.7434 137.802 99.2684 136.135 99.8241 134.498C100.349 132.862 100.874 131.226 101.43 129.589C101.985 127.953 102.572 126.347 103.159 124.711C103.745 123.074 104.332 121.468 104.95 119.832L105.042 119.863C104.487 123.29 103.591 126.656 102.541 129.96C102.016 131.596 101.399 133.233 100.812 134.838C100.503 135.641 100.195 136.444 99.855 137.247C99.5154 138.049 99.1757 138.821 98.8052 139.624L98.2803 140.828C98.095 141.23 97.9407 141.631 97.7554 142.032C97.4157 142.835 97.107 143.638 96.7982 144.441C96.1807 146.046 95.7175 147.714 95.0691 149.35C94.4825 150.987 93.7105 152.53 92.9695 154.105C92.599 154.877 92.1976 155.649 91.7653 156.421C91.333 157.193 90.9008 157.934 90.4376 158.675L90.4067 158.582Z" fill="#0F45C2"/>
<path d="M139.594 104.857C139.748 106.432 139.779 107.976 139.779 109.55C139.779 110.322 139.779 111.125 139.779 111.897C139.779 112.669 139.748 113.472 139.686 114.244C139.563 115.787 139.347 117.362 139.285 118.906C139.223 120.481 139.254 122.024 139.347 123.599C139.439 125.174 139.501 126.718 139.532 128.292C139.563 129.867 139.625 131.411 139.656 132.955L139.625 142.31H139.501C139.347 141.539 139.162 140.767 139.038 139.995C138.915 139.223 138.822 138.451 138.729 137.648C138.575 136.073 138.482 134.53 138.421 132.955C138.39 132.183 138.39 131.38 138.39 130.608C138.39 129.836 138.421 129.033 138.421 128.262C138.451 127.49 138.451 126.687 138.513 125.915C138.544 125.143 138.637 124.34 138.668 123.568C138.791 121.994 138.884 120.45 138.884 118.875C138.884 117.3 138.729 115.757 138.698 114.182C138.668 112.607 138.76 111.063 138.884 109.489C139.007 107.914 139.162 106.37 139.439 104.826L139.594 104.857Z" fill="#0F45C2"/>
<path d="M109.705 219.039C109.489 215.149 109.396 211.289 109.335 207.399L109.304 204.496L109.273 201.594C109.242 199.649 109.273 197.704 109.304 195.789L109.458 189.984L109.551 187.082L109.612 184.18C109.643 180.289 109.582 176.429 109.489 172.539C109.427 170.594 109.396 168.649 109.335 166.734C109.304 164.789 109.273 162.844 109.273 160.929C109.242 157.039 109.18 153.179 109.211 149.289C109.273 141.539 109.396 133.758 109.736 126.008H109.859C110.199 133.758 110.353 141.539 110.384 149.289C110.384 153.179 110.353 157.039 110.323 160.929C110.292 162.875 110.292 164.82 110.261 166.734C110.23 168.679 110.168 170.625 110.106 172.539C110.014 176.429 109.952 180.289 109.983 184.18L110.045 187.082L110.137 189.984L110.292 195.789C110.323 197.734 110.323 199.68 110.323 201.594L110.292 204.496L110.261 207.399C110.199 211.289 110.106 215.149 109.89 219.039H109.705Z" fill="#0F45C2"/>
<path d="M116.621 77.377L118.69 91.7655L126.347 94.8532C126.347 94.8532 123.229 113.04 110.631 119.03C110.631 119.03 98.8979 109.952 98.8979 99.2994L104.672 91.0862L106.679 79.3222L116.621 77.377Z" fill="#FFD5CD"/>
<path d="M118.69 34.5817C127.644 36.9901 135.981 39.4602 133.418 52.7063C131.905 60.549 120.697 61.2901 120.697 61.2901L92.3833 62.3707C92.3833 62.3707 83.9539 55.7322 88.8325 45.3885C88.8325 45.3577 96.0885 28.5299 118.69 34.5817Z" fill="black"/>
<path d="M94.4521 60.9816C94.4521 60.9816 97.3546 83.6759 111.527 85.5594C111.527 85.5594 126.718 81.4528 125.699 51.7494C125.699 51.7494 118.351 62.6798 112.206 51.2245C112.206 51.2245 108.779 43.8759 105.383 47.1179C101.955 50.36 105.753 58.6658 99.7629 60.9507C96.1504 62.3401 94.4521 60.9816 94.4521 60.9816Z" fill="#FFD5CD"/>
<path d="M95.3783 64.841L94.5446 61.0122C94.5446 61.0122 91.3643 59.8389 90.685 62.3399C90.0057 64.841 92.4759 69.1637 96.6442 68.0213C96.8912 67.9286 95.3783 64.841 95.3783 64.841Z" fill="#FFD5CD"/>
<path d="M95.1621 66.4157C95.1621 66.4157 93.927 64.5014 93.0933 65.9217C93.0933 65.9217 91.92 64.5631 92.5684 63.4824C92.5993 63.4824 94.6989 64.5322 95.1621 66.4157Z" fill="#E0AAA4"/>
<path d="M124.711 64.841L125.545 61.0122C125.545 61.0122 128.725 59.8389 129.405 62.3399C130.084 64.841 127.614 69.1637 123.445 68.0213C123.229 67.9286 124.711 64.841 124.711 64.841Z" fill="#FFD5CD"/>
<path d="M124.927 66.4157C124.927 66.4157 126.162 64.5014 126.996 65.9217C126.996 65.9217 128.169 64.5631 127.521 63.4824C127.521 63.4824 125.421 64.5322 124.927 66.4157Z" fill="#E0AAA4"/>
<path d="M121.593 53.0458L110.878 53.7251C110.477 53.7559 110.076 53.8177 109.674 53.9103L99.2996 56.6584C95.687 57.6155 92.0127 55.238 91.426 51.5328L90.685 46.9322C90.1292 43.474 92.4758 40.232 95.934 39.6762L119.462 35.8783C122.92 35.3226 126.162 37.6692 126.718 41.1274L127.459 45.728C128.015 49.4023 125.298 52.8297 121.593 53.0458Z" fill="#F6B91D"/>
<path d="M90.9628 48.8467L87.3193 52.0887C87.3193 52.0887 87.4737 53.9105 87.5972 54.3736C87.6899 54.8368 91.7038 52.7371 91.7038 52.7371L90.9628 48.8467Z" fill="#F6B91D"/>
<path d="M126.78 41.7148L127.428 45.7288L133.789 46.3463C133.789 46.3463 134.036 44.7099 133.326 43.5366L126.78 41.7148Z" fill="#F6B91D"/>
<path d="M110.601 119.061C110.601 119.061 120.08 116.56 125.915 119.864C129.775 122.025 130.238 101.245 126.317 94.8535C126.317 94.8535 119.925 113.163 110.601 119.061Z" fill="#0F45C2"/>
<path d="M106.556 118.319C109.057 118.566 110.817 119.06 110.817 119.06C101.523 113.163 95.1003 94.8838 95.1003 94.8838C93.5256 97.4466 92.6611 102.294 92.4141 107.049L106.556 118.319Z" fill="#0F45C2"/>
<path d="M133.603 130.146H118.412V132.152H133.603V130.146Z" fill="#FEFEFE"/>
<path d="M88.8325 104.178L92.3833 96.922L90.0058 87.2267C89.7897 86.3622 90.5925 85.5594 91.457 85.8064C92.5377 86.1151 93.8345 86.7944 94.5447 88.153L96.8913 82.7805C98.0955 80.0324 100.813 78.2725 103.808 78.2725H105.568C107.328 78.2725 108.902 79.3531 109.489 81.0205L111.897 87.5355C112.885 90.1909 112.237 93.155 110.23 95.1311L104.178 101.183L99.9481 113.04L88.8325 104.178Z" fill="#FFD5CD"/>
<path d="M117.27 81.8535L117.733 85.0338L111.743 93.0309C111.743 93.0309 112.885 90.5607 112.237 88.5846L111.063 85.2191L112.052 85.5587C112.052 85.5587 116.992 82.5637 117.27 81.8535Z" fill="#E0AAA4"/>
<path d="M101.584 108.5L104.209 101.244L104.024 112.236L101.584 108.5Z" fill="#E0AAA4"/>
<path d="M105.197 100.226C105.351 99.9171 105.567 99.6392 105.753 99.3922C105.969 99.1452 106.185 98.8673 106.432 98.682C106.679 98.4659 106.988 98.2806 107.235 98.0645C107.482 97.8484 107.698 97.5705 107.883 97.2926C108.068 97.0147 108.284 96.7368 108.501 96.4898C108.717 96.2428 108.933 95.9958 109.18 95.7487C109.674 95.2856 110.168 94.8533 110.785 94.5137L110.816 94.5445C110.477 95.1312 110.044 95.6561 109.612 96.1501C109.396 96.3971 109.118 96.6133 108.871 96.8294C108.624 97.0456 108.377 97.2617 108.099 97.4778C107.821 97.694 107.574 97.9101 107.358 98.1571C107.142 98.4041 106.957 98.7129 106.741 98.9599C106.524 99.2378 106.277 99.4539 106.03 99.6701C105.783 99.8862 105.506 100.102 105.197 100.257V100.226Z" fill="#E0AAA4"/>
<path d="M158.367 213.08L163.986 207.244C163.986 207.244 158.83 209.375 156.761 209.714L158.367 213.08Z" fill="#E0AAA4"/>
<path d="M111.064 73.2084C110.848 73.2084 110.601 73.2084 110.354 73.1775L110.415 72.1895C111.99 72.2821 113.132 72.0042 113.781 71.3867C114.12 71.047 114.244 70.6456 114.306 70.3677C113.379 70.2442 112.577 69.8428 111.959 69.1635C110.94 68.0211 110.57 66.1994 110.878 63.9145C110.971 63.1735 111.342 62.5559 111.99 62.0928C114.553 60.2093 120.882 61.3209 121.129 61.3517L120.944 62.3089C120.882 62.3089 114.769 61.2282 112.546 62.8647C112.113 63.1735 111.897 63.544 111.836 64.0071C111.589 65.9832 111.866 67.5579 112.669 68.4534C113.194 69.04 113.904 69.3488 114.769 69.3488H115.201L115.263 69.7811C115.263 69.8428 115.386 71.0161 114.46 72.0042C113.75 72.807 112.608 73.2084 111.064 73.2084Z" fill="#231F20"/>
<path d="M109.026 63.1124C105.228 61.4451 102.541 63.0198 102.418 63.0815L101.893 62.2479C102.017 62.1552 105.104 60.3335 109.396 62.217L109.026 63.1124Z" fill="#231F20"/>
<path d="M118.845 67.1571C116.683 67.1571 115.417 66.1073 115.355 66.0456L116.097 65.2119L115.726 65.6442L116.097 65.2119C116.158 65.2737 117.64 66.5087 120.265 65.8912L120.512 66.9719C119.925 67.0954 119.369 67.1571 118.845 67.1571Z" fill="#231F20"/>
<path d="M105.321 67.1571C104.827 67.1571 104.271 67.0954 103.653 66.9719L103.9 65.8912C106.525 66.5087 108.007 65.2737 108.069 65.2119L108.81 66.0456C108.748 66.0765 107.513 67.1571 105.321 67.1571Z" fill="#231F20"/>
<path d="M113.657 76.7906C113.657 78.7049 112.206 80.2796 110.446 80.2796C108.686 80.2796 107.235 78.7358 107.235 76.7906C107.235 74.8453 108.686 74.8145 110.446 74.8145C112.206 74.8145 113.657 74.8762 113.657 76.7906Z" fill="white"/>
<path d="M101.646 78.612C102.109 78.4268 102.603 78.3033 103.067 78.1798C103.561 78.0871 104.055 78.0254 104.549 78.0254C105.043 78.0254 105.537 78.118 106.031 78.2107C106.154 78.2107 106.278 78.2415 106.401 78.2724L106.587 78.3033C106.648 78.3342 106.71 78.3342 106.772 78.365C106.895 78.3959 107.019 78.4268 107.142 78.4885C107.266 78.5503 107.358 78.612 107.482 78.6429C107.914 78.8591 108.377 79.0752 108.779 79.4148C109.18 79.7545 109.52 80.1868 109.736 80.6499C109.952 81.1131 110.137 81.6071 110.23 82.0702C110.292 82.3173 110.323 82.5643 110.353 82.8113C110.384 83.0583 110.415 83.3053 110.415 83.5523H110.353C109.952 82.626 109.643 81.7306 109.18 80.8969C108.964 80.4955 108.717 80.125 108.377 79.7854C108.038 79.4766 107.667 79.1987 107.266 78.8899C107.173 78.8282 107.081 78.7356 106.988 78.6738L106.834 78.5812C106.772 78.5503 106.71 78.5503 106.679 78.5194C106.617 78.4885 106.556 78.4885 106.525 78.4577L106.339 78.4268C106.216 78.3959 106.092 78.3959 105.969 78.365C105.475 78.3342 105.012 78.4268 104.518 78.4885C104.024 78.5503 103.561 78.5812 103.067 78.612C102.573 78.6429 102.079 78.6738 101.584 78.6429L101.646 78.612Z" fill="#E0AAA4"/>
<path d="M175.195 49.5257L177.109 50.5755L175.195 51.5944L174.176 53.5088L173.126 51.5944L171.211 50.5755L173.126 49.5257L174.176 47.6113L175.195 49.5257Z" fill="white"/>
<path d="M167.753 52.8919L170.1 54.1887L167.753 55.4547L166.487 57.8013L165.19 55.4547L162.844 54.1887L165.19 52.8919L166.487 50.5762L167.753 52.8919Z" fill="white"/>
<path d="M221.108 0H212.092V178.591H221.108V0Z" fill="#AFC1EC"/>
</svg>
