<svg width="288" height="288" viewBox="0 0 288 288" fill="none" xmlns="http://www.w3.org/2000/svg">
<path d="M205.545 235.368L208.697 237.09C209.152 237.35 209.152 238 208.697 238.227L205.545 239.949C205.448 240.014 205.351 240.112 205.286 240.209L203.564 243.36C203.304 243.815 202.654 243.815 202.427 243.36L200.705 240.209C200.64 240.112 200.542 240.014 200.445 239.949L197.294 238.227C196.839 237.967 196.839 237.318 197.294 237.09L200.445 235.368C200.542 235.303 200.64 235.206 200.705 235.109L202.427 231.957C202.687 231.503 203.336 231.503 203.564 231.957L205.286 235.109C205.351 235.206 205.448 235.303 205.545 235.368Z" fill="white"/>
<path d="M143.82 287.64C223.25 287.64 287.64 223.25 287.64 143.82C287.64 64.3904 223.25 0 143.82 0C64.3904 0 0 64.3904 0 143.82C0 223.25 64.3904 287.64 143.82 287.64Z" fill="#1757EE"/>
<path d="M147.979 44.7016L170.167 25.1769C173.546 22.1881 178.874 23.6175 180.303 27.9058L189.757 55.9096C190.764 58.9309 193.85 60.7177 196.969 60.0679L225.947 54.2527C230.366 53.3756 234.264 57.274 233.387 61.6923L227.572 90.6382C226.954 93.757 228.741 96.8432 231.73 97.8503L259.734 107.304C263.99 108.733 265.419 114.061 262.463 117.44L242.938 139.629C240.826 142 240.826 145.574 242.938 147.978L262.463 170.166C265.452 173.545 264.022 178.873 259.734 180.302L231.73 189.756C228.709 190.763 226.922 193.849 227.572 196.968L233.387 225.947C234.264 230.365 230.366 234.263 225.947 233.386L196.969 227.571C193.85 226.954 190.764 228.74 189.757 231.729L180.303 259.733C178.874 263.989 173.546 265.418 170.167 262.462L147.979 242.937C145.607 240.826 142.033 240.826 139.629 242.937L117.441 262.462C114.062 265.451 108.734 264.021 107.305 259.733L97.8835 231.729C96.8764 228.708 93.7902 226.921 90.6714 227.571L61.693 233.386C57.2748 234.263 53.3763 230.365 54.2535 225.947L60.0686 196.968C60.6859 193.849 58.8991 190.763 55.9103 189.756L27.9065 180.302C23.6507 178.873 22.2213 173.545 25.1776 170.166L44.7023 147.978C46.8139 145.606 46.8139 142.033 44.7023 139.629L25.1776 117.44C22.1888 114.061 23.6182 108.733 27.9065 107.304L55.9103 97.8503C58.9316 96.8432 60.7184 93.757 60.0686 90.6382L54.2535 61.6598C53.3763 57.2415 57.2748 53.3431 61.693 54.2203L90.6714 60.0354C93.7902 60.6527 96.8764 58.8659 97.8835 55.8771L107.337 27.8733C108.767 23.6175 114.095 22.1881 117.473 25.1444L139.662 44.6691C142.033 46.8132 145.607 46.8132 147.979 44.7016Z" fill="#AFC1EC"/>
<path d="M139.045 84.0437C139.045 84.0437 121.729 60.1982 104.609 67.3453C87.4879 74.4925 83.1996 77.7412 85.4412 96.6811C85.4412 96.6811 47.3339 83.8487 48.5684 122.151C49.8029 160.453 85.0513 166.983 106.655 150.057C128.259 133.132 109.092 110.326 109.092 110.326C109.092 110.326 120.722 111.333 112.146 95.6415C104.576 81.7371 116.824 70.9839 131.313 85.4406L139.045 84.0437Z" fill="black"/>
<path d="M116.044 153.891L79.5611 174.683L88.9823 138.363L91.2564 133.944L100.32 129.916C101.035 129.591 101.23 128.649 100.71 128.064C99.8005 127.025 97.8513 125.823 93.9204 126.083L94.3427 120.202C94.4402 118.643 93.5305 117.181 92.0686 116.596L87.1956 114.68C86.2859 114.322 85.2463 114.29 84.3042 114.582L77.9368 116.629C76.9621 116.954 76.1825 117.636 75.7601 118.578C74.883 120.462 73.9084 123.354 74.0383 124.296C74.6881 129.331 76.8647 136.121 76.8647 136.121L55.7156 192.129C54.2537 196.027 56.5928 200.315 60.6537 201.16C64.0973 201.907 67.7033 201.485 70.9196 200.023L117.571 178.517L126.83 159.966L116.044 153.891Z" fill="#FFD5CD"/>
<path d="M105.356 159.933L105.096 185.111C105.096 186.67 106.688 187.677 108.085 186.995L129.331 176.729L144.6 155.223L135.698 147.913L129.851 146.224L105.356 159.933Z" fill="#4779F1"/>
<path d="M189.789 164.189L218.183 195.084L220.262 157.594L219.417 152.689L212.01 146.094C211.426 145.574 211.523 144.632 212.205 144.21C213.407 143.527 215.616 142.943 219.255 144.404L220.684 138.719C221.042 137.192 222.374 136.088 223.933 135.99L229.164 135.633C230.171 135.568 231.145 135.86 231.957 136.413L237.415 140.311C238.227 140.896 238.78 141.805 238.91 142.813C239.17 144.859 239.235 147.946 238.812 148.79C236.636 153.371 232.51 159.186 232.51 159.186L235.596 218.962C235.823 223.12 232.282 226.467 228.156 226.077C224.648 225.719 221.334 224.258 218.735 221.854L180.823 187.19L177.639 166.691L189.789 164.189Z" fill="#FFD5CD"/>
<path d="M200.737 175.852L192.421 199.113C191.836 200.77 189.692 201.225 188.457 199.958L172.831 183.747C172.539 183.454 172.344 183.097 172.246 182.707L166.106 159.966C165.781 158.764 166.431 157.497 167.633 157.107L176.015 154.216C176.275 154.118 176.567 154.086 176.827 154.086L181.83 154.151C182.545 154.151 182.837 154.281 183.292 154.573L200.737 175.852Z" fill="#4779F1"/>
<path d="M176.729 283.546L179.588 253.593L111.528 252.586L113.769 284.748C113.769 284.748 143.495 292.09 176.729 283.546Z" fill="#D99D08"/>
<path d="M129.851 146.224L121.696 157.302C114.257 167.373 112.048 180.367 115.719 192.355L119.26 203.888L111.528 252.586C111.528 252.586 134.756 269.284 180.01 255.64L174.293 217.338L183.259 154.573L171.629 146.613L129.851 146.224Z" fill="#4779F1"/>
<path d="M142.715 119.325L139.239 140.506L129.851 146.224C129.851 146.224 132.904 157.237 146.549 157.237C160.193 157.237 166.301 151.324 171.629 146.646L160.226 140.344L155.938 117.928L142.715 119.325Z" fill="#FFD5CD"/>
<path d="M141.059 128.682L139.24 140.702C139.24 140.702 152.072 140.507 158.797 133.36L158.375 131.118L141.059 128.682Z" fill="#E0AAA4"/>
<path d="M161.656 106.46C161.656 106.46 181.018 104.218 181.213 88.3322C181.408 72.4461 161.656 67.9629 152.072 70.2045C143.918 72.1212 130.663 73.908 128.649 82.0623C128.649 82.0623 115.817 85.8957 118.058 97.721C120.3 109.546 124.361 119.325 138.655 121.372C152.884 123.353 161.656 106.46 161.656 106.46Z" fill="black"/>
<path d="M131.085 107.272C131.085 107.272 134.562 134.366 151.455 136.608C151.455 136.608 169.583 131.702 168.381 96.2589C168.381 96.2589 159.609 109.286 152.267 95.6416C152.267 95.6416 148.206 86.8701 144.113 90.7361C140.052 94.602 144.568 104.511 137.388 107.239C133.132 108.896 131.085 107.272 131.085 107.272Z" fill="#FFD5CD"/>
<path d="M132.32 112.925L131.085 107.305C131.085 107.305 126.407 105.583 125.368 109.254C124.361 112.925 128.032 119.325 134.139 117.603C134.529 117.506 132.32 112.925 132.32 112.925Z" fill="#FFD5CD"/>
<path d="M131.995 115.231C131.995 115.231 130.175 112.405 128.973 114.516C128.973 114.516 127.219 112.502 128.194 110.91C128.194 110.91 131.28 112.47 131.995 115.231Z" fill="#E0AAA4"/>
<path d="M153.112 119.13C152.819 119.13 152.527 119.13 152.234 119.097L152.332 117.863C154.281 117.993 155.71 117.635 156.49 116.856C156.913 116.433 157.075 115.946 157.14 115.589C155.97 115.459 154.996 114.939 154.249 114.094C153.014 112.665 152.527 110.423 152.917 107.597C153.047 106.687 153.501 105.908 154.281 105.323C157.465 102.984 165.294 104.348 165.652 104.413L165.424 105.615C165.359 105.615 157.757 104.283 154.996 106.298C154.476 106.687 154.184 107.142 154.119 107.727C153.794 110.163 154.184 112.113 155.158 113.25C155.808 113.997 156.685 114.354 157.79 114.354H158.342L158.407 114.907C158.407 114.972 158.569 116.466 157.4 117.635C156.458 118.675 155.028 119.13 153.112 119.13Z" fill="black"/>
<path d="M150.61 106.622C145.899 104.543 142.553 106.492 142.423 106.59L141.773 105.55C141.936 105.453 145.769 103.179 151.097 105.518L150.61 106.622Z" fill="black"/>
<path d="M149.343 268.668L145.347 271.072C143.625 272.112 142.553 273.963 142.553 275.978V287.64H144.925V278.447C144.925 276.043 145.672 273.736 147.069 271.787L149.343 268.668Z" fill="#A77A06"/>
<path d="M113.997 180.627C113.997 180.627 114.062 172.506 116.304 167.405C116.304 167.405 107.045 179.166 107.467 187.19L114.127 184.071L113.997 180.627Z" fill="#0F45C2"/>
<path d="M178.289 189.4L180.693 172.571L184.559 195.897L178.289 189.4Z" fill="#0F45C2"/>
<path d="M158.342 111.43L157.237 110.715C157.302 110.586 159.252 107.662 163.8 108.831L163.475 110.098C159.869 109.156 158.407 111.333 158.342 111.43Z" fill="black"/>
<path d="M149.83 111.43C149.765 111.333 148.303 109.156 144.697 110.098L144.373 108.831C148.921 107.662 150.837 110.586 150.935 110.715L149.83 111.43L150.383 111.073L149.83 111.43Z" fill="black"/>
<path d="M144.762 120.787C144.762 120.787 150.058 123.191 157.432 122.736C157.432 122.736 154.476 127.739 148.92 126.992C144.632 126.375 144.762 120.787 144.762 120.787Z" fill="white"/>
<path d="M232.639 71.5688L237.642 74.2977C238.357 74.6875 238.357 75.7271 237.642 76.117L232.639 78.8459C232.477 78.9433 232.314 79.0733 232.217 79.2682L229.488 84.2712C229.098 84.9859 228.059 84.9859 227.669 84.2712L224.94 79.2682C224.842 79.1058 224.712 78.9433 224.518 78.8459L219.515 76.117C218.8 75.7271 218.8 74.6875 219.515 74.2977L224.518 71.5688C224.68 71.4713 224.842 71.3414 224.94 71.1465L227.669 66.1435C228.059 65.4287 229.098 65.4287 229.488 66.1435L232.217 71.1465C232.314 71.3089 232.477 71.4713 232.639 71.5688Z" fill="white"/>
<path d="M69.3275 69.5546L72.7712 71.4389C73.2585 71.6987 73.2585 72.4135 72.7712 72.6734L69.3275 74.5576C69.1976 74.6226 69.1001 74.72 69.0352 74.85L67.1509 78.2936C66.891 78.7809 66.1763 78.7809 65.9164 78.2936L64.0321 74.85C63.9672 74.72 63.8697 74.6226 63.7398 74.5576L60.2961 72.6734C59.8088 72.4135 59.8088 71.6987 60.2961 71.4389L63.7398 69.5546C63.8697 69.4896 63.9672 69.3922 64.0321 69.2622L65.9164 65.8186C66.1763 65.3313 66.891 65.3313 67.1509 65.8186L69.0352 69.2622C69.1001 69.3922 69.1976 69.4896 69.3275 69.5546Z" fill="white"/>
<path d="M41.1286 174.423L44.2149 176.112C44.6697 176.339 44.6697 176.989 44.2149 177.217L41.1286 178.906C41.0312 178.971 40.9337 179.068 40.8687 179.166L39.1794 182.252C38.952 182.707 38.3023 182.707 38.0748 182.252L36.3855 179.166C36.3205 179.068 36.2231 178.971 36.1256 178.906L33.0394 177.217C32.5845 176.989 32.5845 176.339 33.0394 176.112L36.1256 174.423C36.2231 174.358 36.3205 174.26 36.3855 174.163L38.0748 171.076C38.3023 170.622 38.952 170.622 39.1794 171.076L40.8687 174.163C40.9337 174.293 41.0312 174.358 41.1286 174.423Z" fill="white"/>
<path d="M164.352 28.3611L165.944 29.2383C166.171 29.3682 166.171 29.6931 165.944 29.823L164.352 30.7002C164.287 30.7327 164.255 30.7652 164.222 30.8301L163.345 32.422C163.215 32.6494 162.89 32.6494 162.76 32.422L161.883 30.8301C161.851 30.7652 161.818 30.7327 161.753 30.7002L160.161 29.823C159.934 29.6931 159.934 29.3682 160.161 29.2383L161.753 28.3611C161.818 28.3286 161.851 28.2961 161.883 28.2312L162.76 26.6393C162.89 26.4119 163.215 26.4119 163.345 26.6393L164.222 28.2312C164.255 28.2637 164.287 28.3286 164.352 28.3611Z" fill="white"/>
<path d="M201.127 124.263L207.202 127.577C208.08 128.064 208.08 129.298 207.202 129.786L201.127 133.099C200.932 133.229 200.737 133.392 200.64 133.587L197.326 139.694C196.839 140.571 195.604 140.571 195.117 139.694L191.771 133.619C191.641 133.424 191.479 133.229 191.284 133.132L185.209 129.818C184.331 129.331 184.331 128.096 185.209 127.609L191.284 124.295C191.479 124.165 191.674 124.003 191.771 123.808L195.085 117.733C195.572 116.856 196.807 116.856 197.294 117.733L200.607 123.808C200.737 123.971 200.932 124.133 201.127 124.263Z" fill="white"/>
</svg>
