<svg width="328" height="242" viewBox="0 0 328 242" fill="none" xmlns="http://www.w3.org/2000/svg">
<g clip-path="url(#clip0)">
<path d="M320.455 29.5724V211.45C320.54 218.483 318.653 225.399 315.006 231.413L314.901 231.57C314.314 232.464 313.674 233.321 312.983 234.137C310.643 237.069 307.484 239.239 303.908 240.373L303.395 240.509C303.08 240.593 302.756 240.656 302.431 240.718C301.664 240.842 300.891 240.926 300.115 240.97H299.947C299.79 240.97 299.654 240.97 299.496 240.97H28.5035C27.5195 240.945 26.5388 240.847 25.5693 240.677C23.058 240.118 20.6981 239.02 18.653 237.459L18.4854 237.334L39.6953 222.306L44.9349 218.565L73.4804 198.34L88.2561 187.861L106.72 174.783L125.342 161.579L125.761 161.286L127.784 162.837L140.474 172.603L155.501 184.131C156.619 184.991 157.921 185.582 159.304 185.856C160.688 186.13 162.117 186.079 163.478 185.709C164.839 185.338 166.096 184.658 167.15 183.72C168.204 182.783 169.027 181.614 169.554 180.306L197.397 112.086L214.877 69.2258L216.815 64.9712L237.334 14.6709L243.307 0H299.496C311.024 0 320.455 13.3086 320.455 29.5724Z" fill="#8FAFE2"/>
<path d="M243.307 0L237.334 14.6709L216.816 64.9713L215.003 69.3935L197.523 112.254L169.68 180.473C169.153 181.782 168.33 182.951 167.276 183.888C166.222 184.825 164.965 185.506 163.604 185.876C162.243 186.247 160.814 186.297 159.43 186.023C158.047 185.75 156.745 185.159 155.627 184.298L140.6 172.771L127.847 162.91L125.751 161.338L125.332 161.632L88.3193 187.914L73.5436 198.393L44.9877 218.618L39.7481 222.359L18.4962 237.376L18.3809 237.281C16.2821 235.626 14.4664 233.641 13.0051 231.402C12.9108 231.266 12.8269 231.13 12.7431 230.983C12.6593 230.837 12.3763 230.386 12.1982 230.082C12.02 229.778 11.779 229.338 11.5799 228.95C11.5066 228.804 11.4332 228.667 11.3703 228.521C11.0036 227.819 10.6787 227.095 10.3748 226.362C10.2281 226.016 10.0814 225.66 9.95563 225.314C9.46558 224.017 9.05611 222.69 8.72956 221.342C7.93911 218.108 7.545 214.79 7.55588 211.46V29.5724C7.5454 13.3086 16.9767 0 28.5039 0H243.307Z" fill="#CADCFF"/>
<path d="M243.306 0L237.333 14.6709L216.815 64.9713L215.002 69.3935L197.522 112.254L169.679 180.473C169.152 181.782 168.329 182.951 167.275 183.888C166.221 184.825 164.964 185.506 163.603 185.876C162.242 186.247 160.813 186.297 159.429 186.023C158.046 185.75 156.744 185.159 155.626 184.298L140.599 172.771L127.846 162.91L125.75 161.338L125.331 161.632L88.3183 187.914L73.5426 198.393L44.9867 218.618L39.747 222.359L18.4952 237.376L18.3799 237.281C16.281 235.626 14.4654 233.641 13.004 231.402C12.9097 231.266 12.8259 231.13 12.7421 230.983C12.6582 230.837 12.3753 230.386 12.1971 230.082C12.019 229.778 11.778 229.338 11.5789 228.95C11.5055 228.804 11.4322 228.667 11.3693 228.521C11.0025 227.819 10.6777 227.095 10.3738 226.362C10.227 226.016 10.0803 225.66 9.95459 225.314C9.46454 224.017 9.05507 222.69 8.72852 221.342L12.784 218.199L27.9055 206.305L69.6757 166.903L83.2987 154.045L90.1207 147.516L94.0504 143.807L95.769 142.193L95.9996 141.973L99.2167 138.934L100.977 137.278L101.323 136.964L119.567 119.778C120.536 118.891 121.68 118.218 122.926 117.803C124.172 117.388 125.491 117.239 126.798 117.367C128.728 117.547 130.546 118.353 131.975 119.662L138.262 125.237L148.647 134.48L187.326 58.3589L187.431 58.1702L188.343 56.3573L205.927 21.7759L216.919 0H243.306Z" fill="#4484EA"/>
<path d="M193.929 59.9828C193.31 62.8332 195.542 65.3167 196.412 68.0413C196.737 69.0864 196.938 70.1663 197.009 71.2585C197.502 75.3559 198.498 79.6419 198.498 83.8964C198.498 84.1479 198.12 84.2737 197.754 84.2737C197.01 84.1479 196.391 84.1479 195.658 84.0222C195.233 83.9978 194.814 83.9167 194.411 83.7812C194.042 83.6472 193.706 83.4364 193.426 83.1629C191.938 82.115 190.942 81.4233 189.454 80.4278C189.354 71.3909 188.375 62.3853 186.53 53.5381C187.351 54.9821 188.294 56.3529 189.349 57.6355C190.679 58.753 192.245 59.5554 193.929 59.9828Z" fill="black"/>
<path d="M285.256 80.693C284.079 70.0861 284.713 59.3562 287.132 48.9619C283.476 49.6616 279.873 50.614 276.349 51.8123C275.484 60.5785 275.861 69.423 277.47 78.0837C278.581 79.1945 279.199 80.8083 280.687 81.4266C281.892 81.7933 283.988 81.1751 285.256 80.693Z" fill="black"/>
<path d="M185.137 92.7017C185.39 93.7802 185.923 94.7727 186.683 95.5788C187.443 96.3848 188.403 96.9757 189.465 97.2916C203.842 102.238 204.963 87.001 198.267 80.9336C189.098 72.875 182.905 83.8363 185.137 92.7017Z" fill="#E0AAA4"/>
<path d="M257.37 132.972L255.023 120.083L227.881 122.441L227.399 138.799C229.254 139.166 230.994 139.543 232.482 139.784C241.515 141.031 249.94 137.929 257.37 132.972Z" fill="#FFD5CD"/>
<path d="M291.7 90.721C291.614 91.828 291.252 92.8956 290.646 93.8259C290.039 94.7561 289.209 95.519 288.231 96.0445C274.849 103.38 271.255 88.4889 276.83 81.3735C284.26 71.7641 292.37 81.5517 291.7 90.721Z" fill="#E0AAA4"/>
<path d="M282.279 83.4053C282.661 83.4275 283.036 83.5125 283.39 83.6568C284.356 83.8234 285.234 84.3237 285.87 85.0704C286.505 85.8171 286.859 86.7631 286.869 87.7437V87.7437C286.883 88.3235 286.755 88.8979 286.495 89.4167C286.236 89.9355 285.853 90.3829 285.381 90.7198" stroke="#CE8F8A" stroke-width="2.43051" stroke-miterlimit="10"/>
<path d="M194.421 84.2744L193.31 84.6412C192.404 84.9853 191.641 85.6266 191.146 86.4602C190.651 87.2939 190.454 88.2707 190.586 89.2311C190.667 89.7972 190.891 90.3332 191.238 90.7881C191.585 91.2429 192.042 91.6016 192.566 91.8299" stroke="#CE8F8A" stroke-width="2.43051" stroke-miterlimit="10"/>
<path d="M282.153 82.0425V82.535C282.153 83.0799 282.153 83.5829 282.153 84.0964C282.016 93.6535 282.551 95.9694 277.605 108.681C275.739 113.396 268.309 124.295 264.464 127.648C262.232 129.503 259.884 131.358 257.526 132.972C256.657 133.59 255.797 134.082 254.802 134.711L254.005 135.151C247.414 138.829 240.246 140.862 232.502 139.783C230.792 139.542 229.096 139.213 227.42 138.798C226.62 138.646 225.833 138.439 225.062 138.18C224.381 138.002 223.699 137.802 222.966 137.593C220.524 136.92 218.174 135.952 215.966 134.711C203.82 126.904 201.221 122.691 196.39 109.184C195.269 105.956 194.399 99.6371 193.781 93.9364C193.446 90.4992 193.215 87.2611 193.079 84.9347C193.079 84.6623 193.079 84.4003 193.079 84.1488V84.023C192.712 72.9989 194.326 67.7907 193.949 60.9687C219.602 69.6455 254.047 62.5825 280.685 56.8818C281.188 60.5915 281.555 64.2173 281.807 67.906C282.027 72.5064 282.278 77.2115 282.153 82.0425Z" fill="#FFD5CD"/>
<path d="M257.369 87.6196C259.557 87.6196 261.33 85.8461 261.33 83.6584C261.33 81.4707 259.557 79.6973 257.369 79.6973C255.182 79.6973 253.408 81.4707 253.408 83.6584C253.408 85.8461 255.182 87.6196 257.369 87.6196Z" fill="black"/>
<path d="M263.029 86.2559C257.087 88.7394 255.473 87.1256 255.222 86.8741L263.029 86.2559Z" fill="black"/>
<path d="M215.988 88.728C218.175 88.728 219.949 86.9545 219.949 84.7668C219.949 82.5791 218.175 80.8057 215.988 80.8057C213.8 80.8057 212.026 82.5791 212.026 84.7668C212.026 86.9545 213.8 88.728 215.988 88.728Z" fill="black"/>
<path d="M210.779 88.2355C217.067 89.5978 218.461 87.7429 218.586 87.6172L210.779 88.2355Z" fill="black"/>
<path d="M239.65 103.106C239.62 104.432 239.328 105.739 238.791 106.952C238.558 107.562 238.192 108.112 237.718 108.561C237.245 109.011 236.677 109.349 236.056 109.55C235.348 109.761 234.598 109.78 233.88 109.607C233.162 109.434 232.503 109.075 231.969 108.565C230.856 107.557 230.118 106.201 229.873 104.719C229.003 100.999 230.25 97.0382 231.969 93.4438C232.713 91.9558 233.583 89.3569 234.819 88.2042C236.433 86.7162 237.303 89.6923 237.796 90.9288C239.218 94.8238 239.849 98.9637 239.65 103.106Z" fill="#F2B5AD"/>
<path d="M237.051 118.354C238.099 119.128 239.347 119.586 240.646 119.673C241.946 119.76 243.244 119.473 244.386 118.847C245.48 118.165 246.418 117.262 247.14 116.195C247.862 115.128 248.352 113.922 248.578 112.653" stroke="black" stroke-width="2.48312" stroke-miterlimit="10"/>
<path d="M259.217 101.963C263.242 101.617 266.405 100.177 266.282 98.7474C266.159 97.3173 262.797 96.4383 258.772 96.7841C254.747 97.1299 251.584 98.5694 251.707 99.9995C251.83 101.43 255.192 102.308 259.217 101.963Z" fill="#E0AAA4"/>
<path d="M215.594 102.633C219.634 102.27 222.804 100.811 222.674 99.376C222.545 97.9407 219.166 97.0719 215.126 97.4354C211.086 97.799 207.916 99.2573 208.045 100.693C208.175 102.128 211.554 102.997 215.594 102.633Z" fill="#E0AAA4"/>
<path d="M287.235 34.2162C284.762 28.767 279.554 28.023 274.346 28.5155C273.385 28.6494 272.406 28.5623 271.483 28.2608C270.561 27.9594 269.719 27.4516 269.022 26.7759C263.688 21.8192 257.988 16.6215 250.925 15.3745C240.77 13.6454 230.113 14.7562 220.2 17.6066C210.286 20.4569 199.241 22.3222 192.314 29.752C191.702 30.4278 190.917 30.9235 190.043 31.1858C189.17 31.448 188.241 31.4668 187.358 31.2401C184.015 30.3703 184.759 26.7759 183.271 24.4286C181.416 28.8822 179.435 33.4722 179.31 38.3031C178.817 47.7344 186.498 59.8693 194.421 64.8155C198.759 67.5506 203.852 68.4099 208.924 69.0072C216.157 69.8335 223.484 69.0278 230.364 66.6494C238.287 63.9248 247.215 66.9009 255.64 66.5237C264.307 66.1569 273.235 64.5431 280.424 59.5864C282.788 58.1889 284.884 56.3829 286.617 54.2525C287.602 52.9216 290.955 42.5157 287.235 34.2162Z" fill="black"/>
<path d="M269.149 60.7809C269.893 57.5638 271.874 54.4933 274.965 53.3511C275.541 53.1235 276.157 53.0172 276.776 53.0389C277.394 53.0605 278.002 53.2096 278.56 53.4769C279.267 54.0132 279.859 54.6868 280.299 55.4574C280.833 56.3053 281.249 57.222 281.536 58.182C282.028 59.9216 281.41 61.3258 281.536 63.1387C282.28 74.6659 282.154 80.6076 282.028 90.0284C274.965 83.458 271.256 73.5446 271.371 63.8303C271.413 61.9755 270.365 62.0908 269.149 60.7809Z" fill="black"/>
<path d="M206.441 60.979C205.697 57.7514 203.717 54.6915 200.625 53.5388C200.049 53.3137 199.433 53.2087 198.815 53.2303C198.197 53.2519 197.59 53.3997 197.031 53.6645C196.331 54.2088 195.741 54.8808 195.291 55.6451C194.757 56.4967 194.341 57.4168 194.055 58.3802C193.562 60.1092 194.306 61.5973 194.055 63.3369C192.923 72.2562 192.758 81.2717 193.562 90.2266C200.625 83.6561 204.335 73.7427 204.22 64.0809C204.22 62.2156 205.205 62.3413 206.441 60.979Z" fill="black"/>
<path d="M269.892 13.519C269.653 12.7563 269.362 12.0106 269.023 11.287C268.771 10.7944 268.53 10.3019 267.975 10.1762C267.231 9.92467 266.612 10.6687 266.246 11.287C263.888 14.8813 265.198 19.4713 268.593 22.0701C273.508 25.6645 270.511 15.3739 269.892 13.519Z" fill="black"/>
<path d="M281.283 14.673C282.056 14.0193 282.888 13.4371 283.766 12.9335C283.988 12.7098 284.263 12.547 284.566 12.4608C284.869 12.3745 285.189 12.3677 285.495 12.4409C286.365 12.682 286.617 13.8032 286.617 14.673C286.617 19.9126 282.152 23.8424 276.955 24.2091C269.315 24.9217 279.302 16.2449 281.283 14.673Z" fill="black"/>
<path d="M255.222 142.979L254.771 143.251C247.96 147.223 240.52 149.455 232.472 148.334C230.762 148.093 229.065 147.764 227.389 147.348C226.59 147.196 225.802 146.99 225.031 146.73C224.182 146.5 223.313 146.259 222.464 145.986L222.988 137.603C223.669 137.812 224.35 138.011 225.084 138.19C225.855 138.449 226.642 138.656 227.442 138.808C229.118 139.223 230.814 139.552 232.524 139.793C240.268 140.841 247.436 138.839 254.027 135.161C254.446 137.75 254.855 140.422 255.222 142.979Z" fill="#E0AAA4"/>
<path d="M225.031 138.181C224.35 138.003 223.669 137.804 222.936 137.594L223.218 132.857L252.864 129.588C253.242 131.422 253.608 133.287 253.912 135.152C247.321 138.831 240.153 140.864 232.409 139.784C230.699 139.543 229.002 139.214 227.326 138.799C226.548 138.644 225.782 138.438 225.031 138.181Z" fill="#FFD5CD"/>
<path d="M314.901 231.592C314.314 232.486 313.674 233.343 312.983 234.159C310.642 237.091 307.484 239.261 303.908 240.394L303.395 240.531L302.598 240.688C301.453 240.892 300.293 241.008 299.13 241.034H159.756C159.691 235.724 159.992 230.416 160.657 225.147C163.549 201.045 175.265 157.504 222.076 152.578C223.805 152.39 225.586 152.264 227.41 152.191C237.087 151.125 246.864 151.393 256.469 152.987C274.765 156.058 296.373 165.195 304.285 190.367C311.055 211.975 313.853 224.424 314.901 231.592Z" fill="#7295DD"/>
<path d="M257.245 161.309C257.286 161.801 257.177 162.294 256.935 162.724C256.692 163.154 256.325 163.5 255.883 163.719C250.769 166.318 245.114 167.673 239.378 167.673C233.642 167.673 227.987 166.318 222.873 163.719C222.442 163.501 222.084 163.162 221.844 162.743C221.604 162.324 221.492 161.844 221.521 161.362L222.464 146.009C223.313 146.282 224.183 146.523 225.032 146.754C225.803 147.013 226.59 147.22 227.39 147.372C229.066 147.787 230.762 148.116 232.472 148.357C240.52 149.478 247.96 147.246 254.772 143.274L255.222 143.002C256.103 149.248 256.742 155.472 257.245 161.309Z" fill="#FFD5CD"/>
<path d="M194.914 216.324V240.668H189.485V216.324C189.485 215.605 189.771 214.914 190.28 214.405C190.789 213.896 191.48 213.61 192.199 213.61C192.919 213.61 193.61 213.896 194.119 214.405C194.628 214.914 194.914 215.605 194.914 216.324Z" fill="#587DB7"/>
<path d="M284.228 216.324V240.93H278.8V216.324C278.8 215.605 279.086 214.914 279.595 214.405C280.104 213.896 280.794 213.61 281.514 213.61C282.234 213.61 282.924 213.896 283.433 214.405C283.942 214.914 284.228 215.605 284.228 216.324Z" fill="#587DB7"/>
<path d="M161.915 241.024H29.2687C28.1338 240.995 27.0024 240.883 25.8839 240.688C23.242 240.086 20.7477 238.96 18.5485 237.377L18.4227 237.293C16.3238 235.638 14.5082 233.652 13.0469 231.414C12.9526 231.278 12.8687 231.142 12.7849 230.995C12.7011 230.848 12.4181 230.398 12.24 230.094C12.0618 229.79 11.8208 229.35 11.6217 228.962C11.5483 228.815 11.475 228.679 11.4121 228.533C11.7055 225.452 12.1457 221.941 12.8268 218.148C16.9451 194.947 29.5097 161.56 67.4027 155.44C70.4797 154.946 73.5837 154.638 76.6977 154.518C76.6977 154.518 79.2128 154.161 83.3521 153.994C90.2528 153.694 97.1664 154.062 103.996 155.094C111.416 156.184 118.631 158.374 125.405 161.591C126.233 162 127.061 162.429 127.878 162.87C132.599 165.432 136.883 168.729 140.569 172.636C145.589 178.055 149.312 184.545 151.457 191.614C156.319 207.082 159.085 217.739 160.605 225.053C163.623 239.389 161.915 241.024 161.915 241.024Z" fill="#A5BEF8"/>
<path d="M44.9877 216.982V240.676H39.7481V216.982C39.7468 216.46 39.9006 215.948 40.19 215.513C40.4794 215.078 40.8915 214.739 41.3739 214.538C41.8564 214.337 42.3876 214.284 42.9003 214.385C43.413 214.486 43.8842 214.737 44.2541 215.106C44.733 215.613 44.9961 216.285 44.9877 216.982Z" fill="#779CE5"/>
<path d="M132.038 216.982V240.927H126.799V216.982C126.798 216.46 126.951 215.948 127.241 215.513C127.53 215.078 127.942 214.739 128.425 214.538C128.907 214.337 129.438 214.284 129.951 214.385C130.464 214.486 130.935 214.737 131.305 215.106C131.784 215.613 132.047 216.285 132.038 216.982Z" fill="#779CE5"/>
<path d="M147.243 119.275C147.079 119.504 146.862 119.69 146.61 119.816C146.358 119.942 146.079 120.005 145.797 119.998C142.538 119.757 139.646 120.48 136.146 120.113C136.743 121.685 137.466 123.257 138.074 124.819C138.85 126.724 138.875 128.853 138.144 130.776C137.413 132.699 135.98 134.274 134.134 135.183C113.752 145.075 105.903 144.614 67.905 142.79C45.5947 141.816 52.1023 142.424 44.2638 141.219L32.4851 139.374C31.0127 139.147 29.593 138.657 28.2934 137.928C22.3832 134.187 24.5524 128.036 26.8473 123.257C25.1497 125.185 22.0164 125.426 19.6062 124.462C18.7008 124.094 17.8481 123.608 17.0702 123.016C16.587 122.653 16.1851 122.193 15.8902 121.665C15.5953 121.137 15.4139 120.554 15.3577 119.952C15.3014 119.35 15.3716 118.743 15.5636 118.17C15.7557 117.597 16.0654 117.07 16.4729 116.624C20.4868 112.36 23.7121 107.417 25.9985 102.026C33.2396 84.6517 30.4626 64.0286 41.7173 48.9489C52.972 33.8693 73.176 24.3437 91.0326 30.254C98.2633 24.218 111.289 25.182 122.03 32.1822C133.736 39.7796 137.466 49.19 138.556 63.0645C139.646 76.939 137.833 91.4108 141.815 104.803C142.538 107.213 144.592 114.811 147.002 116.98C147.322 117.263 147.524 117.656 147.569 118.081C147.613 118.506 147.497 118.932 147.243 119.275Z" fill="black"/>
<path d="M138.798 92.4902C138.62 93.5572 138.172 94.5611 137.497 95.4065C136.822 96.252 135.943 96.911 134.942 97.3211C121.319 103.347 119.139 88.6338 125.049 82.1157C133.244 73.5542 140.244 83.6876 138.798 92.4902Z" fill="#E0AAA4"/>
<path d="M72.0869 137.489L73.292 124.819H99.8359L101.764 140.622C100.199 141.205 98.586 141.65 96.9437 141.953C88.1306 144.007 79.8101 141.827 72.0869 137.489Z" fill="#FFD5CD"/>
<path d="M35.2936 99.492C35.4736 100.56 35.9233 101.564 36.6 102.409C37.2767 103.255 38.158 103.913 39.1604 104.323C52.7834 110.348 54.9631 95.6356 49.0528 89.1175C40.8685 80.4302 33.8474 90.5637 35.2936 99.492Z" fill="#E0AAA4"/>
<path d="M43.8663 91.5273C43.532 91.6627 43.1782 91.744 42.8184 91.7684C41.9117 92.0163 41.1174 92.5677 40.5681 93.3305C40.0189 94.0934 39.7479 95.0215 39.8004 95.9601V95.9601C39.8605 96.5184 40.0428 97.0567 40.3344 97.5366C40.626 98.0166 41.0197 98.4264 41.4875 98.7371" stroke="#CE8F8A" stroke-width="2.36738" stroke-miterlimit="10"/>
<path d="M129.146 85.1348C129.481 85.2701 129.835 85.3514 130.194 85.3758C131.101 85.6222 131.895 86.1736 132.443 86.9371C132.991 87.7006 133.259 88.6295 133.202 89.5675V89.5675C133.144 90.1264 132.963 90.6655 132.671 91.1458C132.379 91.626 131.984 92.0355 131.515 92.3445" stroke="#CE8F8A" stroke-width="2.36738" stroke-miterlimit="10"/>
<path d="M71.846 137.364L71.3535 137.081L72.0871 133.77H98.3899C98.7986 136.222 99.2178 138.674 99.6265 141.105C98.6685 141.406 97.6918 141.644 96.7028 141.818C88.026 143.882 79.5692 141.587 71.846 137.364Z" fill="#FFD5CD"/>
<path d="M105.316 162.912C105.4 163.406 105.328 163.913 105.11 164.364C104.892 164.814 104.539 165.186 104.101 165.427C98.3943 168.549 91.9942 170.186 85.4895 170.186C78.9849 170.186 72.5847 168.549 66.8784 165.427C66.4193 165.177 66.0549 164.783 65.841 164.306C65.6271 163.829 65.5755 163.295 65.6942 162.786L70.5985 140.843C71.4054 141.346 72.2123 141.817 73.0297 142.257C80.7424 146.449 89.1887 148.776 97.876 146.722C99.4051 146.44 100.909 146.033 102.372 145.506C103.357 151.339 104.338 157.141 105.316 162.912Z" fill="#FFD5CD"/>
<path d="M102.372 145.558C100.909 146.085 99.4053 146.491 97.8761 146.773C89.1888 148.869 80.7425 146.532 73.0298 142.309C72.2124 141.869 71.4055 141.397 70.5986 140.894L72.5268 132.249C72.6884 132.357 72.8564 132.455 73.0298 132.542C80.7425 136.734 89.1888 139.061 97.8761 137.007C98.8686 136.833 99.8487 136.595 100.81 136.294C101.334 139.375 101.858 142.519 102.372 145.558Z" fill="#E0AAA4"/>
<path d="M130.477 94.1782C130.477 95.2262 130.425 96.1798 130.393 97.1963C130.349 101.208 129.931 105.208 129.146 109.143C125.646 122.65 123.477 127.114 112.264 135.561C109.728 137.489 105.379 139.302 101.523 140.507C100.884 140.737 100.255 140.937 99.6264 141.115C98.6684 141.416 97.6917 141.654 96.7027 141.827C88.0154 143.923 79.5691 141.586 71.8459 137.363L71.3534 137.08C69.1109 135.823 66.8578 134.356 64.6153 132.784C60.6332 129.944 52.3965 119.873 50.3006 115.409C44.0131 102.75 44.7466 100.937 43.5415 89.9551C43.1119 85.8682 42.8813 81.7813 42.7451 77.6106C42.7451 77.0971 42.7451 76.5626 42.7451 76.0911C42.7451 72.4653 42.7451 68.8499 42.8604 65.3499C69.0585 68.7242 103.053 72.6853 127.302 62.0908C127.543 68.6089 129.471 73.5551 130.079 84.4116C130.545 87.645 130.678 90.9176 130.477 94.1782Z" fill="#FFD5CD"/>
<path d="M67.9901 93.5789C70.12 93.5789 71.8465 91.8524 71.8465 89.7226C71.8465 87.5928 70.12 85.8662 67.9901 85.8662C65.8603 85.8662 64.1338 87.5928 64.1338 89.7226C64.1338 91.8524 65.8603 93.5789 67.9901 93.5789Z" fill="black"/>
<path d="M62.6758 92.7324C68.7118 94.6711 70.158 92.9734 70.2837 92.7324H62.6758Z" fill="black"/>
<path d="M108.281 91.161C110.411 91.161 112.138 89.4344 112.138 87.3046C112.138 85.1748 110.411 83.4482 108.281 83.4482C106.151 83.4482 104.425 85.1748 104.425 87.3046C104.425 89.4344 106.151 91.161 108.281 91.161Z" fill="black"/>
<path d="M113.585 90.3203C107.559 92.2485 106.103 90.5613 105.987 90.3203H113.585Z" fill="black"/>
<path d="M86.8099 107.087C86.9784 108.341 87.3315 109.563 87.8578 110.713C88.157 111.274 88.5696 111.767 89.0692 112.16C89.5689 112.553 90.1449 112.838 90.7606 112.997C91.4802 113.145 92.2259 113.1 92.923 112.868C93.62 112.637 94.2439 112.226 94.7322 111.677C95.6894 110.585 96.3179 109.244 96.5451 107.81C97.1529 104.069 95.4972 100.338 93.5271 97.0794C92.6888 95.6333 91.5989 93.3383 90.2681 92.2485C88.5809 90.9281 87.9836 93.9461 87.6168 95.1512C86.5072 99.0281 86.2322 103.096 86.8099 107.087Z" fill="#F2B5AD"/>
<path d="M90.5415 121.559C89.6156 122.414 88.4542 122.971 87.2078 123.158C85.9615 123.345 84.6877 123.153 83.5518 122.607C82.4203 122.053 81.4233 121.258 80.6305 120.279C79.8377 119.3 79.2683 118.16 78.9619 116.938" stroke="black" stroke-width="2.41999" stroke-miterlimit="10"/>
<path d="M67.7482 107.58C71.6779 107.58 74.8636 106.444 74.8636 105.044C74.8636 103.643 71.6779 102.508 67.7482 102.508C63.8185 102.508 60.6328 103.643 60.6328 105.044C60.6328 106.444 63.8185 107.58 67.7482 107.58Z" fill="#E0AAA4"/>
<path d="M111.414 105.045C115.344 105.045 118.53 103.909 118.53 102.509C118.53 101.108 115.344 99.9727 111.414 99.9727C107.485 99.9727 104.299 101.108 104.299 102.509C104.299 103.909 107.485 105.045 111.414 105.045Z" fill="#E0AAA4"/>
<path d="M127.459 49.9148C127.65 49.8548 127.853 49.84 128.052 49.8717C128.25 49.9034 128.439 49.9807 128.602 50.0975C128.766 50.2143 128.9 50.3674 128.994 50.5448C129.088 50.7222 129.14 50.9191 129.146 51.1199L131.074 67.1636C130.996 68.8321 130.754 70.4889 130.351 72.1098C130.326 72.2887 130.259 72.4591 130.155 72.6067C130.051 72.7544 129.914 72.8751 129.754 72.9586C129.147 73.3377 128.438 73.5182 127.724 73.475C127.01 73.4318 126.328 73.167 125.771 72.7176C125.405 72.4766 125.164 72.1098 124.807 71.8688C124.628 71.7225 124.416 71.6208 124.19 71.572C123.964 71.5232 123.729 71.5286 123.505 71.5879C123.281 71.6472 123.075 71.7586 122.902 71.9131C122.73 72.0675 122.596 72.2606 122.512 72.4766C122.42 72.8655 122.243 73.229 121.993 73.5408C121.742 73.8526 121.426 74.1047 121.066 74.279C115.833 76.7812 110.1 78.0605 104.3 78.0201C102.974 77.9892 101.678 77.6183 100.537 76.9431C99.3956 76.2678 98.4468 75.3108 97.7814 74.1637C97.4251 73.4407 97.0584 72.8329 96.7335 72.2356C96.6298 72.0267 96.4682 71.852 96.268 71.7324C96.0678 71.6128 95.8374 71.5534 95.6044 71.5611C95.3713 71.5688 95.1453 71.6434 94.9535 71.776C94.7617 71.9086 94.612 72.0936 94.5224 72.3089C94.1661 72.9167 93.9251 73.514 93.5583 74.1218C93.0332 75.0844 92.311 75.9254 91.4389 76.5899C90.5667 77.2544 89.5642 77.7275 88.4968 77.9782C85.9609 78.4602 83.5506 79.1833 81.0147 79.5501C77.263 79.8937 73.4812 79.4402 69.9172 78.2192C69.7077 78.1496 69.5145 78.0386 69.3488 77.8928C69.1832 77.747 69.0486 77.5693 68.9531 77.3704C68.5863 76.4063 68.3453 75.2746 67.989 74.2266C67.9107 73.9489 67.75 73.7016 67.5281 73.5172C67.3062 73.3328 67.0336 73.2201 66.7463 73.1939C66.459 73.1678 66.1705 73.2295 65.919 73.3709C65.6675 73.5122 65.4648 73.7266 65.3377 73.9856C64.6147 75.3165 64.1326 76.7626 63.2419 78.1773C63.0865 78.4641 62.8281 78.6813 62.5188 78.7851C59.9218 80.0098 57.0672 80.5886 54.1983 80.4723C50.2162 80.2312 46.7161 77.9363 42.8598 76.9722C42.5279 76.8756 42.2408 76.6649 42.0491 76.3774C41.8574 76.0898 41.7734 75.7438 41.8118 75.4003C42.4008 69.5892 42.6841 63.7513 42.6607 57.9105C42.6826 57.5865 42.8138 57.2796 43.0326 57.0398C43.2515 56.8 43.5452 56.6415 43.8658 56.5901C56.8915 54.9029 70.0639 53.331 83.1839 52.608C98.0224 51.843 113.343 53.0481 127.459 49.9148Z" fill="black"/>
<path d="M86.926 215.38C94.5308 215.38 100.696 209.215 100.696 201.611C100.696 194.006 94.5308 187.841 86.926 187.841C79.3212 187.841 73.1562 194.006 73.1562 201.611C73.1562 209.215 79.3212 215.38 86.926 215.38Z" stroke="#4484EA" stroke-width="6.31302" stroke-miterlimit="10"/>
<path d="M86.9248 217.372V231.425" stroke="#4484EA" stroke-width="6.31302" stroke-miterlimit="10" stroke-linecap="round"/>
<path d="M79.4854 222.967H94.2611" stroke="#4484EA" stroke-width="6.31302" stroke-miterlimit="10" stroke-linecap="round"/>
<path d="M243.15 218.903C249.915 218.903 255.4 213.418 255.4 206.653C255.4 199.887 249.915 194.402 243.15 194.402C236.384 194.402 230.899 199.887 230.899 206.653C230.899 213.418 236.384 218.903 243.15 218.903Z" stroke="#CADCFF" stroke-width="6.31302" stroke-miterlimit="10"/>
<path d="M218.262 191.11L228.28 197.702L234.557 201.831" stroke="#CADCFF" stroke-width="6.31302" stroke-miterlimit="10"/>
<path d="M227.829 187.475L218.262 191.111L218.712 201.339" stroke="#CADCFF" stroke-width="6.31302" stroke-linecap="round" stroke-linejoin="round"/>
</g>
<defs>
<clipPath id="clip0">
<rect width="328" height="241.022" fill="white"/>
</clipPath>
</defs>
</svg>
