<svg width="288" height="287" viewBox="0 0 288 287" fill="none" xmlns="http://www.w3.org/2000/svg">
<path d="M286.563 143.282C286.563 64.1482 222.415 0 143.281 0C75.3465 0 18.4805 47.2535 3.72189 110.69C4.23974 110.593 4.75758 110.495 5.3078 110.431C19.9046 108.392 18.2216 113.117 18.2216 113.117C18.2216 113.117 34.2748 110.884 33.4981 122.179C33.4981 122.179 46.4442 125.157 42.4633 135.32C38.4823 145.482 30.7794 141.113 30.7794 141.113C30.7794 141.113 34.4366 149.043 30.391 154.642C34.7927 161.439 37.9321 167.815 40.1653 173.446C41.1687 176.003 37.5761 177.751 36.1844 175.388C32.074 168.332 27.8988 162.798 24.4034 158.785C22.5585 159.4 20.293 159.853 17.5743 160.015C7.24972 160.629 2.5891 158.008 0.485352 155.16C1.81233 171.342 5.85801 186.781 12.1045 201.021C12.5253 200.665 12.946 200.309 13.4315 199.986C29.6466 188.917 45.7969 187.655 57.4484 188.884C68.0967 190.017 76.8353 197.785 79.3922 208.207C80.525 212.802 81.3988 217.495 82.0785 222.253L86.7391 221.897C87.9043 230.15 88.3898 238.598 88.4221 247.013L83.7939 244.359C83.9881 254.068 83.5026 263.746 82.5964 273.099C101.012 281.708 121.597 286.531 143.281 286.531C150.887 286.531 158.331 285.948 165.614 284.815C165.549 284.33 165.549 283.845 165.549 283.327C165.549 279.508 167.038 276.044 169.465 273.488C169.012 272.064 168.753 270.575 168.753 268.989C168.753 261.059 175.161 254.651 183.091 254.651C184.224 254.651 185.292 254.78 186.36 255.039C186.36 254.91 186.36 254.78 186.36 254.651C186.36 246.721 192.768 240.313 200.698 240.313C207.333 240.313 212.932 244.844 214.55 250.961C217.042 248.825 220.311 247.498 223.871 247.498C228.532 247.498 232.642 249.699 235.264 253.13C266.626 226.881 286.563 187.396 286.563 143.282ZM73.6311 157.619C70.7506 161.6 67.8054 160.176 67.8054 160.176C67.8054 160.176 71.9158 167.135 58.8725 170.566C57.1895 171.019 55.7654 171.181 54.5356 171.181C53.2409 174.288 51.8169 178.43 50.7488 183.447C50.3928 185.162 47.8683 184.806 47.9654 183.059C48.1919 179.24 48.8393 174.805 50.1339 169.854C46.606 167.297 47.2533 161.795 47.2533 161.795C47.2533 161.795 43.499 165.937 39.0973 160.597C34.7279 155.289 41.9131 150.952 41.9131 150.952C39.2267 144.317 49.2924 142.505 49.2924 142.505C49.2924 142.505 47.3504 139.98 56.5099 138.362C67.4494 136.42 66.8344 145.547 66.8344 145.547C73.437 144.414 76.544 153.606 73.6311 157.619Z" fill="#A5BEF8"/>
<path d="M83.8261 244.359L49.7129 224.875L82.1107 222.285C81.431 217.528 80.5572 212.835 79.4244 208.239C76.8675 197.817 68.1289 190.049 57.4806 188.917C45.8291 187.654 29.6464 188.949 13.4637 200.018C13.0106 200.342 12.5575 200.698 12.1367 201.054C26.1186 232.772 51.2665 258.47 82.6285 273.131C83.5348 263.745 83.9879 254.068 83.8261 244.359Z" fill="#759CF5"/>
<path d="M88.4549 247.013C88.4226 238.598 87.9047 230.183 86.7719 221.897L82.1113 222.253C83.147 229.536 83.6649 236.915 83.8267 244.327L88.4549 247.013Z" fill="#0F45C2"/>
<path d="M83.826 244.358C83.6966 236.947 83.1464 229.535 82.1107 222.285L49.7129 224.874L83.826 244.358Z" fill="#0F45C2"/>
<path d="M24.4033 158.817C27.8664 162.862 32.0739 168.397 36.1843 175.42C37.576 177.815 41.201 176.035 40.1653 173.478C37.9321 167.847 34.7926 161.471 30.3909 154.674C29.1934 156.357 27.2838 157.846 24.4033 158.817Z" fill="#4779F2"/>
<path d="M47.9657 183.058C47.8686 184.806 50.3607 185.13 50.7491 183.447C51.8171 178.43 53.2736 174.287 54.5358 171.18C52.6263 171.148 51.2022 170.663 50.1341 169.886C48.8395 174.805 48.1922 179.239 47.9657 183.058Z" fill="#4779F2"/>
<path d="M42.4958 135.352C46.4767 125.189 33.5306 122.211 33.5306 122.211C34.3073 110.884 18.2541 113.149 18.2541 113.149C18.2541 113.149 19.9371 108.391 5.34029 110.463C4.79008 110.528 4.27223 110.625 3.75439 110.722C1.29462 121.143 0 132.051 0 143.281C0 147.295 0.161827 151.243 0.485481 155.192C2.55687 158.04 7.24985 160.662 17.5744 160.047C20.3255 159.885 22.5587 159.464 24.4035 158.817C27.284 157.846 29.1936 156.357 30.3911 154.674C34.4368 149.075 30.7795 141.145 30.7795 141.145C30.7795 141.145 38.5148 145.515 42.4958 135.352Z" fill="#0F45C2"/>
<path d="M66.834 145.579C66.834 145.579 67.4166 136.452 56.5095 138.394C47.35 140.045 49.292 142.537 49.292 142.537C49.292 142.537 39.2263 144.349 41.9127 150.984C41.9127 150.984 34.7275 155.289 39.0969 160.629C43.4662 165.937 47.2529 161.827 47.2529 161.827C47.2529 161.827 46.638 167.296 50.1335 169.886C51.2015 170.662 52.6256 171.148 54.5352 171.18C55.765 171.18 57.1891 171.018 58.8721 170.565C71.9154 167.135 67.805 160.176 67.805 160.176C67.805 160.176 70.7502 161.6 73.6307 157.619C76.5436 153.606 73.4366 144.414 66.834 145.579Z" fill="#0F45C2"/>
<path d="M223.839 247.499C220.279 247.499 217.01 248.793 214.518 250.962C212.9 244.845 207.3 240.313 200.665 240.313C192.736 240.313 186.328 246.722 186.328 254.651C186.328 254.781 186.328 254.91 186.328 255.04C185.292 254.781 184.191 254.651 183.059 254.651C175.129 254.651 168.721 261.06 168.721 268.989C168.721 270.575 168.98 272.064 169.433 273.488C167.005 276.045 165.517 279.508 165.517 283.327C165.517 283.813 165.549 284.33 165.581 284.816C191.83 280.705 215.715 269.475 235.232 253.163C232.61 249.732 228.5 247.499 223.839 247.499Z" fill="#759CF5"/>
<path d="M102.857 89.8136H107.453C107.906 89.8136 108.262 89.3929 108.165 88.9398L106.741 82.0783C106.741 82.0459 106.741 82.0136 106.741 81.9812C106.708 81.3662 106.288 75.1197 107.841 72.1421C108.132 71.6243 107.679 71.0093 107.097 71.074L104.961 71.3977C104.637 71.4301 104.41 71.689 104.346 71.9803C104.184 72.8218 103.892 74.6019 103.892 76.4467C103.892 77.2235 102.824 77.4824 102.501 76.738C102.145 75.9612 101.853 74.9579 101.692 73.6956C101.659 73.3073 101.271 73.016 100.882 73.0483C100.494 73.0807 100.235 73.4044 100.235 73.7927C100.268 74.3753 100.3 75.3139 100.429 76.2201C100.559 77.0293 99.4908 77.3853 99.07 76.7056C98.9406 76.4791 98.8111 76.2525 98.7464 75.9936C98.6169 75.5728 98.1314 75.3786 97.743 75.5728L97.646 75.6052C97.2576 75.7994 97.0957 76.2525 97.3223 76.6409C98.0343 77.8708 99.6202 80.3629 101.174 81.1721C101.4 81.3015 101.53 81.4957 101.562 81.7546L102.112 89.1339C102.145 89.5223 102.468 89.8136 102.857 89.8136Z" fill="#88DDD4"/>
<path d="M113.732 68.2258C113.959 67.6756 114.088 67.0607 114.088 66.4134C114.088 63.7918 111.984 61.688 109.363 61.688C108.198 61.688 107.097 62.1088 106.288 62.8208C105.738 60.7818 103.893 59.293 101.725 59.293C99.1029 59.293 96.9992 61.3967 96.9992 64.0183C96.9992 64.0507 96.9992 64.1154 96.9992 64.1478C96.6431 64.083 96.2871 64.0183 95.9311 64.0183C93.3095 64.0183 91.2057 66.1221 91.2057 68.7437C91.2057 69.2615 91.3028 69.747 91.4323 70.2325C90.6232 71.074 90.1377 72.2391 90.1377 73.469C90.1377 76.0906 92.2414 78.1944 94.863 78.1944C96.7079 78.1944 98.3261 77.1263 99.1029 75.5728C99.5884 75.7346 100.106 75.8317 100.656 75.8317C101.983 75.8317 103.213 75.2815 104.055 74.3752C104.767 74.796 105.576 75.0226 106.45 75.0226C106.774 75.0226 107.065 74.9902 107.356 74.9255C108.23 76.0906 109.622 76.8674 111.175 76.8674C113.797 76.8674 115.901 74.7636 115.901 72.142C115.901 70.5238 115.059 69.0673 113.732 68.2258Z" fill="#39C6BB"/>
<path d="M138.265 175.453L48.7746 139.592C41.3953 147.618 43.402 160.435 52.885 165.808L119.687 203.805L138.265 175.453Z" fill="#FFD5CD"/>
<path d="M55.0212 167.038L98.7792 105.22L108.003 103.732C109.039 103.57 110.042 103.084 110.819 102.372L114.703 98.8445C115.998 97.6793 116.483 95.8668 115.965 94.2162L112.891 84.0858C112.081 81.4319 109.46 79.7812 106.709 80.202L98.2614 81.529C96.5784 81.7879 95.1866 82.9207 94.5393 84.4742L90.785 93.7955L46.2178 142.376C40.1331 149.011 41.8161 159.562 49.6162 163.996L55.0212 167.038Z" fill="#FFD5CD"/>
<path d="M120.626 167.847L84.8301 154.06L71.1719 181.182L102.987 202.187L120.626 167.847Z" fill="#4779F2"/>
<path d="M174.708 120.431C174.708 120.431 191.215 118.295 194.84 127.26C198.464 136.226 172.993 141.598 172.248 160.791C171.828 171.472 187.557 186.521 206.75 179.919C225.943 173.316 210.44 185.259 212.964 195.746C215.489 206.232 265.364 227.593 284.103 179.951C302.875 132.309 241.737 129.558 222.188 141.922C222.188 141.922 225.748 130.303 227.043 120.237C229.179 103.666 218.369 88.6485 173.252 112.34L174.708 120.431Z" fill="black"/>
<path d="M161.05 173.899L252.45 207.43C252.482 218.337 242.384 226.461 231.736 224.066L156.745 207.203L161.05 173.899Z" fill="#FFD5CD"/>
<path d="M180.276 179.951L216.04 193.868L207.916 223.127L167.848 216.88L180.276 179.951Z" fill="#4779F2"/>
<path d="M120.626 167.847L105.447 180.146C98.0351 186.133 94.0218 195.39 94.6691 204.905L96.0932 225.328L88.7139 275.818C88.7139 275.818 120.626 290.641 162.701 285.463L159.594 244.261L180.599 180.178L167.847 176.391L120.626 167.847Z" fill="#4779F2"/>
<path d="M161.05 138.232L157.263 169.821L167.879 176.359C167.879 176.359 152.959 189.888 137.521 189.014C122.082 188.172 120.658 167.847 120.658 167.847L135.449 163.833L149.949 145.741L161.05 138.232Z" fill="#FFD5CD"/>
<path d="M133.28 123.928C133.28 123.928 129.04 120.853 127.131 123.572C125.221 126.29 125.739 132.116 129.526 133.217C133.313 134.317 133.28 123.928 133.28 123.928Z" fill="#E0AAA4"/>
<path d="M130.886 126.16C130.886 126.16 113.15 121.823 126.97 104.669C138.363 90.4932 153.218 92.7912 165.129 98.2286C175.939 103.18 181.214 110.171 179.726 119.137C179.726 119.137 194.42 131.759 168.527 145.612L130.886 126.16Z" fill="black"/>
<path d="M132.893 121.208C132.893 121.208 121.015 145.515 132.407 159.302C132.407 159.302 149.173 161.827 162.378 147.618C162.378 147.618 166.844 150.531 169.628 145.709C173.382 139.171 165.129 140.886 165.129 140.886C165.129 140.886 156.811 136.064 161.018 127.26C165.226 118.425 162.216 115.835 162.216 115.835C162.216 115.835 154.06 113.279 149.788 118.781C145.483 124.315 134.705 123.474 132.893 121.208Z" fill="#FFD5CD"/>
<path d="M153.93 134.64C153.768 134.64 153.606 134.575 153.509 134.446C148.525 128.749 143.476 131.857 143.282 132.018C143.023 132.18 142.699 132.115 142.537 131.857C142.376 131.598 142.44 131.274 142.699 131.112C142.764 131.08 148.719 127.325 154.351 133.766C154.545 133.993 154.513 134.349 154.286 134.543C154.189 134.575 154.06 134.64 153.93 134.64Z" fill="#0C0C0C"/>
<path d="M164.384 143.799C164.384 143.799 166.488 144.091 165.937 145.58C165.387 147.068 169.012 145.515 169.044 143.605C169.044 143.605 168.591 142.731 164.384 143.799Z" fill="#E0AAA4"/>
<path d="M139.074 159.302C139.074 159.302 149.399 159.334 159.594 150.337L158.817 156.745C158.817 156.745 148.298 162.668 138.2 160.403L139.074 159.302Z" fill="#E0AAA4"/>
<path d="M135.902 144.349C135.902 144.349 141.566 146.841 146.712 143.508C146.712 143.508 145.935 150.402 139.656 150.79C133.377 151.211 135.902 144.349 135.902 144.349Z" fill="white"/>
<path d="M135.644 132.504C135.449 132.504 135.255 132.375 135.19 132.181C134.705 130.692 132.148 130.368 132.116 130.368C131.857 130.336 131.663 130.109 131.695 129.818C131.727 129.559 131.954 129.365 132.245 129.397C132.375 129.397 135.449 129.785 136.129 131.889C136.226 132.148 136.064 132.407 135.805 132.504C135.741 132.472 135.708 132.504 135.644 132.504Z" fill="#0C0C0C"/>
<path d="M143.767 136.517C143.638 136.517 143.508 136.485 143.411 136.388C143.217 136.194 143.217 135.902 143.411 135.708C145.677 133.443 149.981 134.996 150.176 135.061C150.435 135.158 150.564 135.417 150.467 135.676C150.37 135.935 150.079 136.064 149.852 135.967C149.82 135.967 145.968 134.575 144.123 136.388C144.026 136.485 143.897 136.517 143.767 136.517Z" fill="#0C0C0C"/>
<path d="M150.726 141.631C152.495 141.631 153.93 140.747 153.93 139.657C153.93 138.567 152.495 137.683 150.726 137.683C148.956 137.683 147.521 138.567 147.521 139.657C147.521 140.747 148.956 141.631 150.726 141.631Z" fill="#FFADC5"/>
<path d="M131.743 134.138C132.114 133.384 131.425 132.287 130.206 131.688C128.986 131.089 127.698 131.215 127.328 131.97C126.957 132.724 127.646 133.82 128.865 134.419C130.085 135.018 131.373 134.892 131.743 134.138Z" fill="#FFADC5"/>
<path d="M136.097 138.944C130.271 138.912 129.138 135.384 129.106 135.255C129.041 135.093 129.073 134.899 129.203 134.769C129.3 134.64 129.462 134.542 129.656 134.542C129.721 134.542 135.805 134.542 137.909 132.309C138.394 131.791 138.621 131.176 138.589 130.497C138.297 126.354 132.633 126.16 132.375 126.16C132.083 126.16 131.824 125.901 131.857 125.61C131.857 125.318 132.116 125.092 132.407 125.092C134.802 125.157 139.398 126.354 139.689 130.464C139.754 131.468 139.43 132.374 138.718 133.118C136.809 135.157 132.439 135.578 130.562 135.675C131.177 136.549 132.666 137.908 136.161 137.908C136.453 137.908 136.711 138.167 136.711 138.459C136.647 138.718 136.388 138.944 136.097 138.944Z" fill="#0C0C0C"/>
<path d="M244.034 114.12C242.805 111.79 240.248 110.43 237.626 110.819C234.746 111.207 230.959 112.502 227.755 116.127C223.029 121.467 238.759 138.103 245.976 145.191C247.303 146.518 249.569 145.579 249.601 143.702C249.698 136.808 249.116 123.765 244.034 114.12Z" fill="#F8BA1D"/>
<path d="M246.592 116.969C247.369 118.878 247.984 120.853 248.502 122.892L237.886 119.914L246.592 116.969Z" fill="#D99D08"/>
<path d="M249.472 127.325C249.666 128.49 249.861 129.655 249.99 130.788L244.1 129.138L249.472 127.325Z" fill="#D99D08"/>
<path d="M232.513 108.166C231.186 106.321 229.244 104.185 226.493 102.113L225.489 104.152C225.489 104.152 228.402 105.512 231.703 108.878C232.157 109.363 232.933 108.716 232.513 108.166Z" fill="#22776E"/>
<path d="M227.852 96.2871C227.852 96.2871 231.121 96.2224 230.797 98.9087C230.441 101.595 228.338 101.012 228.338 101.012C228.338 101.012 231.348 104.734 226.299 106.32C221.282 107.906 221.185 104.734 221.185 104.734C221.185 104.734 220.505 105.835 218.725 105.09C216.945 104.378 216.039 100.689 218.466 99.6855C218.466 99.6855 216.362 96.7726 220.376 95.1543C223.742 93.7949 223.645 95.0248 223.645 95.0248C223.645 95.0248 227.334 93.536 227.852 96.2871Z" fill="#2E9E93"/>
<path d="M234.973 110.01C234.714 108.586 234.584 106.774 234.843 104.638L236.203 105.058C236.203 105.058 235.555 107 235.652 109.946C235.685 110.334 235.037 110.431 234.973 110.01Z" fill="#22776E"/>
<path d="M231.574 102.696C231.574 102.696 230.117 104.152 231.476 105.188C232.836 106.223 233.515 104.993 233.515 104.993C233.515 104.993 233.904 108.003 236.817 106.385C239.73 104.767 238.338 103.375 238.338 103.375C238.338 103.375 239.115 103.537 239.568 102.404C240.021 101.271 238.726 99.2648 237.205 99.9444C237.205 99.9444 236.784 97.7112 234.292 98.844C232.188 99.7826 232.803 100.268 232.803 100.268C232.803 100.268 230.538 101.239 231.574 102.696Z" fill="#2E9E93"/>
<path d="M229.374 223.547L238.598 148.363L232.805 141.048C232.157 140.207 231.737 139.203 231.64 138.168L231.154 132.924C230.992 131.209 231.834 129.526 233.323 128.652L242.417 123.215C244.812 121.791 247.855 122.341 249.602 124.509L254.943 131.177C256.011 132.504 256.302 134.284 255.719 135.87L252.224 145.288L252.483 211.184C252.515 220.181 244.197 226.849 235.426 224.874L229.374 223.547Z" fill="#FFD5CD"/>
<path d="M87.2891 191.797L95.2186 197.041C95.2186 197.041 95.8983 188.82 100.332 185.519L87.2891 191.797Z" fill="#0F45C2"/>
<path d="M167.848 216.88L173.382 202.187L179.143 218.628L167.848 216.88Z" fill="#0F45C2"/>
<path d="M73.0813 177.33L77.8714 167.847L63.2422 171.731L73.0813 177.33Z" fill="#E0AAA4"/>
<path d="M210.893 212.35L220.149 221.477L209.08 218.985L210.893 212.35Z" fill="#E0AAA4"/>
<path d="M150.855 24.8888L146.227 22.3643C146.065 22.2672 145.936 22.1377 145.838 21.9759L143.314 17.3476C142.958 16.668 141.987 16.668 141.631 17.3476L139.106 21.9759C139.009 22.1377 138.88 22.2672 138.718 22.3643L134.09 24.8888C133.41 25.2448 133.41 26.2158 134.09 26.5718L138.718 29.0963C138.88 29.1934 139.009 29.3228 139.106 29.4847L141.631 34.1129C141.987 34.7926 142.958 34.7926 143.314 34.1129L145.838 29.4847C145.936 29.3228 146.065 29.1934 146.227 29.0963L150.855 26.5718C151.502 26.1834 151.502 25.2448 150.855 24.8888Z" fill="white"/>
<path d="M189.726 76.9328L186.489 75.1527C186.392 75.0879 186.295 74.9909 186.231 74.8938L184.45 71.6572C184.192 71.2041 183.512 71.2041 183.285 71.6572L181.505 74.8938C181.44 74.9909 181.343 75.0879 181.246 75.1527L178.01 76.9328C177.557 77.1917 177.557 77.8714 178.01 78.0979L181.246 79.878C181.343 79.9428 181.44 80.0399 181.505 80.1369L183.285 83.3735C183.544 83.8266 184.224 83.8266 184.45 83.3735L186.231 80.1369C186.295 80.0399 186.392 79.9428 186.489 79.878L189.726 78.0979C190.179 77.839 190.179 77.1917 189.726 76.9328Z" fill="white"/>
</svg>
