<svg width="288" height="286" viewBox="0 0 288 286" fill="none" xmlns="http://www.w3.org/2000/svg">
<path d="M208.139 189.281C230.085 178.147 248.749 204.631 248.749 204.631C248.749 204.631 261.525 192.467 276.006 192.177C281.766 176.699 284.919 159.933 284.919 142.46C284.919 63.7803 221.139 0 142.46 0C63.7803 0 0 63.8124 0 142.492C0 169.072 7.27262 193.947 19.9514 215.25C29.8628 210.327 40.6752 220.657 40.6752 220.657C40.6752 220.657 50.7475 206.369 62.5896 212.354C74.4318 218.372 83.7639 229.956 69.1221 258.049C68.1567 259.884 67.2557 261.493 66.3546 262.941C88.3656 276.875 114.463 284.952 142.46 284.952C161.51 284.952 179.692 281.219 196.296 274.429C196.2 274.268 196.136 274.107 196.039 273.946C168.944 221.879 186.192 200.415 208.139 189.281Z" fill="#A5BEF8"/>
<path d="M276.005 192.209C261.525 192.499 248.749 204.663 248.749 204.663C248.749 204.663 230.085 178.179 208.138 189.313C186.192 200.447 168.943 221.911 196.071 273.946C196.168 274.107 196.232 274.268 196.328 274.428C233.046 259.401 262.104 229.506 276.005 192.209Z" fill="#1955EE"/>
<path d="M62.622 212.354C50.7799 206.337 40.7076 220.657 40.7076 220.657C40.7076 220.657 29.8631 210.359 19.9839 215.251C31.4721 234.559 47.401 250.938 66.3871 262.941C67.2881 261.493 68.2213 259.884 69.1545 258.05C83.7963 229.957 74.4642 218.34 62.622 212.354Z" fill="#1955EE"/>
<path d="M250.68 185.034C250.68 185.034 247.688 146.836 216.087 142.46C216.087 142.492 203.988 180.046 250.68 185.034Z" fill="#0F45C2"/>
<path d="M249.65 195.62L264.067 165.017L252.868 162.797L246.239 192.177L249.65 195.62Z" fill="#759CF5"/>
<path d="M39.6777 210.037C39.6777 210.037 41.2867 189.41 58.342 187.061C58.342 187.061 64.8745 207.366 39.6777 210.037Z" fill="#0F45C2"/>
<path d="M40.2245 215.765L32.437 199.225L38.4868 198.034L42.0588 213.899L40.2245 215.765Z" fill="#759CF5"/>
<path d="M30.6994 118.261C35.9769 115.59 40.4821 121.961 40.4821 121.961C40.4821 121.961 46.1457 116.587 50.8118 120.224C55.4778 123.892 58.5671 129.781 49.7177 140.819C43.7322 148.284 40.7073 146.482 39.3558 144.519C38.8731 143.779 37.8433 143.683 37.1997 144.294C35.4942 145.967 32.1797 147.126 27.7711 138.663C21.2386 126.145 25.3898 120.964 30.6994 118.261Z" fill="#DF003F"/>
<path d="M40.965 117.231C40.965 117.231 40.2571 108.028 32.6305 106.966C32.5983 106.998 29.7021 116.041 40.965 117.231Z" fill="#2E9E93"/>
<path d="M40.7073 119.806L44.1827 112.405L41.4796 111.89L39.8706 118.969L40.7073 119.806Z" fill="black"/>
<path d="M53.4504 158.356L83.6351 246.786L80.9963 252.16C75.1396 258.017 61.7528 255.828 59.8542 247.784L39.7741 162.7L22.0752 147.157V129.201L30.4419 124.503C30.4419 124.503 32.6302 128.525 28.2537 132.58L32.2762 135.669L36.1377 135.412C38.9052 135.219 41.4796 136.731 42.6381 139.273L45.4055 145.323L49.428 140.979C53.6435 145.195 55.3169 151.373 53.7722 157.133L53.4504 158.356Z" fill="#FFD5CD"/>
<path d="M69.8945 223.52L83.6353 246.786L92.1307 229.441L75.0433 197.68L69.8945 223.52Z" fill="#FFD5CD"/>
<path d="M104.841 142.846L94.5117 151.245C86.6277 157.681 81.2215 166.659 79.2263 176.634L75.043 197.648L92.1304 229.441L97.2792 218.919L103.94 199.192L104.841 142.846Z" fill="#4779F2"/>
<path d="M162.507 283.729L167.013 276.038L166.305 238.194L178.308 146.353L158.807 137.472L104.552 142.846L89.0733 172.322C83.9567 182.105 82.6695 193.432 85.5335 204.084L92.8061 231.243L89.7812 275.008C105.807 281.251 122.959 285.305 141.204 285.305C148.445 285.305 155.557 284.791 162.507 283.729Z" fill="#4779F2"/>
<path d="M224.872 208.203C223.392 205.532 221.912 202.99 220.496 200.512L194.881 218.758L198.099 222.877L167.013 276.038L162.508 283.729C164.052 283.503 165.597 283.246 167.142 282.956C174.479 281.605 181.655 279.899 188.541 277.454L223.649 228.991C228.058 222.909 228.541 214.8 224.872 208.203Z" fill="#FFD5CD"/>
<path d="M177.503 146.257L163.602 187.318L192.209 220.817L220.817 200.512C195.46 157.327 177.503 146.257 177.503 146.257Z" fill="#4779F2"/>
<path d="M171.775 196.908L174.736 176.988L180.206 206.787L171.775 196.908Z" fill="#0F45C2"/>
<path d="M139.789 97.9229L145.453 133.642L159.065 137.472C159.065 137.472 146.965 156.876 129.845 160.738C112.694 164.599 104.81 142.846 104.81 142.846L119.741 133.868L129.942 109.572L139.789 97.9229Z" fill="#FFD5CD"/>
<path d="M105.002 90.9403C105.002 90.9403 99.4032 88.8808 98.1482 92.4528C96.8932 96.0247 99.2745 102.203 103.747 102.235C108.253 102.3 105.002 90.9403 105.002 90.9403Z" fill="#E0AAA4"/>
<path d="M103.039 94.094C103.039 94.094 82.3156 94.8663 92.0661 71.7934C100.111 52.7752 117.07 50.6513 131.744 52.8717C145.098 54.899 153.015 60.9166 154.173 71.2142C154.173 71.2142 174.157 80.4176 150.151 103.619L103.039 94.094Z" fill="black"/>
<path d="M103.715 88.0764C103.715 88.0764 98.2767 118.325 115.042 129.878C115.042 129.878 134.125 127.4 144.165 107.803C144.165 107.803 149.957 109.605 151.502 103.491C153.594 95.1882 145.098 99.5968 145.098 99.5968C145.098 99.5968 134.511 96.9259 136.345 85.9526C138.18 74.9793 134.093 73.1129 134.093 73.1129C134.093 73.1129 124.407 72.8232 121.414 80.1924C118.453 87.5616 106.418 90.0072 103.715 88.0764Z" fill="#FFD5CD"/>
<path d="M149.185 74.2065C149.185 74.2065 166.563 66.7408 173.32 75.3971C180.078 84.0535 153.916 97.8586 159.065 119.065C161.929 130.843 183.811 142.428 202.733 129.266C221.654 116.105 208.428 133.932 214.446 144.648C220.464 155.364 281.605 163.151 287.301 105.228C292.997 47.3042 225.323 63.3297 207.817 82.9272C207.817 82.9272 208.107 69.1221 206.369 57.7304C203.537 38.9697 187.061 25.9047 145.131 65.8397L149.185 74.2065Z" fill="black"/>
<path d="M112.758 106.483C106.354 108.253 104.037 104.777 103.941 104.616C103.844 104.455 103.812 104.23 103.876 104.069C103.941 103.876 104.102 103.748 104.295 103.683C104.359 103.683 111.02 101.785 112.629 98.6631C113.015 97.923 113.047 97.215 112.79 96.4749C111.181 92.0341 104.906 93.5787 104.649 93.6431C104.327 93.7396 103.973 93.5143 103.908 93.1926C103.812 92.8708 104.037 92.5168 104.359 92.4524C106.998 91.7766 112.404 91.6479 113.981 96.0566C114.367 97.1507 114.302 98.2126 113.755 99.2423C112.275 102.074 107.673 103.908 105.614 104.584C106.547 105.324 108.607 106.354 112.436 105.292C112.758 105.196 113.112 105.389 113.208 105.71C113.273 106.032 113.08 106.386 112.758 106.483Z" fill="#0C0C0C"/>
<path d="M130.908 96.2179C130.747 96.2823 130.554 96.2501 130.393 96.1536C123.184 91.4875 118.647 96.4432 118.454 96.6684C118.229 96.9259 117.843 96.9581 117.585 96.7328C117.328 96.5075 117.295 96.1214 117.521 95.8639C117.585 95.7996 122.927 89.8463 131.068 95.1238C131.358 95.3169 131.422 95.703 131.261 95.9927C131.165 96.0892 131.036 96.1536 130.908 96.2179Z" fill="#0C0C0C"/>
<path d="M145.163 103.007C145.163 103.007 147.544 102.653 147.416 104.455C147.255 106.258 150.762 103.426 150.215 101.334C150.215 101.334 149.443 100.497 145.163 103.007Z" fill="#E0AAA4"/>
<path d="M122.315 127.786C122.315 127.786 133.61 124.632 141.977 111.6L143.135 118.84C143.135 118.84 133.481 128.591 121.736 129.234L122.315 127.786Z" fill="#E0AAA4"/>
<path d="M122.734 102.203C123.587 102.203 124.278 101.511 124.278 100.658C124.278 99.8048 123.587 99.1133 122.734 99.1133C121.881 99.1133 121.189 99.8048 121.189 100.658C121.189 101.511 121.881 102.203 122.734 102.203Z" fill="#0C0C0C"/>
<path d="M108.832 100.659C109.685 100.659 110.376 99.967 110.376 99.114C110.376 98.2609 109.685 97.5693 108.832 97.5693C107.979 97.5693 107.287 98.2609 107.287 99.114C107.287 99.967 107.979 100.659 108.832 100.659Z" fill="#0C0C0C"/>
<path d="M123.12 101.591C123.386 101.591 123.603 101.375 123.603 101.109C123.603 100.842 123.386 100.626 123.12 100.626C122.853 100.626 122.637 100.842 122.637 101.109C122.637 101.375 122.853 101.591 123.12 101.591Z" fill="white"/>
<path d="M109.218 100.046C109.485 100.046 109.701 99.8303 109.701 99.5638C109.701 99.2972 109.485 99.0811 109.218 99.0811C108.951 99.0811 108.735 99.2972 108.735 99.5638C108.735 99.8303 108.951 100.046 109.218 100.046Z" fill="white"/>
<path d="M115.589 113.144C114.753 113.144 114.206 113.079 114.109 113.047C113.755 112.983 113.498 112.661 113.562 112.307C113.626 111.953 113.948 111.696 114.302 111.76C114.367 111.76 120.963 112.597 125.276 107.705C125.501 107.448 125.919 107.416 126.177 107.641C126.434 107.866 126.466 108.284 126.241 108.542C122.701 112.597 117.971 113.144 115.589 113.144Z" fill="black"/>
<path d="M85.9843 204.47C85.9843 204.47 88.2369 213.094 92.4524 228.798L92.1307 229.441L82.2515 211.067L85.9843 204.47Z" fill="#0F45C2"/>
<path d="M85.9198 204.502C85.598 203.408 85.3406 202.346 85.0832 201.22C84.9544 200.673 84.8579 200.126 84.7292 199.547C84.6326 199 84.5683 198.42 84.4718 197.873C84.343 196.747 84.2143 195.621 84.2143 194.494C84.2143 194.205 84.1821 193.915 84.1821 193.658C84.1821 193.368 84.1821 193.079 84.1821 192.821C84.1821 192.242 84.2143 191.695 84.2465 191.116C84.4074 188.863 84.8901 186.643 85.3084 184.422L85.4693 183.586C85.5337 183.296 85.598 183.038 85.6624 182.749C85.7911 182.202 85.8877 181.655 86.0164 181.108L86.2095 180.271C86.2738 179.981 86.306 179.724 86.4025 179.434L86.8209 177.793C87.1427 176.699 87.4323 175.605 87.8506 174.543C87.9472 174.286 88.0437 173.996 88.1402 173.738L88.462 172.966C88.6873 172.451 88.9126 171.904 89.1378 171.422C89.3953 170.907 89.6205 170.392 89.8779 169.877L90.6181 168.364C91.133 167.367 91.6478 166.369 92.1627 165.372C93.2246 163.409 94.3187 161.446 95.445 159.515C96.5713 157.584 97.7298 155.653 98.9526 153.755L99.0814 153.819C98.2125 155.911 97.3115 157.938 96.3461 159.966C95.4129 161.993 94.3831 163.988 93.3855 166.015C92.8707 167.013 92.3558 168.011 91.8087 168.976L91.0042 170.456C90.7468 170.939 90.4894 171.422 90.2319 171.936C89.9745 172.419 89.7492 172.934 89.4918 173.417L89.1378 174.157L88.7838 174.929C88.3333 175.927 87.8828 176.956 87.4645 177.986C86.66 180.078 86.0486 182.234 85.6946 184.422C85.3406 186.643 85.2762 188.863 85.2762 191.083C85.2441 191.63 85.3084 192.178 85.2762 192.757C85.2762 193.304 85.2762 193.851 85.2762 194.43C85.2762 194.977 85.2762 195.524 85.3084 196.103C85.3406 196.65 85.3406 197.198 85.3728 197.777C85.4693 199.997 85.8233 202.218 85.9198 204.47V204.502Z" fill="#0F45C2"/>
<path d="M199.321 159.869L194.72 157.359C194.559 157.262 194.43 157.134 194.334 156.973L191.824 152.371C191.47 151.695 190.504 151.695 190.15 152.371L187.64 156.973C187.544 157.134 187.415 157.262 187.254 157.359L182.652 159.869C181.977 160.223 181.977 161.188 182.652 161.542L187.254 164.052C187.415 164.149 187.544 164.278 187.64 164.438L190.15 169.04C190.504 169.716 191.47 169.716 191.824 169.04L194.334 164.438C194.43 164.278 194.559 164.149 194.72 164.052L199.321 161.542C199.997 161.188 199.997 160.223 199.321 159.869Z" fill="white"/>
<path d="M207.366 143.715L204.148 141.945C204.052 141.881 203.955 141.784 203.891 141.688L202.121 138.47C201.864 138.019 201.188 138.019 200.963 138.47L199.193 141.688C199.128 141.784 199.032 141.881 198.935 141.945L195.717 143.715C195.267 143.972 195.267 144.648 195.717 144.874L198.935 146.643C199.032 146.708 199.128 146.804 199.193 146.901L200.963 150.119C201.22 150.569 201.896 150.569 202.121 150.119L203.891 146.901C203.955 146.804 204.052 146.708 204.148 146.643L207.366 144.874C207.817 144.648 207.817 143.972 207.366 143.715Z" fill="white"/>
<path d="M74.3029 58.245L69.7012 55.7349C69.5403 55.6384 69.4116 55.5097 69.315 55.3488L66.805 50.7471C66.451 50.0713 65.4856 50.0713 65.1317 50.7471L62.6216 55.3488C62.5251 55.5097 62.3964 55.6384 62.2355 55.7349L57.6338 58.245C56.958 58.5989 56.958 59.5643 57.6338 59.9183L62.2355 62.4283C62.3964 62.5249 62.5251 62.6536 62.6216 62.8145L65.1317 67.4162C65.4856 68.092 66.451 68.092 66.805 67.4162L69.315 62.8145C69.4116 62.6536 69.5403 62.5249 69.7012 62.4283L74.3029 59.9183C74.9787 59.5321 74.9787 58.5989 74.3029 58.245Z" fill="white"/>
<path d="M82.3156 42.091L79.0976 40.3211C79.0011 40.2567 78.9045 40.1602 78.8402 40.0637L77.0703 36.8457C76.8128 36.3952 76.1371 36.3952 75.9118 36.8457L74.1419 40.0637C74.0776 40.1602 73.981 40.2567 73.8845 40.3211L70.6665 42.091C70.216 42.3484 70.216 43.0242 70.6665 43.2495L73.8845 45.0194C73.981 45.0837 74.0776 45.1802 74.1419 45.2768L75.9118 48.4948C76.1692 48.9453 76.845 48.9453 77.0703 48.4948L78.8402 45.2768C78.9045 45.1802 79.0011 45.0837 79.0976 45.0194L82.3156 43.2495C82.7983 42.992 82.7983 42.3484 82.3156 42.091Z" fill="white"/>
<path d="M30.3452 177.471L27.7387 176.055C27.6421 175.991 27.5778 175.926 27.5134 175.83L26.0975 173.223C25.9044 172.837 25.3574 172.837 25.1643 173.223L23.7484 175.83C23.684 175.926 23.6197 175.991 23.5231 176.055L20.9166 177.471C20.5304 177.664 20.5304 178.211 20.9166 178.404L23.5231 179.82C23.6197 179.884 23.684 179.949 23.7484 180.045L25.1643 182.652C25.3574 183.038 25.9044 183.038 26.0975 182.652L27.5134 180.045C27.5778 179.949 27.6421 179.884 27.7387 179.82L30.3452 178.404C30.7314 178.211 30.7314 177.664 30.3452 177.471Z" fill="white"/>
<path d="M72.0186 212.773C72.0186 212.773 75.0113 223.102 75.2365 222.201C75.4618 221.3 74.1102 202.153 74.1102 202.153L72.0186 212.773Z" fill="#E0AAA4"/>
<path d="M198.098 222.909L213.802 205.5L194.88 218.79L198.098 222.909Z" fill="#E0AAA4"/>
<path d="M53.2439 126.895C53.9477 126.191 53.4587 124.561 52.1517 123.254C50.8448 121.948 49.2148 121.459 48.5111 122.162C47.8073 122.866 48.2963 124.496 49.6033 125.803C50.9102 127.11 52.5402 127.599 53.2439 126.895Z" fill="white"/>
</svg>
