<svg width="320" height="210" viewBox="0 0 320 210" fill="none" xmlns="http://www.w3.org/2000/svg">
<path d="M292.244 148.928H288.779V206.297C289.975 205.745 291.14 205.132 292.244 204.488V148.928Z" fill="#A77A06"/>
<path d="M272.13 0H39.8612C17.8456 0 0 17.8456 0 39.8612V170.023C0 192.039 17.8456 209.885 39.8612 209.885H272.13C294.145 209.885 311.991 192.039 311.991 170.023V121.638V46.5763V39.8919C311.991 17.8456 294.145 0 272.13 0Z" fill="#A5BEF8"/>
<path d="M243.767 101.83C243.399 101.8 243.093 101.524 243.032 101.156C242.081 96.2803 237.42 92.6008 231.84 92.6008C231.196 92.6008 230.552 92.6622 229.908 92.7541C229.54 92.8155 229.203 92.6315 229.049 92.2942C227.332 88.5227 223.285 85.8857 218.563 85.8857C213.81 85.8857 209.732 88.584 208.046 92.3862C207.923 92.6315 207.708 92.8155 207.463 92.8461C204.213 93.49 201.515 95.4218 199.951 97.9974L179.376 102.719C178.426 102.934 178.579 104.345 179.56 104.345H198.632H243.154H253.763C254.806 104.345 254.867 102.781 253.825 102.719L243.767 101.83Z" fill="white"/>
<path d="M39.5858 165.517H32.5947V207.923H39.5858V165.517Z" fill="#759CF5"/>
<path d="M53.9666 123.294C50.6244 126.085 45.7798 127.127 45.7798 127.127C50.3178 122.988 52.2189 115.23 52.2189 115.23C48.0794 97.0779 42.3762 80.5508 36.0598 80.5508C33.3921 80.5508 30.8471 83.4944 28.4861 88.2471C29.1914 90.5161 31.1231 95.882 34.6186 99.0403C34.6186 99.0403 29.0994 97.8444 25.7572 94.6249C25.1746 96.1886 24.6227 97.8444 24.0707 99.5615C24.7453 100.512 25.4812 101.401 26.3397 102.168C26.3397 102.168 25.1439 101.923 23.5495 101.309C19.2874 115.322 16.0372 133.536 14.3814 146.26C14.4427 146.26 14.4734 146.23 14.4734 146.23C14.4734 146.23 16.3744 153.987 20.9125 158.127C20.9125 158.127 16.7117 157.207 13.4308 154.846C13.2775 156.808 13.1855 158.403 13.1855 159.537C13.1855 172.17 23.4268 182.412 36.0598 182.412C48.6927 182.412 58.934 172.17 58.934 159.537C58.9646 154.11 57.0942 138.901 53.9666 123.294Z" fill="#759CF5"/>
<path d="M263.728 167.509H256.737V209.915H263.728V167.509Z" fill="#759CF5"/>
<path d="M278.139 125.256C274.797 128.046 269.953 129.089 269.953 129.089C274.491 124.95 276.392 117.192 276.392 117.192C272.252 99.0398 266.549 82.5127 260.233 82.5127C257.565 82.5127 255.02 85.4563 252.659 90.209C253.364 92.478 255.296 97.8439 258.791 101.002C258.791 101.002 253.272 99.8063 249.93 96.5868C249.347 98.1506 248.796 99.8063 248.244 101.523C248.918 102.474 249.654 103.363 250.513 104.13C250.513 104.13 249.317 103.884 247.722 103.271C243.46 117.284 240.21 135.497 238.554 148.222C238.616 148.222 238.646 148.192 238.646 148.192C238.646 148.192 240.547 155.949 245.085 160.089C245.085 160.089 240.885 159.169 237.604 156.808C237.45 158.77 237.358 160.365 237.358 161.499C237.358 174.132 247.6 184.373 260.233 184.373C272.866 184.373 283.107 174.132 283.107 161.499C283.137 156.072 281.267 140.894 278.139 125.256Z" fill="#759CF5"/>
<path d="M215.373 171.955H209.118V209.915H215.373V171.955Z" fill="#759CF5"/>
<path d="M228.251 134.148C225.247 136.632 220.923 137.582 220.923 137.582C225.001 133.872 226.688 126.943 226.688 126.943C222.977 110.722 217.857 95.9121 212.215 95.9121C209.823 95.9121 207.554 98.5491 205.439 102.781C206.082 104.835 207.8 109.588 210.927 112.439C210.927 112.439 205.99 111.366 203.016 108.484C202.495 109.864 202.004 111.366 201.514 112.899C202.096 113.727 202.771 114.524 203.537 115.229C203.537 115.229 202.464 114.984 201.023 114.463C197.221 127.004 194.308 143.316 192.806 154.692C192.867 154.692 192.867 154.661 192.867 154.661C192.867 154.661 194.584 161.622 198.631 165.301C198.631 165.301 194.86 164.473 191.947 162.358C191.794 164.105 191.732 165.547 191.732 166.558C191.732 177.873 200.901 187.041 212.215 187.041C223.529 187.041 232.698 177.873 232.698 166.558C232.728 161.744 231.072 148.13 228.251 134.148Z" fill="#759CF5"/>
<path d="M99.8987 192.131H96.9551V209.915H99.8987V192.131Z" fill="#759CF5"/>
<path d="M105.939 174.408C104.529 175.573 102.505 176.003 102.505 176.003C104.406 174.286 105.203 171.005 105.203 171.005C103.456 163.4 101.064 156.471 98.427 156.471C97.3232 156.471 96.25 157.697 95.2381 159.69C95.5448 160.641 96.342 162.879 97.8138 164.228C97.8138 164.228 95.4834 163.738 94.1036 162.358C93.8583 163.002 93.613 163.707 93.3984 164.412C93.6744 164.811 93.981 165.179 94.3489 165.485C94.3489 165.485 93.8583 165.363 93.1838 165.118C91.4053 171.005 90.0255 178.64 89.351 183.975C89.3816 183.975 89.3816 183.975 89.3816 183.975C89.3816 183.975 90.1788 187.225 92.0799 188.973C92.0799 188.973 90.3321 188.574 88.9523 187.593C88.891 188.421 88.8604 189.096 88.8604 189.556C88.8604 194.86 93.1531 199.153 98.4577 199.153C103.762 199.153 108.055 194.86 108.055 189.556C108.024 187.348 107.258 180.97 105.939 174.408Z" fill="#759CF5"/>
<path d="M182.933 201.022H181.461V209.915H182.933V201.022Z" fill="#759CF5"/>
<path d="M185.938 192.161C185.233 192.744 184.221 192.959 184.221 192.959C185.171 192.1 185.57 190.475 185.57 190.475C184.712 186.673 183.516 183.208 182.167 183.208C181.615 183.208 181.063 183.821 180.572 184.833C180.725 185.324 181.124 186.428 181.86 187.102C181.86 187.102 180.695 186.857 180.02 186.182C179.898 186.52 179.775 186.857 179.652 187.225C179.806 187.409 179.959 187.623 180.112 187.777C180.112 187.777 179.867 187.715 179.53 187.593C178.64 190.536 177.966 194.338 177.598 197.006H177.628C177.628 197.006 178.027 198.631 178.978 199.49C178.978 199.49 178.088 199.306 177.414 198.815C177.383 199.214 177.353 199.551 177.353 199.796C177.353 202.433 179.499 204.58 182.136 204.58C184.773 204.58 186.919 202.433 186.919 199.796C186.981 198.631 186.582 195.442 185.938 192.161Z" fill="#759CF5"/>
<path d="M22.0771 174.653C22.0771 174.653 24.1622 181.43 28.5163 184.067C28.5163 184.067 23.089 185.171 22.0771 182.442C22.0771 182.442 24.2848 179.467 22.0771 174.653Z" fill="#A77A06"/>
<path d="M292.245 148.928H278.354V209.425C283.352 208.658 288.044 206.941 292.245 204.488V148.928Z" fill="#F8BA1D"/>
<path d="M287.338 179.804C305.17 179.804 319.626 160.132 319.626 135.865C319.626 111.598 305.17 91.9258 287.338 91.9258C269.506 91.9258 255.051 111.598 255.051 135.865C255.051 160.132 269.506 179.804 287.338 179.804Z" fill="#DF003F"/>
<path d="M280.347 179.804C298.179 179.804 312.635 160.132 312.635 135.865C312.635 111.598 298.179 91.9258 280.347 91.9258C262.515 91.9258 248.06 111.598 248.06 135.865C248.06 160.132 262.515 179.804 280.347 179.804Z" fill="#FF477C"/>
<path d="M105.388 135.65C105.142 135.068 104.989 134.761 104.989 134.761C92.632 133.995 78.466 131.879 78.466 131.879L77.3008 161.192L78.8032 167.539C78.8032 167.539 95.0544 164.81 105.97 162.48C110.294 149.357 106.645 138.717 105.388 135.65Z" fill="#4779F1"/>
<path d="M80.9804 167.142L91.4363 165.302C91.4363 165.302 84.5679 145.678 78.3128 136.05L76.5957 164.167L80.9804 167.142Z" fill="#0F45C2"/>
<path d="M70.8919 101.799C70.8919 101.799 75.5526 98.7328 74.4181 93.9188C73.2529 89.1048 66.9058 90.1167 65.8939 91.3432C64.8821 92.5697 58.1977 84.996 52.0652 99.4381C52.0652 99.4381 46.1167 99.1314 45.4114 103.945C44.7062 108.759 47.3432 115.751 53.3223 117.13C59.3015 118.51 68.4696 107.932 68.4696 107.932L70.8919 101.799Z" fill="black"/>
<path d="M153.129 147.578L164.229 148.927L165.057 132.339L153.129 134.884V147.578Z" fill="#FFD5CD"/>
<path d="M155.582 134.915L161.531 129.181C161.531 129.181 163.708 130.193 160.519 134.915C157.36 139.637 155.582 134.915 155.582 134.915Z" fill="#FFD5CD"/>
<path d="M163.891 130.192L167.509 130.867C168.153 130.99 168.613 131.511 168.644 132.155L169.472 150.062C169.502 150.583 169.226 151.074 168.766 151.319L165.393 153.22C164.504 153.711 163.4 153.097 163.339 152.085L162.235 131.634C162.205 130.714 163.002 130.008 163.891 130.192Z" fill="#4779F2"/>
<path d="M116.947 134.884C113.696 135.13 109.465 135.038 104.988 134.762C104.988 134.762 105.142 135.068 105.387 135.651C106.675 138.717 110.324 149.357 105.969 162.45C113.42 160.855 120.871 158.74 124.796 156.103L153.159 147.579V134.915C153.128 134.884 129.15 133.964 116.947 134.884Z" fill="#FFD5CD"/>
<path d="M142.059 88.8906C144.175 90.4237 146.137 92.1715 147.977 94.0113C149.847 95.851 151.595 97.8134 153.251 99.8678C156.562 103.977 159.445 108.484 161.775 113.298C162.358 114.494 162.909 115.72 163.431 116.977C163.952 118.235 164.412 119.492 164.841 120.749C165.7 123.294 166.374 125.931 166.865 128.599C167.356 131.266 167.631 133.995 167.754 136.724C167.846 139.453 167.693 142.182 167.386 144.911C166.681 150.338 165.178 155.643 162.94 160.579L162.511 161.499C162.358 161.806 162.204 162.113 162.051 162.419C161.744 163.033 161.438 163.615 161.131 164.228C160.487 165.394 159.843 166.589 159.107 167.724C158.402 168.889 157.636 169.993 156.9 171.097C156.532 171.649 156.102 172.17 155.704 172.722C155.305 173.243 154.907 173.795 154.477 174.316C147.793 182.626 139.545 189.402 130.561 194.646C134.271 190.966 137.92 187.317 141.292 183.484C144.665 179.652 147.824 175.665 150.614 171.495C151.994 169.41 153.312 167.264 154.447 165.056C155.06 163.983 155.581 162.849 156.133 161.745C156.409 161.193 156.624 160.61 156.9 160.058C157.022 159.782 157.145 159.506 157.268 159.2L157.605 158.341L157.942 157.483L158.126 157.053L158.279 156.624L158.893 154.876C159.261 153.711 159.629 152.546 159.935 151.35C160.579 148.989 161.039 146.597 161.346 144.175C161.652 141.753 161.775 139.33 161.744 136.877C161.744 134.424 161.53 132.002 161.192 129.549C160.855 127.127 160.334 124.704 159.721 122.313C159.414 121.117 159.046 119.921 158.678 118.756C158.31 117.56 157.881 116.395 157.452 115.23C155.673 110.538 153.435 106 150.859 101.616C148.222 97.2001 145.309 92.9381 142.059 88.8906Z" fill="#F7BA1E"/>
<path d="M52.525 113.421L51.6357 121.577L63.0115 128.568C63.0115 128.568 66.599 119.553 66.2924 119.247C65.9858 118.909 52.525 113.421 52.525 113.421Z" fill="#E0AAA4"/>
<path d="M53.3219 99.9902C53.3219 99.9902 55.9282 87.7252 48.3853 87.2653C40.8423 86.8053 38.5426 90.9448 36.3963 97.3226C34.2499 103.7 25.3271 90.1782 16.5576 93.8577C7.78816 97.5372 -4.17021 105.141 9.35195 124.214C22.8741 143.286 35.1084 124.612 33.5753 118.296C32.0422 112.01 39.2479 115.996 41.1489 113.42C43.6019 110.109 44.8284 95.1762 48.3853 97.3226C51.9421 99.4689 50.2864 102.474 50.2864 102.474L53.3219 99.9902Z" fill="black"/>
<path d="M71.7201 99.8984C71.7201 99.8984 73.0999 106.338 71.7201 109.894H74.5717C74.5717 109.894 75.0316 113.267 72.18 113.359L72.272 120.35C72.272 120.35 67.6726 123.877 63.1346 123.263C58.5965 122.65 53.4452 113.574 53.4452 113.574C53.4452 113.574 50.2257 113.175 50.5323 110.876C50.8389 108.576 52.7707 108.116 53.8439 110.109C53.8439 110.109 59.2098 111.795 61.2948 107.656C63.3799 103.517 60.6816 96.4336 66.1395 96.4336C71.5974 96.4336 68.4085 98.58 71.7201 99.8984Z" fill="#FFD5CD"/>
<path d="M85.8552 209.915C88.7681 199.858 86.4071 181.767 82.0837 172.875C81.0105 170.667 80.6732 168.153 81.1638 165.731L83.1569 158.77C84.2607 154.876 84.2301 150.767 83.0036 146.904C81.3478 141.722 78.4042 134.762 73.8355 131.389L66.4458 127.617L66.4765 127.648L67.6723 134.884L65.2193 137.797C65.2193 137.797 37.5311 148.222 15.9141 145.187C18.6124 147.027 21.8932 148.774 25.7261 150.338C25.7261 150.338 18.7043 160.027 20.5441 169.012C22.3838 177.996 24.2236 176.861 21.464 184.005C19.4709 189.126 15.5155 194.216 16.4353 202.372C22.9971 207.125 31.092 209.946 39.8001 209.946H85.8552V209.915Z" fill="#4779F1"/>
<path d="M130.469 194.676C125.716 189.709 120.994 184.68 116.242 179.682L102.076 164.627L94.962 157.115L91.4358 153.374C90.2707 152.117 89.1055 150.829 87.971 149.541L84.5675 145.647C83.4329 144.329 82.2984 143.041 81.1946 141.722C78.9562 139.085 76.7485 136.448 74.6328 133.719L74.7555 133.597C77.2698 135.958 79.7228 138.38 82.1451 140.833C83.3716 142.06 84.5675 143.286 85.7633 144.543L89.3201 148.284C90.4853 149.541 91.6811 150.798 92.8463 152.055L96.3112 155.888L103.18 163.615L116.947 179.038C121.516 184.19 126.084 189.341 130.653 194.523L130.469 194.676Z" fill="#F7BA1E"/>
<path d="M76.5645 132.492C81.9304 128.721 87.327 125.011 92.7236 121.27L108.913 110.14L117.008 104.528L121.086 101.769C122.436 100.849 123.815 99.9596 125.195 99.0704L129.335 96.4334C130.714 95.5749 132.125 94.6856 133.505 93.8271C136.295 92.11 139.116 90.4236 141.998 88.8291L142.09 88.9824C139.515 91.0061 136.878 92.9685 134.21 94.9003C132.891 95.8815 131.542 96.8013 130.224 97.7519L126.207 100.573C124.858 101.493 123.509 102.413 122.129 103.332L118.02 106.031L109.741 111.335L93.2448 122.006C87.7256 125.532 82.2063 129.089 76.6871 132.615L76.5645 132.492Z" fill="#F7BA1E"/>
<path d="M25.7563 150.308C25.7563 150.308 39.2785 148.284 47.3121 142.918C47.3121 142.918 29.5585 147.456 15.9443 145.156C15.9443 145.156 19.4399 147.885 25.7563 150.308Z" fill="#0F45C2"/>
<path d="M77.3 168.03C77.3 168.03 65.6176 172.906 57.1854 170.913C48.7839 168.95 36.8255 173.396 31.6436 171.189C31.6436 171.189 36.4269 174.285 51.5435 172.63C66.6601 170.974 70.8609 174.347 77.3 168.03Z" fill="#0F45C2"/>
<path d="M154.57 139.944C154.57 139.944 158.771 139.821 160.611 137.307L161.899 147.548C161.899 147.548 158.25 140.618 154.57 139.944Z" fill="#E0AAA4"/>
<path d="M160.886 146.506L160.212 150.032L161.132 150.982C162.205 152.086 163.615 152.791 165.149 152.945L165.701 153.006L168.491 151.504C169.073 151.197 169.441 150.584 169.411 149.909L169.319 145.984L160.886 146.506Z" fill="#0E45C2"/>
<path d="M65.1584 112.102C66.8688 112.102 68.2553 111.265 68.2553 110.232C68.2553 109.199 66.8688 108.361 65.1584 108.361C63.4481 108.361 62.0615 109.199 62.0615 110.232C62.0615 111.265 63.4481 112.102 65.1584 112.102Z" fill="#FFBCB3"/>
<path d="M70.5857 109.281H70.5551L66.8756 109.005C66.6303 108.974 66.4463 108.76 66.4463 108.514C66.4463 108.269 66.6916 108.085 66.9369 108.085L70.6164 108.361C70.8617 108.392 71.0457 108.606 71.0457 108.852C71.0457 109.097 70.831 109.281 70.5857 109.281Z" fill="black"/>
<path d="M278.354 167.601C291.224 167.601 301.658 153.393 301.658 135.866C301.658 118.338 291.224 104.13 278.354 104.13C265.484 104.13 255.051 118.338 255.051 135.866C255.051 153.393 265.484 167.601 278.354 167.601Z" fill="white"/>
<path d="M275.871 155.09C283.678 155.09 290.006 146.483 290.006 135.865C290.006 125.247 283.678 116.64 275.871 116.64C268.064 116.64 261.735 125.247 261.735 135.865C261.735 146.483 268.064 155.09 275.871 155.09Z" fill="#FF477C"/>
<path d="M73.8662 131.363L73.8467 132.59L182.166 134.31L182.186 133.083L73.8662 131.363Z" fill="white"/>
<path d="M79.5691 127.28C77.4533 125.379 74.4484 124.765 71.7501 125.716L66.8748 127.433C66.6295 127.494 66.3535 127.494 66.1082 127.372L63.5326 126.115C63.5326 126.115 29.8039 101.309 8.61609 121.73C3.49545 129.365 5.61117 138.073 15.9444 145.156C37.5615 148.192 65.2497 137.766 65.2497 137.766C65.2497 137.766 68.1933 139.361 73.0073 136.509L73.3446 137.429C73.5286 137.92 73.9578 138.288 74.4791 138.349C76.1349 138.564 79.661 138.625 80.9795 135.436V130.53C80.9795 129.304 80.4889 128.108 79.5691 127.28Z" fill="#FFD5CD"/>
<path d="M167.08 132.983L169.257 134.761C170.147 135.497 170.668 136.601 170.668 137.766V144.052C170.668 145.524 169.84 146.873 168.522 147.517L165.977 148.744C164.106 149.663 161.868 148.805 161.009 146.842L159.721 143.899C159.415 143.194 159.323 142.396 159.476 141.63L160.58 135.589C160.795 134.424 161.531 133.412 162.573 132.86L163.125 132.584C164.413 131.91 165.946 132.063 167.08 132.983Z" fill="#FFD5CD"/>
<path d="M175.451 132.125V135.344C175.451 136.295 176.402 136.969 177.322 136.663L181.921 135.038C183.147 134.608 183.147 132.83 181.921 132.401L177.322 130.806C176.402 130.5 175.451 131.174 175.451 132.125Z" fill="white"/>
<path d="M267.806 134.332C267.745 134.332 267.684 134.332 267.622 134.301C266.672 133.995 265.66 133.719 264.648 133.443C264.311 133.351 264.127 133.013 264.219 132.707C264.311 132.37 264.648 132.186 264.955 132.278C265.997 132.554 267.009 132.86 267.99 133.136C268.327 133.228 268.481 133.596 268.389 133.903C268.327 134.148 268.082 134.332 267.806 134.332ZM190.23 133.535C189.923 133.535 189.678 133.32 189.617 133.013C189.556 132.676 189.801 132.37 190.138 132.308C191.058 132.155 192.101 132.002 193.235 131.818C193.572 131.756 193.879 132.002 193.94 132.339C194.002 132.676 193.756 132.983 193.419 133.044C192.284 133.228 191.242 133.381 190.322 133.535C190.291 133.535 190.261 133.535 190.23 133.535ZM261.766 132.707C261.735 132.707 261.674 132.707 261.643 132.707C260.662 132.492 259.619 132.278 258.607 132.094C258.27 132.032 258.055 131.726 258.117 131.388C258.178 131.051 258.485 130.836 258.822 130.898C259.865 131.082 260.907 131.296 261.919 131.542C262.256 131.603 262.471 131.94 262.379 132.278C262.318 132.523 262.042 132.707 261.766 132.707ZM196.424 132.615C196.117 132.615 195.872 132.4 195.811 132.094C195.749 131.756 195.995 131.45 196.332 131.388C197.313 131.266 198.356 131.112 199.429 130.99C199.766 130.959 200.073 131.174 200.103 131.511C200.134 131.848 199.919 132.155 199.582 132.186C198.509 132.339 197.466 132.462 196.485 132.584C196.485 132.615 196.455 132.615 196.424 132.615ZM202.618 131.818C202.311 131.818 202.035 131.603 202.004 131.266C201.974 130.928 202.219 130.622 202.556 130.591C203.568 130.468 204.611 130.346 205.684 130.254C206.021 130.223 206.328 130.468 206.359 130.806C206.389 131.143 206.144 131.45 205.807 131.48C204.733 131.603 203.722 131.695 202.71 131.818C202.679 131.818 202.648 131.818 202.618 131.818ZM255.633 131.542C255.602 131.542 255.572 131.542 255.541 131.542C254.529 131.388 253.517 131.235 252.475 131.112C252.138 131.082 251.892 130.775 251.954 130.438C251.984 130.101 252.291 129.855 252.628 129.917C253.671 130.039 254.744 130.192 255.725 130.346C256.062 130.407 256.277 130.714 256.246 131.051C256.185 131.327 255.909 131.542 255.633 131.542ZM208.842 131.174C208.536 131.174 208.26 130.928 208.229 130.622C208.198 130.284 208.444 129.978 208.781 129.947C209.793 129.855 210.835 129.763 211.908 129.671C212.246 129.641 212.552 129.886 212.583 130.223C212.614 130.56 212.368 130.867 212.031 130.898C210.989 130.99 209.946 131.082 208.934 131.174C208.873 131.174 208.873 131.174 208.842 131.174ZM249.439 130.744C249.409 130.744 249.409 130.744 249.378 130.744C248.366 130.652 247.324 130.56 246.281 130.468C245.944 130.438 245.699 130.131 245.729 129.794C245.76 129.457 246.036 129.211 246.404 129.242C247.446 129.334 248.519 129.426 249.531 129.518C249.869 129.549 250.114 129.855 250.083 130.192C249.991 130.53 249.746 130.744 249.439 130.744ZM215.067 130.652C214.76 130.652 214.484 130.407 214.453 130.07C214.423 129.733 214.668 129.426 215.005 129.426C216.048 129.365 217.09 129.273 218.133 129.211C218.47 129.181 218.777 129.457 218.777 129.794C218.808 130.131 218.532 130.438 218.194 130.438C217.152 130.499 216.109 130.56 215.067 130.652C215.097 130.652 215.097 130.652 215.067 130.652ZM243.184 130.254H243.154C242.142 130.193 241.099 130.131 240.057 130.101C239.719 130.101 239.443 129.794 239.474 129.457C239.474 129.119 239.75 128.843 240.118 128.874C241.16 128.905 242.234 128.966 243.246 129.027C243.583 129.058 243.828 129.334 243.828 129.671C243.797 130.009 243.521 130.254 243.184 130.254ZM221.322 130.254C220.985 130.254 220.739 130.009 220.709 129.671C220.678 129.334 220.954 129.058 221.291 129.027C222.334 128.966 223.376 128.935 224.419 128.905C224.756 128.874 225.032 129.15 225.063 129.487C225.063 129.825 224.817 130.101 224.48 130.131C223.438 130.162 222.395 130.223 221.353 130.254C221.322 130.254 221.322 130.254 221.322 130.254ZM227.577 130.009C227.24 130.009 226.964 129.733 226.964 129.395C226.964 129.058 227.209 128.782 227.577 128.782C228.62 128.751 229.693 128.751 230.705 128.721C231.042 128.721 231.318 128.997 231.318 129.334C231.318 129.671 231.042 129.947 230.705 129.947C229.693 129.978 228.62 130.009 227.577 130.009ZM236.929 130.009C235.887 129.978 234.844 129.978 233.801 129.978C233.464 129.978 233.188 129.702 233.188 129.365C233.188 129.027 233.464 128.751 233.801 128.751C234.844 128.751 235.917 128.782 236.929 128.782C237.266 128.782 237.542 129.058 237.542 129.395C237.542 129.733 237.266 130.009 236.929 130.009Z" fill="white"/>
<path d="M272.191 135.865C272.129 135.865 272.037 135.865 271.976 135.835C271.516 135.651 271.056 135.467 270.566 135.283C270.259 135.16 270.075 134.823 270.198 134.485C270.32 134.179 270.658 133.995 270.995 134.118C271.485 134.301 271.976 134.485 272.436 134.669C272.743 134.792 272.896 135.16 272.773 135.467C272.651 135.712 272.436 135.865 272.191 135.865Z" fill="white"/>
<path d="M89.1668 33.7287C88.7989 33.698 88.4922 33.422 88.4309 33.0541C87.4804 28.1788 82.8197 24.4993 77.2391 24.4993C76.5952 24.4993 75.9513 24.5606 75.3074 24.6526C74.9394 24.7139 74.6021 24.5299 74.4488 24.1926C72.7317 20.4212 68.6843 17.7842 63.9623 17.7842C59.2096 17.7842 55.1315 20.4825 53.445 24.2846C53.3224 24.5299 53.1077 24.7139 52.8624 24.7446C49.6122 25.3885 46.9139 27.3202 45.3501 29.8959L24.7756 34.6179C23.8251 34.8325 23.9784 36.243 24.9596 36.243H44.0316H88.5536H99.1628C100.205 36.243 100.267 34.6792 99.2241 34.6179L89.1668 33.7287Z" fill="white"/>
<path d="M200.134 53.0767C207.755 53.0767 213.932 46.8991 213.932 39.2786C213.932 31.6581 207.755 25.4805 200.134 25.4805C192.514 25.4805 186.336 31.6581 186.336 39.2786C186.336 46.8991 192.514 53.0767 200.134 53.0767Z" fill="#F7BA1E"/>
<path d="M164.657 52.464C165.025 52.4334 165.332 52.1574 165.393 51.7895C166.344 46.9141 171.005 43.2346 176.585 43.2346C177.229 43.2346 177.873 43.2959 178.517 43.3879C178.885 43.4493 179.222 43.2653 179.375 42.928C181.093 39.1565 185.14 36.5195 189.862 36.5195C194.615 36.5195 198.693 39.2178 200.379 43.02C200.502 43.2653 200.717 43.4493 200.962 43.4799C204.212 44.1238 206.91 46.0556 208.474 48.6312L229.049 53.3532C229.999 53.5679 229.846 54.9783 228.865 54.9783H209.793H165.301H154.692C153.65 54.9783 153.588 53.4146 154.631 53.3532L164.657 52.464Z" fill="white"/>
</svg>
