<svg width="313" height="121" viewBox="0 0 313 121" fill="none" xmlns="http://www.w3.org/2000/svg">
<path d="M282.407 120.38H30.6232C13.7192 120.38 0 106.661 0 89.7567V30.6232C0 13.7192 13.7192 0 30.6232 0H282.377C299.281 0 313 13.7192 313 30.6232V89.7567C313.031 106.661 299.311 120.38 282.407 120.38Z" fill="#A5BEF8"/>
<path d="M46.762 120.38H38.9531L73.6799 76.6504L78.7327 80.6314L46.762 120.38Z" fill="#759CF6"/>
<path d="M83.8158 76.6504H76.0068L110.734 120.38H119.002L83.8158 76.6504Z" fill="#759CF6"/>
<path d="M78.7319 78.6406H73.6484V120.38H78.7319V78.6406Z" fill="#759CF6"/>
<path d="M76.0064 113.643C95.8619 113.643 111.958 97.5465 111.958 77.6909C111.958 57.8354 95.8619 41.7393 76.0064 41.7393C56.1508 41.7393 40.0547 57.8354 40.0547 77.6909C40.0547 97.5465 56.1508 113.643 76.0064 113.643Z" fill="#1657EE"/>
<path d="M76.0065 103.139C90.061 103.139 101.454 91.7455 101.454 77.6911C101.454 63.6366 90.061 52.2432 76.0065 52.2432C61.952 52.2432 50.5586 63.6366 50.5586 77.6911C50.5586 91.7455 61.952 103.139 76.0065 103.139Z" fill="#759CF6"/>
<path d="M76.0068 92.3905C84.1249 92.3905 90.7059 85.8095 90.7059 77.6913C90.7059 69.5732 84.1249 62.9922 76.0068 62.9922C67.8886 62.9922 61.3076 69.5732 61.3076 77.6913C61.3076 85.8095 67.8886 92.3905 76.0068 92.3905Z" fill="#1657EE"/>
<path d="M201.838 120.38H194.029L228.756 76.6504L233.809 80.6314L201.838 120.38Z" fill="#759CF6"/>
<path d="M238.892 76.6504H231.083L265.81 120.38H274.078L238.892 76.6504Z" fill="#759CF6"/>
<path d="M233.808 78.6406H228.725V120.38H233.808V78.6406Z" fill="#759CF6"/>
<path d="M231.083 113.643C250.938 113.643 267.034 97.5465 267.034 77.6909C267.034 57.8354 250.938 41.7393 231.083 41.7393C211.227 41.7393 195.131 57.8354 195.131 77.6909C195.131 97.5465 211.227 113.643 231.083 113.643Z" fill="#1657EE"/>
<path d="M231.083 103.139C245.137 103.139 256.531 91.7455 256.531 77.6911C256.531 63.6366 245.137 52.2432 231.083 52.2432C217.028 52.2432 205.635 63.6366 205.635 77.6911C205.635 91.7455 217.028 103.139 231.083 103.139Z" fill="#759CF6"/>
<path d="M231.083 92.3905C239.201 92.3905 245.782 85.8095 245.782 77.6913C245.782 69.5732 239.201 62.9922 231.083 62.9922C222.965 62.9922 216.384 69.5732 216.384 77.6913C216.384 85.8095 222.965 92.3905 231.083 92.3905Z" fill="#1657EE"/>
<path d="M110.427 120.38H99.2803L148.89 57.9395L156.117 63.6047L110.427 120.38Z" fill="#F8BA1D"/>
<path d="M163.651 57.9395H152.504L202.083 120.38H213.873L163.651 57.9395Z" fill="#F8BA1D"/>
<path d="M156.087 60.7871H148.829V120.38H156.087V60.7871Z" fill="#A77A06"/>
<path d="M120.411 105.252C119.584 105.13 118.635 104.977 115.757 105.589C111.194 106.6 108.315 114.225 106.723 120.35H108.009C109.54 114.562 112.143 107.641 116.032 106.783C118.666 106.202 119.493 106.324 120.227 106.447C120.626 106.508 121.024 106.569 121.575 106.539L122.708 105.16C121.452 105.436 120.932 105.344 120.411 105.252Z" fill="#D99D08"/>
<path d="M130.945 80.5391L129.935 81.8252C130.088 83.1727 129.843 84.6732 129.231 86.1125C128.189 88.5011 126.26 90.3385 124.055 91.0428C121.054 91.9922 121.85 94.6258 122.493 96.7388C123.228 99.0967 123.565 100.567 121.667 101.302C119.707 102.067 117.287 101.424 115.144 100.414L114.348 101.393C116.032 102.19 117.931 102.833 119.737 102.833C120.534 102.833 121.33 102.71 122.065 102.435C125.127 101.24 124.3 98.5455 123.626 96.3713C122.861 93.8295 122.708 92.7577 124.392 92.2065C126.964 91.3797 129.108 89.3279 130.302 86.5718C131.221 84.5507 131.435 82.4071 130.945 80.5391Z" fill="#D99D08"/>
<path d="M130.272 95.7285C130.058 97.5965 129.966 98.8827 129.966 99.0971L131.191 99.1583C131.191 99.0971 131.313 96.8616 131.773 93.8605C132.599 88.2871 134.59 79.9882 139.061 77.8139C141.695 76.5278 144.236 75.9459 146.38 75.7009L147.452 74.3535C144.971 74.5066 141.848 75.0885 138.51 76.7115C132.906 79.4676 130.946 90.1857 130.272 95.7285Z" fill="#D99D08"/>
<path d="M137.56 81.9174C134.896 84.3366 134.62 88.6545 134.62 90.3082L135.937 88.6851C136.121 86.8784 136.702 84.3366 138.387 82.8361C139.275 82.0399 140.408 81.5805 141.725 81.4887L142.705 80.2637C140.622 80.1719 138.907 80.7231 137.56 81.9174Z" fill="#D99D08"/>
<path d="M139.122 70.2189L137.836 71.8419C143.287 70.4027 150.881 67.9834 155.261 64.6761L156.118 63.6043L155.383 63.0225C151.892 66.2073 144.757 68.6571 139.122 70.2189Z" fill="#D99D08"/>
<path d="M196.602 99.8316C196.847 99.8316 197.092 99.8316 197.337 99.801L196.357 98.6067C190.845 98.3923 186.037 91.5021 182.117 85.8674C181.045 84.3056 180.004 82.8663 179.055 81.6108C176.727 78.6403 172.226 77.5991 167.938 77.3848L168.98 78.7016C172.624 79.0078 176.207 79.9877 178.105 82.3763C179.055 83.6013 180.065 85.0406 181.137 86.5717C185.271 92.5433 190.355 99.8316 196.602 99.8316Z" fill="#D99D08"/>
<path d="M169.347 73.2507C171.828 75.0574 174.706 75.2105 177.493 75.3637C177.554 75.3637 177.585 75.3637 177.646 75.3637L176.605 74.0775C174.278 73.9244 171.95 73.6488 170.052 72.2401C168.888 71.3826 168.214 70.3415 168.061 69.0859C167.877 67.5241 168.521 65.9317 169.164 64.7986L168.337 63.7881C167.571 65.0743 166.591 67.126 166.867 69.239C167.051 70.8314 167.908 72.1788 169.347 73.2507Z" fill="#D99D08"/>
<path d="M172.195 82.7435L173.114 83.9072C174.461 83.9072 175.594 84.244 176.115 85.224C176.697 86.3264 176.942 87.582 177.064 88.8375L178.351 90.4605C178.351 88.5313 178.136 86.4795 177.187 84.6421C176.268 82.8966 174.247 82.5291 172.195 82.7435Z" fill="#D99D08"/>
<path d="M206.585 111.284L206.034 110.58C200.889 109.845 198.286 107.518 195.316 104.823C194.519 104.088 193.692 103.353 192.743 102.587C190.722 100.934 188.517 100.627 186.588 100.872L187.476 102.005C188.915 101.975 190.508 102.342 191.947 103.537C192.835 104.272 193.662 105.037 194.458 105.741C197.704 108.681 200.491 111.223 206.493 111.897L206.585 111.284Z" fill="#D99D08"/>
<path d="M196.571 113.398L197.49 114.562C200.828 114.623 205.207 115.756 208.484 120.38H209.954C206.095 114.347 200.46 113.306 196.571 113.398Z" fill="#D99D08"/>
<path d="M152.228 110.764C180.574 110.764 203.552 87.7855 203.552 59.4398C203.552 31.094 180.574 8.11523 152.228 8.11523C123.882 8.11523 100.903 31.094 100.903 59.4398C100.903 87.7855 123.882 110.764 152.228 110.764Z" fill="#FF477C"/>
<path d="M152.227 95.7594C172.286 95.7594 188.546 79.4987 188.546 59.4402C188.546 39.3817 172.286 23.1211 152.227 23.1211C132.169 23.1211 115.908 39.3817 115.908 59.4402C115.908 79.4987 132.169 95.7594 152.227 95.7594Z" fill="white"/>
<path d="M152.228 80.4167C163.813 80.4167 173.205 71.025 173.205 59.4398C173.205 47.8546 163.813 38.4629 152.228 38.4629C140.643 38.4629 131.251 47.8546 131.251 59.4398C131.251 71.025 140.643 80.4167 152.228 80.4167Z" fill="#FF477C"/>
<path d="M152.319 59.6233L152.809 56.071L150.114 52.2125C149.165 50.8344 147.083 51.0182 146.378 52.5494L142.183 61.522C141.479 63.0225 142.673 64.7374 144.326 64.6149L150.329 64.0943L151.339 62.3488C151.86 61.4913 152.197 60.5726 152.319 59.6233Z" fill="white"/>
<path d="M151.921 61.1855L149.716 69.1476L145.644 64.4622L150.36 64.0641L151.921 61.1855Z" fill="#DF003F"/>
<path d="M76.3349 29.7386L75.248 32.6016L145.734 59.359L146.821 56.4961L76.3349 29.7386Z" fill="white"/>
<path d="M76.3433 29.7354L75.2715 19.3848L82.1005 23.0902L82.8967 26.5506L83.6622 24.0089L88.4088 28.8167V34.3289L76.3433 29.7354Z" fill="#F8BA1D"/>
<path d="M75.2717 32.6143L67.6465 39.7188L75.241 41.4031L78.1196 39.2901L77.0478 41.74L83.7543 41.2194L87.3678 37.2077L75.2717 32.6143Z" fill="#F8BA1D"/>
<path d="M47.2211 120.38L49.8854 113.521C49.8854 113.521 46.2412 114.44 44.5569 116.951V109.387C44.5569 109.387 39.5653 114.041 38.0342 120.38H47.2211Z" fill="#1657EE"/>
<path d="M36.8088 120.38L34.1445 113.521C34.1445 113.521 37.7887 114.44 39.473 116.951V109.387C39.473 109.387 44.4646 114.041 45.9957 120.38H36.8088Z" fill="#759CF6"/>
<path d="M253.867 120.38L256.531 113.521C256.531 113.521 252.887 114.44 251.202 116.951V109.387C251.202 109.387 246.211 114.041 244.68 120.38H253.867Z" fill="#1657EE"/>
<path d="M243.454 120.38L240.79 113.521C240.79 113.521 244.434 114.44 246.118 116.951V109.387C246.118 109.387 251.11 114.041 252.641 120.38H243.454Z" fill="#759CF6"/>
<path d="M200.428 120.38L204.348 110.274C204.348 110.274 198.958 111.652 196.478 115.327V104.211C196.478 104.211 189.128 111.071 186.862 120.38H200.428Z" fill="#22776E"/>
<path d="M185.117 120.38L181.197 110.274C181.197 110.274 186.587 111.652 189.067 115.327V104.211C189.067 104.211 196.417 111.071 198.683 120.38H185.117Z" fill="#39C6BB"/>
</svg>
