<svg width="311" height="312" viewBox="0 0 311 312" fill="none" xmlns="http://www.w3.org/2000/svg">
<path d="M269.801 312H41.233C18.4518 312 0 293.489 0 270.634V41.3656C0 18.5111 18.4518 0 41.233 0H269.767C292.548 0 311 18.5111 311 41.3656V270.634C311.034 293.489 292.583 312 269.801 312Z" fill="#A5BEF8"/>
<path d="M291.11 268.5L289.146 270.603C289.8 269.948 290.455 269.224 291.11 268.5Z" fill="#759CF5"/>
<path d="M269.602 0H142.211C142.487 0.827214 143.107 1.51656 144.176 1.72336C161.133 5.06668 192.705 14.3384 205.7 38.3965C206.871 40.5679 204.597 42.9806 202.356 41.9466C197.531 39.7407 190.396 37.1557 182.744 36.3974C180.09 36.1217 178.85 39.6029 181.056 41.1194C197.29 52.1145 236.892 80.3087 246.922 101.23C247.991 103.471 251.334 103.023 251.782 100.575C252.437 96.9908 253.058 92.2688 253.23 86.4438C253.299 83.8932 256.608 82.9971 257.986 85.1341C269.912 103.712 299.967 156.826 296.659 215.351C296.486 218.109 300.243 219.143 301.519 216.696C301.587 216.592 301.622 216.489 301.691 216.385C303.001 213.835 306.861 214.972 306.551 217.798C305.482 228.277 303.483 241.029 299.761 251.887C298.865 254.506 302.208 256.505 304.104 254.472L310.963 247.096V41.3262C310.963 18.5089 292.419 0 269.602 0Z" fill="#759CF5"/>
<path d="M139.097 311.308C133.856 308.861 115.908 300.313 104.194 292.42C101.659 290.697 103.68 286.767 106.523 287.87C119.333 292.765 139.542 299.314 156.394 299.624C159.237 299.693 160.024 295.66 157.353 294.626C128.204 283.252 50.7612 246.062 47.062 170.889C46.925 168.062 43.0203 167.476 42.0955 170.165C38.3963 180.85 34.012 195.326 33.2585 205.011C33.0872 207.32 30.2443 208.251 28.7373 206.493C21.4416 197.842 7.77516 178.127 2.12361 146.658C1.88385 145.417 0.993302 144.694 0 144.556V270.637C0 293.489 18.3932 311.997 41.1022 311.997H140.021C139.747 311.687 139.439 311.446 139.097 311.308Z" fill="#759CF5"/>
<path d="M164.173 192.812L150.556 194.966L155.32 225.094L168.938 222.941L164.173 192.812Z" fill="#A77A06"/>
<path d="M162.133 236.411C168.986 236.411 174.541 230.856 174.541 224.003C174.541 217.15 168.986 211.595 162.133 211.595C155.28 211.595 149.725 217.15 149.725 224.003C149.725 230.856 155.28 236.411 162.133 236.411Z" fill="#F8BA1D"/>
<path d="M114.499 76.1387C121.352 76.1387 126.907 70.5833 126.907 63.7305C126.907 56.8776 121.352 51.3223 114.499 51.3223C107.646 51.3223 102.091 56.8776 102.091 63.7305C102.091 70.5833 107.646 76.1387 114.499 76.1387Z" fill="#F8BA1D"/>
<path d="M218.659 186.537L102.884 223.038C96.8521 224.934 90.9926 219.695 92.199 213.49L95.1976 198.497L79.4461 148.554C69.4161 116.775 87.0634 82.8597 118.877 72.8297C150.655 62.8342 184.537 80.447 194.567 112.26L210.318 162.203L221.692 172.406C226.483 176.714 224.794 184.607 218.659 186.537Z" fill="#F8BA1D"/>
<path d="M88.7866 260.641C87.5802 260.641 86.3739 260.228 85.4088 259.366C74.7584 250.094 66.762 239.823 61.6609 228.794C57.5248 219.901 55.2844 210.526 54.9742 200.944C54.4228 184.572 59.7997 173.267 60.0065 172.819C61.2473 170.234 64.3493 169.165 66.8999 170.406C69.485 171.647 70.5534 174.715 69.3126 177.3C69.2437 177.472 64.7285 187.226 65.3144 201.117C66.0727 219.694 75.1376 236.687 92.1989 251.542C94.3358 253.403 94.5771 256.678 92.7159 258.849C91.6474 260.056 90.2342 260.641 88.7866 260.641Z" fill="white"/>
<path d="M55.9741 254.23C54.5954 254.23 53.2512 253.679 52.2172 252.61C29.0897 228.311 33.3636 202.219 33.5704 201.116C34.053 198.29 36.7414 196.429 39.5677 196.911C42.3596 197.394 44.2553 200.082 43.7727 202.874C43.7382 203.012 42.8766 208.561 44.3931 216.523C46.4267 227.173 51.5968 236.928 59.731 245.475C61.6957 247.543 61.6267 250.818 59.5587 252.782C58.5247 253.748 57.2494 254.23 55.9741 254.23Z" fill="white"/>
<path d="M254.85 208.389C254.437 208.389 254.023 208.354 253.575 208.217C250.818 207.527 249.129 204.701 249.818 201.944C253.816 186.054 252.231 172.267 245.062 160.962C239.685 152.449 232.964 148.485 232.895 148.45C230.413 147.037 229.551 143.901 230.965 141.419C232.378 138.937 235.549 138.076 238.03 139.454C238.375 139.661 246.716 144.452 253.506 154.93C259.676 164.478 265.811 180.85 259.883 204.494C259.262 206.803 257.16 208.389 254.85 208.389Z" fill="white"/>
<path d="M272.119 190.57C271.843 190.57 271.602 190.535 271.326 190.501C268.5 190.053 266.569 187.433 267.018 184.607C270.085 164.685 259.504 153.448 259.056 153C257.056 150.967 257.056 147.727 259.09 145.693C261.124 143.694 264.398 143.694 266.397 145.728C267.018 146.348 281.115 160.893 277.22 186.192C276.841 188.743 274.635 190.57 272.119 190.57Z" fill="white"/>
<path d="M174.79 100.421C177.201 95.8825 171.946 88.3736 163.053 83.6499C154.161 78.9261 144.997 78.7761 142.586 83.3149C140.175 87.8538 145.43 95.3626 154.322 100.086C163.215 104.81 172.379 104.96 174.79 100.421Z" fill="white"/>
<path d="M172.311 226.917C173.353 223.693 172.965 220.68 171.444 220.188C169.922 219.696 167.843 221.911 166.801 225.135C165.758 228.359 166.146 231.372 167.668 231.864C169.189 232.356 171.268 230.141 172.311 226.917Z" fill="white"/>
</svg>
