<svg width="311" height="312" viewBox="0 0 311 312" fill="none" xmlns="http://www.w3.org/2000/svg">
<path d="M269.801 312H41.233C18.4518 312 0 293.489 0 270.634V41.3656C0 18.5111 18.4518 0 41.233 0H269.767C292.548 0 311 18.5111 311 41.3656V270.634C311.034 293.489 292.583 312 269.801 312Z" fill="#A5BEF8"/>
<path d="M291.11 268.5L289.146 270.603C289.8 269.948 290.455 269.224 291.11 268.5Z" fill="#759CF5"/>
<path d="M269.602 0H142.211C142.487 0.827214 143.107 1.51656 144.176 1.72336C161.133 5.06668 192.705 14.3384 205.7 38.3965C206.871 40.5679 204.597 42.9806 202.356 41.9466C197.531 39.7407 190.396 37.1557 182.744 36.3974C180.09 36.1217 178.85 39.6029 181.056 41.1194C197.29 52.1145 236.892 80.3087 246.922 101.23C247.991 103.471 251.334 103.023 251.782 100.575C252.437 96.9908 253.058 92.2688 253.23 86.4438C253.299 83.8932 256.608 82.9971 257.986 85.1341C269.912 103.712 299.967 156.826 296.659 215.351C296.486 218.109 300.243 219.143 301.519 216.696C301.587 216.592 301.622 216.489 301.691 216.385C303.001 213.835 306.861 214.972 306.551 217.798C305.482 228.277 303.483 241.029 299.761 251.887C298.865 254.506 302.208 256.505 304.104 254.472L310.963 247.096V41.3262C310.963 18.5089 292.419 0 269.602 0Z" fill="#759CF5"/>
<path d="M139.097 311.308C133.856 308.861 115.908 300.313 104.194 292.42C101.659 290.697 103.68 286.767 106.523 287.87C119.333 292.765 139.542 299.314 156.394 299.624C159.237 299.693 160.024 295.66 157.353 294.626C128.204 283.252 50.7612 246.062 47.062 170.889C46.925 168.062 43.0203 167.476 42.0955 170.165C38.3963 180.85 34.012 195.326 33.2585 205.011C33.0872 207.32 30.2443 208.251 28.7373 206.493C21.4416 197.842 7.77516 178.127 2.12361 146.658C1.88385 145.417 0.993302 144.694 0 144.556V270.637C0 293.489 18.3932 311.997 41.1022 311.997H140.021C139.747 311.687 139.439 311.446 139.097 311.308Z" fill="#759CF5"/>
<path d="M76.8272 249.654C75.619 249.654 74.4107 249.239 73.4442 248.376C62.7773 239.09 54.7686 228.803 49.6596 217.757C45.5171 208.851 43.2733 199.461 42.9626 189.864C42.4103 173.467 47.7955 162.144 48.0026 161.696C49.2453 159.106 52.3522 158.036 54.9067 159.279C57.4957 160.522 58.5658 163.594 57.3231 166.183C57.2541 166.356 52.7319 176.125 53.3187 190.037C54.0782 208.643 63.1571 225.662 80.2447 240.54C82.385 242.404 82.6266 245.684 80.7625 247.859C79.6924 249.067 78.277 249.654 76.8272 249.654Z" fill="white"/>
<path d="M43.9635 243.233C42.5827 243.233 41.2364 242.68 40.2008 241.61C17.0375 217.273 21.3181 191.141 21.5252 190.037C22.0085 187.206 24.7011 185.342 27.5318 185.825C30.3279 186.309 32.2265 189.001 31.7433 191.797C31.7087 191.935 30.8457 197.493 32.3646 205.467C34.4013 216.134 39.5794 225.904 47.7262 234.465C49.6939 236.536 49.6249 239.815 47.5536 241.783C46.518 242.749 45.2408 243.233 43.9635 243.233Z" fill="white"/>
<path d="M221.882 236.052C221.503 235.88 221.123 235.673 220.778 235.431C218.499 233.705 218.016 230.46 219.708 228.182C229.511 215.03 233.343 201.67 231.099 188.449C229.408 178.507 224.713 172.259 224.678 172.224C222.918 169.98 223.332 166.735 225.576 164.975C227.82 163.214 231.099 163.629 232.86 165.872C233.101 166.183 238.97 173.812 241.214 186.101C243.251 197.32 242.629 214.788 228.027 234.361C226.577 236.294 224.023 236.95 221.882 236.052Z" fill="white"/>
<path d="M244.734 226.214C244.492 226.111 244.251 226.007 244.009 225.869C241.558 224.385 240.799 221.209 242.283 218.758C252.777 201.498 247.323 187.068 247.082 186.447C246.011 183.789 247.289 180.785 249.912 179.715C252.57 178.645 255.574 179.922 256.678 182.58C256.989 183.374 264.445 202.292 251.12 224.143C249.774 226.352 247.047 227.181 244.734 226.214Z" fill="white"/>
<path d="M136.789 63.8645C143.652 63.8645 149.216 58.3006 149.216 51.4371C149.216 44.5737 143.652 39.0098 136.789 39.0098C129.925 39.0098 124.361 44.5737 124.361 51.4371C124.361 58.3006 129.925 63.8645 136.789 63.8645Z" fill="#F8BA1D"/>
<path d="M198.201 200.53L76.62 199.633C70.2682 199.598 66.2984 192.763 69.4052 187.24L76.8616 173.881L77.2413 121.444C77.483 88.0627 104.754 61.1713 138.135 61.4474C171.517 61.6891 198.408 88.9602 198.132 122.342L197.752 174.778L205.45 188.034C208.695 193.592 204.656 200.565 198.201 200.53Z" fill="#F8BA1D"/>
<path d="M182.945 104.958C186.642 101.375 183.949 92.6003 176.93 85.358C169.912 78.1156 161.225 75.1484 157.529 78.7306C153.833 82.3128 156.526 91.0879 163.544 98.3303C170.562 105.573 179.249 108.54 182.945 104.958Z" fill="white"/>
<path d="M137.513 209.851C175.682 209.851 206.623 202.68 206.623 193.834C206.623 184.988 175.682 177.816 137.513 177.816C99.3449 177.816 68.4033 184.988 68.4033 193.834C68.4033 202.68 99.3449 209.851 137.513 209.851Z" fill="#A77A06"/>
<path d="M142.899 222.279C149.762 222.279 155.326 216.715 155.326 209.851C155.326 202.988 149.762 197.424 142.899 197.424C136.036 197.424 130.472 202.988 130.472 209.851C130.472 216.715 136.036 222.279 142.899 222.279Z" fill="#F8BA1D"/>
<path d="M153.105 212.745C154.149 209.515 153.761 206.498 152.237 206.006C150.713 205.513 148.631 207.731 147.587 210.96C146.543 214.189 146.932 217.206 148.455 217.699C149.979 218.192 152.061 215.974 153.105 212.745Z" fill="white"/>
<path d="M148.87 208.781L143.692 179.783C140.413 179.714 132.197 179.473 129.643 179.714L135.2 210.921L148.87 208.781Z" fill="#F8BA1D"/>
<path d="M224.88 164.482H170.741C156.542 164.482 145 152.94 145 138.741C145 124.542 156.542 113 170.741 113H224.88C239.078 113 250.621 124.542 250.621 138.741C250.621 152.988 239.127 164.482 224.88 164.482Z" fill="white"/>
<path d="M224.3 159.17C235.369 159.17 244.343 150.196 244.343 139.127C244.343 128.058 235.369 119.085 224.3 119.085C213.231 119.085 204.258 128.058 204.258 139.127C204.258 150.196 213.231 159.17 224.3 159.17Z" fill="#39C6BB"/>
<path d="M230.675 146.276L217.877 146.179C217.2 146.179 216.621 145.841 216.283 145.261C215.945 144.682 215.945 144.006 216.283 143.426L216.959 142.219L217.007 136.955C217.056 132.946 220.34 129.662 224.348 129.662H224.396C226.376 129.662 228.212 130.435 229.564 131.835C230.916 133.236 231.689 135.071 231.689 137.051L231.641 142.315L232.317 143.474C232.655 144.054 232.655 144.73 232.317 145.31C231.979 145.937 231.351 146.276 230.675 146.276ZM218.07 144.247L230.578 144.344L229.709 142.847L229.757 137.051C229.757 135.602 229.226 134.25 228.212 133.236C227.197 132.222 225.845 131.642 224.396 131.642H224.348C221.402 131.642 218.987 134.057 218.939 137.003L218.891 142.75L218.07 144.247Z" fill="white"/>
<path d="M225.218 149.028H223.334C222.803 149.028 222.368 148.594 222.368 148.063C222.368 147.531 222.803 147.097 223.334 147.097H225.218C225.749 147.097 226.183 147.531 226.183 148.063C226.183 148.594 225.749 149.028 225.218 149.028Z" fill="white"/>
<path d="M197.951 174.717L198 164.717H171L197.951 174.717Z" fill="#A77A06"/>
</svg>
