<svg width="314" height="163" viewBox="0 0 314 163" fill="none" xmlns="http://www.w3.org/2000/svg">
<path d="M282.545 0H31.025C13.8992 0 0 13.8992 0 31.025V131.019C0 148.144 13.8992 162.044 31.025 162.044H282.545C299.671 162.044 313.57 148.144 313.57 131.019V31.025C313.57 13.8992 299.671 0 282.545 0Z" fill="#0D44C1"/>
<path d="M135.61 156.863L167.721 91.7412C169.459 88.2043 166.604 84.109 162.664 84.5744C158.662 85.0398 155.808 80.8204 157.7 77.2525L197.971 1.9548C198.405 1.14814 199.057 0.496625 199.832 0.03125H31.025C13.8992 0.03125 0 13.9305 0 31.0563V131.05C0 148.176 13.8992 162.075 31.025 162.075H136.107C135.021 160.617 134.742 158.631 135.61 156.863Z" fill="#A5BEF8"/>
<path d="M297.002 143.211C287.539 135.734 276.401 130.708 264.612 128.288L234.58 122.145V122.083L234.456 122.114L234.332 122.083V122.145L204.299 128.288C192.51 130.708 181.372 135.734 171.909 143.211C165.952 147.896 160.182 153.915 156.428 161.33C156.552 161.609 156.707 161.888 156.831 162.167H234.301H234.58H282.544C291.852 162.167 300.167 157.979 305.844 151.495C303.114 148.33 300.074 145.662 297.002 143.211Z" fill="#A5BEF8"/>
<path d="M156.459 161.33C152.705 153.946 146.934 147.927 140.978 143.211C131.515 135.734 120.377 130.708 108.587 128.288L78.5552 122.145V122.083L78.4311 122.114L78.307 122.083V122.145L48.2748 128.288C36.4853 130.708 25.3473 135.734 15.8846 143.211C12.9373 145.538 10.0209 148.113 7.38379 151.091C13.0614 157.793 21.5622 162.136 31.0249 162.136H78.2759H78.5552H156.025H156.862C156.738 161.857 156.583 161.609 156.459 161.33Z" fill="#4779F1"/>
<path d="M250.774 131.732L240.412 101.327L219.284 99.3418L215.096 134.648C215.096 134.648 216.895 142.063 231.105 142.063C245.345 142.032 250.774 131.732 250.774 131.732Z" fill="#FFD5CD"/>
<path d="M217.144 117.368L244.663 113.18L247.424 121.867C247.424 121.867 238.272 131.019 216.492 122.766L217.144 117.368Z" fill="#E0AAA4"/>
<path d="M231.385 25.6578C231.385 25.6578 231.323 25.6578 231.199 25.6888C230.361 15.2333 238.273 14.4577 238.273 14.4577C238.273 14.4577 256.794 13.4029 265.45 27.7675C270.383 35.9891 265.513 40.86 260.424 43.5282C260.145 42.132 259.556 40.6428 258.563 38.9985C249.907 24.6029 231.385 25.6578 231.385 25.6578Z" fill="black"/>
<path d="M232.657 32.5455C231.789 29.8773 231.354 27.6125 231.199 25.6889C231.323 25.6579 231.385 25.6579 231.385 25.6579C231.385 25.6579 249.907 24.6031 258.563 38.9677C259.556 40.612 260.146 42.1322 260.425 43.4973C256.609 45.5139 252.669 46.2585 252.669 46.2585C252.669 46.2585 237.528 47.5926 232.657 32.5455Z" fill="#37C5B7"/>
<path d="M199.181 84.9149C199.181 84.9149 190.835 80.7886 190.835 86.8075C190.804 92.8263 194.155 99.5587 203.866 99.3105C213.545 99.0313 199.181 84.9149 199.181 84.9149Z" fill="#E0AAA4"/>
<path d="M258.438 69.9609C258.438 69.9609 259.462 98.3178 252.295 108.866C245.128 119.415 227.382 122.176 227.382 122.176C227.382 122.176 208.426 121.059 201.848 111.503C195.271 101.948 191.455 59.5985 191.455 59.5985L225.738 43.5586L258.438 69.9609Z" fill="#FFD5CD"/>
<path d="M260.92 78.7415C260.92 78.7415 268.273 73.0639 269.483 78.9587C270.693 84.8534 268.77 92.1133 259.183 93.7886C249.627 95.4329 260.92 78.7415 260.92 78.7415Z" fill="#FFD5CD"/>
<path d="M262.781 88.4523C262.781 88.4523 264.426 83.9847 266.318 86.808C266.318 86.808 267.311 83.8296 265.698 80.665C265.698 80.665 263.309 83.9537 262.781 88.4523Z" fill="#E0AAA4"/>
<path d="M203.927 70.6747C203.803 70.6747 203.648 70.6437 203.555 70.5507L202.345 69.6199C202.066 69.4027 202.035 69.0304 202.252 68.7512C202.469 68.472 202.841 68.441 203.121 68.6271L204.331 69.5579C204.61 69.775 204.641 70.1473 204.424 70.4265C204.3 70.5817 204.113 70.6747 203.927 70.6747Z" fill="black"/>
<path d="M205.944 69.9306C205.82 69.9306 205.665 69.8996 205.572 69.8065L204.362 68.8758C204.082 68.6586 204.051 68.2863 204.268 68.0071C204.486 67.7278 204.858 67.6968 205.137 67.883L206.347 68.8137C206.626 69.0309 206.657 69.4032 206.44 69.6824C206.316 69.8686 206.13 69.9306 205.944 69.9306Z" fill="black"/>
<path d="M218.726 93.9438C217.206 93.9438 215.81 93.6956 214.6 93.2303C213.638 92.858 212.986 91.9582 212.893 90.9344C212.831 89.9106 213.328 88.9488 214.196 88.4214C217.485 86.5289 219.936 81.2236 218.074 75.1427C215.903 68.0069 204.144 70.613 204.02 70.613C203.679 70.6751 203.369 70.4889 203.276 70.1476C203.182 69.8064 203.4 69.4961 203.741 69.4031C204.268 69.279 216.74 66.5177 219.253 74.7704C221.301 81.4718 218.478 87.3665 214.817 89.5073C214.32 89.7865 214.072 90.2829 214.103 90.8413C214.134 91.3998 214.476 91.8962 215.003 92.0823C216.275 92.5787 217.795 92.7959 219.502 92.6718C219.843 92.6408 220.122 92.92 220.153 93.2613C220.184 93.6026 219.905 93.8818 219.564 93.9128C219.315 93.9438 219.005 93.9438 218.726 93.9438Z" fill="black"/>
<path d="M225.645 72.505C225.49 72.505 225.366 72.443 225.241 72.3499C224.993 72.1327 224.962 71.7294 225.179 71.4812C225.335 71.2951 229.12 67.0136 238.551 68.2546C238.892 68.2856 239.141 68.6269 239.079 68.9372C239.048 69.2784 238.706 69.5266 238.396 69.4646C229.678 68.3167 226.141 72.2258 226.11 72.2879C225.986 72.443 225.831 72.505 225.645 72.505Z" fill="black"/>
<path d="M261.541 84.4503C261.541 84.4503 246.99 92.9511 231.85 64.7183C226.979 56.9931 223.38 55.8762 221.488 56.0313C220.402 56.1244 219.285 55.9693 218.292 55.4729C216.865 54.7283 214.817 54.2939 213.607 56.807C212.056 60.0956 202.159 85.1018 187.081 76.4768C178.425 71.5438 176.129 60.2197 181.621 51.905C182.117 51.1604 182.52 50.3848 182.83 49.6402C184.103 46.2274 206.472 0.465546 248.666 40.4568C248.666 40.4568 275.316 52.4324 261.541 84.4503Z" fill="black"/>
<path d="M220.495 104.151C219.191 104.151 217.795 103.934 216.368 103.407C216.058 103.282 215.872 102.941 215.996 102.6C216.12 102.29 216.492 102.103 216.803 102.228C221.86 104.151 226.513 101.297 226.575 101.266C226.855 101.08 227.258 101.173 227.444 101.452C227.63 101.731 227.537 102.134 227.258 102.321C227.072 102.414 224.249 104.151 220.495 104.151Z" fill="black"/>
<path d="M213.049 93.944C213.049 93.944 206.1 97.8841 205.014 104.555C205.014 104.555 205.262 93.4786 213.049 93.944Z" fill="#FFBCB3"/>
<path d="M226.576 92.6098C226.576 92.6098 234.177 95.0918 236.535 101.421C236.535 101.421 234.115 90.5931 226.576 92.6098Z" fill="#FFBCB3"/>
<path d="M211.746 82.5882C212.774 82.5882 213.608 81.7548 213.608 80.7267C213.608 79.6987 212.774 78.8652 211.746 78.8652C210.718 78.8652 209.885 79.6987 209.885 80.7267C209.885 81.7548 210.718 82.5882 211.746 82.5882Z" fill="black"/>
<path d="M212.335 81.2849C212.678 81.2849 212.956 81.0071 212.956 80.6644C212.956 80.3218 212.678 80.0439 212.335 80.0439C211.993 80.0439 211.715 80.3218 211.715 80.6644C211.715 81.0071 211.993 81.2849 212.335 81.2849Z" fill="white"/>
<path d="M229.276 81.596C230.304 81.596 231.137 80.7626 231.137 79.7345C231.137 78.7065 230.304 77.873 229.276 77.873C228.247 77.873 227.414 78.7065 227.414 79.7345C227.414 80.7626 228.247 81.596 229.276 81.596Z" fill="black"/>
<path d="M228.655 80.4168C228.997 80.4168 229.275 80.139 229.275 79.7963C229.275 79.4536 228.997 79.1758 228.655 79.1758C228.312 79.1758 228.034 79.4536 228.034 79.7963C228.034 80.139 228.312 80.4168 228.655 80.4168Z" fill="white"/>
<path d="M23.0824 80.3861C20.5694 79.1761 19.9799 80.231 19.9178 80.3551V80.3861C19.8248 80.7894 17.1876 94.6576 23.6719 98.1945C30.2492 101.793 31.7384 91.3069 38.6259 98.1945C45.5135 105.082 63.4459 107.812 67.0448 98.9701C70.6437 90.128 100.242 89.6316 100.242 89.6316C100.242 89.6316 99.8073 106.85 104.213 106.85C108.618 106.85 114.358 90.6864 122.393 96.0848C127.202 99.3114 130.832 93.0753 132.973 87.5219C130.801 82.9301 126.737 78.1833 119.694 73.7778C109.518 63.1362 107.129 44.6143 107.129 44.6143L31.7694 50.7572C31.7694 50.7572 31.7384 66.7661 27.8292 70.0548C24.9749 72.4747 22.586 73.4986 20.4763 78.7728C22.586 80.0138 23.7339 80.6963 23.0824 80.3861Z" fill="black"/>
<path d="M122.424 96.0844C114.389 90.6861 108.618 106.85 104.244 106.85C99.8382 106.85 100.273 89.6312 100.273 89.6312C100.273 89.6312 70.6437 90.0966 67.0758 98.9697C63.4769 107.812 45.5444 105.082 38.6569 98.1941C31.7693 91.3066 30.2801 101.793 23.7028 98.1941C17.2186 94.6573 19.8557 80.7891 19.9488 80.3857C19.3903 82.0301 18.8629 83.9847 18.3355 86.4046C15.6363 98.7836 7.88007 90.686 6.08062 101.173C4.49834 110.418 8.74877 120.16 22.1826 124.969C23.5477 120.563 25.8436 117.43 25.8436 117.43C25.2541 120.253 26.0607 123.448 27.4258 126.489C27.581 126.52 27.7671 126.551 27.9222 126.613C42.1007 129.684 89.6 130.336 115.909 120.749C118.95 115.692 121.494 109.58 120.439 104.461C120.439 104.461 124.1 109.425 125.62 116.065C128.04 114.482 130.026 112.714 131.422 110.728C131.422 110.728 138.837 99.6833 133.035 87.5215C130.863 93.075 127.233 99.311 122.424 96.0844Z" fill="black"/>
<path d="M94.751 125.403L84.3887 94.9983L63.2606 93.0127L59.0723 128.319C59.0723 128.319 60.9338 154.38 75.1743 154.38C89.4147 154.38 94.751 125.403 94.751 125.403Z" fill="#FFD5CD"/>
<path d="M61.1193 111.039L88.6385 106.851L91.3997 115.538C91.3997 115.538 82.2473 124.69 60.4678 116.437L61.1193 111.039Z" fill="#E0AAA4"/>
<path d="M23.0825 80.3857C23.734 80.696 22.6171 80.0135 20.5074 78.7725C20.3213 79.2689 20.1041 79.7963 19.918 80.3547C19.98 80.2306 20.5695 79.1758 23.0825 80.3857Z" fill="black"/>
<path d="M39.5259 68.0998C39.5259 68.0998 31.6456 63.1669 31.0251 69.1547C30.4046 75.1425 33.0417 82.1852 42.7215 82.8988C52.4013 83.6123 39.5259 68.0998 39.5259 68.0998Z" fill="#FFD5CD"/>
<path d="M101.577 68.0998C101.577 68.0998 109.457 63.1669 110.077 69.1547C110.698 75.1425 108.061 82.1852 98.381 82.8988C88.7012 83.6123 101.577 68.0998 101.577 68.0998Z" fill="#E0AAA4"/>
<path d="M38.7195 58.6993C38.7195 58.6993 35.1206 105.826 71.4509 115.258C73.4055 115.754 75.4841 115.599 77.2836 114.699C85.5362 110.728 108.433 95.9604 103.531 56.5896L91.2759 32.0488L58.9788 33.2588L38.7195 58.6993Z" fill="#FFD5CD"/>
<path d="M48.7092 33.3514C48.7092 33.3514 38.9363 27.1774 41.5425 22.3685C44.1486 17.5907 47.127 26.1535 47.127 26.1535C47.127 26.1535 47.5303 17.7768 51.5015 18.1801C55.4727 18.6145 54.0766 29.3802 48.7092 33.3514Z" fill="black"/>
<path d="M39.4636 73.8082C39.4636 73.8082 54.7899 80.8199 67.0448 51.222C73.3119 38.6569 78.1207 41.9455 78.1207 41.9455C78.1207 41.9455 81.9989 37.571 84.4188 41.5422C86.6216 45.2031 104.275 75.6387 121.525 47.1577C123.79 43.4037 121.649 38.5638 117.367 37.6641C114.513 37.0746 111.783 35.9887 110.821 34.0341C109.208 30.7765 85.908 -15.2026 47.9334 28.7909C47.9024 28.7909 17.4048 32.0796 39.4636 73.8082Z" fill="black"/>
<path d="M38.6266 77.935C38.6266 77.935 36.5169 73.6536 34.9346 76.632C34.9346 76.632 33.6316 73.7777 34.9346 70.458C34.9346 70.458 37.6338 73.4985 38.6266 77.935Z" fill="#E0AAA4"/>
<path d="M73.9633 66.0209C73.8082 66.0209 73.622 65.9589 73.4979 65.8348C73.4359 65.7727 69.9301 62.2048 60.3433 64.5627C60.0021 64.6558 59.6608 64.4386 59.5987 64.0974C59.5367 63.7561 59.7228 63.4148 60.0641 63.3528C70.4575 60.7777 74.2736 64.8109 74.4287 64.9971C74.6459 65.2453 74.6459 65.6486 74.3977 65.8658C74.2736 65.9899 74.1184 66.0209 73.9633 66.0209Z" fill="black"/>
<path d="M66.7033 72.3197C67.7314 72.3197 68.5648 71.4863 68.5648 70.4582C68.5648 69.4301 67.7314 68.5967 66.7033 68.5967C65.6752 68.5967 64.8418 69.4301 64.8418 70.4582C64.8418 71.4863 65.6752 72.3197 66.7033 72.3197Z" fill="black"/>
<path d="M93.7883 62.3602C93.6332 62.3602 93.4471 62.2981 93.354 62.174C93.1058 61.9258 93.1368 61.5225 93.385 61.3053L94.5019 60.2505C94.7501 60.0023 95.1534 60.0333 95.3706 60.2815C95.6188 60.5297 95.5878 60.933 95.3396 61.1502L94.2227 62.205C94.0986 62.2981 93.9435 62.3602 93.7883 62.3602Z" fill="black"/>
<path d="M91.679 61.8328C91.5238 61.8328 91.3377 61.7708 91.2446 61.6467C90.9964 61.3985 91.0274 60.9952 91.2756 60.778L92.3925 59.7231C92.6407 59.4749 93.0441 59.5059 93.2612 59.7541C93.5094 60.0023 93.4784 60.4057 93.2302 60.6229L92.1133 61.6777C91.9892 61.7708 91.8341 61.8328 91.679 61.8328Z" fill="black"/>
<path d="M61.3059 63.757C61.1508 63.757 60.9957 63.6949 60.8716 63.5708L59.7547 62.516C59.5065 62.2678 59.5065 61.8955 59.7237 61.6473C59.9719 61.3991 60.3442 61.399 60.5924 61.6162L61.7093 62.6711C61.9575 62.9193 61.9575 63.2916 61.7403 63.5398C61.6472 63.6639 61.461 63.757 61.3059 63.757Z" fill="black"/>
<path d="M63.4778 63.757C63.3227 63.757 63.1676 63.6949 63.0435 63.5708L61.9265 62.516C61.6783 62.2678 61.6784 61.8955 61.8955 61.6473C62.1437 61.3991 62.516 61.399 62.7642 61.6162L63.8811 62.6711C64.1293 62.9193 64.1293 63.2916 63.9122 63.5398C63.8191 63.6639 63.6639 63.757 63.4778 63.757Z" fill="black"/>
<path d="M85.4123 72.3197C86.4404 72.3197 87.2738 71.4863 87.2738 70.4582C87.2738 69.4301 86.4404 68.5967 85.4123 68.5967C84.3842 68.5967 83.5508 69.4301 83.5508 70.4582C83.5508 71.4863 84.3842 72.3197 85.4123 72.3197Z" fill="black"/>
<path d="M84.7914 71.0789C85.1341 71.0789 85.4119 70.8011 85.4119 70.4584C85.4119 70.1157 85.1341 69.8379 84.7914 69.8379C84.4487 69.8379 84.1709 70.1157 84.1709 70.4584C84.1709 70.8011 84.4487 71.0789 84.7914 71.0789Z" fill="white"/>
<path d="M67.4799 71.2644C67.8226 71.2644 68.1004 70.9866 68.1004 70.6439C68.1004 70.3012 67.8226 70.0234 67.4799 70.0234C67.1372 70.0234 66.8594 70.3012 66.8594 70.6439C66.8594 70.9866 67.1372 71.2644 67.4799 71.2644Z" fill="white"/>
<path d="M61.3049 87.46C65.006 87.46 68.0063 85.5014 68.0063 83.0855C68.0063 80.6695 65.006 78.7109 61.3049 78.7109C57.6038 78.7109 54.6035 80.6695 54.6035 83.0855C54.6035 85.5014 57.6038 87.46 61.3049 87.46Z" fill="#FFBCB3"/>
<path d="M93.7893 87.46C97.4904 87.46 100.491 85.5014 100.491 83.0855C100.491 80.6695 97.4904 78.7109 93.7893 78.7109C90.0882 78.7109 87.0879 80.6695 87.0879 83.0855C87.0879 85.5014 90.0882 87.46 93.7893 87.46Z" fill="#FFBCB3"/>
<path d="M80.4794 87.0248C80.1382 87.0248 79.8589 86.7766 79.8589 86.4353C79.8589 86.094 80.1071 85.8148 80.4484 85.7838C84.6678 85.5976 86.4673 83.8292 87.1808 82.7744C85.2263 82.6192 83.3027 81.5644 81.7515 79.827C79.0833 76.8176 78.0285 72.381 78.9282 67.9444C80.6035 59.5056 93.2928 60.9948 93.8512 61.0569C94.1925 61.0879 94.4407 61.3981 94.3786 61.7394C94.3476 62.0807 94.0374 62.3289 93.6961 62.2668C93.572 62.2668 81.6274 60.8397 80.1692 68.1616C79.3625 72.2259 80.2933 76.2901 82.7132 78.9893C84.2645 80.7577 86.2501 81.6575 88.1736 81.5334C88.3908 81.5334 88.577 81.5954 88.7011 81.7505C88.8252 81.9057 88.8562 82.1228 88.8252 82.309C88.7321 82.5262 87.398 86.7456 80.4794 87.0248C80.5105 87.0248 80.4794 87.0248 80.4794 87.0248Z" fill="black"/>
<path d="M74.3982 94.9362C70.458 94.9362 68.1621 91.7096 68.038 91.5855C67.8519 91.3062 67.9139 90.9029 68.1932 90.7168C68.4724 90.5306 68.8757 90.5927 69.0619 90.8719C69.0929 90.9029 71.2336 93.8813 74.7084 93.6952C75.0497 93.6952 75.3289 93.9434 75.36 94.2846C75.391 94.6259 75.1117 94.9051 74.7705 94.9362C74.6464 94.9362 74.5223 94.9362 74.3982 94.9362Z" fill="black"/>
</svg>
