<svg width="314" height="163" viewBox="0 0 314 163" fill="none" xmlns="http://www.w3.org/2000/svg">
<path d="M282.472 0H31.0483C13.9269 0 0.03125 13.8956 0.03125 31.017V130.985C0.03125 148.106 13.9269 162.002 31.0483 162.002H282.503C299.625 162.002 313.52 148.106 313.52 130.985V31.017C313.489 13.8646 299.625 0 282.472 0Z" fill="#A5BEF8"/>
<path d="M130.178 152.697C120.47 144.291 107.815 139.205 93.9505 139.205C78.8142 139.205 65.1357 145.284 55.1482 155.116C51.8604 152.108 48.0764 149.626 43.9201 147.796C46.5565 141.345 48.0143 134.304 48.0143 126.891C48.0143 98.8204 27.1089 75.6197 0 72.0527V130.83C0 147.951 13.8956 161.847 31.017 161.847H184.365C174.812 154 162.591 149.316 149.285 149.316C142.585 149.316 136.134 150.495 130.178 152.697Z" fill="#759CF5"/>
<path d="M207.256 127.046L182.752 142.337C182.752 142.337 180.86 150.061 167.058 153.069C162.684 154.031 157.194 157.319 151.611 162.002H250.09C245.655 158.063 240.506 154.62 234.551 152.17C203.968 139.546 207.256 127.046 207.256 127.046Z" fill="#4779F1"/>
<path d="M216.312 142.182L214.699 85.793L186.691 101.798L178.596 161.878H194.694C216.343 150.588 216.312 142.182 216.312 142.182Z" fill="#FFD5CD"/>
<path d="M183.186 128.224L181.48 141.003C181.48 141.003 208.403 129.651 209.923 104.155L183.186 128.224Z" fill="#E0AAA4"/>
<path d="M148.448 69.2609C148.448 69.2609 122.952 65.1357 131.357 37.5305C139.763 9.92539 159.955 18.1759 172.765 15.7876C185.575 13.3993 217.399 7.44403 226.176 33.0331C226.176 33.0331 239.172 43.7339 238.366 61.3206C237.56 78.9072 237.156 82.8154 213.956 90.8178C190.755 98.8202 178.162 106.45 178.162 106.45L148.448 69.2609Z" fill="black"/>
<path d="M151.549 59.8322C151.549 59.8322 146.555 74.9065 147.734 85.8865C147.734 85.8865 144.849 93.3926 141.902 95.6569C141.22 96.1842 141.22 97.2387 141.902 97.766C143.298 98.8516 145.624 100.154 148.726 100.278C148.726 100.278 153.317 128.814 160.327 133.001C160.327 133.001 194.724 136.413 215.134 94.7884C215.134 94.7884 225.524 92.8033 226.145 83.0019C226.734 73.2005 214.885 72.177 214.358 84.8009C214.358 84.8009 194.973 100.589 186.35 86.4138C177.758 72.239 186.567 50.8373 151.549 59.8322Z" fill="#FFD5CD"/>
<path d="M313.489 48.7898C309.364 46.3084 304.68 45.2228 299.563 46.0293C276.951 49.6272 280.363 37.0343 280.363 37.0343C280.363 37.0343 290.351 16.0358 260.171 6.63765C229.433 -2.9466 218.98 35.4525 218.98 35.4525L229.495 57.7227C229.495 25.7131 261.691 22.3633 245.686 39.9499C229.681 57.5366 257.907 60.0179 249.873 76.2398C238.428 99.3475 234.768 136.041 293.173 140.848C300.958 141.5 307.472 140.166 312.838 137.405C313.272 135.327 313.52 133.187 313.52 130.985V48.7898H313.489Z" fill="black"/>
<path d="M215.972 89.1741C215.972 89.1741 218.639 85.7312 220.78 88.1816C220.78 88.1816 223.633 81.5129 221.307 80.2412C221.307 80.2412 215.507 86.2275 215.972 89.1741Z" fill="#E0AAA4"/>
<path d="M154.372 90.2288C155.691 90.2288 156.76 89.1595 156.76 87.8405C156.76 86.5214 155.691 85.4521 154.372 85.4521C153.053 85.4521 151.983 86.5214 151.983 87.8405C151.983 89.1595 153.053 90.2288 154.372 90.2288Z" fill="black"/>
<path d="M150.681 82.4745C150.619 82.4745 150.588 82.4745 150.526 82.4435C150.185 82.3504 149.999 82.0403 150.061 81.6991C150.092 81.637 150.495 79.9621 152.387 79.0626C154.62 78.008 157.877 78.5353 162.002 80.6135C162.312 80.7686 162.436 81.1407 162.281 81.4509C162.126 81.7611 161.754 81.8852 161.444 81.7301C156.76 79.3728 154.217 79.5899 152.945 80.1792C151.58 80.7996 151.27 81.9472 151.27 81.9782C151.239 82.2574 150.96 82.4745 150.681 82.4745Z" fill="black"/>
<path d="M151.549 107.35L166.375 102.356C166.375 102.356 164.762 111.351 156.76 110.545L151.549 107.35Z" fill="white"/>
<path d="M168.631 98.9746C172.863 98.4427 176.093 96.4132 175.845 94.4416C175.597 92.47 171.965 91.3029 167.733 91.8348C163.501 92.3667 160.271 94.3961 160.519 96.3678C160.767 98.3394 164.398 99.5065 168.631 98.9746Z" fill="#FFBCB3"/>
<path d="M214.483 9.33594H109.025V13.4302H214.483V9.33594Z" fill="#DF003F"/>
<path d="M237.869 0H214.482V161.847H237.869V0Z" fill="#FE467B"/>
<path d="M237.901 23.8516H220.376V27.6667H237.901V23.8516Z" fill="#DF003F"/>
<path d="M237.901 55.2412H220.376V59.0563H237.901V55.2412Z" fill="#DF003F"/>
<path d="M237.901 86.6309H220.376V90.4459H237.901V86.6309Z" fill="#DF003F"/>
<path d="M237.901 118.051H220.376V121.866H237.901V118.051Z" fill="#DF003F"/>
<path d="M237.901 149.439H220.376V153.255H237.901V149.439Z" fill="#DF003F"/>
</svg>
