<svg width="30" height="18" viewBox="0 0 30 18" fill="none" xmlns="http://www.w3.org/2000/svg">
<path d="M15 5.27344C10.6381 5.27344 7.08984 8.8217 7.08984 13.1836C7.08984 14.574 7.45635 15.9413 8.14898 17.1395H21.851C22.5437 15.9413 22.9102 14.574 22.9102 13.1836C22.9102 8.8217 19.3619 5.27344 15 5.27344ZM15 3.51562C15.4858 3.51562 15.8789 3.12252 15.8789 2.63672V0.878906C15.8789 0.393105 15.4858 0 15 0C14.5142 0 14.1211 0.393105 14.1211 0.878906V2.63672C14.1211 3.12252 14.5142 3.51562 15 3.51562ZM4.45312 12.3047H2.69531C2.20951 12.3047 1.81641 12.6978 1.81641 13.1836C1.81641 13.6694 2.20951 14.0625 2.69531 14.0625H4.45312C4.93893 14.0625 5.33203 13.6694 5.33203 13.1836C5.33203 12.6978 4.93893 12.3047 4.45312 12.3047ZM27.3047 12.3047H25.5469C25.0611 12.3047 24.668 12.6978 24.668 13.1836C24.668 13.6694 25.0611 14.0625 25.5469 14.0625H27.3047C27.7905 14.0625 28.1836 13.6694 28.1836 13.1836C28.1836 12.6978 27.7905 12.3047 27.3047 12.3047ZM26.4172 6.5918C26.1735 6.17039 25.6336 6.02531 25.2165 6.26994L23.6947 7.14885C23.2741 7.39178 23.1299 7.92902 23.3728 8.34961C23.6159 8.77055 24.1545 8.91357 24.5736 8.67146L26.0954 7.79256C26.5159 7.54969 26.6601 7.01238 26.4172 6.5918ZM19.834 4.81078C20.2523 5.05242 20.7912 4.91062 21.0347 4.48892L21.9137 2.96713C22.1566 2.54654 22.0124 2.00924 21.5918 1.76637C21.1721 1.52174 20.6339 1.66682 20.391 2.08822L19.5121 3.61002C19.2692 4.0306 19.4134 4.56791 19.834 4.81078ZM8.96525 4.48892C9.20836 4.90986 9.74689 5.05289 10.166 4.81078C10.5866 4.56785 10.7308 4.0306 10.4879 3.61002L9.60896 2.08822C9.36434 1.66682 8.82703 1.52174 8.4082 1.76637C7.98762 2.0093 7.84342 2.54654 8.08635 2.96713L8.96525 4.48892ZM6.30533 7.14885L4.78354 6.26994C4.36295 6.02531 3.82652 6.17039 3.58277 6.5918C3.33984 7.01238 3.48404 7.54969 3.90463 7.79256L5.42643 8.67146C5.84473 8.9131 6.38367 8.77131 6.62719 8.34961C6.87012 7.92902 6.72592 7.39172 6.30533 7.14885Z" fill="black"/>
<path d="M29.1211 15.8203H0.878906C0.393105 15.8203 0 16.2134 0 16.6992C0 17.185 0.393105 17.5781 0.878906 17.5781H29.1211C29.6069 17.5781 30 17.185 30 16.6992C30 16.2134 29.6069 15.8203 29.1211 15.8203Z" fill="black"/>
</svg>
