<svg width="16" height="16" viewBox="0 0 16 16" fill="none" xmlns="http://www.w3.org/2000/svg">
<path d="M11.7578 14.2622H4.24316C3.13645 14.2622 2.23926 13.3651 2.23926 12.2583V6.24658H13.7618V12.2583C13.7618 13.3651 12.8646 14.2622 11.7578 14.2622Z" fill="#F56C6C"/>
<path d="M3.24123 12.2583V6.24658H2.23926V12.2583C2.23926 13.3651 3.13645 14.2622 4.24316 14.2622H5.24513C4.13841 14.2622 3.24123 13.3651 3.24123 12.2583Z" fill="#DB4D4D"/>
<path d="M14.7627 9.00196H13.7607V7.49902H15.7646V7.99999C15.7646 8.55337 15.3161 9.00196 14.7627 9.00196Z" fill="#956B64"/>
<path d="M15.2637 7.49902C15.2637 8.0524 14.8151 8.50099 14.2617 8.50099H13.7607V9.00196H14.7627C15.3161 9.00196 15.7647 8.55337 15.7647 7.99999V7.49902H15.2637Z" fill="#885951"/>
<path d="M2.23929 9.00196H1.23732C0.683945 9.00196 0.235352 8.55337 0.235352 7.99999V7.49902H2.23929V9.00196Z" fill="#956B64"/>
<path d="M1.73829 8.50099C1.18491 8.50099 0.73632 8.0524 0.73632 7.49902H0.235352V8.00002C0.235352 8.5534 0.683945 9.00199 1.23732 9.00199H2.23926V8.50103H1.73829V8.50099Z" fill="#885951"/>
<path d="M14.2618 5.24463H1.7373V6.2466H14.2618V5.24463Z" fill="#F2EDEC"/>
<path d="M2.73927 5.24463H1.7373V6.2466H2.73927V5.24463Z" fill="#E4DAD8"/>
<path d="M4.24316 3.24072H11.7578C12.8646 3.24072 13.7618 4.13791 13.7618 5.24463H2.23926C2.23926 4.13791 3.13645 3.24072 4.24316 3.24072Z" fill="#F56C6C"/>
<path d="M5.24513 3.24072H4.24316C3.13645 3.24072 2.23926 4.13791 2.23926 5.24463H3.24123C3.24123 4.13791 4.13841 3.24072 5.24513 3.24072Z" fill="#DB4D4D"/>
<path d="M7.99999 2.73973C8.27667 2.73973 8.50096 2.51544 8.50096 2.23876C8.50096 1.96208 8.27667 1.73779 7.99999 1.73779C7.72331 1.73779 7.49902 1.96208 7.49902 2.23876C7.49902 2.51544 7.72331 2.73973 7.99999 2.73973Z" fill="#FAD000"/>
<path d="M7.99954 13.5108C9.79798 13.5108 11.2559 12.0529 11.2559 10.2544C11.2559 8.45597 9.79798 6.99805 7.99954 6.99805C6.20109 6.99805 4.74316 8.45597 4.74316 10.2544C4.74316 12.0529 6.20109 13.5108 7.99954 13.5108Z" fill="#E4DAD8"/>
<path d="M8.00002 12.7593C9.38344 12.7593 10.5049 11.6378 10.5049 10.2544C10.5049 8.87099 9.38344 7.74951 8.00002 7.74951C6.6166 7.74951 5.49512 8.87099 5.49512 10.2544C5.49512 11.6378 6.6166 12.7593 8.00002 12.7593Z" fill="#F2EDEC"/>
<path d="M15.7652 7.2642H13.9961V6.48142H14.2622C14.3919 6.48142 14.4971 6.37627 14.4971 6.24658V5.24461C14.4971 5.11492 14.3919 5.00977 14.2622 5.00977H13.9837C13.866 3.8853 12.9125 3.00586 11.7573 3.00586H4.24266C3.08753 3.00586 2.13403 3.8853 2.01628 5.00977H1.73778C1.60809 5.00977 1.50294 5.11492 1.50294 5.24461V6.24658C1.50294 6.37627 1.60809 6.48142 1.73778 6.48142H2.00394V7.2642H0.234844C0.105156 7.2642 0 7.36936 0 7.49905V8.00002C0 8.68198 0.554844 9.2368 1.23678 9.2368H2.00391V12.2583C2.00391 13.4928 3.00822 14.4971 4.24266 14.4971H11.7573C12.9918 14.4971 13.9961 13.4928 13.9961 12.2583V9.2368H14.7632C15.4452 9.2368 16 8.68198 16 8.00002V7.49905C16 7.36936 15.8948 7.2642 15.7652 7.2642ZM1.97259 5.47945H10.8806C11.0103 5.47945 11.1155 5.3743 11.1155 5.24461C11.1155 5.11492 11.0103 5.00977 10.8806 5.00977H2.48966C2.60494 4.14498 3.34688 3.47552 4.24269 3.47552H11.7574C12.6532 3.47552 13.3951 4.14498 13.5104 5.00977H11.9974C11.8678 5.00977 11.7626 5.11492 11.7626 5.24461C11.7626 5.3743 11.8678 5.47945 11.9974 5.47945H14.0274V6.01173H1.97259V5.47945ZM1.23678 8.76714C0.813812 8.76714 0.469656 8.42298 0.469656 8.00002V7.73386H2.00391V8.76714H1.23678ZM13.5264 12.2583C13.5264 13.2338 12.7328 14.0274 11.7573 14.0274H4.24263C3.26716 14.0274 2.47353 13.2338 2.47353 12.2583V6.48142H13.5264V12.2583H13.5264ZM15.5303 8.00002C15.5303 8.42298 15.1862 8.76714 14.7632 8.76714H13.9961V7.73386H15.5303V8.00002Z" fill="black"/>
<path d="M8.00046 2.97455C8.40618 2.97455 8.73628 2.64446 8.73628 2.23874C8.73628 1.83302 8.40618 1.50293 8.00046 1.50293C7.59474 1.50293 7.26465 1.83302 7.26465 2.23874C7.26465 2.64446 7.59474 2.97455 8.00046 2.97455ZM8.00046 1.97259C8.14721 1.97259 8.26662 2.09196 8.26662 2.23874C8.26662 2.38552 8.14725 2.5049 8.00046 2.5049C7.85371 2.5049 7.73431 2.38552 7.73431 2.23874C7.73431 2.09196 7.85371 1.97259 8.00046 1.97259Z" fill="black"/>
<path d="M11.0301 8.52178C11.0279 8.51743 11.0259 8.51303 11.0234 8.50878C11.0201 8.50296 11.0164 8.49746 11.0126 8.49209C10.7097 7.97621 10.2781 7.54465 9.76226 7.24171C9.75689 7.23796 9.75139 7.23431 9.7456 7.23093C9.74135 7.22846 9.73695 7.22646 9.7326 7.22428C9.2217 6.93103 8.63007 6.76318 7.99998 6.76318C7.36988 6.76318 6.77826 6.931 6.26742 7.22428C6.26307 7.22643 6.25867 7.22846 6.25438 7.23093C6.2486 7.23428 6.2431 7.23796 6.23773 7.24171C5.72185 7.54465 5.29029 7.97621 4.98735 8.49209C4.9836 8.4975 4.97991 8.503 4.97654 8.50878C4.9741 8.51303 4.97207 8.51743 4.96991 8.52178C4.67663 9.03262 4.50879 9.62428 4.50879 10.2544C4.50879 10.8845 4.6766 11.4761 4.96988 11.987C4.97204 11.9913 4.97407 11.9957 4.97651 12C4.97885 12.004 4.9817 12.0076 4.98423 12.0115C5.28732 12.5297 5.72004 12.9631 6.23767 13.267C6.24304 13.2708 6.24854 13.2744 6.25432 13.2778C6.25732 13.2795 6.26045 13.2807 6.26351 13.2823C6.77526 13.5769 7.36829 13.7456 7.99998 13.7456C8.63167 13.7456 9.2247 13.5769 9.73642 13.2823C9.73945 13.2807 9.74257 13.2796 9.7456 13.2778C9.75139 13.2745 9.75689 13.2708 9.76226 13.2671C10.2799 12.9631 10.7126 12.5297 11.0157 12.0115C11.0182 12.0077 11.0211 12.0041 11.0234 12C11.0259 11.9957 11.0279 11.9913 11.03 11.987C11.3233 11.4761 11.4912 10.8845 11.4912 10.2544C11.4912 9.62428 11.3234 9.03262 11.0301 8.52178ZM9.70898 12.7447L9.45582 12.3063C9.39098 12.194 9.24735 12.1555 9.13504 12.2203C9.02273 12.2852 8.98426 12.4288 9.0491 12.5411L9.30273 12.9804C8.97498 13.1377 8.61467 13.2375 8.23488 13.2669V12.7593C8.23488 12.6296 8.12973 12.5244 8.00004 12.5244C7.87035 12.5244 7.7652 12.6296 7.7652 12.7593V13.2668C7.38542 13.2375 7.02513 13.1376 6.69735 12.9803L6.95098 12.5411C7.01582 12.4288 6.97735 12.2852 6.86504 12.2203C6.7527 12.1554 6.6091 12.1939 6.54426 12.3062L6.2911 12.7447C5.98538 12.5342 5.72017 12.2691 5.5097 11.9633L5.94816 11.7102C6.06048 11.6453 6.09895 11.5017 6.0341 11.3894C5.96926 11.277 5.82563 11.2386 5.71332 11.3034L5.27407 11.5571C5.11679 11.2293 5.01691 10.869 4.98757 10.4892H5.49513C5.62482 10.4892 5.72998 10.3841 5.72998 10.2544C5.72998 10.1247 5.62482 10.0195 5.49513 10.0195H4.98757C5.01691 9.63975 5.11679 9.27946 5.27407 8.95168L5.71332 9.20531C5.8331 9.2745 5.99054 9.22237 6.04595 9.09596C6.09335 8.98784 6.05029 8.85753 5.94816 8.79853L5.5097 8.54537C5.72017 8.23965 5.98535 7.97443 6.2911 7.76396L6.54426 8.20243C6.61326 8.32196 6.77557 8.356 6.88698 8.27403C6.98207 8.20409 7.00998 8.06971 6.95101 7.96759L6.69738 7.52834C7.02513 7.37106 7.38545 7.27118 7.76523 7.24184V7.7494C7.76523 7.87909 7.87038 7.98425 8.00007 7.98425C8.12976 7.98425 8.23492 7.87909 8.23492 7.7494V7.24184C8.6147 7.27118 8.97498 7.37106 9.30276 7.52834L9.04914 7.96759C8.99014 8.06971 9.01804 8.20412 9.11317 8.27403C9.22457 8.35593 9.38685 8.32196 9.45589 8.20243L9.70904 7.76396C10.0148 7.97443 10.28 8.23962 10.4904 8.54537L10.052 8.79853C9.94985 8.85753 9.90679 8.98781 9.9542 9.09596C10.0096 9.22234 10.167 9.27446 10.2868 9.20531L10.7261 8.95168C10.8834 9.27943 10.9832 9.63975 11.0126 10.0195H10.5049C10.3752 10.0195 10.27 10.1247 10.27 10.2544C10.27 10.3841 10.3752 10.4892 10.5049 10.4892H11.0124C10.9831 10.869 10.8832 11.2293 10.7259 11.5571L10.2867 11.3034C10.1744 11.2386 10.0308 11.277 9.96592 11.3894C9.90107 11.5017 9.93954 11.6453 10.0519 11.7102L10.4903 11.9633C10.2799 12.2691 10.0147 12.5343 9.70898 12.7447Z" fill="black"/>
<path d="M9.00146 10.0195H8.23434V8.75144C8.23434 8.62176 8.12918 8.5166 7.99949 8.5166C7.8698 8.5166 7.76465 8.62176 7.76465 8.75144V10.2544C7.76465 10.3841 7.8698 10.4892 7.99949 10.4892H9.00146C9.13114 10.4892 9.2363 10.3841 9.2363 10.2544C9.2363 10.1247 9.13114 10.0195 9.00146 10.0195Z" fill="black"/>
</svg>
