<svg width="19" height="21" viewBox="0 0 19 21" fill="none" xmlns="http://www.w3.org/2000/svg">
<path d="M18.464 15.2611C18.2853 15.0411 17.9853 14.9597 17.7213 15.0544C16.9813 15.3197 16.1787 15.4557 15.3333 15.4557C11.2893 15.4557 8 12.1651 8 8.1224C8 5.68906 9.20133 3.42373 11.2133 2.06106C11.4413 1.9064 11.5507 1.62773 11.4893 1.35973C11.428 1.09173 11.208 0.889063 10.9347 0.849063C10.6227 0.803729 10.312 0.789062 10 0.789062C4.48533 0.789062 0 5.2744 0 10.7891C0 16.3037 4.48533 20.7891 10 20.7891C13.5 20.7891 16.684 19.0104 18.5147 16.0317C18.6627 15.7904 18.6413 15.4824 18.464 15.2611Z" fill="black"/>
</svg>
