<svg width="28" height="28" viewBox="0 0 28 28" fill="none" xmlns="http://www.w3.org/2000/svg">
<path d="M6.99967 22.1667C6.99967 23.45 8.04967 24.5 9.33301 24.5H18.6663C19.9497 24.5 20.9997 23.45 20.9997 22.1667V8.16667H6.99967V22.1667ZM20.9997 4.66667H18.083L17.2547 3.83833C17.0447 3.62833 16.7413 3.5 16.438 3.5H11.5613C11.258 3.5 10.9547 3.62833 10.7447 3.83833L9.91634 4.66667H6.99967C6.35801 4.66667 5.83301 5.19167 5.83301 5.83333C5.83301 6.475 6.35801 7 6.99967 7H20.9997C21.6413 7 22.1663 6.475 22.1663 5.83333C22.1663 5.19167 21.6413 4.66667 20.9997 4.66667Z" fill="#FF1457"/>
</svg>
