<svg width="12" height="24" viewBox="0 0 12 24" fill="none" xmlns="http://www.w3.org/2000/svg">
<path d="M0.242791 9.75558C0.242791 6.57188 2.84679 3.99666 6.04118 4.04311C9.12504 4.08816 11.6357 6.60947 11.6686 9.69333C11.6825 11.0134 11.2492 12.2314 10.5102 13.205C9.46779 14.5794 8.82584 16.2094 8.69346 17.9178C8.67626 18.1361 8.66792 18.3558 8.66792 18.5765L8.66792 19.9277L3.24345 19.9277L3.24345 18.6559C3.24345 18.4093 3.2337 18.1631 3.21373 17.9178C3.07765 16.2252 2.47329 14.5938 1.43098 13.2435C0.685948 12.2788 0.242791 11.0687 0.242791 9.75558Z" fill="#A5BEF8"/>
<path d="M7.28874 12.8226C7.4858 12.8226 7.64551 12.9823 7.64551 13.1794L7.64551 19.9274C7.64551 20.1244 7.48581 20.2842 7.28874 20.2842C7.09168 20.2842 6.93193 20.1245 6.93193 19.9274L6.93193 13.1794C6.93198 12.9824 7.09168 12.8226 7.28874 12.8226Z" fill="#1757EE"/>
<path d="M4.64128 12.8226C4.83834 12.8226 4.99805 12.9823 4.99805 13.1794L4.99805 19.9274C4.99805 20.1244 4.83834 20.2842 4.64128 20.2842C4.44422 20.2842 4.28447 20.1245 4.28447 19.9274L4.28447 13.1794C4.28452 12.9824 4.44422 12.8226 4.64128 12.8226Z" fill="#1757EE"/>
<path d="M4.64065 14.1519C4.73191 14.1519 4.82327 14.1867 4.89297 14.2564C5.22949 14.593 5.68741 14.2642 5.73855 14.2255C5.88054 14.1181 6.08191 14.1304 6.20791 14.2564C6.52713 14.5757 7.06784 14.2265 7.09076 14.2116C7.25478 14.1038 7.47603 14.1482 7.58464 14.3118C7.69329 14.4753 7.65017 14.6954 7.48723 14.8049C7.17223 15.0164 6.49287 15.2741 5.93421 14.9417C5.53127 15.1484 4.89987 15.2724 4.38841 14.761C4.2491 14.6217 4.2491 14.3958 4.38841 14.2564C4.45802 14.1867 4.54938 14.1519 4.64065 14.1519Z" fill="#1757EE"/>
<path d="M3.11221 18.6145L8.81722 18.6145C9.0899 18.6145 9.28916 18.8719 9.22087 19.1357L9.07921 19.6829L8.23846 22.9316L8.0429 23.6873C7.99551 23.8713 7.82966 24 7.63968 24L4.29013 24C4.10015 24 3.9343 23.8713 3.88649 23.6874L3.69093 22.9316L2.85065 19.6829L2.70899 19.1357C2.64069 18.8719 2.84001 18.6145 3.11221 18.6145Z" fill="#4779F1"/>
<path d="M2.85057 19.6829L9.0791 19.6829L8.23835 22.9316L3.69085 22.9316L2.85057 19.6829Z" fill="#1757EE"/>
<path d="M2.79981 20.3801L9.12995 20.3801C9.38069 20.3801 9.58398 20.5833 9.58398 20.8341L9.58398 21.7813C9.58398 22.0321 9.38073 22.2354 9.12995 22.2354L2.79977 22.2354C2.54903 22.2354 2.34574 22.0321 2.34574 21.7813L2.34574 20.8341C2.34578 20.5834 2.54903 20.3801 2.79981 20.3801Z" fill="#A5BEF8"/>
<path d="M5.95671 -0.000587432C6.15377 -0.000587449 6.31348 0.159116 6.31348 0.356225L6.31348 2.40002C6.31348 2.59709 6.15377 2.75684 5.95671 2.75684C5.75965 2.75684 5.5999 2.59713 5.5999 2.40002L5.5999 0.356225C5.5999 0.159116 5.75965 -0.000587415 5.95671 -0.000587432Z" fill="#1757EE"/>
<path d="M11.5563 1.5531C11.6475 1.5531 11.7389 1.58793 11.8086 1.65758C11.9479 1.79694 11.9479 2.02284 11.8086 2.1622L10.3634 3.60741C10.224 3.74677 9.9981 3.74672 9.85884 3.60745C9.71948 3.46809 9.71948 3.2422 9.85879 3.10284L11.304 1.65763C11.3737 1.58793 11.465 1.5531 11.5563 1.5531Z" fill="#1757EE"/>
<path d="M0.356244 1.55315C0.447556 1.55315 0.538868 1.58797 0.608571 1.65768L2.05372 3.10284C2.19304 3.2422 2.19304 3.46809 2.05368 3.60745C1.91441 3.74677 1.68848 3.74672 1.54912 3.60741L0.103916 2.1622C-0.0353962 2.02284 -0.0353972 1.79694 0.103962 1.65758C0.173618 1.58797 0.264978 1.55315 0.356244 1.55315Z" fill="#1757EE"/>
</svg>
