<svg width="24" height="24" viewBox="0 0 24 24" fill="none" xmlns="http://www.w3.org/2000/svg">
<path d="M11.2002 2.4C11.2002 2.8418 11.5584 3.20002 12.0002 3.20002C12.442 3.20002 12.8002 2.84185 12.8002 2.4V0.800016C12.8002 0.358165 12.442 0 12.0002 0C11.5584 0 11.2002 0.358165 11.2002 0.800016V2.4Z" fill="black"/>
<path d="M11.2002 23.1998C11.2002 23.6417 11.5584 23.9998 12.0002 23.9998C12.442 23.9998 12.8002 23.6417 12.8002 23.1998V21.5998C12.8002 21.158 12.4421 20.7998 12.0002 20.7998C11.5584 20.7998 11.2002 21.158 11.2002 21.5998V23.1998Z" fill="black"/>
<path d="M21.5998 11.2002C21.158 11.2002 20.7998 11.5584 20.7998 12.0002C20.7998 12.4421 21.158 12.8002 21.5998 12.8002H23.1998C23.6417 12.8002 23.9998 12.4421 23.9998 12.0002C23.9998 11.5584 23.6417 11.2002 23.1998 11.2002H21.5998Z" fill="black"/>
<path d="M0.800016 11.2002C0.358165 11.2002 0 11.5584 0 12.0002C0 12.4421 0.358165 12.8002 0.800016 12.8002H2.4C2.8418 12.8002 3.20002 12.4421 3.20002 12.0002C3.20002 11.5584 2.84185 11.2002 2.4 11.2002H0.800016Z" fill="black"/>
<path d="M11.9998 19.1998C15.9763 19.1998 19.1998 15.9763 19.1998 11.9998C19.1998 8.02335 15.9763 4.7998 11.9998 4.7998C8.02336 4.7998 4.7998 8.02335 4.7998 11.9998C4.7998 15.9763 8.02336 19.1998 11.9998 19.1998Z" fill="black"/>
<path d="M18.2226 4.64598C17.9102 4.95842 17.9102 5.46493 18.2226 5.77736C18.535 6.0898 19.0415 6.0898 19.354 5.77736L20.4854 4.64598C20.7978 4.33355 20.7978 3.82703 20.4854 3.5146C20.1729 3.20216 19.6664 3.20216 19.354 3.5146L18.2226 4.64598Z" fill="black"/>
<path d="M3.5146 19.354C3.20216 19.6664 3.20216 20.1729 3.5146 20.4854C3.82703 20.7978 4.33355 20.7978 4.64598 20.4854L5.77736 19.354C6.0898 19.0415 6.0898 18.535 5.77736 18.2226C5.46493 17.9102 4.95842 17.9102 4.64598 18.2226L3.5146 19.354Z" fill="black"/>
<path d="M19.354 18.2226C19.0415 17.9102 18.535 17.9102 18.2226 18.2226C17.9102 18.535 17.9102 19.0415 18.2226 19.354L19.354 20.4854C19.6664 20.7978 20.1729 20.7978 20.4854 20.4854C20.7978 20.1729 20.7978 19.6664 20.4854 19.354L19.354 18.2226Z" fill="black"/>
<path d="M4.64598 3.5146C4.33355 3.20216 3.82703 3.20216 3.5146 3.5146C3.20216 3.82703 3.20216 4.33355 3.5146 4.64598L4.64598 5.77736C4.95842 6.0898 5.46493 6.0898 5.77736 5.77736C6.0898 5.46493 6.0898 4.95842 5.77736 4.64598L4.64598 3.5146Z" fill="black"/>
</svg>
