<svg width="16" height="16" viewBox="0 0 16 16" fill="none" xmlns="http://www.w3.org/2000/svg">
<path d="M11.75 9.59781V11.9697C11.75 12.3092 11.6151 12.6349 11.375 12.875C11.1349 13.1151 10.8092 13.25 10.4697 13.25H2.03031C1.69076 13.25 1.36512 13.1151 1.12502 12.875C0.884915 12.6349 0.750019 12.3092 0.75 11.9697V11.6653C0.749969 8.09655 1.51408 4.56915 2.99094 1.32031L3.25 0.75H9.29531C9.56955 0.749995 9.83617 0.84018 10.0541 1.00666C10.272 1.17314 10.4291 1.40666 10.5013 1.67125L10.8691 3.02C11.4537 5.16371 11.75 7.3758 11.75 9.59781Z" fill="#EEDC9A"/>
<path d="M10.8691 3.02L10.5013 1.67125C10.4383 1.44052 10.3106 1.23267 10.1331 1.07237C9.95565 0.912065 9.73592 0.80603 9.5 0.766844V0.75H7.25V2.75H8.39431C7.30742 5.59672 6.75015 8.61816 6.75 11.6653V11.9697C6.75 12.3092 6.8849 12.6349 7.125 12.875C7.3651 13.1151 7.69075 13.25 8.03031 13.25H10.4697C10.8092 13.25 11.1349 13.1151 11.375 12.875C11.6151 12.6349 11.75 12.3092 11.75 11.9697V9.59781C11.75 7.3758 11.4537 5.16371 10.8691 3.02Z" fill="#E88604"/>
<path d="M8 3C8 3.19891 8.07902 3.38968 8.21967 3.53033C8.36032 3.67098 8.55109 3.75 8.75 3.75H2C1.80109 3.75 1.61032 3.67098 1.46967 3.53033C1.32902 3.38968 1.25 3.19891 1.25 3V2C1.25 1.66848 1.3817 1.35054 1.61612 1.11612C1.85054 0.881696 2.16848 0.75 2.5 0.75H9.25C8.91848 0.75 8.60054 0.881696 8.36612 1.11612C8.1317 1.35054 8 1.66848 8 2V3Z" fill="#ECE9C0"/>
<path d="M8 2.25H9.5V3C9.5 3.19891 9.42098 3.38968 9.28033 3.53033C9.13968 3.67098 8.94891 3.75 8.75 3.75C8.55109 3.75 8.36032 3.67098 8.21967 3.53033C8.07902 3.38968 8 3.19891 8 3V2.25Z" fill="#EEBE33"/>
<path d="M3.25 8.75C3.25 9.24568 3.34218 9.73703 3.52183 10.199L4.38016 12.4061C4.56274 12.8756 4.88289 13.279 5.29866 13.5634C5.71443 13.8478 6.20642 14 6.71017 14H11.7898C12.2936 14 12.7856 13.8478 13.2013 13.5634C13.6171 13.279 13.9373 12.8756 14.1198 12.4061L14.9782 10.199C15.1578 9.73703 15.25 9.24568 15.25 8.75H3.25Z" fill="#A5BEF8"/>
<path d="M15.25 8.75C15.25 9.20031 14.6666 9.61094 13.7078 9.92125C12.6097 10.2766 11.0194 10.5 9.25 10.5C7.48063 10.5 5.89031 10.2766 4.79219 9.92125C3.83344 9.61094 3.25 9.20031 3.25 8.75C3.25 7.78344 5.93625 7 9.25 7C12.5638 7 15.25 7.78344 15.25 8.75Z" fill="#A5BEF8"/>
<path d="M13.75 9.75C13.7495 9.80959 13.7351 9.86824 13.7078 9.92125C12.6097 10.2766 11.0194 10.5 9.25 10.5C7.48063 10.5 5.89031 10.2766 4.79219 9.92125C4.76495 9.86824 4.7505 9.80959 4.75 9.75C4.75 9.05968 6.76469 8.5 9.25 8.5C11.7353 8.5 13.75 9.05968 13.75 9.75Z" fill="#EEDC9A"/>
<path d="M11.3823 5.12299L13.3722 1.86686C13.4724 1.70279 13.6335 1.58499 13.8202 1.53912C14.0069 1.49324 14.2042 1.52301 14.3691 1.62193C14.4516 1.67143 14.5235 1.73678 14.5806 1.8142C14.6377 1.89162 14.6789 1.97958 14.7019 2.07302C14.7248 2.16645 14.7291 2.2635 14.7143 2.35858C14.6996 2.45366 14.6662 2.54487 14.616 2.62697L12.6261 5.88311C12.5259 6.04717 12.3648 6.16497 12.1781 6.21084C11.9914 6.25672 11.7941 6.22695 11.6292 6.12803C11.5467 6.07853 11.4749 6.01318 11.4177 5.93576C11.3606 5.85834 11.3194 5.77038 11.2964 5.67695C11.2735 5.58351 11.2693 5.48646 11.284 5.39138C11.2987 5.29631 11.3322 5.20509 11.3823 5.12299Z" fill="#A5BEF8"/>
<path d="M10.25 13.2499L12.2531 13.0678C12.3479 13.0591 12.4434 13.0704 12.5336 13.1007C12.6238 13.1311 12.7067 13.1799 12.777 13.2441C12.8472 13.3083 12.9034 13.3864 12.9418 13.4735C12.9802 13.5606 13 13.6547 13 13.7499C13 13.845 12.9802 13.9391 12.9418 14.0262C12.9034 14.1133 12.8472 14.1914 12.777 14.2556C12.7067 14.3198 12.6238 14.3686 12.5336 14.399C12.4434 14.4293 12.3479 14.4406 12.2531 14.4319L10.25 14.2499V13.2499Z" fill="#966342"/>
<path d="M10.5 12.25H3.25C2.42157 12.25 1.75 12.9216 1.75 13.75V13.75C1.75 14.5784 2.42157 15.25 3.25 15.25H10.5C11.3284 15.25 12 14.5784 12 13.75C12 12.9216 11.3284 12.25 10.5 12.25Z" fill="#723024"/>
<path d="M3.25 15.25C4.07843 15.25 4.75 14.5784 4.75 13.75C4.75 12.9216 4.07843 12.25 3.25 12.25C2.42157 12.25 1.75 12.9216 1.75 13.75C1.75 14.5784 2.42157 15.25 3.25 15.25Z" fill="#984E3C"/>
<path d="M3.00205 14.2951L1.49692 14.4319C1.40214 14.4406 1.3066 14.4293 1.2164 14.399C1.12621 14.3686 1.04333 14.3198 0.973049 14.2556C0.902772 14.1914 0.846642 14.1133 0.808238 14.0262C0.769834 13.9391 0.75 13.845 0.75 13.7499C0.75 13.6547 0.769834 13.5606 0.808238 13.4735C0.846642 13.3864 0.902772 13.3083 0.973049 13.2441C1.04333 13.1799 1.12621 13.1311 1.2164 13.1007C1.3066 13.0704 1.40214 13.0591 1.49692 13.0678L3.00205 13.2046C3.13812 13.217 3.26465 13.2798 3.35678 13.3806C3.44892 13.4815 3.5 13.6132 3.5 13.7499C3.5 13.8865 3.44892 14.0182 3.35678 14.1191C3.26465 14.22 3.13812 14.2827 3.00205 14.2951Z" fill="#AD7D4D"/>
<path d="M1.09255 12.3965C1.03136 12.2625 0.999792 12.1169 1 11.9697V11.6652C0.99937 9.06199 1.41018 6.47499 2.21723 4H7.69169C7.46196 4.72138 7.26308 5.45849 7.09947 6.19585L7.5876 6.30415C7.75948 5.52951 7.97147 4.75539 8.21744 4H8.75C9.01513 3.9997 9.26931 3.89425 9.45678 3.70678C9.64425 3.51931 9.7497 3.26513 9.75 3V2.25C9.75 2.21717 9.74354 2.18466 9.73097 2.15433C9.71841 2.124 9.7 2.09644 9.67678 2.07322C9.65357 2.05001 9.62601 2.03159 9.59567 2.01903C9.56534 2.00646 9.53283 2 9.5 2H8.25C8.2503 1.73487 8.35575 1.48069 8.54322 1.29322C8.7307 1.10575 8.98488 1.0003 9.25 1H9.29526C9.51454 1.00036 9.72764 1.07264 9.90191 1.20574C10.0762 1.33884 10.202 1.52542 10.26 1.73688L10.6279 3.0858C10.7152 3.40567 10.7971 3.73209 10.8716 4.05598L11.3589 3.94402C11.2829 3.61359 11.1993 3.28058 11.1103 2.95424L10.7424 1.60532C10.6553 1.28813 10.4666 1.00826 10.2052 0.808612C9.94384 0.608961 9.62418 0.50055 9.29526 0.5H2.5C2.10231 0.50045 1.72105 0.658629 1.43984 0.939836C1.15863 1.22104 1.00045 1.60231 1 2V3C1.00027 3.21377 1.06892 3.42185 1.1959 3.59382C1.32289 3.76578 1.50156 3.89262 1.70579 3.95577C0.906077 6.44742 0.499272 9.0484 0.500002 11.6652V11.9697C0.499685 12.1884 0.546575 12.4046 0.637468 12.6036L1.09255 12.3965ZM9.25 2.5V3C9.25 3.13261 9.19732 3.25979 9.10356 3.35355C9.00979 3.44732 8.88261 3.5 8.75 3.5C8.61739 3.5 8.49022 3.44732 8.39645 3.35355C8.30268 3.25979 8.25 3.13261 8.25 3V2.5H9.25ZM1.5 3V2C1.5003 1.73487 1.60575 1.48069 1.79322 1.29322C1.9807 1.10575 2.23488 1.0003 2.5 1H8.13288C7.88608 1.27458 7.74969 1.63081 7.75 2V3C7.74979 3.17559 7.79609 3.34811 7.8842 3.5H2C1.86744 3.49985 1.74035 3.44712 1.64662 3.35339C1.55288 3.25965 1.50015 3.13256 1.5 3Z" fill="black"/>
<path d="M13.0569 7.13997L12.9431 7.62685C14.4613 7.98183 15 8.45352 15 8.74959C15 9.00412 14.6387 9.29949 13.9708 9.56048C13.854 9.18865 13.3844 8.88121 12.5697 8.64481L12.4303 9.125C13.1247 9.32648 13.4617 9.56965 13.4968 9.72351C12.5035 10.0258 11.053 10.2496 9.25 10.2496C7.44693 10.2496 5.9964 10.0257 5.00312 9.72348C5.05309 9.48753 5.76607 9.08665 7.28417 8.87724L7.21584 8.38194C6.45416 8.48702 5.80686 8.64998 5.34392 8.85323C4.88773 9.0535 4.61485 9.29079 4.52933 9.56051C3.8613 9.29952 3.5 9.00413 3.5 8.74959C3.5 8.6442 3.58589 8.26976 4.69115 7.87648C5.53308 7.5769 6.71367 7.3676 8.01543 7.28714L7.98458 6.78809C6.63745 6.87135 5.4083 7.09059 4.52353 7.40541C3.26431 7.85349 3 8.3837 3 8.74959C2.99961 9.2763 3.09757 9.79845 3.28883 10.2892L3.79477 11.5902L4.26077 11.409L3.75484 10.108C3.69773 9.96102 3.64993 9.81061 3.61171 9.65763C3.93234 9.87191 4.37614 10.0633 4.93736 10.227C6.09273 10.564 7.62431 10.7496 9.25 10.7496C10.8757 10.7496 12.4073 10.564 13.5626 10.227C14.1239 10.0633 14.5677 9.87191 14.8883 9.65763C14.8501 9.81061 14.8023 9.96102 14.7452 10.108L13.8868 12.3151C13.8056 12.5244 13.6934 12.7203 13.554 12.8963L13.946 13.2067C14.1163 12.9915 14.2535 12.7521 14.3528 12.4963L15.2112 10.2892C15.4024 9.79845 15.5004 9.2763 15.5 8.74959C15.5 7.84612 13.9693 7.35332 13.0569 7.13997Z" fill="black"/>
<path d="M11.0713 5.20514C9.84333 5.65172 8.83226 6.55044 8.24477 7.7176L7.52539 9.15605L7.97259 9.37968L8.692 7.94118C9.19117 6.94964 10.0304 6.17076 11.0563 5.74682C11.0688 5.79551 11.0851 5.84317 11.1048 5.8894C10.4152 6.46999 9.79551 7.26138 9.3461 8.14032L8.61015 9.57001L9.0547 9.79886L9.79097 8.36856C10.2081 7.55275 10.7794 6.82035 11.4134 6.28332C11.4414 6.30445 11.4704 6.32409 11.5005 6.34216C11.5337 6.36197 11.5682 6.37977 11.6036 6.39548C11.5035 6.58293 11.3992 6.77794 11.2905 6.9805C11.0179 7.48942 10.737 8.01701 10.4478 8.56326L9.88088 9.63264L10.3226 9.86683L10.8899 8.79677C11.1775 8.25017 11.458 7.72345 11.7312 7.21663C11.8605 6.97543 11.9847 6.7435 12.1019 6.52361C12.1529 7.38011 11.9615 8.23364 11.5495 8.98628L11.1984 9.63003L11.6374 9.86944L11.9885 9.22575C12.4791 8.32965 12.6873 7.30609 12.5856 6.28952C12.6873 6.21481 12.7735 6.12096 12.8393 6.01323L14.8291 2.75708C14.9644 2.53557 15.0062 2.26939 14.9452 2.01709C14.8843 1.76479 14.7257 1.54703 14.5042 1.41168C14.2827 1.27634 14.0165 1.2345 13.7642 1.29536C13.5119 1.35623 13.2941 1.51482 13.1587 1.73625L11.1688 4.9924C11.128 5.05919 11.0953 5.13061 11.0713 5.20514ZM11.5955 5.25311L13.5853 1.99698C13.6181 1.94327 13.6611 1.89654 13.712 1.85947C13.7628 1.8224 13.8204 1.79571 13.8816 1.78092C13.9427 1.76614 14.0062 1.76354 14.0683 1.7733C14.1305 1.78305 14.1901 1.80496 14.2438 1.83776C14.2975 1.87057 14.3442 1.91364 14.3812 1.9645C14.4182 2.01536 14.4449 2.07302 14.4596 2.13418C14.4744 2.19534 14.4769 2.25881 14.4671 2.32096C14.4573 2.3831 14.4354 2.44271 14.4025 2.49637L12.4127 5.7525C12.3799 5.80621 12.3369 5.85294 12.286 5.89001C12.2352 5.92708 12.1776 5.95377 12.1164 5.96856C12.0553 5.98334 11.9918 5.98593 11.9296 5.97618C11.8675 5.96643 11.8079 5.94452 11.7542 5.91171C11.7005 5.87891 11.6538 5.83584 11.6168 5.78498C11.5797 5.73412 11.5531 5.67646 11.5384 5.6153C11.5236 5.55414 11.5211 5.49067 11.5309 5.42852C11.5407 5.36637 11.5626 5.30677 11.5955 5.25311Z" fill="black"/>
<path d="M12.9448 13.0598C12.8487 12.9723 12.7356 12.9057 12.6124 12.8642C12.4893 12.8227 12.3589 12.8073 12.2295 12.8188L11.9934 12.8403C11.8373 12.5838 11.6179 12.3718 11.3561 12.2247C11.0944 12.0775 10.7993 12.0002 10.499 12H3.24904C2.94869 12.0001 2.65342 12.0774 2.39159 12.2246C2.12977 12.3718 1.9102 12.5838 1.75399 12.8403L1.51861 12.8189C1.39276 12.8075 1.2659 12.8217 1.14569 12.8606C1.02549 12.8996 0.914422 12.9625 0.819215 13.0456C0.724007 13.1287 0.646631 13.2302 0.591761 13.344C0.536891 13.4579 0.505666 13.5816 0.499973 13.7079C0.49428 13.8341 0.514237 13.9602 0.558638 14.0785C0.603039 14.1968 0.670962 14.3049 0.758305 14.3962C0.845647 14.4875 0.950595 14.5602 1.06681 14.6098C1.18302 14.6594 1.30809 14.685 1.43445 14.6849C1.46242 14.6849 1.49053 14.6836 1.51859 14.6811L1.75397 14.6597C1.91093 14.9155 2.13066 15.127 2.39232 15.2741C2.65398 15.4212 2.94889 15.4989 3.24904 15.5H10.499C10.7289 15.5007 10.9567 15.4557 11.1691 15.3678C11.3815 15.2798 11.5743 15.1505 11.7363 14.9875C11.8351 14.8889 11.9218 14.7789 11.9945 14.6598L12.2298 14.6812C12.258 14.6837 12.2867 14.685 12.315 14.685C12.5034 14.6848 12.6874 14.6277 12.8428 14.5212C12.9982 14.4146 13.1178 14.2636 13.1859 14.0879C13.254 13.9122 13.2674 13.72 13.2243 13.5366C13.1813 13.3531 13.0839 13.1869 12.9448 13.0598ZM1.47332 14.1831C1.41485 14.1884 1.3559 14.1818 1.30005 14.1637C1.24419 14.1457 1.19257 14.1164 1.14831 14.0779C1.10404 14.0393 1.06804 13.9922 1.04248 13.9393C1.01692 13.8865 1.00232 13.829 0.999574 13.7703C0.996824 13.7117 1.00598 13.6531 1.02648 13.5981C1.04698 13.5431 1.07841 13.4928 1.11887 13.4502C1.15933 13.4077 1.20799 13.3738 1.26191 13.3505C1.31583 13.3273 1.37389 13.3152 1.43261 13.315C1.4461 13.315 1.45967 13.3156 1.47333 13.3169L2.97846 13.4537C3.0524 13.4604 3.12115 13.4945 3.17122 13.5494C3.22128 13.6042 3.24904 13.6758 3.24904 13.75C3.24904 13.8242 3.22128 13.8958 3.17122 13.9506C3.12115 14.0055 3.0524 14.0396 2.97846 14.0463H2.97847L1.47332 14.1831ZM2.34023 14.6064L3.02373 14.5443H3.02375C3.22194 14.5262 3.40624 14.4347 3.54043 14.2878C3.67463 14.1408 3.74904 13.949 3.74903 13.75C3.74903 13.551 3.67462 13.3592 3.54042 13.2122C3.40622 13.0652 3.22193 12.9738 3.02373 12.9558L2.33893 12.8935C2.34763 12.8843 2.3563 12.875 2.3653 12.8661C2.51067 12.7207 2.68963 12.6135 2.88634 12.5538C3.08305 12.4942 3.29143 12.484 3.49304 12.5241C3.69464 12.5642 3.88323 12.6534 4.04212 12.7838C4.201 12.9143 4.32528 13.0818 4.40393 13.2718C4.48258 13.4617 4.51318 13.668 4.49302 13.8726C4.47286 14.0772 4.40256 14.2736 4.28836 14.4445C4.17415 14.6154 4.01955 14.7555 3.83827 14.8524C3.65698 14.9493 3.4546 15 3.24904 15C3.0788 14.9994 2.91045 14.9641 2.75423 14.8965C2.59801 14.8288 2.45716 14.7301 2.34023 14.6064ZM11.3828 14.6339C11.267 14.7504 11.1293 14.8427 10.9776 14.9056C10.8259 14.9684 10.6632 15.0005 10.499 15H4.47212C4.63889 14.8373 4.77143 14.6429 4.86193 14.4283C4.95242 14.2136 4.99904 13.983 4.99904 13.75C4.99904 13.517 4.95242 13.2864 4.86193 13.0717C4.77143 12.8571 4.63889 12.6627 4.47212 12.5H10.499C10.7463 12.5 10.988 12.5733 11.1935 12.7107C11.3991 12.848 11.5593 13.0433 11.6539 13.2717C11.7485 13.5001 11.7733 13.7515 11.725 13.9939C11.6767 14.2364 11.5576 14.4592 11.3828 14.6339ZM12.315 14.185C12.3015 14.185 12.2879 14.1844 12.2748 14.1832L12.1971 14.1761C12.2666 13.8963 12.2664 13.6036 12.1963 13.3239L12.2747 13.3168C12.3332 13.3115 12.3922 13.3181 12.448 13.3362C12.5039 13.3543 12.5556 13.3835 12.5999 13.4221C12.6441 13.4607 12.6802 13.5078 12.7057 13.5607C12.7313 13.6136 12.7459 13.6712 12.7486 13.7298C12.7513 13.7885 12.7421 13.8471 12.7216 13.9022C12.701 13.9572 12.6695 14.0075 12.629 14.05C12.5885 14.0926 12.5398 14.1265 12.4858 14.1497C12.4318 14.1729 12.3737 14.1849 12.315 14.185L12.315 14.185Z" fill="black"/>
</svg>
