<svg width="21" height="21" viewBox="0 0 21 21" fill="none" xmlns="http://www.w3.org/2000/svg">
<rect x="0.5" y="0.5" width="20" height="20" rx="10" fill="white" stroke="#4779F1"/>
<path d="M15.3125 9.8125H11.1875V5.6875C11.1875 5.50516 11.1151 5.3303 10.9861 5.20136C10.8572 5.07243 10.6823 5 10.5 5C10.3177 5 10.1428 5.07243 10.0139 5.20136C9.88493 5.3303 9.8125 5.50516 9.8125 5.6875V9.8125H5.6875C5.50516 9.8125 5.3303 9.88493 5.20136 10.0139C5.07243 10.1428 5 10.3177 5 10.5C5 10.6823 5.07243 10.8572 5.20136 10.9861C5.3303 11.1151 5.50516 11.1875 5.6875 11.1875H9.8125V15.3125C9.8125 15.4948 9.88493 15.6697 10.0139 15.7986C10.1428 15.9276 10.3177 16 10.5 16C10.6823 16 10.8572 15.9276 10.9861 15.7986C11.1151 15.6697 11.1875 15.4948 11.1875 15.3125V11.1875H15.3125C15.4948 11.1875 15.6697 11.1151 15.7986 10.9861C15.9276 10.8572 16 10.6823 16 10.5C16 10.3177 15.9276 10.1428 15.7986 10.0139C15.6697 9.88493 15.4948 9.8125 15.3125 9.8125Z" fill="#4779F1"/>
</svg>
