<svg width="19" height="22" viewBox="0 0 19 22" fill="none" xmlns="http://www.w3.org/2000/svg">
<path d="M9.40274 21.4908H8.05423C4.14425 21.4908 0.974609 18.3211 0.974609 14.4111H16.4824C16.4824 18.3211 13.3127 21.4908 9.40274 21.4908Z" fill="black"/>
<path d="M16.0262 6.32822C15.9807 6.32822 15.9348 6.31912 15.8904 6.29955C15.7201 6.22404 15.6432 6.02545 15.7181 5.85487L16.535 4.00472C16.6105 3.83515 16.8087 3.75827 16.9797 3.83245C17.1499 3.90796 17.2268 4.10655 17.1519 4.27714L16.335 6.12729C16.2794 6.25338 16.156 6.32822 16.0262 6.32822Z" fill="black"/>
<path d="M16.0266 6.32825C15.8776 6.32825 15.7411 6.22845 15.701 6.07743L15.1481 3.99095C15.1002 3.81127 15.2078 3.62654 15.3878 3.57865C15.5671 3.53111 15.7519 3.63834 15.8001 3.81834L16.3533 5.90481C16.4012 6.0845 16.2936 6.26923 16.1136 6.31712C16.0843 6.32489 16.0553 6.32825 16.0266 6.32825Z" fill="black"/>
<path d="M16.027 6.32825C15.9053 6.32825 15.788 6.2625 15.7276 6.14688C15.6417 5.98204 15.7057 5.77805 15.8709 5.69211L17.7851 4.69458C17.9507 4.60829 18.1536 4.67266 18.2399 4.83786C18.3259 5.0027 18.2618 5.20669 18.0966 5.29262L16.1824 6.29016C16.1329 6.3161 16.0796 6.32825 16.027 6.32825Z" fill="black"/>
<path d="M10.75 14.4113L12.9133 7.19749C13.4396 6.00507 14.8329 5.46535 16.0253 5.9916C17.2177 6.51785 17.7574 7.9112 17.2312 9.10358L14.049 14.4113" fill="black"/>
<path d="M14.7018 9.82812L14.4297 10.4451L16.0101 11.1429L16.3597 10.56L14.7018 9.82812Z" fill="black"/>
<path d="M11.6465 11.4279L13.3041 12.1594L13.5762 11.5425L11.8413 10.7769L11.6465 11.4279Z" fill="black"/>
<path d="M16.2719 16.0967H12.4367C12.2505 16.0967 12.0996 16.2476 12.0996 16.4338C12.0996 16.62 12.2505 16.7709 12.4367 16.7709H16.0706C16.1488 16.5508 16.2155 16.3263 16.2719 16.0967Z" fill="black"/>
<path d="M4.53599 4.48611C3.0631 4.88077 1.54896 4.00658 1.1543 2.53369C1.89073 2.33636 2.63761 2.45631 3.24969 2.80967C3.86135 3.16284 4.33866 3.74965 4.53599 4.48611Z" fill="black"/>
<path d="M5.05742 6.38922C4.94987 6.41803 4.83937 6.35421 4.81056 6.24669L4.44099 4.86743C4.25586 4.17651 4.42558 3.44116 4.89502 2.90043C4.96803 2.81632 5.09531 2.80736 5.17936 2.88036C5.26341 2.95335 5.27243 3.08065 5.19943 3.1647C4.81791 3.6042 4.67996 4.20173 4.83038 4.76313L5.19995 6.14238C5.22876 6.24988 5.16497 6.3604 5.05742 6.38922Z" fill="black"/>
<path d="M5.42707 4.82687C7.57181 4.25219 9.63671 5.98065 9.44856 8.19318L9.27723 10.2037C9.26308 10.3699 9.23047 10.5317 9.18117 10.6862C9.1136 10.8972 9.01478 11.0953 8.88988 11.274L8.88962 11.2741C8.77663 11.436 8.64213 11.5819 8.48988 11.7084C8.13421 12.0029 7.67345 12.1389 7.21357 12.1027C7.10476 12.0943 6.99637 12.0958 6.88906 12.1064C6.79261 12.1161 6.69695 12.134 6.60375 12.159C6.40647 12.2118 6.21834 12.2978 6.04749 12.4151C5.92079 12.5019 5.78501 12.5725 5.643 12.6251C5.35793 12.7304 5.04877 12.7634 4.74503 12.7118C4.17632 12.6152 3.65491 12.2964 3.31054 11.8024L2.15719 10.1469C0.887728 8.32493 1.81175 5.79559 3.95649 5.22091L4.69191 5.02386L5.42707 4.82687Z" fill="black"/>
</svg>
