<svg width="19" height="14" viewBox="0 0 19 14" fill="none" xmlns="http://www.w3.org/2000/svg">
<path d="M17.473 12.3997H0.563641C0.252334 12.3997 0 12.1474 0 11.8361C0 11.5248 0.25237 11.2725 0.563641 11.2725H17.473C17.7843 11.2725 18.0366 11.5248 18.0366 11.8361C18.0366 12.1474 17.7843 12.3997 17.473 12.3997Z" fill="#1757EE"/>
<path d="M16.2698 13.5277H1.76782L1.04199 12.4004H16.9957L16.2698 13.5277Z" fill="#A5BEF8"/>
<path d="M16.91 10.143H1.12793V10.1459C1.12793 5.78785 4.66086 2.25488 9.01897 2.25488C13.3771 2.25488 16.91 5.78781 16.91 10.1459V10.143Z" fill="#A5BEF8"/>
<path d="M1.12793 10.1455H16.91V11.2728H1.12793V10.1455Z" fill="#4779F1"/>
<path d="M8.4541 1.12695H9.58287V2.25572H8.4541V1.12695Z" fill="#4779F1"/>
<path d="M10.1444 1.12728H7.88981C7.57851 1.12728 7.32617 0.874911 7.32617 0.563641C7.32617 0.252334 7.57854 0 7.88981 0H10.1444C10.4557 0 10.7081 0.25237 10.7081 0.563641C10.7081 0.874911 10.4557 1.12728 10.1444 1.12728Z" fill="#A5BEF8"/>
</svg>
